<svg xmlns="http://www.w3.org/2000/svg" width="78.367" height="62" viewBox="0 0 78.367 62"><g transform="translate(57.627 57.004)"><path d="M272.963,264.39c-.126,2,1.079,2.877.048,3.321s-2.452-.024-5.527.21c-2.817.216-2.194-1.373-2.194-1.373a15.637,15.637,0,0,0,4.921-1.852A14.534,14.534,0,0,1,272.963,264.39Z" transform="translate(-265.232 -264.39)" fill="#717072"/></g><path d="M276.771,220.13c-.815,7.888-4,11.323-4.022,14.392,0,0-.048,3.992-.12,5.365s-1.379,7.511-1.379,7.511,3.746.132,4.358.168,2.727-9.045,2.727-9.045Z" transform="translate(-210.015 -189.657)" fill="#047aa8"/><path d="M284.854,191.47c-3.776.761-6.294,7.265-6.294,7.265a19.935,19.935,0,0,0,1.888,2.518c.665.617,2.625-6.6,2.625-6.6Z" transform="translate(-212.944 -178.176)" fill="#047aa8"/><g transform="translate(66.966 0)"><path d="M288.771,188.723c-.282-1.828-.791-4.022-.791-4.022l4.7-1.63a6,6,0,0,0-.1,5.137C292.769,188.723,288.771,188.723,288.771,188.723Z" transform="translate(-283.683 -174.811)" fill="#d8ad8f"/><path d="M285.554,171.7c1.654-1.792,7.337-1.127,6.756,2.542-1.055,6.684-5.3,6.288-5.3,6.288a6.413,6.413,0,0,1-2.566-1.091,2.927,2.927,0,0,1-.611-2.164c-.39-.222-.791-.516-.647-.8a7.981,7.981,0,0,0,.8-.893A8.024,8.024,0,0,1,285.554,171.7Z" transform="translate(-281.748 -169.875)" fill="#e5c0a8"/><path d="M287.05,180.1c.132.042,1.433.456,1.588.5,0,0,4.394.18,5.3-6.288.306-2.158-4.22-3.261-6.108-3.459C288.92,172.58,289.5,178.233,287.05,180.1Z" transform="translate(-283.311 -169.92)" fill="#d8ad8f"/><path d="M292.5,172.068c-.288-.761-.192-1.427-1.924-1.786-1.678-.348-2.284-.677-3.627.228a3.167,3.167,0,0,0-.929,1.714,2.947,2.947,0,0,1,1.049.21c.378.2.971.084,1.337.947a3.7,3.7,0,0,1,.282,1.481s1.577,1,1.487,1.565,1.409,2.607,1.409,2.607,1.265-2.122,1.846-3.327C294.778,172.9,292.566,172.242,292.5,172.068Z" transform="translate(-282.898 -169.546)" fill="#7f3724"/><path d="M281.938,169.627c-.7-.27-1.313.168-1.073,1.085s.713.863,1.457,1.1a13.477,13.477,0,0,0,2.218.509Z" transform="translate(-280.812 -169.395)" fill="#033747"/><path d="M290.7,177.785c-.414-.539-2.626-3.764-2.626-3.764s-2.859-.366-3.627-1.145-.965-3.009-2.536-3.447a11.621,11.621,0,0,1,2.823.743,4.907,4.907,0,0,1,3.914-.785,5.181,5.181,0,0,1,2.919,1.792c.378.671,1.535,1.96.9,3.752A7.667,7.667,0,0,1,290.7,177.785Z" transform="translate(-281.252 -169.292)" fill="#047aa8"/><path d="M291.776,178.934c.33-.2.635-.557.911-.156s.336,2.1-.426,2.464S291.776,178.934,291.776,178.934Z" transform="translate(-285.183 -173.019)" fill="#d8ad8f"/><g transform="translate(0.658 0.006)"><path d="M284.446,172.885c-.773-.779-.965-3.009-2.536-3.447a11.622,11.622,0,0,1,2.823.743,4.907,4.907,0,0,1,3.914-.785,5.612,5.612,0,0,1,2.086.965c1.924,1.678-.869,3.968-1.99,4.64l-.671-.977S285.219,173.665,284.446,172.885Z" transform="translate(-281.91 -169.302)" fill="#019ae6"/></g></g><g transform="translate(68.139 58.149)"><path d="M290.37,266.3c-.024,2.008,1.031,2.949.024,3.441s-2.26-.024-5.323.36c-2.805.354-2.26-1.259-2.26-1.259a20.191,20.191,0,0,0,4.094-2.278A20.227,20.227,0,0,1,290.37,266.3Z" transform="translate(-282.769 -266.3)" fill="#aaa"/></g><path d="M286.808,216.65c.174,1.75,1.091,3.549.767,6.714-.18,1.708-1.972,5.982-.767,11.017a104.356,104.356,0,0,1,2.086,13.079l-5.125.156s-2.47-8.644-3.7-12.318c-.623-1.864-1.253-11.983-1.385-13.3-.438-4.364-.276-4.963-.276-4.963Z" transform="translate(-212.872 -188.262)" fill="#019ae6"/><path d="M287.9,189.91c.006,1.415,1.019,2.434.186,4.052s-.42,8.194-.533,10.43-.911,2.781-1.331,2.841-5.784.036-7.685-.647c-.575-.2-2.278-1.445,1.8-10.664.366-.833.312-1.475.689-2.134a9.358,9.358,0,0,1,3.6-3.243A15.869,15.869,0,0,0,287.9,189.91Z" transform="translate(-212.595 -177.551)" fill="#019ae6"/><g transform="translate(70.136 12.197)"><path d="M293.083,196.33c-.138,1.816-1.96,5.635-2.08,7.876s-.372,2.829-.791,2.889c-.18.024-2.368.024-4.112-.048a52.524,52.524,0,0,1,1.547-6.408c1.391-.372,1.457-5.119,1.882-6.54.611-2.068.384-2.835-.527-3.746a26.413,26.413,0,0,0,2.637-.713A11.034,11.034,0,0,1,293.083,196.33Z" transform="translate(-286.1 -189.64)" fill="#047aa8"/></g><path d="M292.435,189.579l-.2-.869a13.018,13.018,0,0,1-4.388,1.067,6.836,6.836,0,0,0-.144.791S289.276,190.808,292.435,189.579Z" transform="translate(-216.605 -177.07)" fill="#047aa8"/><path d="M198.2,194.06c.629,1.157,2.877,7.289,3.381,7.763s3.908,2.769,4.963,3.567c1.061.234,2.23.468,2.23.468a5.761,5.761,0,0,1,.947,1.475c.27.725-.324,1.361-1.241,1.732,0,0-1.564-1.271-1.582-1.762s-2.781-.983-3.674-1.247-4.717-3.171-5.263-4.628S198.2,194.06,198.2,194.06Z" transform="translate(-180.582 -179.214)" fill="#d8ad8f"/><path d="M199.038,194.11c.521.965,2.733,7.145,2.733,7.145a2.168,2.168,0,0,0-1.714-.288c-.851.3-1.367-4.07-1.367-4.07Z" transform="translate(-180.95 -179.234)" fill="#047aa8"/><g transform="translate(13.715 0.966)"><path d="M195.269,189.108c.989-1.553,2.332-3.345,2.332-3.345l-3.627-3.363A5.944,5.944,0,0,1,192,187.117C191.624,187.5,195.269,189.108,195.269,189.108Z" transform="translate(-191.974 -175.509)" fill="#d8ad8f"/><path d="M202.415,174.443c-.785-2.3-6.228-3.968-7.169-.4-1.714,6.51,2.314,7.852,2.314,7.852a6.39,6.39,0,0,0,2.775.036c.516-.138,1.013-.809,1.421-1.726.45-.048.929-.15.911-.468a8.041,8.041,0,0,1-.366-1.133A8,8,0,0,0,202.415,174.443Z" transform="translate(-193.115 -171.334)" fill="#d8ad8f"/><path d="M202.062,173.836c-1.8-.581-6.36-1.385-6.947.7-1.762,6.252,2.314,7.852,2.314,7.852.162.012,1.511.162,1.648.174C197.584,179.872,200.384,174.957,202.062,173.836Z" transform="translate(-193.055 -171.818)" fill="#e5c0a8"/><path d="M196.683,172.616c.569-.581.749-1.223,2.47-.857,1.672.354,2.35.3,3.213,1.66a3.147,3.147,0,0,1,.162,1.936,2.921,2.921,0,0,0-1.037-.228c-.42.03-.917-.312-1.6.324a3.842,3.842,0,0,0-.851,1.241s-1.834.276-1.978.827-2.326,1.81-2.326,1.81-.306-2.44-.348-3.764C194.28,172.46,196.551,172.754,196.683,172.616Z" transform="translate(-192.939 -171.203)" fill="#7f3724"/><g transform="translate(1.002 0.005)"><path d="M210.323,175.45c.743.03,1.127.683.539,1.415s-1,.5-1.768.426a13.812,13.812,0,0,1-2.224-.426Z" transform="translate(-198.943 -172.729)" fill="#033747"/><path d="M194.14,177.828c.593-.324,3.9-2.374,3.9-2.374s2.751.809,3.764.414,2.086-2.356,3.686-2.122a11.43,11.43,0,0,0-2.871-.45,4.865,4.865,0,0,0-3.249-2.284,5.166,5.166,0,0,0-3.375.462c-.611.456-2.182,1.169-2.326,3.057A7.656,7.656,0,0,0,194.14,177.828Z" transform="translate(-193.646 -170.911)" fill="#019ae6"/></g><path d="M199.485,180.04c-.222-.312-.36-.761-.767-.51s-1.151,1.78-.6,2.416S199.485,180.04,199.485,180.04Z" transform="translate(-194.357 -174.33)" fill="#e5c0a8"/><g transform="translate(4.385)"><path d="M204.055,175.859c1.013-.4,2.086-2.356,3.686-2.122a11.43,11.43,0,0,0-2.871-.45A4.865,4.865,0,0,0,201.622,171a5.558,5.558,0,0,0-2.284.042,4.548,4.548,0,0,1-.048,5.023c.569-.354,1-.617,1-.617S203.042,176.26,204.055,175.859Z" transform="translate(-199.29 -170.903)" fill="#047aa8"/></g></g><g transform="translate(0 51.231)"><path d="M171.238,255.071c-.881.228-2.362,1.3-2.116,2.038.689,2.074,1.385,1.223,2.524,4.316.539,1.463,1.708,1.061,2.685,1.139s1.3-.893-.078-1.87c-.4-.276-.222-3.662-.3-4.154-.911.06-.971.072-1.247-1.139S171.238,255.071,171.238,255.071Z" transform="translate(-169.095 -254.759)" fill="#717072"/></g><g transform="translate(16.081 57.051)"><path d="M196.323,264.469c.066,2-.965,2.955.048,3.423s2.248-.072,5.3.252c2.8.3,2.224-1.3,2.224-1.3a20.193,20.193,0,0,1-4.118-2.182A20.053,20.053,0,0,0,196.323,264.469Z" transform="translate(-195.923 -264.469)" fill="#717072"/></g><path d="M183.208,214.5c.5,3.327,3.369,4.13,3.159,6.522a27.429,27.429,0,0,1-4.118,12.114c-1.1,1.481-6.48,9.285-6.48,9.285l-3.369-3.908s3.171-7.457,4.885-9.243,3.279-12.6,3.279-12.6Z" transform="translate(-170.419 -187.401)" fill="#047aa8"/><path d="M183.26,214.67c-.174,1.738-.719,2.715-.39,5.862.174,1.7,2.847,8.02,4.454,12.486.534,1.487,2.805,11.689,2.805,11.689l5.533-.108s-1.756-11.5-2.23-13.4c-.815-3.249-2.224-9.891-2.092-11.2.438-4.34.27-4.939.27-4.939Z" transform="translate(-174.571 -187.469)" fill="#019ae6"/><path d="M189.625,189.06c-.575,1.289-1.9,1.81-1.792,3.615s-2.9,7.631-3.692,9.717-.282,2.9.072,3.117,7.013,2.907,7.457,3.129c1.5.749,2.314-.563,2.1-11.179-.018-.905.3-1.469.222-2.218a9.222,9.222,0,0,0-1.648-4.292A16.147,16.147,0,0,1,189.625,189.06Z" transform="translate(-174.954 -177.211)" fill="#047aa8"/><g transform="translate(8.48 11.556)"><path d="M186.681,193c-.6,1.708-1.99,7-2.775,9.087s-.791,2.727-.438,2.949a17.838,17.838,0,0,0,2.278.983c-.384-.911-1.2-1.2,2.524-11.137.761-2.026.216-.671.4-2.134.27-2.128.605-2.643,1.81-3.111a7.994,7.994,0,0,1-1.307-1.067C188.288,189.451,188.012,189.217,186.681,193Z" transform="translate(-183.242 -188.57)" fill="#019ae6"/></g><path d="M192.67,188.457l.533-.707a8.71,8.71,0,0,0,3.075,2.524,2.243,2.243,0,0,1-.132.551S195.056,190.849,192.67,188.457Z" transform="translate(-178.538 -176.686)" fill="#019ae6"/><g transform="translate(12.682 14.098)"><path d="M192.277,193.116a2.03,2.03,0,0,1,2.9.857c.905,1.5.072,3.854.474,7.816-.653.845-4.376,1.1-5.011.414s-.318-5.323-.246-5.952A5.639,5.639,0,0,1,192.277,193.116Z" transform="translate(-190.251 -192.811)" fill="#019ae6"/></g><path d="M191.62,201.66c.078,2.847.977,7.481,1.139,9.189s1.822,4.394,2.278,6.666a10.493,10.493,0,0,1,0,1.624l1.624,2.685.246-5.119-1.139-2.278s-.977-3.656-.977-4.064.569-8.943.569-8.943Z" transform="translate(-178.118 -182.162)" fill="#e5c0a8"/><g transform="translate(17.818 10.555)"><path d="M247.787,229.92a.146.146,0,0,1-.144.144H204.634a.146.146,0,0,1-.144-.144v-5.76a.147.147,0,0,1,.144-.15h43.009a.147.147,0,0,1,.144.15Z" transform="translate(-201.091 -201.765)" fill="#2f7c01"/><path d="M226.86,197.89a1.2,1.2,0,0,1-1.115,1.271h-17.03a1.2,1.2,0,0,1-1.115-1.271v-9.7a1.2,1.2,0,0,1,1.115-1.271h17.03a1.2,1.2,0,0,1,1.115,1.271Z" transform="translate(-202.337 -186.908)" fill="#2f7c01"/><path d="M260.05,197.869a1.2,1.2,0,0,1-1.115,1.271H241.9a1.2,1.2,0,0,1-1.115-1.271v-9.7A1.2,1.2,0,0,1,241.9,186.9h17.03a1.2,1.2,0,0,1,1.115,1.271Z" transform="translate(-215.632 -186.9)" fill="#2f7c01"/><path d="M204.78,211.3l1.211-2.548a1.993,1.993,0,0,1,1.648-.9h37.71a1.617,1.617,0,0,1,1.487.9l.809,2.548Z" transform="translate(-201.207 -195.292)" fill="#41ba03"/><path d="M226.181,218.027a1.159,1.159,0,0,1-1.139,1.181H205.279a1.159,1.159,0,0,1-1.139-1.181v-3.836a1.159,1.159,0,0,1,1.139-1.181h19.763a1.159,1.159,0,0,1,1.139,1.181Z" transform="translate(-200.951 -197.359)" fill="#2f7c01"/><path d="M262.52,217.907a1.142,1.142,0,0,1-1.1,1.181H242.253a1.142,1.142,0,0,1-1.1-1.181v-3.836a1.142,1.142,0,0,1,1.1-1.181h19.164a1.142,1.142,0,0,1,1.1,1.181Z" transform="translate(-215.776 -197.311)" fill="#2f7c01"/><rect width="2.955" height="19.637" transform="translate(46.935 10.61)" fill="#7f3724"/><rect width="2.955" height="19.637" transform="translate(0 10.61)" fill="#7f3724"/></g><path d="M284.9,202.947a50.592,50.592,0,0,0-1.529,5.239c-.228.635-2.679,6.911-3.243,7.769a5.175,5.175,0,0,0-1.828,1s-2.14,2.128-1.5,2.542c.809.522,2.847-.539,3.261-.647a9.105,9.105,0,0,0,2.14-2.272c.384-.551,4.328-6.672,4.4-7.049s1.523-5.485,1.523-5.485S285.761,201.478,284.9,202.947Z" transform="translate(-212.191 -182.592)" fill="#e5c0a8"/><g transform="translate(70.891 14.865)"><path d="M292.683,194.426c-.857-.5-1.588-.551-2.643.605-1.187,1.3-1.5,3.848-2.679,7.673.474.959,4.382,1.559,5.143,1.007s1.277-5.623,1.337-6.252S293.948,195.157,292.683,194.426Z" transform="translate(-287.36 -194.09)" fill="#047aa8"/></g></svg>