<?xml version="1.0" encoding="UTF-8"?>
<svg viewBox="0 0 60.099 68.727" xmlns="http://www.w3.org/2000/svg">
<path transform="translate(-231.06 -191.08)" d="m269.09 229.57c0.517 1.36 2.6 3.019 5 3.889 8.813 3.209 12.594 2.978 15.4 11.192a38.848 38.848 0 0 1-13.709 9.41h-29.335a38.914 38.914 0 0 1-12.743-8.418c0.231-14.2 15.871-5.943 19.557-16.074a14.092 14.092 0 0 0 0.286-6.854l7.63 0.15 7.63-0.15a13.929 13.929 0 0 0 0.284 6.855z" fill="#f0c17d" fill-rule="evenodd"/>
<path transform="translate(-223.8 -191.08)" d="m261.83 229.58a6.872 6.872 0 0 0 3.668 3.219c9.138 3.984 15.761 3.74 16.727 11.845a38.843 38.843 0 0 1-13.708 9.41h-14.669v-31.205h0.082l7.629-0.15a13.864 13.864 0 0 0 0.271 6.881z" fill="#e0af6a" fill-rule="evenodd"/>
<path transform="translate(-227.23 -197.79)" d="M257.459,233.991h-.122a7.532,7.532,0,0,1-3.236-.381c-.83-.354-1.238-1.169-2.38-2.271-.979-.938-2.72-1.89-3.141-2.91-.517-1.237-.394-2.6-.612-4.406-.9.5-1.877-2.094-2.067-2.937-.286-1.251-1.183-3.372-1.469-4.814-.163-.816-.068-1.469.218-1.673.6-.449,1.224-.19,2.135,1.088a23.7,23.7,0,0,1,.15-4.637c1.251-7.153,18.726-11.165,20.684-.027a24.835,24.835,0,0,1,.163,4.651c.9-1.251,1.523-1.509,2.121-1.061.272.2.367.857.218,1.673-.286,1.428-1.183,3.563-1.469,4.814-.19.843-1.142,3.372-2.026,2.951-.2,1.754-.1,3.073-.6,4.3-.422,1.02-2.162,2-3.128,2.937-1.142,1.115-1.537,1.931-2.366,2.3A7.575,7.575,0,0,1,257.459,233.991Z" fill="#ffdba7" fill-rule="evenodd"/>
<path transform="translate(-223.81 -197.78)" d="M254.04,233.99h-.19V204.155c4.692-.408,9.383,1.4,10.349,6.867a24.837,24.837,0,0,1,.163,4.651c.9-1.251,1.523-1.509,2.121-1.061.272.2.367.857.218,1.673-.286,1.428-1.183,3.563-1.469,4.814-.19.843-1.142,3.372-2.026,2.951-.2,1.754-.1,3.073-.6,4.3-.422,1.02-2.162,2-3.128,2.937-1.142,1.115-1.537,1.931-2.366,2.3A7.574,7.574,0,0,1,254.04,233.99Z" fill="#f0c17d" fill-rule="evenodd"/>
<path transform="translate(-226.95 -199.45)" d="m249.05 210.93c-1.482 1.768-1.836 8.69-1.741 11.1-2.5-9.084-3.848-15.584 1.591-19.664 7.139-5.372 15.163-2.04 16.455 0.136 5.249 2.9 3.427 11.056 1.849 18.25a54.037 54.037 0 0 0-2.38-12.2c-3.983-2.517-11.922 4.944-15.774 2.378z" fill="#703100" fill-rule="evenodd"/>
<path transform="translate(-223.81 -199.46)" d="M253.85,199.462c4.175-.122,7.561,1.673,8.377,3.033,5.249,2.9,3.427,11.056,1.849,18.25a54.039,54.039,0,0,0-2.38-12.2c-1.972-1.238-4.909-.054-7.833,1.169V199.462Z" fill="#4f2200" fill-rule="evenodd"/>
<path transform="translate(-231.76 -188.94)" d="M270.914,228.66a.954.954,0,0,0,.136.109l.082-.014v.082c4.828,4.012,14.185,2.094,18.754,8.812,2.53,3.712,1.836,11.083,1.972,20.017h-60.1c.136-8.934-.558-16.319,1.972-20.017,4.638-6.813,14.212-4.746,18.972-8.989l.054.177,9.1.979,9.017-1.006Z" fill="#019ae6" fill-rule="evenodd"/>
<path transform="translate(-223.8 -188.94)" d="M262.958,228.66a.958.958,0,0,0,.136.109l.082-.014v.082c4.828,4.012,14.184,2.094,18.753,8.812,2.529,3.712,1.836,11.083,1.972,20.017H253.86V229.789h.054l9.016-1.006Z" fill="#019ae6" fill-rule="evenodd"/>
<g transform="translate(20.741 36.563)" fill="#047aa8" fill-rule="evenodd">
<path transform="translate(-244.57 -226.34)" d="m261.42 226.34a4.138 4.138 0 0 0 1.781 3.155l-4.583 7.819-4.841-6.772c2.407-1.333 6.704-2.992 7.643-4.202z"/>
<path transform="translate(-247.01 -226.34)" d="m248.79 226.34a4.138 4.138 0 0 1-1.781 3.155l4.583 7.819 4.841-6.772c-2.421-1.333-6.704-2.992-7.643-4.202z"/>
</g>
<g transform="translate(14.05 40.741)" fill-rule="evenodd">
<g transform="translate(0)">
<path transform="translate(-242.09 -229.41)" d="m247.57 229.41h0.177l11.967 17.9h-6.922l-10.7-15.992a20.04 20.04 0 0 0 5.478-1.908z" fill="#41ba03"/>
<path transform="translate(-241.56 -229.2)" d="m245.41 229.98 11.45 17.121h-2.244l-11.042-16.509q0.938-0.265 1.836-0.612z" fill="#047aa8"/>
</g>
<g transform="translate(14.374)">
<path transform="translate(-252.66 -229.41)" d="m264.8 229.41h-0.15l-11.994 17.9h6.922l10.722-15.996a19.538 19.538 0 0 1-5.5-1.904z" fill="#41ba03"/>
<path transform="translate(-252.04 -229.2)" d="m265.83 229.99-11.464 17.11h2.244l11.056-16.5q-0.939-0.263-1.836-0.61z" fill="#047aa8"/>
</g>
</g>
<g transform="translate(21.824 50.45)" fill-rule="evenodd">
<path transform="translate(-247.81 -236.55)" d="M256.025,236.55c.775,0,.857,1.251,1.55,1.4s1.5-.857,2.108-.571c.707.34.231,1.5.789,1.931s1.713-.122,2.149.394c.49.612-.449,1.442-.136,2.081s1.6.639,1.754,1.292c.177.762-1.02,1.1-1.02,1.822s1.169,1.265,1.02,1.931c-.177.762-1.4.558-1.713,1.2s.5,1.645.082,2.176c-.49.612-1.5-.109-2.053.34s-.258,1.7-.87,2c-.707.34-1.305-.748-2-.6s-.979,1.414-1.645,1.428c-.775,0-.857-1.237-1.55-1.4s-1.5.857-2.108.571c-.707-.34-.231-1.5-.789-1.931s-1.713.122-2.149-.394c-.49-.612.449-1.441.136-2.081s-1.6-.639-1.754-1.292c-.177-.762,1.02-1.1,1.02-1.822s-1.169-1.265-1.02-1.931c.177-.762,1.4-.558,1.713-1.2s-.5-1.645-.082-2.176c.49-.612,1.509.109,2.053-.34s.272-1.7.87-2c.707-.34,1.305.748,2,.6S255.359,236.564,256.025,236.55Z" fill="#fdb813"/>
<path transform="translate(-245.61 -236.55)" d="M253.9,236.55c.721.068.8,1.251,1.469,1.4.694.163,1.5-.857,2.108-.571.707.34.231,1.5.789,1.931s1.713-.122,2.149.394c.49.612-.449,1.442-.136,2.081s1.6.639,1.754,1.292c.177.762-1.02,1.1-1.02,1.822s1.169,1.265,1.02,1.931c-.177.762-1.4.558-1.713,1.2s.5,1.645.082,2.176c-.489.612-1.5-.109-2.053.34s-.258,1.7-.87,2c-.707.34-1.306-.748-2-.6-.666.15-.952,1.333-1.577,1.428V236.55Z" fill="#fc9e0a"/>
<path transform="translate(-247.2 -235.89)" d="m255.42 238.38a5.929 5.929 0 1 1-5.929 5.929 5.925 5.925 0 0 1 5.929-5.929zm0 0.87a5.059 5.059 0 1 0 5.059 5.059 5.067 5.067 0 0 0-5.059-5.059z" fill="#fc9e0a"/>
<path transform="translate(-245.61 -235.89)" d="M253.9,238.38a5.929,5.929,0,0,1,0,11.858v-.87a5.059,5.059,0,0,0,0-10.117v-.87Z" fill="#ed8200"/>
</g>
</svg>
