<?xml version="1.0" encoding="UTF-8"?>
<svg enable-background="new 0 0 159.2 144.7" version="1.1" viewBox="0 0 159.2 144.7" xml:space="preserve" xmlns="http://www.w3.org/2000/svg" xmlns:xlink="http://www.w3.org/1999/xlink">
<style type="text/css">
	.st0{fill:#2B3336;}
	.st1{fill:#353F43;}
	.st2{fill:#2B7201;}
	.st3{fill:#EFF3FC;}
	.st4{fill:#41BA03;}
	.st5{fill:#266302;}
	.st6{clip-path:url(#a);}
	.st7{fill:#3A9902;}
	.st8{fill:#3C9B04;}
	.st9{fill:#A2A7AB;}
	.st10{fill:#121315;}
	.st11{fill:#1C1F22;}
	.st12{fill:#1A1C1F;}
	.st13{fill:#0F1112;}
	.st14{fill:#181B1D;}
	.st15{fill:#16181A;}
	.st16{fill:#872220;}
	.st17{fill:#3D1E0C;}
	.st18{fill:#643114;}
	.st19{fill:#552A11;}
	.st20{fill:#2F1709;}
	.st21{fill:#351A0A;}
	.st22{fill:#211006;}
	.st23{fill:#2A1508;}
	.st24{fill:#271308;}
	.st25{fill:#371B0B;}
	.st26{fill:#FEC111;}
	.st27{fill:#657377;}
	.st28{fill:#DE8E0E;}
	.st29{fill:#FFAA00;}
	.st30{fill:#C5975B;}
	.st31{fill:#DAAF6A;}
	.st32{fill:#EFD996;}
	.st33{fill:#F7ECEA;}
	.st34{fill:#C2AB9D;}
	.st35{fill:#5C4123;}
	.st36{opacity:0.5;}
	.st37{fill:#D2BD95;}
	.st38{fill:#BB884F;}
	.st39{fill:#E0B477;}
	.st40{fill:#EFCD90;}
	.st41{fill:#E4CDBF;}
	.st42{opacity:0.5;fill:#E4CDBF;enable-background:new    ;}
	.st43{opacity:0.6;}
	.st44{opacity:0.6;fill:#C2AB9D;enable-background:new    ;}
	.st45{fill:#818181;}
	.st46{fill:#CFACAA;}
	.st47{fill:#585657;}
	.st48{fill:#4B4B4B;}
	.st49{fill:#5D5D5D;}
	.st50{fill:#C5C3CE;}
	.st51{opacity:0.2;fill:#BB884F;enable-background:new    ;}
	.st52{fill:#CB9558;}
	.st53{fill:#F5D09C;}
	.st54{fill:#2B2B2B;}
	.st55{fill:#006187;}
</style>
<g transform="translate(-157.86 -162.7)">
	<g transform="translate(157.86 162.7)">
		
			<g transform="translate(.716 102.93)">
				<path class="st0" d="m6.1 10.1 2.9-1.7c0.7-0.5 1.1-1.4 1.1-2.3s-0.2-1.9-0.6-2.7l-2.9 1.8c0.4 0.8 0.6 1.7 0.6 2.6 0.1 0.9-0.3 1.8-1.1 2.3z"/>
				<path class="st0" d="m6.1 10.1 2.9-1.7c0.7-0.5 1.1-1.4 1.1-2.3-0.2-2.4-1.5-4.7-3.6-6.1l-2.9 1.7c2.1 1.4 3.4 3.6 3.6 6.2 0.1 0.8-0.3 1.7-1.1 2.2z"/>
				<g transform="translate(0 1.189)">
					<path class="st1" d="m3.6 0.5c-2-1.1-3.6-0.2-3.6 2 0.1 2.5 1.5 4.8 3.6 6.2 2 1.2 3.6 0.2 3.6-2-0.2-2.6-1.5-4.8-3.6-6.2z"/>
				</g>
			</g>
			<g transform="translate(0 22.395)">
				
					<path class="st2" d="m37.8 0.7 20.8 12.1 1.8 1.1c0.8-0.5 1.7-0.7 2.7-0.6h0.2c0.2 0.1 0.4 0.1 0.6 0.2l-0.7-0.4-2.2-1.3-0.4-0.2-19.3-11.3c-0.2-0.1-0.4-0.2-0.6-0.2-1-0.2-2.1 0-2.9 0.6z"/>
					<path class="st2" d="m0 28.2 0.2 56.5c-0.2 1.3 0.4 2.5 1.4 3.2l19.9 11.6 1.5 0.9 1.2 0.7c-1-0.7-1.6-1.9-1.5-3.2l-0.2-56.5-1.5-0.9-21-12.3z"/>
					<path class="st3" d="m22.6 85.7h0.1v12.1c-0.1 1.2 0.4 2.5 1.4 3.2l-1.6-0.9 0.1-14.4z"/>
					<g transform="translate(4.955 .678)">
						<path class="st4" d="M22.6,32.1L0,18.9L32.8,0l22.6,13.1L22.6,32.1z"/>
					</g>
					<g transform="translate(0 19.623)">
						<path class="st5" d="m22.6 21.8-22.6-13.2c0.2-3.5 2-6.7 5-8.6l22.6 13.1c-3 2-4.8 5.2-5 8.7z"/>
						
							<defs>
								<path id="b" d="m22.6 21.8-22.6-13.2c0.2-3.5 2-6.7 5-8.6l22.6 13.1c-3 2-4.8 5.2-5 8.7z"/>
							</defs>
							<clipPath id="a">
								<use xlink:href="#b"/>
							</clipPath>
							<g class="st6">
								<path class="st7" d="m22.6 21.8-22.6-13.2c0.1-1.6 0.5-3.2 1.3-4.7l22.6 13.1c-0.8 1.5-1.3 3.1-1.3 4.8z"/>
								<path class="st4" d="m23.9 17.1-22.6-13.2c0.9-1.6 2.1-2.9 3.7-3.9l22.6 13.1c-1.6 1-2.8 2.4-3.7 4z"/>
							</g>
						
					</g>
					<g transform="translate(22.599 13.135)">
						<path class="st8" d="m37.8 0.7c2.7-1.6 5-0.3 5 2.9l0.1 56.4c-0.2 3.5-2 6.7-5 8.6l-32.7 19c-2.7 1.6-5 0.3-5-2.9l-0.2-56.5c0.2-3.5 2-6.7 5-8.6l32.8-18.9z"/>
					</g>
				
			</g>
			<g transform="translate(21.078 45.496)">
				
					<path class="st3" d="m0.1 72.8c-0.1 1.2 0 2.4 0.3 3.6l1.6 0.9-0.3-1.8v-0.7l0.1-56.9c0.2-3.3 1.9-6.2 4.6-8.1l13.5-7.8-0.2-2-14.1 8.2c-3.2 2.1-5.2 5.5-5.5 9.2v0.4 55z"/>
				
			</g>
			<g transform="translate(25.858 34.203)">
				
					<path class="st3" d="m0 20 1.7 1 32.8-19c0.8-0.5 1.7-0.7 2.7-0.6h0.2c0.2 0.1 0.4 0.1 0.6 0.2l-2.8-1.6c-0.9 0.2-1.7 0.5-2.5 1l-1.3 0.7-30.7 17.8c-0.2 0.1-0.5 0.3-0.7 0.5z"/>
				
			</g>
			<g transform="translate(16.561)">
				<path class="st9" d="m15.6 31c0.5 0 1-0.4 1-1v-29c0-0.3-0.2-0.7-0.5-0.8-0.3-0.2-0.7-0.2-1 0l-11.5 6.6c-0.5 0.2-0.6 0.8-0.4 1.3 0.3 0.5 0.9 0.6 1.3 0.4l10-5.8v27.3c0.1 0.6 0.5 1 1.1 1z"/>
				<g transform="translate(3.304 .322)">
					
						<g transform="translate(0 5.072)">
							<path class="st10" d="m2 4.2-2-1.1v-3.1l2 1.1v3.1z"/>
						</g>
						
							<path class="st11" d="M2,6.2L0,5.1L8.8,0l2,1.2L2,6.2z"/>
						
						<g transform="translate(1.959 1.155)">
							<path class="st12" d="m8.8 0v3.1l-8.8 5v-3.1l8.8-5z"/>
						</g>
					
				</g>
				<path class="st9" d="m1 39.4c0.5 0 1-0.4 1-1v-28.4l2.6-1.5c0.5-0.3 0.6-0.9 0.4-1.4-0.3-0.4-0.9-0.6-1.3-0.4l-3.2 1.9c-0.3 0.2-0.5 0.5-0.5 0.8v29c0 0.6 0.4 1 1 1-0.1 0 0 0 0 0z"/>
			</g>
			<g transform="translate(7.236 67.814)">
				
					<g transform="translate(2.807 1.623)">
						<path class="st13" d="M0,36.8l1.3-0.7L1.4,0L0.1,0.7L0,36.8z"/>
					</g>
					<g transform="translate(.102)">
						<path class="st14" d="M2.8,2.4l1.3-0.7L1.3,0L0,0.7L2.8,2.4z"/>
					</g>
					<g transform="translate(0 .746)">
						<path class="st15" d="M0.1,0L0,36.1l2.8,1.6L2.9,1.6L0.1,0z"/>
					</g>
				
			</g>
			<g transform="translate(27.028 39.651)">
				
					<g transform="translate(33.006)">
						
							<path class="st2" d="M2.2,0.7l-1-0.6C0.8-0.1,0.4,0,0,0.2l1,0.6C1.3,0.5,1.8,0.5,2.2,0.7z"/>
						
					</g>
					<g transform="translate(.029 33.545)">
						
							<path class="st2" d="M1,0.6L0,0c0,0.4,0.1,0.8,0.5,1.1l1,0.6C1.1,1.4,0.9,1,1,0.6z"/>
						
					</g>
					<g transform="translate(0 21.237)">
						<path class="st2" d="m1 0.6-1-0.6v12.3l1 0.6v-12.3z"/>
					</g>
					<g transform="translate(1.696 .217)">
						<path class="st2" d="M32.3,0.6l-1-0.6L0,18.1l1,0.6L32.3,0.6z"/>
					</g>
					<g transform="translate(0 18.299)">
						
							<path class="st2" d="M2.7,0.6L1.7,0C0.7,0.7,0.1,1.7,0,2.9l1,0.6C1,2.3,1.7,1.2,2.7,0.6z"/>
						
					</g>
					<g transform="translate(.979 .548)">
						<path class="st4" d="m1.7 18.3c-1 0.7-1.6 1.7-1.7 2.9v12.3c0 1.1 0.8 1.5 1.7 1l31.3-18c1-0.7 1.6-1.7 1.7-2.9v-12.3c0-1.1-0.8-1.5-1.7-1l-31.3 18z"/>
					</g>
				
			</g>
			<g transform="translate(26.984 59.341)">
				
					<g transform="translate(.117 58.643)">
						
							<path class="st16" d="M1,0.6L0,0c0,0.4,0.1,0.8,0.5,1.1l1,0.6C1.1,1.4,0.9,1,1,0.6z"/>
						
					</g>
					<g transform="translate(33.021)">
						
							<path class="st16" d="M2.2,0.7l-1-0.6C0.8-0.1,0.4,0,0,0.2l1,0.6C1.3,0.5,1.8,0.5,2.2,0.7z"/>
						
					</g>
					<g transform="translate(0 21.252)">
						<path class="st2" d="M1,0.6L0,0l0.1,37.4l1,0.6L1,0.6z"/>
					</g>
					<g transform="translate(1.696 .232)">
						<path class="st2" d="M32.3,0.6l-1-0.6L0,18.1l1,0.6L32.3,0.6z"/>
					</g>
					<g transform="translate(.015 18.314)">
						
							<path class="st2" d="M2.7,0.6L1.7,0C0.7,0.7,0.1,1.7,0,2.9l1,0.6C1,2.3,1.7,1.2,2.7,0.6z"/>
						
					</g>
					<g transform="translate(.994 .579)">
						<path class="st7" d="m1.7 18.3c-1 0.7-1.6 1.7-1.7 2.9l0.1 37.4c0 1.1 0.8 1.5 1.7 1l31.3-18.1c1-0.7 1.6-1.7 1.7-2.9l-0.1-37.4c0-1.1-0.8-1.5-1.7-1l-31.3 18.1z"/>
					</g>
					<g transform="translate(3.245 5.586)">
						<path class="st4" d="m1.5 16c-0.9 0.6-1.4 1.5-1.5 2.6v10.7c0 0.9 0.7 1.3 1.5 0.8l27.3-15.8c0.9-0.6 1.4-1.5 1.5-2.6v-10.7c0-0.9-0.7-1.3-1.5-0.8l-27.3 15.8z"/>
					</g>
				
			</g>
		
		<g transform="translate(93.14 40.952)">
			<g transform="translate(.146)">
				
					
						<g transform="translate(1.229)">
							
								<g transform="translate(10.538)">
									<path class="st17" d="m48.9 25.2-0.5-0.3-2.9-1.6-37.4-20.7-2.8-1.6-0.9-0.4c-2.4-1.4-4.5-0.2-4.4 2.6l0.6 31.2c0.2 3.1 1.9 6 4.6 7.6l1 0.5 2.8 1.7 37.4 20.7 2.9 1.6 0.4 0.2c2.5 1.4 4.5 0.2 4.4-2.7l-0.2-12.2-0.4-19c-0.2-3.1-1.9-6-4.6-7.6zm3.6 25.6 0.2 11.6c0 2.7-1.8 3.8-4.2 2.5l-0.4-0.2-2.7-1.5-35.4-19.6-3.6-2c-2.5-1.6-4.1-4.2-4.3-7.2l-0.6-29.6c-0.1-2.6 1.8-3.8 4.2-2.5l0.8 0.4 2.7 1.5 35.4 19.6 2.7 1.5 0.5 0.3c2.5 1.6 4.1 4.2 4.4 7.2l0.3 18z"/>
								</g>
								<path class="st18" d="m62.3 30.6-5.3 3.3-1.2 0.8-4 2.5c-0.7-2.1-2.2-3.9-4.1-5.1l-40.8-22.5-3.7-2c-0.2-0.2-0.3-0.2-0.4-0.3-0.1 0-0.2-0.1-0.2-0.1-0.4-0.1-0.9-0.2-1.3-0.3-0.4 0-0.9 0.1-1.3 0.4l0.2-0.1 6-3.5 1.3-0.8 4.2-2.5c0.2 0 0.5 0 0.7 0.1 3.8 1.6 45.8 25 45.8 25 2 1.2 3.4 3 4.1 5.1z"/>
								<path class="st18" d="m62.8 33.1 0.6 31.2c0.1 1.1-0.3 2.2-1.2 2.9l-4.2 2.7-1.3 0.8-4.9 3.1c0.9-0.7 1.4-1.8 1.2-2.9l-0.6-31.2v-0.6c-0.1-0.7-0.2-1.3-0.5-1.9l4-2.5 1.2-0.8 5.3-3.3c0.2 0.6 0.4 1.3 0.5 1.9-0.2 0.2-0.1 0.4-0.1 0.6z"/>
							
						</g>
						<g transform="translate(0 6.868)">
							<path class="st17" d="m53.5 32.8 0.4 19 0.2 12.2c0 2.8-1.9 4-4.4 2.7l-0.4-0.2-2.9-1.6-37.4-20.7-2.9-1.6-1-0.5c-2.7-1.7-4.4-4.5-4.6-7.6l-0.5-31.3c-0.1-2.8 1.9-4 4.4-2.6l0.9 0.4 2.9 1.6 37.4 20.7 2.9 1.6 0.5 0.3c2.6 1.6 4.3 4.5 4.5 7.6z"/>
						</g>
						<g transform="translate(1.462 8.711)">
							<path class="st19" d="m50.6 31 0.4 18 0.2 11.6c0 2.7-1.8 3.8-4.2 2.5l-0.4-0.2-2.7-1.5-35.4-19.6-3.6-2c-2.5-1.6-4.1-4.2-4.4-7.2l-0.5-29.6c-0.1-2.7 1.8-3.8 4.2-2.5l0.8 0.5 2.7 1.5 35.3 19.5 2.7 1.5 0.5 0.3c2.6 1.6 4.2 4.2 4.4 7.2z"/>
						</g>
					
				
				<g transform="translate(7.456 2.827)">
					
						<path class="st17" d="m51 32.6 0.7 34.5-1.3 0.8-0.7-35.3c0-0.3 0-0.5-0.1-0.8-0.4-2.4-1.9-4.6-4-5.9l-44.4-24.5-1.2-0.6 1.3-0.8 1.2 0.6 43.7 24.1c2.3 1.4 3.9 3.7 4.5 6.3 0.2 0.6 0.3 1.1 0.3 1.6z"/>
					
				</g>
				<g transform="translate(25.743 6.759)">
					
						<g transform="translate(1.944 3.201)">
							<path class="st20" d="M0,1.1L1.8,0l0.1,4.6L0.1,5.7L0,1.1z"/>
						</g>
						<g transform="translate(11.036 6.066)">
							<path class="st20" d="M0,1.1L1.8,0L2,6.7L0.1,7.8L0,1.1z"/>
						</g>
						
							<path class="st21" d="M0,1.1L1.8,0l11,6.1L11,7.2L0,1.1z"/>
						
						<g transform="translate(0 1.126)">
							<path class="st22" d="m11 6.1 0.1 6.7-1.9-1v-4.6l-7.2-4v4.6l-1.9-1-0.1-6.8 11 6.1z"/>
						</g>
					
				</g>
			</g>
			<g transform="translate(39.702 28.349)">
				<g transform="translate(1.302)">
					
						<g transform="translate(3.216 1.754)">
							<path class="st23" d="M0,0.5L0.7,0l0.8,40.2l-0.7,0.5L0,0.5z"/>
						</g>
						
							<path class="st24" d="M0,0.5L0.7,0l3.2,1.8L3.2,2.2L0,0.5z"/>
						
						<g transform="translate(0 .453)">
							<path class="st25" d="M3.2,1.8L4,42l-3.2-1.8L0,0L3.2,1.8z"/>
						</g>
					
				</g>
				<path class="st26" d="M4,5C4,4.3,3.5,3.6,2.9,3.2c-0.6-0.3-1.1,0-1,0.6C1.9,4.6,2.3,5.3,3,5.6C3.6,6,4,5.7,4,5z"/>
				<path class="st23" d="m3.5 9.4c0-0.3-0.2-0.6-0.5-0.8-0.2-0.1-0.5 0-0.4 0.3 0 0.3 0.2 0.6 0.5 0.8 0.2 0.1 0.4 0 0.4-0.3z"/>
				<path class="st23" d="m3.6 13.2c0-0.3-0.2-0.6-0.5-0.8-0.2-0.1-0.5 0-0.4 0.3 0 0.3 0.2 0.6 0.5 0.8 0.2 0.1 0.4 0 0.4-0.3z"/>
				<path class="st23" d="m3.7 17.5c0-0.3-0.2-0.6-0.5-0.8-0.2-0.1-0.5 0-0.4 0.3 0 0.3 0.2 0.6 0.5 0.8 0.2 0.1 0.4 0 0.4-0.3z"/>
				<path class="st23" d="m3.8 21.3c0-0.3-0.2-0.6-0.5-0.8-0.2-0.1-0.5 0-0.4 0.3 0 0.3 0.2 0.6 0.5 0.8 0.2 0.2 0.4 0 0.4-0.3z"/>
				<path class="st23" d="m3.8 25.6c0-0.3-0.2-0.6-0.5-0.8-0.2-0.1-0.5 0-0.4 0.3 0 0.3 0.2 0.6 0.5 0.8 0.3 0.1 0.5 0 0.4-0.3z"/>
				<path class="st23" d="m3.9 29.4c0-0.3-0.2-0.6-0.5-0.8-0.2-0.1-0.5 0-0.4 0.3 0 0.3 0.2 0.6 0.5 0.8 0.2 0.1 0.4 0 0.4-0.3z"/>
				<path class="st23" d="m4 33.8c0-0.3-0.2-0.6-0.5-0.8-0.2-0.1-0.5 0-0.4 0.3 0 0.3 0.2 0.6 0.5 0.8 0.2 0.1 0.4-0.1 0.4-0.3z"/>
				<path class="st26" d="m4.7 37.9c-0.1-0.7-0.5-1.4-1.1-1.8-0.6-0.3-1.1 0-1 0.6 0.1 0.7 0.5 1.4 1.1 1.8s1 0.1 1-0.6z"/>
				<g transform="translate(0 22.859)">
					<path class="st9" d="m6.1 9.9c-0.3 0-0.6-0.1-0.8-0.2l-3.6-2c-1-0.6-1.5-1.6-1.6-2.6l-0.1-3.7c-0.1-0.7 0.4-1.3 1.1-1.4 0.3 0 0.7 0 0.9 0.2l3.6 2c0.9 0.6 1.5 1.5 1.6 2.6l0.1 3.6c0 0.5-0.2 1-0.6 1.3-0.2 0.1-0.4 0.1-0.6 0.2zm-0.3-1.2c0.2 0.1 0.3 0.1 0.3 0.1s0.1-0.1 0.1-0.4l-0.1-3.6c-0.1-0.7-0.4-1.3-1-1.7l-3.6-2c-0.2-0.1-0.3-0.1-0.4 0s-0.1 0.1 0 0.3v3.6c0.1 0.7 0.4 1.3 1 1.7l3.7 2z"/>
				</g>
				<g transform="translate(2.793 21.517)">
					<path class="st27" d="m0.6 4.4c-0.3 0-0.5-0.2-0.5-0.5l-0.1-3.4c0-0.2 0.2-0.5 0.5-0.5s0.5 0.2 0.5 0.5l0.1 3.3c0 0.3-0.2 0.6-0.5 0.6z"/>
				</g>
			</g>
			<g transform="translate(51.843 29.532)">
				
					<rect class="st17" transform="matrix(.8538 -.5206 .5206 .8538 -1.3064 4.0502)" x="-.7" y="3.7" width="14.6" height="1.3"/>
			</g>
			<g transform="translate(47.683 24.477)">
				
					<g transform="translate(0 1.928)">
						<path class="st28" d="M2.2,2L0,0.8L0.4,0l2,1.1L2.2,2z"/>
					</g>
					<g transform="translate(.365)">
						<path class="st26" d="m2 3-2-1.1 3.1-1.9h0.4l1.8 1-3.3 2z"/>
					</g>
					<g transform="translate(2.182 1.051)">
						<path class="st29" d="m3.5 0 0.2 0.5c0.1 0.1 0 0.2 0 0.2l-3.6 2.2h-0.1v-0.1l0.2-0.8 3.3-2z"/>
					</g>
				
			</g>
		</g>
		<g transform="translate(41.42 49.341)">
			
				
					
						<g transform="translate(48.048 27.963)">
							<path class="st30" d="M40.8,0l-0.1,35.6L0,59.2l0.1-35.6L40.8,0z"/>
						</g>
						<g transform="translate(0 23.636)">
							
								<path class="st31" d="M48.1,28L48,63.5l-48-28L0.1,0L48.1,28z"/>
							
						</g>
						<g transform="translate(.088)">
							
								<path class="st32" d="M88.7,28L48.1,51.6L0,23.6L40.7,0L88.7,28z"/>
							
						</g>
					
				
				<g transform="translate(16.518 9.194)">
					<path class="st33" d="M8.4,0L0,4.9l48.1,27.9l8.4-4.9L8.4,0z"/>
				</g>
				<path class="st34" d="M64.6,42l8.4-4.9v8.5l-8.4,4.9V42z"/>
			
			<g transform="translate(51.454 67.062)">
				<path class="st35" d="m3.6 6.8c0 1 0.7 1.4 1.5 1v3.1l-1.1 0.6v0.4l2.4-1.4v-0.4l-1.1 0.6v-3c1-0.7 1.6-1.7 1.7-2.8v-2.3l-3.3 1.9-0.1 2.3z"/>
				<path class="st35" d="m0 13.6v-6.2c0.1-1.4 0.9-2.7 2.2-3.4l6.2-3.6c1.2-0.7 2.2-0.3 2.2 0.9v6.2c-0.1 1.4-0.9 2.7-2.2 3.4l-6.2 3.6c-1.2 0.7-2.2 0.3-2.2-0.9zm2.2-9.2c-1 0.6-1.7 1.6-1.8 2.7v6.2c0 1 0.8 1.3 1.7 0.7l6.2-3.6c1-0.6 1.6-1.6 1.7-2.7v-6.2c0-1-0.8-1.3-1.7-0.7l-6.1 3.6z"/>
			</g>
		</g>
		<g class="st36" transform="translate(57.19 58.807)">
			
				<path class="st37" d="M67.6,15.4L26.4,38.6L0,23.3L41.2,0L67.6,15.4z"/>
			
		</g>
		<g transform="translate(45.208 27.929)">
			
				
					
						<g transform="translate(0 26.311)">
							
								<path class="st38" d="M31.3,45.4L18.6,38l-6.4-3.8l-12.1-7L0,0l12.1,7.1l0.8,0.5l18.3,10.6L31.3,45.4z"/>
							
						</g>
						<g transform="translate(31.208 18.126)">
							
								<path class="st39" d="M45.6,27.3L26.1,38.6l-6.5,3.7L0.1,53.6L0,26.3L19.6,15l6.5-3.7L45.6,0L45.6,27.3z"/>
							
						</g>
						
							
								<path class="st40" d="M76.8,18.1L57.3,29.4l-6.5,3.7L31.2,44.5L0,26.3l19.5-11.3l6.5-3.7L45.6,0L76.8,18.1z"/>
							
						
					
				
				<g class="st36" transform="translate(18.623 11.84)">
					
						
							<path class="st41" d="M37.8,18.1l-6.5,3.7L0,3.7L6.5,0L37.8,18.1z"/>
						
					
				</g>
				<path class="st42" d="m56.4 29.9v27.3l-6.5 3.8v-27.4l6.5-3.7z"/>
				<path class="st34" d="m57.3 29.4v27.3l-6.5 3.7v-27.3l6.5-3.7z"/>
				<g transform="translate(19.485 11.314)">
					<path class="st33" d="M37.8,18.1l-6.5,3.7L0,3.7L6.5,0L37.8,18.1z"/>
				</g>
				<g class="st43" transform="translate(12.922 7.499)">
					<path class="st33" d="M45.6,0L52,3.8L6.5,30.1L0,26.3L45.6,0z"/>
				</g>
				<path class="st44" d="m19.4 37.6v27.2l-6.5-3.7v-27.3l0.8 0.5 5.7 3.3z"/>
				<g transform="translate(12.133 7.046)">
					<path class="st33" d="M45.6,0L52,3.8L6.5,30.1L0,26.3L45.6,0z"/>
				</g>
				<path class="st34" d="m18.6 37.1v27.2l-6.4-3.8v-27.1l0.8 0.5 5.6 3.2z"/>
			
		</g>
		<g transform="translate(9.495 82.685)">
			<path class="st39" d="M35.2,14.9L11.3,28.7l23.9,13.9V14.9z"/>
			<g transform="translate(3.149 14.85)">
				<path class="st38" d="M0,14.7l8.2-0.9L32.1,0l-8.2,0.9L0,14.7z"/>
			</g>
			<g transform="translate(35.22 14.85)">
				<path class="st38" d="M32.5,15.1l-8.2-0.9L0,0l8.2,0.9L32.5,15.1z"/>
			</g>
			<path class="st35" d="M59.6,29L35.2,14.9v27.7l0.5,0.3L59.6,29z"/>
			
				
					
						
							
								<path class="st45" d="m58.7 4.3c-0.1 0.6-0.2 1.2-0.4 1.7-0.2 0.8-0.6 1.6-1 2.3-0.5 0.8-1.2 1.4-2.1 1.2-0.4-0.1-0.8-0.4-1.1-0.7-0.5-0.3-1.1-0.6-1.7-0.9l-0.6-0.3c-4.6-2.6 2.5-6.3 4.9-7.3 0.3-0.1 0.5-0.2 0.7-0.3 0.3-0.1 0.7-0.2 1 0 0.1 0.1 0.1 0.2 0.1 0.3v0.1c0.2 0.9 0.2 1.8 0.2 2.7 0 0.2 0 0.5-0.1 0.7 0.1 0.3 0.1 0.4 0.1 0.5z"/>
								<path class="st46" d="m57.9 4.7c-0.1 0.5-0.2 0.9-0.3 1.4-0.2 0.7-0.5 1.3-0.8 1.9-0.3 0.7-1 1.1-1.7 1-0.3-0.1-0.6-0.3-0.9-0.5-0.4-0.3-0.9-0.5-1.3-0.7-0.2-0.1-0.3-0.2-0.5-0.2-3.7-2.1 2-5.1 4-5.9 0.2-0.1 0.4-0.2 0.6-0.2 0.3-0.1 0.6-0.2 0.8 0 0.1 0.1 0.1 0.2 0.1 0.2v0.1c0.1 0.6 0.2 1.3 0.1 2.1v0.6s0 0.1-0.1 0.2z"/>
								<path class="st45" d="m37.4 4.8c0.1 0.6 0.2 1.2 0.4 1.7 0.3 0.8 0.6 1.6 1.1 2.3 0.4 0.8 1.3 1.3 2.2 1.2 0.4-0.2 0.8-0.4 1.1-0.7 0.5-0.4 1.1-0.7 1.6-0.9l0.6-0.3c4.6-2.8-2.8-6.4-5.2-7.3-0.2-0.1-0.5-0.2-0.7-0.2-0.3-0.1-0.8-0.2-1 0.1-0.1 0.1-0.1 0.2-0.1 0.3v0.1c-0.2 0.9-0.2 1.8-0.1 2.7 0 0.3 0 0.5 0.1 0.8v0.2z"/>
								<path class="st46" d="m38 5.2c0.1 0.5 0.2 0.9 0.4 1.4 0.2 0.7 0.5 1.3 0.9 1.9 0.4 0.7 1 1.2 1.8 1 0.3-0.1 0.6-0.3 0.9-0.6 0.4-0.3 0.9-0.5 1.3-0.8 0.2-0.1 0.3-0.2 0.5-0.3 3.7-2.3-2.3-5.2-4.2-5.9-0.2-0.1-0.4-0.1-0.6-0.2-0.3-0.1-0.6-0.1-0.8 0.1-0.2 0-0.2 0.1-0.2 0.2v0.1c-0.1 0.7-0.1 1.5-0.1 2.2 0 0.2 0 0.4 0.1 0.6v0.3z"/>
								<path class="st47" d="m12 7.6c-0.3-0.1-0.5-0.2-0.8-0.3-3.9-1.6-8.3-0.3-10.7 3.1-0.2 0.2-0.4 0.6-0.5 0.9 0 0.5 0.3 1 0.7 1.3 0.9 0.5 2 0.5 2.9 0.1 2.2-0.7 3.4-1.1 5.8-0.6 2.4 0.7 4.5 2.4 5.5 4.8 1.4 2.7 0.8 9.3 0.8 12.3 0 4.5-2 7.8-0.8 10.1 0.3 0.6 4.4-0.8 5.4-0.8 1.7-0.1 1.8-8.5 2-10.3 0.7-4.5-0.1-9.1-2.2-13.1-1.7-3.4-4.6-6-8.1-7.5z"/>
								<path class="st48" d="m44.8 27.1c-2.1 1.2-3.6 3.2-4.2 5.6-1.4 4.6-1.6 9.6-0.5 14.3 0.3-0.1 0.6-0.2 0.9-0.2 0.9-0.2 1.7-0.5 2.3-0.7s1.1-0.4 1.6-0.7c1.8-1.2 0.9-5.4 1.5-7.5 0.3-1.3 0.5-2.6 0.6-3.9 0.5-2.5 1.2-4.9 2.1-7.2-1.4-0.5-2.9-0.4-4.3 0.3z"/>
								<path class="st49" d="m49.1 26.6v0c-1.5-0.3-3-0.2-4.3 0.5-2.1 1.2-3.6 3.2-4.2 5.6-1.4 4.6-1.6 9.6-0.5 14.3-1.2 0.3-2.6 0.6-4 0.9-3.9 0.7-7.8 1-11.8 0.9-5-0.2-6.2-7.5-6.6-10.2-0.9-6.7 2.4-12.5 7.6-16.2 0.7-0.5 1.5-1 2.2-1.4 0.5-0.2 0.9-0.5 1.3-0.7 0.8-0.4 1.5-0.9 2.3-1.3s1.4-0.9 2.1-1.4l2.1-1.5c0.5-0.4 1-0.8 1.5-1.1 2.5-2 4-3.6 3.8-4l4.4 3c2.5 0.3 4.3 2.5 4.9 4.9v0.2c0.5 2.6 0.2 5.2-0.8 7.5z"/>
								<path class="st48" d="m34.4 28.1c-2.6-2-5.4-3.8-8.3-5.4-0.3-0.2-0.6-0.3-0.9-0.4 0.7-0.5 1.5-1 2.2-1.4 0.5-0.2 0.9-0.5 1.3-0.7 1.4 1.6 2.9 3.3 4.3 4.9 0.9 0.9 1.7 1.9 1.4 3z"/>
								<path class="st48" d="m38.5 25.9c0 0.1 0 0.2-0.1 0.3h-0.2c-0.5-0.2-0.9-0.6-1.1-1.1-1.8-2.2-3.7-4.3-5.8-6.2 0.7-0.5 1.4-0.9 2.1-1.4 0.8 0.8 1.5 1.6 2.3 2.4 1.4 1.7 2.7 3.7 2.8 6z"/>
								<path class="st48" d="m39.7 22.7c-0.3 0-0.4-0.3-0.6-0.5-1.2-2-2.4-3.9-3.6-5.9-0.1-0.1-0.1-0.2-0.2-0.3 0.5-0.4 1-0.8 1.5-1.1 0.4 0.5 0.8 0.9 1.1 1.4 0.7 0.9 1.3 1.9 1.7 3 0.5 1.1 0.5 2.3 0.1 3.4z"/>
								<path class="st48" d="m36.1 32c-0.3 1.2-0.6 2.3-0.9 3.5-0.1 0.2-1.1-7.7-9.1-7.1-4.1 0.3 8 12.5 8.2 15 0.2 1.6 0.4 3.2 0.7 4.7l1-0.2c1.5-0.3 2.8-0.6 4-0.9-1-4.7-0.9-9.6 0.5-14.3 0.6-2.4 2.1-4.4 4.2-5.6 1.3-0.7 2.9-0.8 4.3-0.4v-0.1c0.3-0.9 0.6-1.8 0.8-2.7-3.3 0.2-6.6 1-9.7 2.4-2.1 1.1-3.6 3.2-4 5.7z"/>
								<path class="st49" d="m41.8 35.5c0.2 1.5 3.1-5.7 3.7-4.3 1.3 2.6 0.2 13.9 0.9 16.7 0.1 0.2 0.1 0.4 0.1 0.6 0.1 0.5 0.3 1.1 0.5 1.5 0.9 1.2 2.4 1.6 3.8 1.1 1.1-0.4 2.8-1.9 2-3.2-0.3-0.5-0.8-0.9-1.4-1-0.1 0-0.2-0.1-0.3-0.1l-0.1-0.1c-0.1-0.1-0.1-0.2-0.1-0.4-1.3-8.2 6.6-20.5 0.4-30.8-0.4-0.7-3.8 5.2-4.4 5.8l-2.6 2.7c-0.3 4-3.1 7.6-2.5 11.5z"/>
								<path class="st49" d="m43.8 22.6h-1c-1.3 0.2-2.4 0.9-3.3 1.9-0.5 0.7-1 1.4-1.3 2.2-0.3 8.3 0.5 19.7 1 21.7 0.1 0.4 0.2 0.7 0.3 1.1 0.1 0.5 0.3 1.1 0.5 1.5 0.9 1.2 2.4 1.6 3.8 1.1 1.1-0.4 2.8-1.9 2-3.2-0.3-0.5-0.8-0.9-1.4-1-0.1 0-0.3-0.1-0.4-0.2v-0.4c-0.3-2.5 0.2-13.2 1.5-15.7 1.7-3.5 2-7.3-1.7-9z"/>
								<path class="st50" d="m50.8 21.5c0.4-1 0.9-1.9 1.6-2.8-0.1-0.2-0.3-0.4-0.5-0.5-1.8-1.5-5.2-2.2-7.5-2.8l-2 2.5-0.3 0.6c1.1 1.5 1.9 3.2 2.4 5.1 0.5 1.5-0.3 5.2 2.5 5.2 2.7-0.1 2.8-5.1 3.8-7.3z"/>
								<path class="st45" d="m52 3.6c-1.6-0.7-3.4-0.9-5.2-0.7-1.1 0.1-2.2 0.3-3.2 0.8-3.5 1.5-5.5 5.1-5.1 8.8l0.3 1.2c-0.1-0.3 0-0.6 0.1-0.9 0.3 1.3 0.7 2.5 1.4 3.7-0.1-0.4-0.2-0.7-0.3-1.1 0.4 1.1 1 2.2 1.8 3 1.5 1.7 3.6 2.7 5.8 2.8 3.7 0 6.9-2.3 8.1-5.8-0.1 0.4-0.2 0.7-0.3 1.1 0.6-1.1 1.1-2.4 1.4-3.7 0.1 0.3 0.1 0.6 0.1 0.9l0.3-1.2c0.3-3.8-1.8-7.4-5.2-8.9z"/>
								<path class="st50" d="m49.6 9.2c0.1 0.4 0.8 0.5 1.5 0.4s1.3-0.6 1.3-0.9-0.8-0.5-1.5-0.4-1.4 0.5-1.3 0.9z"/>
								<path class="st50" d="m45.9 9.2c-0.1 0.4-0.8 0.5-1.5 0.4s-1.4-0.7-1.3-1 0.8-0.5 1.5-0.4 1.3 0.6 1.3 1z"/>
								<path class="st49" d="m31.4 30.3c-1-0.9-2.1-1.5-3.4-1.8-1-0.2-2-0.2-3-0.1-3 0-5.7 1.6-7.2 4.1-1.3 2.4-1.7 5.1-1.1 7.8 0.7 2.8 1.1 4.5 2.7 6.8-0.5 0.2-0.8 2.3 0.4 2.8 1.2 0.6 8.9 2.4 10.3 1.9 1.1-0.4 1.5-2.3 0.6-2.8-1.1-0.6-2.4-0.2-3.5-0.7 0.8-0.6 1.6-1.1 2.5-1.4 2.9-1.6 4.8-4.5 5.1-7.8 0.4-3.4-0.9-6.6-3.4-8.8z"/>
							
						
					
				
			
			<g transform="translate(6.409 28.664)">
				
					<g transform="translate(4.795)">
						<path class="st38" d="M24.5,14.1l-0.1,19.2L0,19.2L0.1,0L24.5,14.1z"/>
					</g>
					<path class="st51" d="m29.3 14.1-4.5 10.6-20-10.9v-6.8l24.5 7.1z"/>
					
						<path class="st52" d="M29.3,14.1l-5.5,8.5L0,7.9L4.9,0L29.3,14.1z"/>
					
				
				<g transform="translate(28.811 .322)">
					<g transform="translate(.336)">
						<path class="st39" d="M24,0l-0.1,19.2L0,33l0.1-19.2L24,0z"/>
					</g>
					<path class="st38" d="M0,14.2l4.2,10.3l20.1-10.9l-0.7-9.7L0,14.2z"/>
					<g transform="translate(.453)">
						<path class="st53" d="M0,13.8l5,8.8L29.4,8.5L23.9,0L0,13.8z"/>
					</g>
				</g>
			</g>
			<path class="st54" d="m41.5 11.8c0.5-1.1 1.8-1.6 2.9-1.1 0.3 0.1 0.6 0.4 0.8 0.6 0.2 0.3 0.6 0.8 0.2 1.1h-0.1c-0.2-0.2-0.3-0.5-0.5-0.7-0.3-0.3-0.6-0.6-1.1-0.7-0.7 0-1.5 0.3-2.2 0.8 0.1 0.1 0 0.1 0 0z"/>
			<path class="st54" d="m53.7 12c-0.4-1.1-1.7-1.7-2.8-1.2-0.3 0.1-0.6 0.3-0.8 0.6-0.2 0.2-0.6 0.8-0.3 1.1h0.1c0.2-0.2 0.3-0.5 0.5-0.7 0.3-0.3 0.7-0.5 1.1-0.6 0.8-0.2 1.6 0.2 2.2 0.8-0.1 0 0 0 0 0z"/>
			<g transform="translate(35.732 13.616)">
				
					<path class="st50" d="M4.3,0.3c0.3,0,0.7,0.1,1,0.2c0.5,0.1,1,0.3,1.5,0.6c0.3,0.1,0.9,0.3,1,0.7       c-1.3-0.3-2.6-0.9-4-1.2C2.6,0.3,1.4,0.2,0.2,0.2C0.6,0,0.9,0,1.3,0C2.2,0,3,0.1,3.8,0.2C4,0.3,4.1,0.3,4.3,0.3z"/>
					<path class="st50" d="m3.8 2.3c0.3-0.1 0.7-0.2 1-0.2 0.5-0.1 1-0.2 1.6-0.1 0.4 0 0.9-0.1 1.2 0.2-1.4 0.2-2.8 0.2-4.1 0.5-1.2 0.3-2.4 0.6-3.5 1.1 0.3-0.3 0.6-0.4 0.9-0.6 0.8-0.3 1.6-0.6 2.4-0.8 0.2 0 0.3-0.1 0.5-0.1z"/>
					<path class="st50" d="m4.2 3.8c0.3-0.2 0.6-0.3 0.9-0.5 0.5-0.2 1-0.4 1.5-0.5 0.4 0 1-0.3 1.3 0-1.3 0.5-2.7 0.9-3.9 1.5-1.1 0.5-2.1 1.2-3.1 1.8 0.2-0.3 0.4-0.6 0.8-0.8 0.7-0.4 1.4-0.9 2.1-1.3 0.2 0 0.3-0.1 0.4-0.2z"/>
					<path class="st50" d="M5.3,5.4C5.5,5.2,5.7,4.9,6,4.7C6.4,4.3,6.8,4,7.3,3.7c0.3-0.2,0.8-0.6,1.1-0.4       C7.4,4.2,6.2,5,5.2,6C4.4,6.8,3.6,7.7,2.9,8.7C3,8.3,3.1,8,3.4,7.7C3.9,7,4.4,6.4,5,5.8C5.1,5.6,5.2,5.5,5.3,5.4z"/>
				
			</g>
			<g transform="translate(52.308 13.616)">
				
					<path class="st50" d="M4.2,0.3c-0.3,0-0.7,0.1-1,0.2C2.6,0.6,2.1,0.8,1.6,1c-0.3,0.1-0.9,0.3-1,0.7       c1.3-0.3,2.6-0.9,4-1.2C5.8,0.3,7,0.2,8.2,0.2C7.9,0,7.5,0,7.1,0C6.3,0,5.4,0.1,4.6,0.2C4.4,0.3,4.3,0.3,4.2,0.3z"/>
					<path class="st50" d="m4.7 2.3c-0.4-0.1-0.7-0.2-1-0.2-0.6-0.1-1.1-0.2-1.7-0.1-0.3 0-0.9-0.1-1.2 0.2 1.4 0.2 2.8 0.2 4.2 0.5 1.2 0.3 2.3 0.6 3.4 1-0.2-0.2-0.6-0.4-0.9-0.5-0.8-0.3-1.6-0.6-2.4-0.8-0.2 0-0.3-0.1-0.4-0.1z"/>
					<path class="st50" d="m4.2 3.8c-0.3-0.2-0.6-0.3-0.9-0.5-0.5-0.2-1-0.3-1.5-0.5-0.4 0-0.9-0.3-1.2 0 1.3 0.6 2.6 0.9 3.9 1.5 1.1 0.6 2.1 1.2 3.1 1.9-0.3-0.4-0.5-0.6-0.8-0.8-0.7-0.5-1.4-1-2.2-1.4-0.1 0-0.3-0.1-0.4-0.2z"/>
					<path class="st50" d="M3.2,5.4C2.9,5.2,2.7,4.9,2.4,4.7C2,4.3,1.6,4,1.1,3.7C0.8,3.6,0.4,3.2,0,3.3       C1,4.2,2.2,5,3.2,6C4,6.8,4.8,7.7,5.5,8.7C5.5,8.3,5.3,8,5.1,7.7C4.6,7,4,6.4,3.5,5.8C3.3,5.6,3.3,5.5,3.2,5.4z"/>
				
			</g>
			<path class="st50" d="m47.6 15.9c0 1.1-1.2 2-2.7 2s-2.7-0.9-2.7-2 1.2-2 2.7-2 2.7 0.9 2.7 2z"/>
			<path class="st50" d="m48.1 15.9c0 1.1 1.2 2 2.7 2s2.7-0.9 2.7-2-1.2-2-2.7-2-2.7 0.9-2.7 2z"/>
			<path class="st50" d="m46.5 18.8c-0.2 0.7 0.2 1.5 1 1.7s1.5-0.2 1.7-1c0.2-0.7-0.2-1.5-1-1.7-0.1 0-0.2-0.1-0.4-0.1-0.7 0.1-1.3 0.5-1.3 1.1z"/>
			<path class="st54" d="m49.5 14.9c0 0.5-1.7 1.2-1.7 1.2s-1.7-0.6-1.7-1.2 0.7-1 1.7-1 1.7 0.5 1.7 1z"/>
		</g>
		<g transform="translate(63.129 11.709)">
			
				
					<g transform="translate(23.213 13.477)">
						<path class="st39" d="M22.9,0l-0.1,23.3L0,36.5l0.1-23.3L22.9,0z"/>
					</g>
					<g transform="translate(0 13.17)">
						<path class="st38" d="M23.3,13.5l-0.1,23.3L0,23.3L0.1,0L23.3,13.5z"/>
					</g>
					<g transform="translate(.117)">
						
							<path class="st40" d="M46,13.5L23.2,26.6L0,13.2L22.8,0L46,13.5z"/>
						
					</g>
				
			
			<g transform="translate(9.326 5.116)">
				<path class="st33" d="M4.7,0L0,2.7l23.2,13.5l4.7-2.7L4.7,0z"/>
			</g>
			<path class="st34" d="m32.5 21.3 4.7-2.7v4.7l-4.7 2.7v-4.7z"/>
		</g>
		<g transform="translate(108.34 77.244)">
			
				<g transform="translate(5.294 47.873)">
					<path class="st2" d="m4.2 2.1c1.4-0.8 2.8-1.3 4.3-1.6 1.6-0.4 3.1-0.5 4.7-0.5s3.1 0.2 4.6 0.6 2.9 0.9 4.2 1.7c-0.7-0.4-2.6 0.1-5.1 1.2-2.4-1.3-5.3-1.3-7.8-0.1-2.2 1.2-2.2 3.3-0.1 4.5 2.4 1.3 5.3 1.3 7.8 0.1 2.2-1.2 2.2-3.2 0.1-4.5 2.5-1.2 4.5-1.6 5.1-1.2 0.3 0.2 0.8 0.5 1.1 0.7 0.4 0.3 0.8 0.7 1.2 1.1 0.3 0.4 0.6 0.8 0.9 1.2l0.6 1.2c0.7 2.4-0.6 4.9-3.8 6.7-5.2 2.9-13.4 2.8-18.4-0.2-3-1.8-4.1-4.2-3.4-6.5 0.1-0.4 0.3-0.9 0.6-1.3 0.2-0.4 0.5-0.8 0.8-1.1 0.8-0.8 1.7-1.5 2.6-2z"/>
				</g>
				<path class="st4" d="m25.3 24.6zm11 15.1v0c-0.1-0.9-0.3-1.7-0.5-2.5-0.1-0.2-0.1-0.5-0.2-0.6v-0.1c-0.1-0.2-0.2-0.5-0.3-0.8s-0.2-0.6-0.4-1c0-0.1-0.1-0.2-0.1-0.2-0.1-0.1-0.1-0.3-0.2-0.4s-0.2-0.3-0.3-0.5c0-0.1-0.1-0.1-0.1-0.2s-0.1-0.1-0.1-0.1c-0.1-0.1-0.1-0.2-0.2-0.3 0 0 0-0.1-0.1-0.1-0.1-0.2-0.3-0.4-0.4-0.5 0-0.1-0.1-0.1-0.1-0.2-0.2-0.2-0.4-0.5-0.5-0.7l-0.1-0.1c-0.1-0.1-0.1-0.2-0.2-0.2l-0.2-0.2c-0.1-0.1-0.2-0.3-0.4-0.4l-0.2-0.2-0.2-0.4s0-0.1-0.1-0.1l-0.1-0.1c-0.3-0.3-0.6-0.5-0.7-0.7l-0.5-0.5c-0.1-0.1-0.2-0.2-0.3-0.2 0 0-0.1 0-0.1-0.1-0.1-0.1-0.3-0.2-0.4-0.3-0.2-0.2-0.5-0.3-0.7-0.5l-0.1-0.1-0.6-0.4c-0.4-0.3-0.8-0.5-1.1-0.6s-0.7-0.4-1.2-0.6h-0.1v-0.2-0.3-0.3-0.3-0.6 0.2c0 0.5-0.2 0.9-0.4 1.3-4.3-1.5-9-1.5-13.3 0-0.3-0.4-0.4-0.9-0.4-1.3v0.2 0.2c0 0.4-0.1 0.8-0.1 1.1h-0.1c-0.2 0.1-0.4 0.2-0.7 0.3l-0.6 0.3c-0.1 0-0.2 0.1-0.3 0.1-0.2 0.1-0.4 0.2-0.6 0.4l-0.2 0.1c-0.2 0.1-0.4 0.3-0.7 0.4-0.1 0-0.1 0.1-0.1 0.1-0.2 0.2-0.5 0.4-0.8 0.6l-0.3 0.2-0.2 0.2c-0.5 0.2-0.6 0.4-0.7 0.5l-0.2 0.2c-0.2 0.2-0.5 0.4-0.7 0.7h-0.1l-0.9 0.9-0.1 0.2h-0.1c-0.2 0.2-0.3 0.4-0.5 0.6s-0.5 0.6-0.6 0.9c0 0-0.1 0.1-0.1 0.2-0.3 0.4-0.5 0.8-0.7 1.2 0 0 0 0.1-0.1 0.1l-0.3 0.6c-0.3 0.6-0.5 1.1-0.6 1.5s-0.3 0.8-0.4 1.2c0 0.1 0 0.2-0.1 0.3-0.2 0.7-0.3 1.4-0.4 2.1 0 0.2 0 0.5-0.1 0.8v0.7 0.2 0.8 0.2s0 0.1 0 0.2v0.2c0 0.5 0.1 1.1 0.2 1.7 0.1 0.3 0.2 0.8 0.3 1.1v0.1c0.2 0.6 0.4 1.1 0.5 1.5v0.1 0.1c0.1 0.1 0.1 0.3 0.2 0.4 0.1 0.3 0.2 0.5 0.2 0.5v0.1c0.1 0.2 0.2 0.4 0.3 0.5 0.1 0.3 0.4 0.8 0.8 1.3 0 0 0 0.1 0.1 0.1 0.2 0.3 0.5 0.7 0.8 1.1l0.3 0.3s0 0.1 0.1 0.1l0.3 0.2c0.5 0.5 1 1.1 1.5 1.5 0.1 0.1 0.2 0.2 0.3 0.2 0.3 0.2 0.6 0.5 0.9 0.7l0.1 0.1c0.3 0.2 0.8 0.5 1.3 0.9 0.3 0.2 0.8 0.4 1.1 0.6 0.1 0 0.1 0 0.1 0.1l0.6 0.3c0.4 0.2 0.6 0.3 1.1 0.5h0.1c0.1 0 0.1 0 0.2 0.1 0.2 0.1 0.7 0.2 1.4 0.4 0.5 0.1 0.9 0.2 1.4 0.4 0.9 0.2 1.8 0.3 2.7 0.3h0.7 0.1 1c0.5 0 0.8 0 1.2-0.1h0.1c0.1 0 0.3 0 0.5-0.1l1.8-0.3h0.1 0.1l1-0.2c0.1 0 0.2-0.1 0.3-0.1s0.2-0.1 0.3-0.1c0.2-0.1 0.4-0.1 0.5-0.2 0.1 0 0.1 0 0.2-0.1 0.7-0.3 1.2-0.5 1.6-0.7h0.1s0.1 0 0.1-0.1c0.2-0.1 0.4-0.2 0.7-0.4h0.1c0.2-0.1 0.4-0.2 0.7-0.4 0.1-0.1 0.2-0.1 0.3-0.2s0.2-0.1 0.4-0.2 0.3-0.2 0.5-0.3c0.1 0 0.1-0.1 0.2-0.1 0.5-0.4 1-0.8 1.4-1.1l1.1-1.1c0-0.1 0.1-0.1 0.1-0.1 0.1-0.1 0.1-0.2 0.2-0.2 0.7-0.7 1.3-1.5 1.8-2.4v-0.1c0.1-0.1 0.2-0.3 0.3-0.5 0-0.1 0.1-0.1 0.1-0.2s0.1-0.2 0.1-0.2c0.2-0.3 0.4-0.7 0.5-1.1 0.1-0.1 0.1-0.3 0.2-0.4 0.1-0.3 0.2-0.5 0.3-0.8 0-0.1 0-0.1 0.1-0.2 0-0.1 0.1-0.1 0.1-0.2 0.1-0.2 0.1-0.3 0.1-0.5v-0.1c0.2-0.6 0.3-1.2 0.4-1.8 0-0.1 0-0.2 0.1-0.4 0-0.3 0.1-0.6 0.1-0.9v-1.1c-0.1-0.4-0.1-0.9-0.2-1.4z"/>
				<path class="st7" d="m25.2 8.2c-0.1 1.3-1 2.5-2.2 3-3.2 1.6-6.9 1.5-10-0.1-1.1-0.5-1.9-1.6-2-2.8 0 0 0.1 15.8 0 16.1 0.1 1.2 0.9 2.3 2 2.8 3.1 1.6 6.9 1.7 10 0.1 1.2-0.5 2.1-1.6 2.2-3v-16.1z"/>
				<path class="st7" d="m27 6.1c0-0.5-0.1-1-0.2-1.4-0.2-0.4-0.4-0.9-0.6-1.2-0.3-0.4-0.6-0.7-0.9-1l-1.2-0.9c-1.8-1-3.8-1.5-5.8-1.5-1 0-2 0.1-3 0.3s-1.9 0.6-2.8 1.1-1.7 1.2-2.3 2c-0.4 0.3-0.6 0.8-0.8 1.3-0.1 0.2-0.1 0.4-0.1 0.6s0 0.5-0.1 0.7v0.3c0 0.9 0.3 1.8 0.7 2.5 0.6 0.9 1.3 1.6 2.2 2.1 0.7 0.4 1.4 0.7 2.2 1 0.8 0.2 1.6 0.4 2.4 0.5 1 0.1 2 0.1 3.1 0 0.8-0.1 1.6-0.3 2.4-0.5 1.3-0.4 2.6-1.2 3.6-2.2 0.4-0.5 0.8-1 1-1.6 0.1-0.3 0.2-0.5 0.2-0.8v-1-0.3z"/>
				<g transform="translate(11.424 .414)">
					<path class="st2" d="m11.5 1.2c2.6 1.5 2.5 4-0.2 5.5-3 1.5-6.5 1.5-9.4-0.1-2.6-1.5-2.5-4 0.2-5.5 2.9-1.5 6.4-1.5 9.4 0.1z"/>
				</g>
			
			<g transform="translate(.127 28.081)">
				
					<path class="st55" d="m27.3 9.8c-5.3 3-13.7 2.9-18.8-0.2-4.2-2.5-4.8-6.2-2-9.1 0.3-0.2 0.6-0.4 1-0.6-1 0.9-1.5 2.1-1.6 3.3-0.2 1.8 1 3.7 3.4 5.1 4.7 2.8 12.4 2.9 17.2 0.2 2.1-1 3.6-3 3.9-5.4 0.2-1.1 0-2.2 0.1-2.1 0.2 0.1 0.4 0.4 0.7 0.7l0.2 0.2c0.4 3.2-1.2 6.4-4.1 7.9z"/>
					<path class="st55" d="m32.9 23.1c-1 1.2-2.2 2.2-3.6 3-6.4 3.6-16.7 3.5-22.9-0.2-1.2-0.7-2.2-1.6-3.1-2.6l-0.3-0.4c-0.3-0.4-0.7-1-0.9-1.4 0.9 1.5 2.3 2.7 3.8 3.6 6.4 3.9 17.1 4 23.9 0.2 1.8-0.9 3.3-2.3 4.3-3.9-0.3 0.4-0.8 1.2-1.2 1.7z"/>
					<path class="st55" d="m29.1 13.6c-6.3 3.5-16.4 3.4-22.4-0.2-4.8-2.9-5.7-7.1-2.9-10.5l0.2-0.2 0.4-0.5 0.2-0.2h0.1c0.1-0.1 0.1-0.2 0.2-0.2 0.3-0.3 0.6-0.6 0.9-0.8-2.9 3-2.2 7 2.2 9.6 5.4 3.2 14.2 3.3 19.8 0.2 3.3-1.9 5.1-5.3 4.4-8.1l0.5 0.5c0.2 0.3 0.3 0.6 0.5 0.8 0 0.1 0.1 0.1 0.1 0.2 0.1 0.1 0.2 0.3 0.4 0.5 0 0 0 0.1 0.1 0.1 0.1 0.1 0.1 0.2 0.2 0.3v0.1c0 0.1 0.1 0.1 0.1 0.2 0.3 2.8-1.5 6.2-5 8.2z"/>
					<path class="st55" d="m35.6 17.9c-0.2 0.6-0.5 1.5-0.8 2.1-1 2-2.7 3.6-4.7 4.6-6.9 3.8-17.8 3.7-24.4-0.2-1.8-1-3.3-2.5-4.2-4.3-0.4-0.8-0.7-1.7-0.9-2.5-0.1-0.4-0.2-1-0.3-1.5 0.4 2.2 2 4.4 4.9 6.1 6.9 4.2 18.3 4.3 25.5 0.3 3.2-1.8 5-4.1 5.5-6.5-0.3 0.5-0.5 1.3-0.6 1.9z"/>
					<path class="st55" d="m1.4 14.7c-0.5 1.9-1 1-1.1 0.9-0.7-1.5-0.2-6.5 1-6.1 0.2 0.1 0.3 0.4 0.4 0.5 0.2 1.6 0.1 3.2-0.3 4.7z"/>
					<path class="st55" d="m6.3 18.8c-0.4 1.6-2.1 2.3-3.5 0-1.5-2.5-0.3-5.4 1.4-4.9l0.6 0.3c1.3 1.2 1.9 2.9 1.5 4.6z"/>
					<path class="st55" d="m13.8 21.1c-0.4 2.3-3.4 3-5.2 0.5-1.7-2.3 0-4.9 2.3-4.6 0.1 0 0.2 0 0.3 0.1 1.7 0.5 2.8 2.2 2.6 4z"/>
					<path class="st55" d="m22 21.1c-0.1 2.7-3.7 3.8-5.6 1.8-1-1.3-0.8-3.3 0.5-4.3 0.5-0.4 1.2-0.6 1.9-0.7 1.8 0 3.2 1.4 3.2 3.2v0z"/>
					<path class="st55" d="m29.6 18.9c0.1 2.7-3 4.8-4.9 3.3-1.5-1.3-0.9-4.6 1.6-5.5 1.3-0.5 2.7 0.2 3.1 1.5 0.1 0.2 0.2 0.4 0.2 0.7z"/>
					<path class="st55" d="m34.6 14.9c0.4 2.6-1.4 5.4-2.8 4.4-1.2-0.9-1.2-4.3 0.4-5.8 1.3-1.1 2.2 0.1 2.4 1.4z"/>
					<path class="st55" d="m35.9 10.2c0.5 1.9 0.4 5-0.1 4.8s-1.4-4-1.1-5.8c0.2-0.9 0.6-0.5 0.7-0.2 0.3 0.3 0.4 0.7 0.5 1.2z"/>
				
			</g>
		</g>
	</g>
</g>
</svg>
