<?xml version="1.0" encoding="UTF-8"?>
<svg enable-background="new 0 0 113.6 88.1" version="1.1" viewBox="0 0 113.6 88.1" xml:space="preserve" xmlns="http://www.w3.org/2000/svg">
<style type="text/css">
	.st0{opacity:0.5;}
	.st1{fill:#ABB7B9;}
	.st2{fill:#AFBBD8;}
	.st3{fill:#9EAAC8;}
	.st4{fill:#CCD8F5;}
	.st5{fill:#3D910C;}
	.st6{fill:#ACBAD9;}
	.st7{enable-background:new    ;}
	.st8{fill:#1C2024;}
	.st9{fill:#1D2A36;}
	.st10{fill:#CCCCCC;}
	.st11{fill:#A6A6A6;}
	.st12{fill:#414141;}
	.st13{fill:#808080;}
	.st14{fill:#1A1C1F;}
	.st15{fill:#EFF3FC;}
	.st16{fill:#C0C2C1;}
	.st17{fill:#BD4417;}
	.st18{fill:#256003;}
	.st19{fill:#C5975B;}
	.st20{fill:#DAAF6A;}
	.st21{fill:#EFD996;}
	.st22{fill:#F7ECEA;}
	.st23{fill:#C2AB9D;}
	.st24{fill:#5C4123;}
	.st25{fill:#BB884F;}
	.st26{fill:#E0B477;}
	.st27{fill:#EFCD90;}
	.st28{fill:#E4CDBF;}
	.st29{opacity:0.5;fill:#E4CDBF;enable-background:new    ;}
	.st30{opacity:0.6;}
	.st31{opacity:0.6;fill:#C2AB9D;enable-background:new    ;}
	.st32{fill:#41BA03;}
	.st33{opacity:0.1;fill:#FF8C00;enable-background:new    ;}
	.st34{opacity:0.1;fill:#DE6000;enable-background:new    ;}
	.st35{fill:#8F9CBB;}
	.st36{fill:#D63A3B;}
	.st37{fill:#B32B2B;}
	.st38{fill:#872220;}
	.st39{fill:#2D3C4E;}
	.st40{fill:#29313B;}
	.st41{fill:#10171E;}
	.st42{fill:#00B1F7;}
	.st43{fill:#019AE6;}
	.st44{fill:#027EAF;}
	.st45{fill:#27272E;}
	.st46{fill:#1A1A1F;}
	.st47{fill:#42424D;}
</style>

	<g class="st0">
		<polygon class="st1" points="67.5 75.2 65 76.6 57.8 80.8 69.4 87.5 76.7 83.3 79.1 81.9 86.4 77.7 74.8 71"/>
		<polygon class="st1" points="81.6 26.7 8.4 70 40.4 88.1 113.6 45.1"/>
	</g>
	
		
			
				
					<polygon class="st2" points="31.4 83 2.3 66 2.3 61.2 31.4 78.1"/>
				
				<polygon class="st3" points="31.4 78.1 34.3 76.4 34.3 81.2 31.4 83"/>
				<polygon class="st4" points="4.7 61.2 31.4 76.7 33.2 75.7 34.3 76.4 31.4 78.1 3.5 61.9"/>
			
			
				
					<polygon class="st2" points="31.4 83 2.3 66 2.3 61.2 31.4 78.1"/>
				
				<polygon class="st3" points="31.4 78.1 34.3 76.4 34.3 81.2 31.4 83"/>
				<polygon class="st4" points="4.7 61.2 31.4 76.7 33.2 75.7 34.3 76.4 31.4 78.1 3.5 61.9"/>
			
			<polygon class="st5" points="47.6 63 42.8 60.1 42.8 68 47.6 70.8"/>
			<polygon class="st6" points="95.5 35.5 90.7 32.6 90.7 40.5 95.5 43.3"/>
			
				
					<g class="st7">
						<path class="st8" d="m90.6 39.2c-0.8-0.5-1.9-0.4-3.1 0.1-0.1 0.1-0.3 0.1-0.4 0.2-1.7 1-3.3 2.9-4.1 5-0.5 1.1-0.7 2.3-0.7 3.4 0 1.5 0.6 2.6 1.4 3.1l3.3 1.9c-0.9-0.5-1.4-1.6-1.4-3.1 0-1.1 0.3-2.3 0.7-3.4 0.9-2.1 2.4-4 4.1-5 0.1-0.1 0.3-0.1 0.4-0.2 1.2-0.6 2.3-0.6 3.1-0.1l-3.3-1.9z"/>
						
							<path class="st9" d="m90.4 41.5c2.7-1.6 4.9-0.3 4.9 2.8s-2.2 6.9-4.9 8.4c-2.7 1.6-4.9 0.3-4.9-2.8s2.2-6.9 4.9-8.4z"/>
						
					</g>
				
				<path class="st10" d="m93.8 45.2c0 2.1-1.5 4.7-3.4 5.8-1.1 0.6-2 0.6-2.6 0.1-0.5-0.5-0.8-1.1-0.8-2.1 0-2.1 1.5-4.7 3.4-5.8 0.8-0.4 1.5-0.6 2-0.4 0.9 0.3 1.4 1.1 1.4 2.4z"/>
				<path class="st11" d="m93.2 44.9c0 2.1-1.5 4.7-3.4 5.8-0.8 0.4-1.5 0.6-2.1 0.4-0.5-0.4-0.7-1.1-0.7-2 0-2.1 1.5-4.7 3.4-5.8 0.8-0.4 1.5-0.6 2-0.4 0.5 0.4 0.8 1 0.8 2z"/>
				
					<path class="st10" d="m90.4 43.8c0 0.3-0.2 0.6-0.4 0.8s-0.4 0-0.4-0.3 0.2-0.6 0.4-0.8c0.2-0.1 0.4 0 0.4 0.3z"/>
					<path class="st10" d="m89.1 44.6c0.1 0.2 0.1 0.5-0.2 0.8-0.2 0.3-0.5 0.3-0.6 0.2-0.1-0.2-0.1-0.5 0.2-0.8 0.2-0.3 0.5-0.4 0.6-0.2z"/>
					<path class="st10" d="m88.1 46c0.2 0 0.3 0.3 0.2 0.6s-0.4 0.6-0.6 0.5c-0.2 0-0.3-0.3-0.2-0.6 0.1-0.2 0.4-0.5 0.6-0.5z"/>
					<path class="st10" d="m87.5 47.7c0.3-0.1 0.4 0 0.4 0.3s-0.2 0.6-0.4 0.8c-0.3 0.1-0.4 0-0.4-0.3-0.1-0.3 0.2-0.7 0.4-0.8z"/>
					<path class="st10" d="m87.6 49.1c0.2-0.3 0.5-0.3 0.6-0.2 0.1 0.2 0.1 0.5-0.2 0.8s-0.5 0.3-0.6 0.2c-0.1-0.2 0-0.5 0.2-0.8z"/>
					<path class="st10" d="m88.3 49.9c0.1-0.3 0.4-0.6 0.6-0.5 0.2 0 0.3 0.3 0.2 0.6s-0.4 0.6-0.6 0.5c-0.3 0-0.4-0.3-0.2-0.6z"/>
					<path class="st10" d="m89.4 49.9c0-0.3 0.2-0.6 0.4-0.8 0.3-0.1 0.4 0 0.4 0.3s-0.2 0.6-0.4 0.8c-0.2 0.1-0.4 0-0.4-0.3z"/>
					<path class="st10" d="m90.7 49.1c-0.1-0.2-0.1-0.5 0.2-0.8s0.5-0.3 0.6-0.2c0.1 0.2 0.1 0.5-0.2 0.8-0.2 0.3-0.5 0.4-0.6 0.2z"/>
					<path class="st10" d="m91.7 47.7c-0.2 0-0.3-0.3-0.2-0.6s0.4-0.6 0.6-0.5c0.2 0 0.3 0.3 0.2 0.6s-0.3 0.5-0.6 0.5z"/>
					<path class="st10" d="m92.3 46c-0.3 0.1-0.4 0-0.4-0.3s0.2-0.6 0.4-0.8 0.4 0 0.4 0.3c0.1 0.3-0.1 0.7-0.4 0.8z"/>
					<path class="st10" d="m92.2 44.6c-0.2 0.3-0.5 0.3-0.6 0.2-0.1-0.2-0.1-0.5 0.2-0.8 0.2-0.3 0.5-0.3 0.6-0.2 0.1 0.2 0.1 0.5-0.2 0.8z"/>
					<path class="st10" d="m91.5 43.8c-0.1 0.3-0.4 0.6-0.6 0.6s-0.3-0.3-0.2-0.6 0.4-0.6 0.6-0.6c0.3 0 0.4 0.3 0.2 0.6z"/>
				
				
					<g class="st7">
						<path class="st12" d="m90.7 44.9c-0.2-0.1-0.5-0.1-0.9 0 0 0-0.1 0-0.1 0.1-0.5 0.3-0.9 0.9-1.2 1.5-0.1 0.3-0.2 0.7-0.2 1 0 0.4 0.2 0.8 0.4 0.9l0.5 0.3c-0.3-0.1-0.4-0.5-0.4-0.9 0-0.3 0.1-0.7 0.2-1 0.3-0.6 0.7-1.2 1.2-1.4 0 0 0.1 0 0.1-0.1 0.4-0.2 0.7-0.2 0.9 0l-0.5-0.4z"/>
						
							<path class="st13" d="m90.2 45.3c0.8-0.4 1.4-0.1 1.4 0.8s-0.6 2-1.4 2.4c-0.8 0.5-1.4 0.1-1.4-0.8 0-0.8 0.6-1.9 1.4-2.4z"/>
						
					</g>
				
				<path class="st14" d="m90.4 41.5c-2.7 1.6-4.9 5.3-4.9 8.4s2.2 4.3 4.9 2.8c2.7-1.6 4.9-5.3 4.9-8.4s-2.2-4.4-4.9-2.8zm-0.6 9.2c-0.8 0.4-1.5 0.6-2.1 0.4-0.4-0.5-0.7-1.1-0.7-2.1 0-2.1 1.5-4.7 3.4-5.8 0.8-0.4 1.5-0.6 2-0.4 0.5 0.4 0.7 1.1 0.8 2 0 2.2-1.5 4.8-3.4 5.9z"/>
			
			
				
					<g class="st7">
						<path class="st8" d="m42.5 66.3c-0.8-0.5-1.9-0.5-3.1 0.1-0.1 0.1-0.3 0.1-0.4 0.2-1.7 1-3.3 2.9-4.1 5-0.5 1.1-0.7 2.3-0.7 3.4 0 1.5 0.6 2.6 1.4 3.1l3.3 1.9c-0.9-0.5-1.4-1.6-1.4-3.1 0-1.1 0.3-2.3 0.7-3.4 0.9-2.1 2.4-4 4.1-5 0.1-0.1 0.3-0.1 0.4-0.2 1.2-0.6 2.3-0.6 3.1-0.1l-3.3-1.9z"/>
						
							<path class="st9" d="m42.3 68.6c2.7-1.6 4.9-0.3 4.9 2.8s-2.2 6.9-4.9 8.4c-2.7 1.6-4.9 0.3-4.9-2.8s2.2-6.9 4.9-8.4z"/>
						
					</g>
				
				<path class="st10" d="m45.7 72.2c0 2.1-1.5 4.7-3.4 5.8-1.1 0.6-2 0.6-2.6 0.1-0.5-0.4-0.7-1.1-0.7-2 0-2.1 1.5-4.7 3.4-5.8 0.8-0.4 1.5-0.6 2-0.4 0.8 0.3 1.3 1.1 1.3 2.3z"/>
				<path class="st11" d="m45.1 71.9c0 2.1-1.5 4.7-3.4 5.8-0.8 0.4-1.5 0.6-2.1 0.4-0.5-0.4-0.7-1.1-0.7-2 0-2.1 1.5-4.7 3.4-5.8 0.8-0.4 1.5-0.6 2-0.4 0.5 0.4 0.8 1.1 0.8 2z"/>
				
					<path class="st10" d="m42.3 70.9c0 0.3-0.2 0.6-0.4 0.8-0.3 0.1-0.4 0-0.4-0.3s0.2-0.6 0.4-0.8c0.2-0.1 0.4 0 0.4 0.3z"/>
					<path class="st10" d="m41 71.7c0.1 0.2 0.1 0.5-0.2 0.8-0.2 0.3-0.5 0.3-0.6 0.2-0.1-0.2-0.1-0.5 0.2-0.8 0.2-0.3 0.5-0.4 0.6-0.2z"/>
					<path class="st10" d="m40 73.1c0.2 0 0.3 0.3 0.2 0.6s-0.4 0.6-0.6 0.5c-0.2 0-0.3-0.3-0.2-0.6s0.4-0.5 0.6-0.5z"/>
					<path class="st10" d="m39.4 74.8c0.3-0.1 0.4 0 0.4 0.3s-0.2 0.6-0.4 0.8c-0.3 0.1-0.4 0-0.4-0.3s0.2-0.7 0.4-0.8z"/>
					<path class="st10" d="m39.5 76.2c0.2-0.3 0.5-0.3 0.6-0.2 0.1 0.2 0.1 0.5-0.2 0.8-0.2 0.3-0.5 0.3-0.6 0.2-0.1-0.2 0-0.6 0.2-0.8z"/>
					<path class="st10" d="m40.2 77c0.1-0.3 0.4-0.6 0.6-0.5 0.2 0 0.3 0.3 0.2 0.6s-0.4 0.6-0.6 0.5c-0.3 0-0.3-0.3-0.2-0.6z"/>
					<path class="st10" d="m41.3 77c0-0.3 0.2-0.6 0.4-0.8 0.3-0.1 0.4 0 0.4 0.3s-0.2 0.6-0.4 0.8c-0.2 0.1-0.4 0-0.4-0.3z"/>
					<path class="st10" d="m42.6 76.2c-0.1-0.2-0.1-0.5 0.2-0.8s0.5-0.3 0.6-0.2c0.1 0.2 0.1 0.5-0.2 0.8-0.2 0.3-0.5 0.4-0.6 0.2z"/>
					<path class="st10" d="m43.6 74.8c-0.2 0-0.3-0.3-0.2-0.6s0.4-0.6 0.6-0.5c0.2 0 0.3 0.3 0.2 0.6-0.1 0.2-0.3 0.5-0.6 0.5z"/>
					<path class="st10" d="m44.2 73.1c-0.3 0.1-0.4 0-0.4-0.3s0.2-0.6 0.4-0.8c0.3-0.1 0.4 0 0.4 0.3 0.1 0.3-0.1 0.7-0.4 0.8z"/>
					<path class="st10" d="m44.1 71.7c-0.2 0.3-0.5 0.3-0.6 0.2-0.1-0.2-0.1-0.5 0.2-0.8 0.2-0.3 0.5-0.3 0.6-0.2 0.1 0.2 0.1 0.5-0.2 0.8z"/>
					<path class="st10" d="m43.4 70.9c-0.1 0.3-0.4 0.6-0.6 0.5-0.2 0-0.3-0.3-0.2-0.6s0.4-0.6 0.6-0.5c0.3 0 0.4 0.3 0.2 0.6z"/>
				
				
					<g class="st7">
						<path class="st12" d="m42.6 72c-0.2-0.1-0.5-0.1-0.9 0 0 0-0.1 0-0.1 0.1-0.5 0.3-0.9 0.9-1.2 1.5-0.1 0.3-0.2 0.7-0.2 1 0 0.4 0.2 0.8 0.4 0.9l0.5 0.3c-0.3-0.1-0.4-0.5-0.4-0.9 0-0.3 0.1-0.7 0.2-1 0.3-0.6 0.7-1.2 1.2-1.5 0 0 0.1 0 0.1-0.1 0.4-0.2 0.7-0.2 0.9 0l-0.5-0.3z"/>
						
							<path class="st13" d="m42.1 72.4c0.8-0.5 1.4-0.1 1.4 0.8s-0.6 2-1.4 2.4c-0.8 0.5-1.4 0.1-1.4-0.8s0.6-1.9 1.4-2.4z"/>
						
					</g>
				
				<path class="st14" d="m42.3 68.6c-2.7 1.5-4.9 5.3-4.9 8.4s2.2 4.3 4.9 2.8c2.7-1.6 4.9-5.3 4.9-8.4s-2.2-4.4-4.9-2.8zm-0.5 9.2c-0.8 0.4-1.5 0.6-2.1 0.4-0.5-0.4-0.7-1.1-0.7-2 0-2.1 1.5-4.7 3.4-5.8 0.8-0.4 1.5-0.6 2-0.4 0.5 0.4 0.7 1.1 0.8 2-0.1 2.1-1.6 4.7-3.4 5.8z"/>
			
			<polygon class="st2" points="6.4 60.9 5.3 60.2 2.3 62 3.5 62.7"/>
			<polygon class="st4" points="6.4 60.1 5.3 59.4 2.3 61.2 3.5 61.9"/>
			
				<path class="st15" d="m76.3 25 15.9-10.7c0-0.9-24.1-14-24.1-14-0.4-0.5-1.5-0.5-2.4 0l-11.2 6.5-2.2 1.3-0.8 0.5c-0.8 0.5-1.5 1.4-1.6 2.3l26.2 15.1c0.2-0.4 0.2-0.7 0.2-1z"/>
				<path class="st6" d="m49.9 10.9v0.2 30.8l24.1 13.9 0.8-28.3c0.6-0.3 1-0.9 1.3-1.5l-26.2-15.1z"/>
			
			<path class="st16" d="m20.4 72.7 0.2 0.2c-0.1-0.1-0.3-0.2-0.4-0.3v-0.2c0.1 0.2 0.1 0.2 0.2 0.3z"/>
			<path class="st17" d="m20.2 72.3v-33.5h0.4v33.9c-0.1-0.2-0.3-0.3-0.4-0.4z"/>
			
				
					
						<polygon class="st18" points="2.1 30.4 2.1 60.4 28.3 45.3"/>
						<polygon class="st18" points="2.1 60.4 2.1 60.4 29.8 76.3 29.8 46.2 28.3 45.3"/>
					
					
						
							
								<g class="st7">
									
										<polygon class="st19" points="31 51.4 30.9 62 18.8 69 18.9 58.4"/>
									
									
										
											<polygon class="st20" points="18.9 58.4 18.8 69 4.6 60.7 4.6 50.1"/>
										
									
									
										
											<polygon class="st21" points="31 51.4 18.9 58.4 4.6 50.1 16.7 43.1"/>
										
									
								</g>
							
							
								<polygon class="st22" points="12 45.8 9.5 47.3 23.8 55.6 26.3 54.1"/>
							
							<polygon class="st23" points="23.8 55.6 26.3 54.1 26.3 56.7 23.8 58.1"/>
						
						
							
								<polygon class="st24" points="29.7 61.4 29.7 61.6 27.8 62.7 27.8 62.4"/>
								<polygon class="st24" points="29.3 61.4 29.1 61.5 29.1 60.2 28.9 60.3 29.2 59.6 29.5 60 29.3 60.1"/>
								<polygon class="st24" points="28.4 62 28.2 62.1 28.2 60.8 27.9 60.9 28.3 60.2 28.6 60.5 28.4 60.6"/>
							
							<path class="st24" d="m27.2 62.9v-1.9c0-0.4 0.3-0.8 0.6-1l1.9-1.1c0.4-0.2 0.6-0.1 0.6 0.3v1.8c0 0.4-0.3 0.8-0.6 1l-1.9 1.1c-0.3 0.2-0.6 0.1-0.6-0.2zm0.6-2.8c-0.3 0.2-0.5 0.5-0.5 0.8v1.9c0 0.3 0.2 0.4 0.5 0.2l1.9-1.1c0.3-0.2 0.5-0.5 0.5-0.8v-1.9c0-0.3-0.2-0.4-0.5-0.2l-1.9 1.1z"/>
						
						
							<path class="st24" d="m23.9 63.7c0-0.1 0.2-0.2 0.4-0.3s0.4-0.2 0.4-0.1l0.3-0.3v1.1c0 0.1 0.1 0.1 0.3 0.1 0.1-0.1 0.3-0.3 0.3-0.4h-0.1s-0.1 0.1-0.1 0.1c0 0.1-0.1 0.2-0.1 0.2-0.2 0.1-0.1-0.1-0.1-0.1v-1c0.2-0.1 0.3-0.1 0.3-0.1s0.2-0.2 0.4-0.3 0.4-0.2 0.4-0.1c0-0.5-0.5-0.6-1.1-0.3h-0.1c-0.1-0.3-0.1-0.2-0.1-0.2-0.6 0.4-1.1 1.2-1.1 1.7z"/>
							<path class="st24" d="m23.5 65v-1.9c0-0.4 0.3-0.8 0.6-1l1.9-1.1c0.4-0.2 0.6-0.1 0.6 0.3v1.9c0 0.4-0.3 0.8-0.6 1l-1.9 1.1c-0.3 0.1-0.6 0-0.6-0.3zm0.7-2.8c-0.3 0.2-0.5 0.5-0.5 0.8v1.9c0 0.3 0.2 0.4 0.5 0.2l1.8-1.1c0.3-0.2 0.5-0.5 0.5-0.8v-1.9c0-0.3-0.2-0.4-0.5-0.2l-1.8 1.1z"/>
						
						
							<path class="st24" d="m20.9 65.1c0 0.3 0.2 0.4 0.4 0.3v0.9l-0.3 0.2v0.1l0.7-0.4v-0.2l-0.3 0.2v-0.9c0.3-0.2 0.4-0.5 0.4-0.8v-0.7l-1 0.6 0.1 0.7z"/>
							<path class="st24" d="m19.9 67.1v-1.9c0-0.4 0.3-0.8 0.6-1l1.9-1.1c0.4-0.2 0.6-0.1 0.6 0.3v1.9c0 0.4-0.3 0.8-0.6 1l-1.9 1.1c-0.3 0.1-0.6 0-0.6-0.3zm0.6-2.8c-0.3 0.2-0.5 0.5-0.5 0.8v1.9c0 0.3 0.2 0.4 0.5 0.2l1.9-1.1c0.3-0.2 0.5-0.5 0.5-0.8v-1.9c0-0.3-0.2-0.4-0.5-0.2l-1.9 1.1z"/>
						
					
					
						
							
								<g class="st7">
									
										
											<polygon class="st25" points="15 58 11.2 55.8 9.3 54.7 5.7 52.6 5.7 44.5 9.3 46.6 9.5 46.8 15 49.9"/>
										
									
									
										
											<polygon class="st26" points="28.5 50.2 22.7 53.6 20.8 54.7 15 58 15 49.9 20.8 46.6 22.7 45.4 28.5 42.1"/>
										
									
									
										
											<polygon class="st27" points="28.5 42.1 22.7 45.4 20.8 46.6 15 49.9 5.7 44.5 11.5 41.2 13.4 40.1 19.2 36.7"/>
										
									
								</g>
							
							<g class="st0">
								
									
										<polygon class="st28" points="22.5 45.6 20.5 46.7 11.2 41.3 13.2 40.2"/>
									
								
							</g>
							<polygon class="st29" points="22.5 45.6 22.5 53.7 20.5 54.8 20.5 46.7"/>
							
								<polygon class="st22" points="22.7 45.4 20.8 46.6 11.5 41.2 13.4 40.1"/>
							
							<g class="st30">
								<polygon class="st22" points="23.1 38.9 25 40.1 11.5 47.9 9.5 46.8"/>
							</g>
							<polygon class="st31" points="11.4 47.9 11.4 56 9.5 54.9 9.5 46.8 9.8 46.9"/>
							
								<polygon class="st22" points="22.8 38.8 24.8 39.9 11.2 47.7 9.3 46.6"/>
							
							<polygon class="st23" points="11.2 47.7 11.2 55.8 9.3 54.7 9.3 46.6 9.5 46.8"/>
						
					
				
				<polygon class="st32" points="31.9 45 0 26.8 40.4 3.3 72.5 21.7"/>
				<polygon class="st33" points="31.9 45 40.4 3.3 72.5 21.7"/>
				<path class="st32" d="m72.5 21.6v34.9l-24.2 14-0.7 0.4c-0.1-2.3-1.3-3.7-3.2-3.7-0.8 0-1.6 0.3-2.4 0.7-2.8 1.6-5.1 5.5-5.1 8.8v0.4l-5 2.9v-35l40.6-23.4z"/>
				<path class="st34" d="m72.5 21.6v34.9l-24.2 14-0.7 0.4c-0.1-2.3-1.3-3.7-3.2-3.7-0.8 0-1.6 0.3-2.4 0.7-2.8 1.6-5.1 5.5-5.1 8.8v0.4l-5 2.9v-0.5l40.6-57.9z"/>
			
			<path class="st4" d="m99.7 22.8-7.5-8.5c-0.4-0.5-1.5-0.5-2.4 0l-11.2 6.5-2.2 1.3-0.8 0.5c-0.9 0.4-1.6 1.6-1.6 2.4v30.8l1.6-0.9 0.6-0.4 1.9-1.1 2.3-1.3 4.4-2.6v-0.4c0-3.2 2.3-7.1 5.1-8.8 0.8-0.5 1.6-0.7 2.4-0.7 1.9 0 3.1 1.5 3.2 3.8l2-1.2 1.4-0.8c0.9-0.5 1.6-1.6 1.6-2.5v-13.7c0-0.8-0.4-1.9-0.8-2.4z"/>
			<path class="st6" d="m86.4 19.4v21.1c-2 2.1-3.3 4.2-3.6 7l-6.8 3.9v-26l10.4-6z"/>
			
				<polygon class="st35" points="85.5 35.2 85.5 36.7 83.5 37.9 83.5 36.5"/>
				<polygon class="st15" points="85.3 36.5 85.3 35.4 85.5 35.2 85.5 35.2 85.5 36.7 83.5 37.9 83.5 37.6"/>
				<polygon class="st4" points="85.3 35.4 85.3 36.5 85.5 36.7 85.5 35.2"/>
			
			
				
					<polygon class="st36" points="2.9 64.1 5.4 65.5 5.8 65.2 3.4 63.8"/>
					<polygon class="st37" points="2.9 64.1 2.9 66 5.4 67.5 5.4 65.5"/>
					<polygon class="st38" points="5.4 65.5 5.4 67.5 5.8 67.2 5.8 65.2"/>
				
			
			
				
					<polygon class="st36" points="27.6 78.4 30.1 79.9 30.6 79.6 28.1 78.1"/>
					<polygon class="st37" points="27.6 78.4 27.6 80.4 30.1 81.9 30.1 79.9"/>
					<polygon class="st38" points="30.1 79.9 30.1 81.9 30.6 81.6 30.6 79.6"/>
				
			
			
				<polygon class="st39" points="83 21.4 76.1 35.2 76.1 30.7 79.8 23.2"/>
				<polygon class="st40" points="79.8 23.2 76.1 30.7 76.1 25.4"/>
				<polygon class="st40" points="86.4 33.4 86.4 28 82.6 35.5"/>
				<polygon class="st40" points="86.4 19.4 86.4 23.6 79.5 37.4 76.1 39.3 76.1 35.2 83 21.4"/>
				<polygon class="st39" points="86.4 28 86.4 23.6 79.5 37.4 82.6 35.5"/>
			
			
				<polygon class="st40" points="87.3 19 87.3 21.9 89.3 17.9"/>
				<polygon class="st40" points="91.4 18.1 87.3 26.4 87.3 33 89.8 31.5 94.5 22.1"/>
				<polygon class="st39" points="90.6 17.1 89.3 17.9 87.3 21.9 87.3 26.4 91.4 18.1"/>
				<polygon class="st39" points="94.5 22.1 89.8 31.5 93.1 29.6 95.9 23.9"/>
				<polygon class="st40" points="95.9 23.9 93.1 29.6 98 26.7"/>
			
			<path class="st5" d="M0,26.8v34.8l31.9,18.2V45L0,26.8z M29.8,76.3L2.1,60.5v0v-30l26.2,14.9l1.6,0.9V76.3z"/>
			<polygon class="st32" points="29.8 55.1 2.1 39.3 2.1 30.4 28.3 45.3 29.8 46.2"/>
			<polygon class="st5" points="29.8 55.1 2.1 39.3 2.1 37.5 29.8 53.3"/>
			<polygon class="st5" points="29.8 51.9 2.1 36 2.1 34.3 29.8 50.1"/>
			<polygon class="st5" points="29.8 49 2.1 33.2 2.1 31.4 29.8 47.2"/>
			
				<path class="st41" d="m21.9 76.5c0 0.2 0.1 0.4 0.3 0.4l4.4 2.6c0.1 0.1 0.3 0 0.3-0.1v-1.8c0-0.2-0.1-0.4-0.3-0.4l-4.4-2.6c-0.1-0.1-0.3 0-0.3 0.1v1.8z"/>
			
			
				<path class="st41" d="m6.3 67.8c0 0.2 0.1 0.4 0.3 0.4l4.4 2.6c0.1 0.1 0.3 0 0.3-0.1v-1.8c0-0.2-0.1-0.4-0.3-0.4l-4.4-2.6c-0.1-0.1-0.3 0-0.3 0.1v1.8z"/>
			
			
				
					<polygon class="st42" points="99.4 38.8 97.4 40 96.9 39.7 99 38.5"/>
					<polygon class="st43" points="99.4 38.8 99.4 40.4 97.4 41.6 97.4 40"/>
					<polygon class="st44" points="97.4 40 97.4 41.6 96.9 41.4 96.9 39.7"/>
				
			
			
				
					<polygon class="st42" points="77.1 51.7 75.1 52.9 74.7 52.7 76.7 51.5"/>
					<polygon class="st43" points="77.1 51.7 77.1 53.4 75.1 54.6 75.1 52.9"/>
					<polygon class="st44" points="75.1 52.9 75.1 54.6 74.7 54.3 74.7 52.7"/>
				
			
			
				
					
						
							<polygon class="st45" points="70.7 2.9 70.7 3.2 69.2 4.1 69.2 3.8"/>
							<polygon class="st46" points="66 1.9 66 2.2 69.2 4.1 69.2 3.8"/>
							<polygon class="st47" points="69.2 3.8 70.7 2.9 67.4 1 66 1.9"/>
						
						
							<polygon class="st42" points="70.2 2.1 70.2 2.9 69.1 3.5 69.1 2.7"/>
							<polygon class="st44" points="66.5 1.2 66.5 2 69.1 3.5 69.1 2.7"/>
							<polygon class="st43" points="69.1 2.7 70.2 2.1 67.5 0.5 66.5 1.2"/>
						
					
				
				
					
						
							<polygon class="st45" points="78.9 7.6 78.9 8 77.4 8.8 77.4 8.5"/>
							<polygon class="st46" points="74.2 6.6 74.2 7 77.4 8.8 77.4 8.5"/>
							<polygon class="st47" points="77.4 8.5 78.9 7.6 75.6 5.7 74.2 6.6"/>
						
						
							<polygon class="st42" points="78.4 6.8 78.4 7.6 77.3 8.2 77.3 7.5"/>
							<polygon class="st44" points="74.6 5.9 74.6 6.7 77.3 8.2 77.3 7.5"/>
							<polygon class="st43" points="77.3 7.5 78.4 6.8 75.7 5.3 74.6 5.9"/>
						
					
				
				
					
						
							<polygon class="st45" points="87.1 12.3 87.1 12.7 85.6 13.6 85.6 13.2"/>
							<polygon class="st46" points="82.3 11.3 82.3 11.7 85.6 13.6 85.6 13.2"/>
							<polygon class="st47" points="85.6 13.2 87.1 12.3 83.8 10.5 82.3 11.3"/>
						
						
							<polygon class="st42" points="86.6 11.5 86.6 12.3 85.5 12.9 85.5 12.2"/>
							<polygon class="st44" points="82.8 10.6 82.8 11.4 85.5 12.9 85.5 12.2"/>
							<polygon class="st43" points="85.5 12.2 86.6 11.5 83.9 10 82.8 10.6"/>
						
					
				
			
		
		
			
				
					<g class="st7">
						
							<polygon class="st19" points="77.3 68.3 77.3 78.5 65.6 85.3 65.6 75.1"/>
						
						
							
								<polygon class="st20" points="65.6 75.1 65.6 85.3 51.8 77.3 51.9 67.1"/>
							
						
						
							
								<polygon class="st21" points="77.3 68.3 65.6 75.1 51.9 67.1 63.5 60.3"/>
							
						
					</g>
				
				
					<polygon class="st22" points="59 63 56.6 64.4 70.3 72.4 72.8 71"/>
				
				<polygon class="st23" points="70.3 72.4 72.8 71 72.8 73.4 70.3 74.8"/>
			
			
				
					<polygon class="st24" points="76 77.9 76 78.2 74.2 79.2 74.2 79"/>
					<polygon class="st24" points="75.7 78 75.5 78.1 75.5 76.8 75.3 77 75.6 76.3 75.9 76.6 75.7 76.7"/>
					<polygon class="st24" points="74.8 78.5 74.6 78.7 74.6 77.4 74.4 77.5 74.7 76.8 75 77.1 74.8 77.3"/>
				
				<path class="st24" d="m73.6 79.4v-1.8c0-0.3 0.3-0.8 0.6-1l1.8-1c0.3-0.2 0.6-0.1 0.6 0.3v1.8c0 0.3-0.3 0.8-0.6 1l-1.8 1c-0.3 0.1-0.6 0-0.6-0.3zm0.6-2.7c-0.3 0.2-0.5 0.5-0.5 0.8v1.8c0 0.3 0.2 0.4 0.5 0.2l1.8-1c0.3-0.2 0.5-0.5 0.5-0.8v-1.8c0-0.3-0.2-0.4-0.5-0.2l-1.8 1z"/>
			
			
				<path class="st24" d="m70.5 80.2c0-0.1 0.2-0.2 0.4-0.3s0.4-0.2 0.4-0.1l0.3-0.3v1.1c0 0.1 0.1 0.1 0.3 0.1 0.1-0.1 0.3-0.3 0.3-0.4h-0.1s-0.1 0.1-0.1 0.1c0 0.1-0.1 0.2-0.1 0.2-0.2 0.1-0.1-0.1-0.1-0.1v-1c0.2-0.1 0.3-0.1 0.3-0.1s0.1-0.2 0.4-0.3c0.2-0.1 0.4-0.2 0.4-0.1 0-0.4-0.5-0.6-1.1-0.3h-0.1c-0.1 0-0.1 0.1-0.1 0.1-0.7 0.2-1.2 0.9-1.1 1.4-0.1 0 0 0 0 0z"/>
				<path class="st24" d="m70.1 81.4v-1.8c0-0.3 0.3-0.8 0.6-1l1.8-1c0.3-0.2 0.6-0.1 0.6 0.3v1.8c0 0.3-0.3 0.8-0.6 1l-1.8 1c-0.3 0.2-0.6 0.1-0.6-0.3zm0.6-2.6c-0.3 0.2-0.5 0.5-0.5 0.8v1.8c0 0.3 0.2 0.4 0.5 0.2l1.8-1c0.3-0.2 0.5-0.5 0.5-0.8v-1.8c0-0.3-0.2-0.4-0.5-0.2l-1.8 1z"/>
			
			
				<path class="st24" d="m67.6 81.5c0 0.3 0.2 0.4 0.4 0.3v0.9l-0.3 0.2v0.1l0.7-0.4v-0.1l-0.3 0.2v-0.9c0.2-0.2 0.4-0.5 0.4-0.8v-0.6l-0.9 0.5v0.6z"/>
				<path class="st24" d="m66.6 83.4v-1.8c0-0.3 0.3-0.8 0.6-1l1.8-1c0.3-0.2 0.6-0.1 0.6 0.3v1.8c0 0.3-0.3 0.8-0.6 1l-1.8 1c-0.3 0.2-0.6 0.1-0.6-0.3zm0.6-2.6c-0.3 0.2-0.5 0.5-0.5 0.8v1.8c0 0.3 0.2 0.4 0.5 0.2l1.8-1c0.3-0.2 0.5-0.5 0.5-0.8v-1.8c0-0.3-0.2-0.4-0.5-0.2l-1.8 1z"/>
			
		
		
			
				
					<g class="st7">
						
							
								<polygon class="st25" points="61.9 74.7 58.3 72.6 56.4 71.6 52.9 69.5 52.9 61.7 56.4 63.7 56.6 63.9 61.9 66.9"/>
							
						
						
							
								<polygon class="st26" points="74.9 67.2 69.3 70.4 67.5 71.5 61.9 74.7 61.9 66.9 67.5 63.7 69.3 62.6 74.9 59.4"/>
							
						
						
							
								<polygon class="st27" points="74.9 59.4 69.3 62.6 67.5 63.7 61.9 66.9 52.9 61.7 58.5 58.5 60.4 57.4 66 54.2"/>
							
						
					</g>
				
				<g class="st0">
					
						
							<polygon class="st28" points="69.1 62.8 67.2 63.8 58.3 58.7 60.1 57.6"/>
						
					
				</g>
				<polygon class="st29" points="69.1 62.8 69.1 70.6 67.2 71.7 67.2 63.8"/>
				<polygon class="st23" points="69.3 62.6 69.3 70.4 67.5 71.5 67.5 63.7"/>
				
					<polygon class="st22" points="69.3 62.6 67.5 63.7 58.5 58.5 60.4 57.4"/>
				
				<g class="st30">
					<polygon class="st22" points="69.7 56.3 71.5 57.4 58.5 65 56.6 63.9"/>
				</g>
				<polygon class="st31" points="58.5 64.9 58.5 72.8 56.6 71.7 56.6 63.9 56.9 64"/>
				
					<polygon class="st22" points="69.5 56.2 71.3 57.3 58.3 64.8 56.4 63.7"/>
				
				<polygon class="st23" points="58.3 64.8 58.3 72.6 56.4 71.6 56.4 63.7 56.6 63.9"/>
			
		
		
			
				<g class="st7">
					
						<polygon class="st26" points="71.3 53.4 71.2 60.1 64.7 63.8 64.7 57.2"/>
					
					
						<polygon class="st25" points="64.7 57.2 64.7 63.8 58.1 60 58.1 53.3"/>
					
					
						
							<polygon class="st27" points="71.3 53.4 64.7 57.2 58.1 53.3 64.6 49.5"/>
						
					
				</g>
			
			
				<polygon class="st22" points="62.1 51 60.7 51.8 67.4 55.6 68.7 54.9"/>
			
			<polygon class="st23" points="67.4 55.6 68.7 54.9 68.7 56.2 67.4 57"/>
		
	

</svg>
