<?xml version="1.0" encoding="UTF-8"?>
<svg enable-background="new 0 0 204.2 170.1" version="1.1" viewBox="0 0 204.2 170.1" xml:space="preserve" xmlns="http://www.w3.org/2000/svg">
<style type="text/css">
	.st0{fill:#212428;}
	.st1{fill:#41BA03;}
	.st2{fill:#E59C33;}
	.st3{fill:#F4AA35;}
	.st4{fill:#FFAD97;}
	.st5{fill:#44A511;}
	.st6{fill:#FFC5B3;}
	.st7{fill:#DBA763;}
	.st8{fill:#E8B679;}
	.st9{fill:#FFE1C0;}
	.st10{fill:#C2AB9D;}
	.st11{fill:#F7ECEA;}
	.st12{fill:#664133;}
	.st13{fill:#ED8E2F;}
	.st14{fill:#C96A1C;}
	.st15{fill:#D87923;}
	.st16{fill:#B8C4DD;}
	.st17{fill:#C1CDEB;}
</style>

	<path class="st0" d="m167.1 121.5s-1.5 1.7-3.6 3.7c-1.9 1.9-2.5 2.4-4.3 4.1-1 1-0.2 1.9 1.8 1.9 1.7-0.1 5.6-0.9 7.8-1.7 1.6-0.6 4.4-2.1 5.9-3.1 1.5-0.9 1.7-2.2 1.7-2.2v-3.1l-9.3 0.4z"/>
	<path class="st0" d="m195.2 118.7s-1 1.4-3 3.4c-1.9 1.9-2.5 2.6-4.1 4.8-0.4 0.5-0.6 1.9 1.4 1.9 1.7-0.1 4.4-0.8 6.5-1.6 2.5-0.9 4.6-3.4 6.1-4.3s2.1-3 2.1-3l-1-3-8 1.8z"/>
	<path class="st1" d="m194.4 68.6c0.7-11.3-5.5-17.3-5.5-17.3 0.5-3.8-17.2 1.5-17.2 1.5s-3.8 20.6-5.4 31.4c-1.8 12.3-0.7 37.3-0.7 37.3s0.2 2.7 4.8 2.7c3.5 0 6.1-3.1 6.1-3.1l0.4-28.5 4.1-20.2s3.9 16.4 5.2 22.3c1.3 6.3 6.4 24.8 6.4 24.8s3.3 3.8 7.4 1.7c4.1-2 3.3-4.3 3.3-4.3s-0.8-13.2-6-24.9c-0.7-8.9-3.2-18.2-2.9-23.4z"/>
	<path class="st2" d="m174.1 23s-2.5-0.1-5.2 4.8c-2.6 4.9-5.1 10.2-5.1 10.2s3.8 0.5 8 4.4c5.7-5.2 6.6-17 2.3-19.4z"/>
	<path class="st3" d="m174.1 23s-1.4 2.7-2.7 7.8c-1.3 5-0.8 28.3-0.8 28.3s5.4 3.8 14.5 3.1c5.4-0.4 8.1-3.8 8.1-3.8s3.2-22.8 2.8-26.1-7.3-11-7.3-11-9.1-0.4-14.6 1.7z"/>
	<path class="st4" d="m180.3 19.8-1.1 6.1s3.1 3.5 6.2 0.9 3.5-3.8 3.5-3.8l-1.5-8.4-7.1 5.2z"/>
	<path class="st1" d="m181.6 37.2s3.9-5.9 7.1-7.6c3.1-1.7 4.8-2 4.8-2s-1.1-2.3-1.9-2.6c-1.3 0.2-2.2 0.6-5 2-2.8 1.5-5.9 5-7.1 7.2-2.4 4.3 0.3 5.5 2.1 3z"/>
	<path class="st1" d="m175.3 22.5s-2.6 6.1-2.9 9.1c-0.3 2.9 0.3 3.9 1.5 4s1.2-2 1.6-4.3c0.3-2.2 2.5-9.5 2.5-9.5s-2.7 0.7-2.7 0.7z"/>
	<path class="st1" d="m193.6 55.2s-2.9 2.3-5.7 2c-2.5-0.3-6.1-2.7-5.9-10.6s0.9-11.5 0.9-11.5l-9.6-4.2s-2.6 6-3.1 17.8-0.7 15.8-0.7 15.8 10.2 0.6 16.2 0 8.6-1.4 8.6-1.4l-0.7-7.9z"/>
	<path class="st3" d="m174.4 33c0 0.5-0.3 0.9-0.6 0.9s-0.6-0.4-0.6-0.9 0.3-0.9 0.6-0.9 0.6 0.4 0.6 0.9z"/>
	<path class="st3" d="m180.1 35.6c-0.3 0.4-0.3 0.9 0 1.1s0.7 0 1-0.4 0.3-0.9 0-1.1c-0.3-0.1-0.7 0-1 0.4z"/>
	<path class="st5" d="m172.5 36.8c-0.4 2-0.2 8.2 3.3 9.1 3.2 0.8 4-2.9 4.8-5.8-4.2-0.9-8.1-3.3-8.1-3.3z"/>
	<path class="st6" d="m184.6 5.5c-2.6-2-8.8-2.6-11 3.8-2.4 6.7 3.7 15.1 6.9 13.6 1.8-0.8 5.6-3.6 6.7-7.1 1.2-4.1-0.6-8.8-2.6-10.3z"/>
	<polygon class="st7" points="159.7 78.3 159.7 54 179.3 44.3 179.3 67.2"/>
	<polygon class="st8" points="159.7 78.3 159.7 54 140.1 44.3 140.1 67.2"/>
	<polygon class="st7" points="159.7 78.5 159.7 54 179.3 42.7 179.3 67.2"/>
	<polygon class="st8" points="159.7 78.5 159.7 54 140.1 42.7 140.1 67.2"/>
	<polygon class="st9" points="140.1 42.7 159.7 54 179.3 42.7 159.7 31.4"/>
	<polygon class="st10" points="172 54.1 167.6 56.6 167.6 49.5 172 46.9"/>
	<polygon class="st11" points="172 46.9 152.4 35.6 148.1 38.1 167.6 49.5"/>
	<polygon class="st10" points="162.3 75 162.3 73.8 168.9 70 168.9 71.2"/>
	<polygon class="st10" points="162.3 72.8 162.3 71.5 168.9 67.7 168.9 69"/>
	<polygon class="st10" points="174.7 63.6 174.7 68 177.9 66.2 177.9 61.8"/>
	<polygon class="st10" points="144.4 63.2 144.4 67.7 141.3 65.9 141.3 61.3"/>
	<polygon class="st10" points="148.7 65.6 148.7 70.2 145.6 68.4 145.6 63.8"/>
	<polygon class="st11" points="147.7 49.9 147.7 56.4 141.3 52.7 141.3 46.1"/>
	<polygon class="st10" points="147 51.2 147 50.1 141.9 47.2 141.9 48.2"/>
	<path class="st6" d="m184.1 44.1s-3.7 7.8-5.2 10-7.8 7.1-9 7.9c-1.3 0.7-4.2 1.6-5.7 1.5s-2.6 0.6-1.1 1.2 2.9 0.7 2.9 0.7-2.7 2-3.8 3.7c-0.9 1.4-1.6 3.9 1.7 3.1 2.7-0.6 6.4-4.7 7.4-5.6 1.8-1.7 9.1-5.7 10.8-6.8 2.3-1.7 8.9-11.4 8.9-11.4s-2.1-5.3-6.9-4.3z"/>
	<path class="st2" d="m194.7 29.5c-1.9-1.5-6 3.7-8.2 7s-3.9 8.2-3.9 8.2 2.6 1.9 5 3.4c2 1.2 4.1 2.2 4.1 2.2s9.6-15.5 3-20.8z"/>
	<path class="st12" d="m173 11.4c1.1 1.1 2.6 2.3 5.9 1.8 2.6-0.4 4.5-1.7 4.5-1.7l0.5 3.5s0.5-0.1 0.9-0.3c0.1-1.4 0.6-1.8 1.3-1.4 0.9 0.5 0.9 2.5 0.9 2.5s2.6-2.5 1.7-6.5c-0.6-2.5-3.9-7.4-8.6-7s-7.4 3.5-8 6.2c-0.1 1.3 0.5 2.4 0.9 2.9z"/>
	<path class="st1" d="m172.1 8.3s-6 4.2-7.1 5.1c-1 0.9 4.8 4.8 8.9 3.5s10.3-5.9 10.3-5.9-12.1-2.7-12.1-2.7z"/>
	<path class="st5" d="m172.1 8.3s6.9 4.3 11.2 3c4.3-1.2 5.5-2.3 5.5-2.3s-0.4-9-8.3-9c-7.9 0.1-8.4 8.3-8.4 8.3z"/>


	<polygon class="st13" points="21.2 109.2 68 136.2 69.4 135.3 22.8 108.3"/>
	<polygon class="st14" points="21.2 115.8 68 142.8 68 136.2 21.2 109.2"/>
	<polygon class="st15" points="68 142.8 68 136.2 69.4 135.3 69.4 142"/>
	<polygon class="st13" points="73.3 79 120.1 106 121.5 105.1 74.9 78.1"/>
	<polygon class="st14" points="73.3 85.6 120.1 112.6 120.1 106 73.3 79"/>
	<polygon class="st15" points="120.1 112.6 120.1 106 121.5 105.1 121.5 111.8"/>
	<polygon class="st13" points="48 93.3 94.8 120.3 96.2 119.4 49.6 92.5"/>
	<polygon class="st14" points="48 100 94.8 127 94.8 120.3 48 93.3"/>
	<polygon class="st15" points="94.8 127 94.8 120.3 96.2 119.4 96.2 126.1"/>
	<polygon class="st15" points="68 136.3 121.5 105.4 121.5 103.2 68 134.1"/>
	<polygon class="st13" points="115.9 100.1 121.5 103.2 68 134.1 62.4 131"/>
	<polygon class="st14" points="62.4 134.9 68 138.1 68 134.1 62.4 131"/>
	<polygon class="st15" points="57.6 130.1 111.2 99.1 111.2 97 57.6 128"/>
	<polygon class="st13" points="105.6 93.8 111.2 97 57.6 128 51.9 124.8"/>
	<polygon class="st14" points="51.9 128.7 57.6 132 57.6 128 51.9 124.8"/>
	<polygon class="st15" points="46.9 124.1 100.7 93 100.7 90.8 46.9 121.9"/>
	<polygon class="st13" points="95.1 87.7 100.7 90.8 46.9 121.9 41.3 118.8"/>
	<polygon class="st14" points="41.3 122.7 46.9 125.9 46.9 121.9 41.3 118.8"/>
	<polygon class="st15" points="36.4 117.9 90.1 87 90.1 84.9 36.4 115.8"/>
	<polygon class="st13" points="84.5 81.7 90.1 84.9 36.4 115.8 30.8 112.6"/>
	<polygon class="st14" points="30.8 116.5 36.4 119.8 36.4 115.8 30.8 112.6"/>
	<polygon class="st15" points="26.8 112.5 80.6 81.5 80.6 79.3 26.8 110.4"/>
	<polygon class="st13" points="75 76.2 80.6 79.3 26.8 110.4 21.2 107.2"/>
	<polygon class="st14" points="21.2 111.1 26.8 114.4 26.8 110.4 21.2 107.2"/>
	<polygon class="st7" points="116.1 102.3 116.1 85.7 91.9 99.7 91.9 116.3"/>
	<polygon class="st8" points="57.1 96.2 57.1 79.6 91.9 99.7 91.9 116.3"/>
	<polygon class="st9" points="81.2 65.6 116.1 85.7 91.9 99.7 57.1 79.6"/>
	<polygon class="st10" points="107.1 90.9 101.7 94 101.7 102.8 107.1 99.7"/>
	<polygon class="st11" points="101.7 94 66.9 73.9 72.3 70.8 107.1 90.9"/>
	<polygon class="st10" points="101.8 108.9 101.8 107.3 93.7 112 93.7 113.6"/>
	<polygon class="st10" points="101.8 106.1 101.8 104.5 93.7 109.2 93.7 110.8"/>
	<polygon class="st10" points="58.1 89.2 58.1 94.8 62 97.1 62 91.5"/>
	<polygon class="st10" points="63.4 92.3 63.4 97.9 67.2 100.2 67.2 94.5"/>
	<polygon class="st10" points="68.7 95.4 68.7 101 72.6 103.2 72.6 97.6"/>
	<polygon class="st11" points="82.8 95.7 82.8 103.8 90.8 108.5 90.8 100.4"/>
	<polygon class="st10" points="83.6 98.4 83.6 97.1 89.8 100.7 89.8 102"/>
	<polygon class="st7" points="89.5 117.9 89.5 101.3 65.3 115.3 65.3 131.9"/>
	<polygon class="st8" points="30.5 111.8 30.5 95.1 65.3 115.3 65.3 131.9"/>
	<polygon class="st9" points="54.7 81.2 89.5 101.3 65.3 115.3 30.5 95.1"/>
	<polygon class="st10" points="80.5 106.4 75.1 109.6 75.1 118.4 80.5 115.3"/>
	<polygon class="st11" points="75.1 109.6 40.3 89.5 45.7 86.3 80.5 106.4"/>
	<polygon class="st10" points="75.3 124.5 75.3 122.9 67.1 127.6 67.1 129.2"/>
	<polygon class="st10" points="75.3 121.7 75.3 120.1 67.1 124.8 67.1 126.4"/>
	<polygon class="st10" points="31.5 104.8 31.5 110.4 35.4 112.7 35.4 107"/>
	<polygon class="st10" points="36.8 107.9 36.8 113.5 40.7 115.7 40.7 110.1"/>
	<polygon class="st10" points="42.2 110.9 42.2 116.6 46.1 118.8 46.1 113.2"/>
	<polygon class="st11" points="56.3 111.3 56.3 119.4 64.3 124 64.3 115.9"/>
	<polygon class="st10" points="57 114 57 112.7 63.3 116.3 63.3 117.6"/>
	<polygon class="st7" points="116.1 83.9 116.1 67.3 91.9 81.3 91.9 98"/>
	<polygon class="st8" points="57.1 77.8 57.1 61.2 91.9 81.3 91.9 98"/>
	<polygon class="st9" points="81.2 47.2 116.1 67.3 91.9 81.3 57.1 61.2"/>
	<polygon class="st10" points="107.1 72.5 101.7 75.6 101.7 84.4 107.1 81.3"/>
	<polygon class="st11" points="101.7 75.6 66.9 55.5 72.3 52.4 107.1 72.5"/>
	<polygon class="st10" points="101.8 90.5 101.8 88.9 93.7 93.6 93.7 95.2"/>
	<polygon class="st10" points="101.8 87.7 101.8 86.2 93.7 90.9 93.7 92.4"/>
	<polygon class="st10" points="58.1 70.8 58.1 76.5 62 78.7 62 73.1"/>
	<polygon class="st10" points="63.4 73.9 63.4 79.5 67.2 81.8 67.2 76.1"/>
	<polygon class="st10" points="68.7 77 68.7 82.6 72.6 84.9 72.6 79.2"/>
	<polygon class="st11" points="82.8 77.4 82.8 85.5 90.8 90.1 90.8 82"/>
	<polygon class="st10" points="83.6 80 83.6 78.7 89.8 82.3 89.8 83.6"/>
	<polygon class="st7" points="89.5 99.5 89.5 82.9 65.3 96.9 65.3 113.5"/>
	<polygon class="st8" points="30.5 93.4 30.5 76.8 65.3 96.9 65.3 113.5"/>
	<polygon class="st9" points="54.7 62.8 89.5 82.9 65.3 96.9 30.5 76.8"/>
	<polygon class="st10" points="80.5 88 75.1 91.2 75.1 100 80.5 96.9"/>
	<polygon class="st11" points="75.1 91.2 40.3 71.1 45.7 68 80.5 88"/>
	<polygon class="st10" points="75.3 106.1 75.3 104.5 67.1 109.2 67.1 110.8"/>
	<polygon class="st10" points="75.3 103.3 75.3 101.7 67.1 106.4 67.1 108"/>
	<polygon class="st10" points="31.5 86.4 31.5 92 35.4 94.3 35.4 88.6"/>
	<polygon class="st10" points="36.8 89.5 36.8 95.1 40.7 97.3 40.7 91.7"/>
	<polygon class="st10" points="42.2 92.6 42.2 98.2 46.1 100.4 46.1 94.8"/>
	<polygon class="st11" points="56.3 92.9 56.3 101 64.3 105.6 64.3 97.6"/>
	<polygon class="st10" points="57 95.6 57 94.3 63.3 97.9 63.3 99.2"/>
	<polygon class="st7" points="35.9 76 35.9 55.2 66.2 72.7 66.2 93.6"/>
	<polygon class="st8" points="109.8 68.3 109.8 47.5 66.2 72.7 66.2 93.6"/>
	<polygon class="st9" points="79.5 29.9 35.9 55.2 66.2 72.7 109.8 47.5"/>
	<polygon class="st10" points="47.1 61.6 53.9 65.6 53.9 76.6 47.1 72.7"/>
	<polygon class="st11" points="53.9 65.6 97.5 40.4 90.8 36.4 47.1 61.6"/>
	<polygon class="st10" points="53.7 84.3 53.7 82.3 63.9 88.2 63.9 90.1"/>
	<polygon class="st10" points="53.7 80.8 53.7 78.8 63.9 84.7 63.9 86.6"/>
	<polygon class="st10" points="108.6 59.6 108.6 66.6 103.7 69.4 103.7 62.4"/>
	<polygon class="st10" points="101.9 63.4 101.9 70.5 97.1 73.3 97.1 66.2"/>
	<polygon class="st10" points="95.2 67.3 95.2 74.3 90.3 77.2 90.3 70.1"/>
	<polygon class="st11" points="77.5 67.8 77.5 77.9 67.5 83.7 67.5 73.6"/>
	<polygon class="st10" points="76.6 71.1 76.6 69.4 68.7 74 68.7 75.6"/>


	<polygon class="st13" points="68.5 136.5 115.3 163.5 116.7 162.6 70.1 135.6"/>
	<polygon class="st14" points="68.5 143.1 115.3 170.1 115.3 163.5 68.5 136.5"/>
	<polygon class="st15" points="115.3 170.1 115.3 163.5 116.7 162.6 116.7 169.3"/>
	<polygon class="st13" points="120.6 106.3 167.4 133.3 168.8 132.4 122.2 105.4"/>
	<polygon class="st14" points="120.6 112.9 167.4 139.9 167.4 133.3 120.6 106.3"/>
	<polygon class="st15" points="167.4 139.9 167.4 133.3 168.8 132.4 168.8 139.1"/>
	<polygon class="st13" points="95.3 120.6 142.1 147.6 143.5 146.7 96.9 119.8"/>
	<polygon class="st14" points="95.3 127.3 142.1 154.3 142.1 147.6 95.3 120.6"/>
	<polygon class="st15" points="142.1 154.3 142.1 147.6 143.5 146.7 143.5 153.4"/>
	<polygon class="st15" points="115.3 163.6 168.8 132.7 168.8 130.5 115.3 161.4"/>
	<polygon class="st13" points="163.2 127.4 168.8 130.5 115.3 161.4 109.7 158.3"/>
	<polygon class="st14" points="109.7 162.2 115.3 165.4 115.3 161.4 109.7 158.3"/>
	<polygon class="st15" points="104.9 157.4 158.5 126.4 158.5 124.3 104.9 155.3"/>
	<polygon class="st13" points="152.9 121.1 158.5 124.3 104.9 155.3 99.2 152.1"/>
	<polygon class="st14" points="99.2 156 104.9 159.3 104.9 155.3 99.2 152.1"/>
	<polygon class="st15" points="94.2 151.4 148 120.3 148 118.1 94.2 149.2"/>
	<polygon class="st13" points="142.4 115 148 118.1 94.2 149.2 88.6 146.1"/>
	<polygon class="st14" points="88.6 150 94.2 153.2 94.2 149.2 88.6 146.1"/>
	<polygon class="st15" points="83.7 145.2 137.4 114.3 137.4 112.2 83.7 143.1"/>
	<polygon class="st13" points="131.8 109 137.4 112.2 83.7 143.1 78.1 139.9"/>
	<polygon class="st14" points="78.1 143.8 83.7 147.1 83.7 143.1 78.1 139.9"/>
	<polygon class="st15" points="74.1 139.8 127.9 108.8 127.9 106.6 74.1 137.7"/>
	<polygon class="st13" points="122.3 103.5 127.9 106.6 74.1 137.7 68.5 134.5"/>
	<polygon class="st14" points="68.5 138.4 74.1 141.7 74.1 137.7 68.5 134.5"/>
	<polygon class="st7" points="163.4 129.6 163.4 113 139.2 127 139.2 143.6"/>
	<polygon class="st8" points="104.4 123.5 104.4 106.9 139.2 127 139.2 143.6"/>
	<polygon class="st9" points="128.5 92.9 163.4 113 139.2 127 104.4 106.9"/>
	<polygon class="st10" points="154.4 118.2 149 121.3 149 130.1 154.4 127"/>
	<polygon class="st11" points="149 121.3 114.2 101.2 119.6 98.1 154.4 118.2"/>
	<polygon class="st10" points="149.1 136.2 149.1 134.6 141 139.3 141 140.9"/>
	<polygon class="st10" points="149.1 133.4 149.1 131.8 141 136.5 141 138.1"/>
	<polygon class="st10" points="105.4 116.5 105.4 122.1 109.3 124.4 109.3 118.8"/>
	<polygon class="st10" points="110.7 119.6 110.7 125.2 114.5 127.5 114.5 121.8"/>
	<polygon class="st10" points="116 122.7 116 128.3 119.9 130.5 119.9 124.9"/>
	<polygon class="st11" points="130.1 123 130.1 131.1 138.1 135.8 138.1 127.7"/>
	<polygon class="st10" points="130.9 125.7 130.9 124.4 137.1 128 137.1 129.3"/>
	<polygon class="st7" points="136.8 145.2 136.8 128.6 112.6 142.6 112.6 159.2"/>
	<polygon class="st8" points="77.8 139.1 77.8 122.4 112.6 142.6 112.6 159.2"/>
	<polygon class="st9" points="102 108.5 136.8 128.6 112.6 142.6 77.8 122.4"/>
	<polygon class="st10" points="127.8 133.7 122.4 136.9 122.4 145.7 127.8 142.6"/>
	<polygon class="st11" points="122.4 136.9 87.6 116.8 93 113.6 127.8 133.7"/>
	<polygon class="st10" points="122.6 151.8 122.6 150.2 114.4 154.9 114.4 156.5"/>
	<polygon class="st10" points="122.6 149 122.6 147.4 114.4 152.1 114.4 153.7"/>
	<polygon class="st10" points="78.8 132.1 78.8 137.7 82.7 140 82.7 134.3"/>
	<polygon class="st10" points="84.1 135.2 84.1 140.8 88 143 88 137.4"/>
	<polygon class="st10" points="89.5 138.2 89.5 143.9 93.4 146.1 93.4 140.5"/>
	<polygon class="st11" points="103.6 138.6 103.6 146.7 111.6 151.3 111.6 143.2"/>
	<polygon class="st10" points="104.3 141.3 104.3 140 110.6 143.6 110.6 144.9"/>
	<polygon class="st7" points="163.4 111.2 163.4 94.6 139.2 108.6 139.2 125.3"/>
	<polygon class="st8" points="104.4 105.1 104.4 88.5 139.2 108.6 139.2 125.3"/>
	<polygon class="st9" points="128.5 74.5 163.4 94.6 139.2 108.6 104.4 88.5"/>
	<polygon class="st10" points="154.4 99.8 149 102.9 149 111.7 154.4 108.6"/>
	<polygon class="st11" points="149 102.9 114.2 82.8 119.6 79.7 154.4 99.8"/>
	<polygon class="st10" points="149.1 117.8 149.1 116.2 141 120.9 141 122.5"/>
	<polygon class="st10" points="149.1 115 149.1 113.5 141 118.2 141 119.7"/>
	<polygon class="st10" points="105.4 98.1 105.4 103.8 109.3 106 109.3 100.4"/>
	<polygon class="st10" points="110.7 101.2 110.7 106.8 114.5 109.1 114.5 103.4"/>
	<polygon class="st10" points="116 104.3 116 109.9 119.9 112.2 119.9 106.5"/>
	<polygon class="st11" points="130.1 104.7 130.1 112.8 138.1 117.4 138.1 109.3"/>
	<polygon class="st10" points="130.9 107.3 130.9 106 137.1 109.6 137.1 110.9"/>
	<polygon class="st7" points="136.8 126.8 136.8 110.2 112.6 124.2 112.6 140.8"/>
	<polygon class="st8" points="77.8 120.7 77.8 104.1 112.6 124.2 112.6 140.8"/>
	<polygon class="st9" points="102 90.1 136.8 110.2 112.6 124.2 77.8 104.1"/>
	<polygon class="st10" points="127.8 115.3 122.4 118.5 122.4 127.3 127.8 124.2"/>
	<polygon class="st11" points="122.4 118.5 87.6 98.4 93 95.3 127.8 115.3"/>
	<polygon class="st10" points="122.6 133.4 122.6 131.8 114.4 136.5 114.4 138.1"/>
	<polygon class="st10" points="122.6 130.6 122.6 129 114.4 133.7 114.4 135.3"/>
	<polygon class="st10" points="78.8 113.7 78.8 119.3 82.7 121.6 82.7 115.9"/>
	<polygon class="st10" points="84.1 116.8 84.1 122.4 88 124.6 88 119"/>
	<polygon class="st10" points="89.5 119.9 89.5 125.5 93.4 127.7 93.4 122.1"/>
	<polygon class="st11" points="103.6 120.2 103.6 128.3 111.6 132.9 111.6 124.9"/>
	<polygon class="st10" points="104.3 122.9 104.3 121.6 110.6 125.2 110.6 126.5"/>
	<polygon class="st7" points="83.2 103.3 83.2 82.5 113.5 100 113.5 120.9"/>
	<polygon class="st8" points="157.1 95.6 157.1 74.8 113.5 100 113.5 120.9"/>
	<polygon class="st9" points="126.8 57.2 83.2 82.5 113.5 100 157.1 74.8"/>
	<polygon class="st10" points="94.4 88.9 101.2 92.9 101.2 103.9 94.4 100"/>
	<polygon class="st11" points="101.2 92.9 144.8 67.7 138.1 63.7 94.4 88.9"/>
	<polygon class="st10" points="101 111.6 101 109.6 111.2 115.5 111.2 117.4"/>
	<polygon class="st10" points="101 108.1 101 106.1 111.2 112 111.2 113.9"/>
	<polygon class="st10" points="155.9 86.9 155.9 93.9 151 96.7 151 89.7"/>
	<polygon class="st10" points="149.2 90.7 149.2 97.8 144.4 100.6 144.4 93.5"/>
	<polygon class="st10" points="142.5 94.6 142.5 101.6 137.6 104.5 137.6 97.4"/>
	<polygon class="st11" points="124.8 95.1 124.8 105.2 114.8 111 114.8 100.9"/>
	<polygon class="st10" points="123.9 98.4 123.9 96.7 116 101.3 116 102.9"/>


	<polygon class="st7" points="39.5 75.4 39.5 63.2 59.1 51.9 59.1 64.1"/>
	<polygon class="st8" points="39.5 75.4 39.5 63.2 11.3 46.9 11.3 59.1"/>
	<polygon class="st9" points="11.3 46.9 39.5 63.2 59.1 51.9 30.9 35.6"/>
	<polygon class="st10" points="41 70.9 41 69.7 47.6 65.9 47.6 67.1"/>
	<polygon class="st11" points="38 64.5 38 71.3 28 65.5 28 58.7"/>
	<polygon class="st10" points="36.8 66.5 36.8 64.9 28.9 60.3 28.9 62"/>
	<polygon class="st10" points="54.2 61.1 47.4 65.1 47.4 58.6 54.2 54.7"/>
	<polygon class="st11" points="54.2 54.7 26 38.4 19.2 42.4 47.4 58.7"/>
	<path class="st6" d="m9.5 66.2c1.6-5.5 2.5-11.6-0.3-16l-6 0.1s-2.4 5.2-3 9.1 0.3 5.8 1.8 7.6c1.6 1.9 7.1-0.6 7.3-0.8 0 0.1 0.1 0.1 0.2 0z"/>
	<path class="st0" d="m25.8 151.9s6.4-2.9 9.6-3 3.5 3.6 0 6.5-6.1 3.3-9 4.4c-2.6 1.1-3.5 1.1-5.5-0.2-2.7-1.8-0.5-6.4-0.5-6.4s5.4-1.3 5.4-1.3z"/>
	<path class="st0" d="m7.3 140.9s5.1-2.1 8.3-2.3c3.2-0.1 4.3 2.6 0.8 5.5s-5.6 3.5-8.5 4.7c-2.6 1.1-3.5 1.1-5.5-0.2-2.8-1.8-0.6-6.5-0.5-6.4l5.4-1.3z"/>
	<path class="st1" d="m26.2 77.8s5.6 30.2 5.6 39.7c0 16.7-0.1 34.3-0.1 34.3s-2.8 2.9-5.5 2.9c-6.1 0-6.7-3-6.7-3s-0.1-19.9-0.6-29c-0.4-6.3-0.7-15.2-3.3-22.5-0.1 7.5-0.1 9.9-0.7 18.1-0.5 6-3 22.2-3.1 23.3-1.9 2.3-7.9 3.9-10.9 0.5 0.2-2.7 1.9-21.4 1.7-31.1-0.2-8.9-2.5-30 2.6-34.2 4.5-3.5 21 1 21 1z"/>
	<path class="st16" d="m10.8 58.5c-0.3-4.4-1-7-1-7l3-9.5s-4.2-2.1-7 1.2c-1.2 1.4-3.3 5.6-5.2 9.5 1.4 2.6 5.4 6 10.2 5.8z"/>
	<path class="st6" d="m19.1 23.5c-2.2-1.5-6.5-1.1-8.4 2.9-1 2.2 0.4 8 0.7 12.1 0.2 3.3-0.9 5.2-0.9 5.2s0 0 2.8 1.2 5.8 0 5.8 0l-0.1-5s3.1-0.5 3.6-0.9c1.3-1.2 2-4.7 1.4-9.2-1-6.9-4.1-5.7-4.9-6.3z"/>
	<path class="st17" d="m26.7 59.7c1.7-3.6-2.1-10.1-3.2-12.4s-4.5-3.8-4.5-3.8-4.7-1.7-6.3-1.9c-0.7-0.1-3.2-0.3-3.2-0.3s-5.4 8.5-6 13.2c-0.4 3.3 1.4 14 0 24.6-0.7 5.6 20.4 4 22.3 1.7-0.9-5.1-2.5-13.8 0.9-21.1z"/>
	<path class="st1" d="m3.8 62c0 0.6 0.4 7.1-0.3 11.3s-1.1 10.8-1.1 10.8 6 4.7 13 3.9c6.9-0.8 11.8-4.9 11.8-4.9s-2.4-11.9-2.2-13.4l0.1-1.5s-2.7 1.3-4.4 0.6-4.5-2-5.4-6.3c-0.6-3.1-0.2-10.2-0.1-12.1-0.3 0-9-2.6-9-2.6s-2.5 8.5-2.4 14.2z"/>
	<path class="st12" d="m21.8 31.5c0.3-1.1 1.1-3.8 1.3-4.8 0.2-1.2 0.3-3.1-1.4-4.8s-7.5-2.3-9.6-1.1-6.6 3.4-5 10.7c1.3 5.9 2.5 6.5 4.3 7.9 1.5 1.2 4.3 1.5 4.3 1.5s1.5-1.1 1.8-3.3c0.1-0.7 0-2.8 0-2.8s-1.6-3.1-0.3-4.2c1.3-1.2 2.6 0.7 2.9 1.4 0.9 2.6 2 3.9 1.7-0.5z"/>
	<path class="st6" d="m50.2 68.6s-6.1 0.4-12.3-1.3c-4.1-1.1-6.3-2.5-7.7-3.2-0.8-1.4-2.2-5.8-2.2-5.8l-7.8 3.2s2 5.2 3.1 7.6c0.9 1.9 2.1 2.3 3.9 3 2.7 1 10.6 1.3 13.7 1.7s5.1 0.1 6.9-0.4c3.8-0.9 2.5-3.8 2.4-4.8z"/>
	<path class="st16" d="m20.1 63.8c3.7 0.8 7.7-0.4 9.7-3.2-1.5-6.7-3.8-14.1-7.1-15.2-1.8-0.6-4.9 5.5-4.4 9.8 0.2 1.3 0.9 4.7 1.8 8.6z"/>
	<path class="st5" d="m2.9 78.2-0.3 3s4 3.5 12.8 3.7c8.7 0.2 11.6-2.8 11.6-2.8l-0.5-3.1s-4.5 2.8-11.3 2.9c-6.8 0.2-12.3-3.7-12.3-3.7z"/>
	<path class="st1" d="m12.8 51.4s1-3.9 2.8-5.8c1.7-1.7 3.5-2 3.5-2s1.8 0.5 1.8 1c-1 0.6-2.8 1.2-3.8 3-1.1 1.8-1.8 5.5-1.8 5.5l-2.5-1.7z"/>
	<path class="st1" d="m9.3 41.4c-0.1 0-1.7 2.4-2.8 6.2-0.5 1.7-1.1 5.5-1.1 5.5l1.6 0.3s1.6-6.2 2.5-8.5 1.6-3.4 1.6-3.4l-1.8-0.1z"/>
	<path class="st6" d="m45.8 69.4c0.2-0.1 2.2-1.9 2.9-2.8s1.3-0.6 1.1 0.3c-0.2 1-1.5 2.6-1.5 2.6s-1.9-0.2-2.2-0.2l-0.3 0.1z"/>
	<path class="st5" d="m19 22c4.3 0.4 5.9 3.2 3.8 6.2-2.2 3-7.4 5.1-11.6 4.6-4.3-0.4-5.9-3.2-3.8-6.2s7.4-5 11.6-4.6z"/>
	<path class="st5" d="m6.5 30s-2.5-8.6 5.1-11.2c5.5-1.9 9.6 0.3 11.9 6 1.4 3.4-17 5.2-17 5.2z"/>
	<path class="st1" d="m20.6 30.3c0.6-0.3 3.2-3.6 2.4-6.5-0.1-0.4-1.1-2.1-1.1-2.1s0.8-0.4 3.9 0.3c3.2 0.7 3.7 3.5 1.3 5.5-3.1 2.5-6.5 2.8-6.5 2.8z"/>

</svg>
