<?xml version="1.0" encoding="UTF-8"?>
<svg enable-background="new 0 0 142.6 132.6" version="1.1" viewBox="0 0 142.6 132.6" xml:space="preserve" xmlns="http://www.w3.org/2000/svg" xmlns:xlink="http://www.w3.org/1999/xlink">
<style type="text/css">
	.st0{fill:#BB884F;}
	.st1{fill:#E0B477;}
	.st2{fill:#EFCD90;}
	.st3{opacity:0.6;}
	.st4{fill:#F7ECEA;}
	.st5{opacity:0.6;fill:#C2AB9D;enable-background:new    ;}
	.st6{fill:#C2AB9D;}
	.st7{opacity:0.5;}
	.st8{fill:#E4CDBF;}
	.st9{opacity:0.5;fill:#E4CDBF;enable-background:new    ;}
	.st10{fill:#C5975B;}
	.st11{fill:#DAAF6A;}
	.st12{fill:#EFD996;}
	.st13{fill:#5C4123;}
	.st14{opacity:0.5;fill:#ABB7B9;enable-background:new    ;}
	.st15{fill:#C1CDEB;}
	.st16{opacity:0.3;fill:#CCD8F5;enable-background:new    ;}
	.st17{fill:#171716;}
	.st18{fill:#41BA03;}
	.st19{opacity:0.3;fill:#090909;enable-background:new    ;}
	.st20{opacity:0.3;fill:#1A1C1F;enable-background:new    ;}
	.st21{opacity:0.4;fill:#1A1C1F;enable-background:new    ;}
	.st22{fill:#CCD8F5;}
	.st23{fill:#E0B29D;}
	.st24{opacity:0.4;}
	.st25{fill:#E9C2B0;}
	.st26{opacity:0.1;fill:#E9C2B0;enable-background:new    ;}
	.st27{fill:#2B0D04;}
	.st28{opacity:0.2;fill:#E9C2B0;enable-background:new    ;}
	.st29{fill:#BD825A;}
	.st30{fill:#292B34;}
	.st31{clip-path:url(#c);}
	.st32{fill:#17191F;}
	.st33{fill:#131419;}
	.st34{clip-path:url(#a);}
	.st35{fill:#1D2027;}
	.st36{fill:#23262F;}
	.st37{fill:#0B0B0B;}
</style>
<g transform="translate(-161.4 -179.8)">
	<g transform="translate(161.4 227.13)">
		
			
				
					<g transform="translate(0 18.397)">
						
							<path class="st0" d="m53 42.2-8.9-5.2-4.5-2.6-8.4-4.9v-41.9l8.5 4.9 0.6 0.3 12.7 7.5v41.9z"/>
						
					</g>
					<g transform="translate(21.804 12.682)">
						
							<path class="st1" d="m63.1 29.5-13.7 7.9-4.6 2.6-13.6 7.9v-41.9l13.7-7.9 4.5-2.6 13.6-7.9 0.1 41.9z"/>
						
					</g>
					
						
							<path class="st2" d="M84.8,0.3L71.2,8.1l-4.5,2.6L53,18.6L31.2,6l13.6-7.9l4.5-2.6L63-12.4L84.8,0.3z"/>
						
					
				
			
			<g class="st3" transform="translate(9.025 5.256)">
				<path class="st4" d="M63-12.4l4.5,2.6L35.7,8.6l-4.5-2.6L63-12.4z"/>
			</g>
			<path class="st5" d="m44.7 13.8v41.9l-4.5-2.6v-41.9l0.6 0.3 3.9 2.3z"/>
			<g transform="translate(8.482 4.937)">
				<path class="st4" d="M63-12.4l4.5,2.6L35.7,8.6L31.2,6L63-12.4z"/>
			</g>
			<path class="st6" d="m44.1 13.5v41.9l-4.5-2.6v-41.9l0.6 0.3 3.9 2.3z"/>
		
	</g>
	<g transform="translate(203.68 238.78)">
		
			
				
					<g transform="translate(22.388 12.918)">
						<path class="st1" d="m31.2 25.9 6.2-3.6 3.2-1.9 5.9-3.4v-29.5l-6 3.5-0.4 0.2-9 5.2 0.1 29.5z"/>
					</g>
					<g transform="translate(0 8.9)">
						<path class="st0" d="m31.2 17 9.6 5.5 3.2 1.8 9.6 5.5v-29.4l-9.6-5.6-3.2-1.8-9.6-5.5v29.5z"/>
					</g>
					<g transform="translate(.042)">
						
							<path class="st2" d="m31.2-3.5 9.5 5.5 3.2 1.8 9.6 5.6 15.3-8.9-9.5-5.5-3.2-1.8-9.6-5.5-15.3 8.8z"/>
						
					</g>
				
			
			<g class="st3" transform="translate(5.84 3.685)">
				<path class="st4" d="m34.3-12.4-3.2 1.8 22.4 12.9 3.2-1.8-22.4-12.9z"/>
			</g>
			<path class="st5" d="M59.4,6v29.4l3.2-1.8V4.2l-0.4,0.2L59.4,6z"/>
			<g transform="translate(6.23 3.463)">
				<path class="st4" d="m34.3-12.4-3.2 1.8 22.4 12.9 3.2-1.8-22.4-12.9z"/>
			</g>
			<path class="st6" d="M59.8,5.8v29.4l3.2-1.8V3.9l-0.4,0.2L59.8,5.8z"/>
		
	</g>
	<g transform="translate(173.93 215.79)">
		
			
				<g transform="translate(16.214 9.428)">
					<path class="st1" d="m47.1-12.4v16.3l-15.9 9.2 0.1-16.3 15.8-9.2z"/>
				</g>
				<g transform="translate(0 9.206)">
					<path class="st0" d="M47.4-3l-0.1,16.3L31.2,3.9l0.1-16.3L47.4-3z"/>
				</g>
				<g transform="translate(.083)">
					
						<path class="st2" d="M63.3-3L47.4,6.2L31.2-3.2l15.9-9.2L63.3-3z"/>
					
				</g>
			
		
		<g transform="translate(6.508 3.588)">
			<path class="st4" d="m34.4-12.4-3.3 1.9 16.2 9.4 3.4-1.9-16.3-9.4z"/>
		</g>
		<path class="st6" d="m53.9 2.5 3.3-1.9v3.3l-3.3 1.9v-3.3z"/>
	</g>
	<g transform="translate(224.51 262.62)">
		
			
				
					<g transform="translate(0 16.534)">
						
							<path class="st0" d="m50.8 16.1-8-4.6-4.1-2.4-7.6-4.4v-17.1l7.7 4.4 0.5 0.3 11.5 6.7v17.1z"/>
						
					</g>
					<g transform="translate(19.607 11.403)">
						
							<path class="st1" d="m59.8 4.7-12.3 7.1-4.1 2.4-12.3 7.1v-17.1l12.4-7.2 4.1-2.4 12.3-7.1-0.1 17.2z"/>
						
					</g>
					
						
							<path class="st2" d="M79.4-1L67.1,6l-4.1,2.4l-12.3,7.1L31.2,4.1L43.4-3l4.1-2.4l12.3-7.1L79.4-1z"/>
						
					
				
			
			<g class="st7" transform="translate(11.709 7.44)">
				
					
						<path class="st8" d="m54.9-1.1-4.1 2.4-19.6-11.4 4.1-2.4 19.6 11.4z"/>
					
				
			</g>
			<path class="st9" d="M66.6,6.4v17.2l-4.1,2.4V8.7L66.6,6.4z"/>
			<path class="st6" d="M67.1,6v17.2l-4.1,2.4V8.4L67.1,6z"/>
			<g transform="translate(12.251 7.106)">
				<path class="st4" d="m54.9-1.1-4.1 2.4-19.6-11.4 4.1-2.4 19.6 11.4z"/>
			</g>
			<g class="st3" transform="translate(8.121 4.714)">
				<path class="st4" d="m59.8-12.4 4.1 2.4-28.7 16.5-4.1-2.4 28.7-16.5z"/>
			</g>
			<path class="st5" d="m43.3 11.2v17.1l-4-2.4v-17.1l4 2.4z"/>
			<g transform="translate(7.62 4.436)">
				<path class="st4" d="m59.8-12.4 4 2.4-28.6 16.5-4.1-2.4 28.7-16.5z"/>
			</g>
			<path class="st6" d="M42.8,10.9V28l-4.1-2.4V8.5l0.5,0.3L42.8,10.9z"/>
		
	</g>
	<g transform="translate(235.78 252.43)">
		
			
				<g transform="translate(14.573 8.469)">
					<path class="st1" d="m45.5-12.4v14.6l-14.3 8.3 0.1-14.6 14.2-8.3z"/>
				</g>
				<g transform="translate(0 8.274)">
					<path class="st0" d="M45.8-4l-0.1,14.6L31.2,2.2l0.1-14.6L45.8-4z"/>
				</g>
				<g transform="translate(.07)">
					
						<path class="st2" d="M60-4L45.7,4.3L31.2-4.2l14.3-8.3L60-4z"/>
					
				</g>
			
		
		<g transform="translate(5.854 3.212)">
			<path class="st4" d="m34.1-12.4-3 1.7 14.6 8.5 3-1.7-14.6-8.5z"/>
		</g>
		<path class="st6" d="m51.6 1 2.9-1.7v3l-3 1.7 0.1-3z"/>
	</g>
	<g transform="translate(179.64 265.8)">
		
			
				
					<g transform="translate(32.525 18.926)">
						<path class="st10" d="m58.8-12.4-0.1 24.1-27.5 16 0.1-24.1 27.5-16z"/>
					</g>
					<g transform="translate(0 16.005)">
						
							<path class="st11" d="m63.7 6.5-0.1 24.1-32.4-19 0.1-24.1 32.4 19z"/>
						
					</g>
					<g transform="translate(.056)">
						
							<path class="st12" d="M91.2,6.5l-27.5,16L31.2,3.6l27.5-16L91.2,6.5z"/>
						
					</g>
				
			
			<g transform="translate(11.18 6.23)">
				<path class="st4" d="m36.9-12.4-5.7 3.3 32.5 18.9 5.7-3.3-32.5-18.9z"/>
			</g>
			<path class="st6" d="M74.9,16l5.7-3.3v5.8l-5.7,3.3V16z"/>
		
		<g transform="translate(51.451 35.785)">
			<g transform="translate(1.446 1.843)">
				<path class="st13" d="M35.4-8.4v0.6l-4.3,2.5V-6L35.4-8.4z"/>
				<path class="st13" d="m34.6-8.3-0.5 0.3v-3l-0.5 0.3 0.7-1.7 0.7 0.8-0.5 0.3 0.1 3z"/>
				<path class="st13" d="M32.5-7L32-6.8v-3l-0.5,0.3l0.7-1.7l0.7,0.8l-0.5,0.3L32.5-7z"/>
			</g>
			<path class="st13" d="m31.2-3.2v-4.2c0.1-1 0.6-1.8 1.5-2.3l4.2-2.4c0.8-0.5 1.5-0.2 1.5 0.6v4.2c-0.1 1-0.6 1.8-1.5 2.3l-4.2 2.4c-0.9 0.5-1.5 0.2-1.5-0.6zm1.4-6.3c-0.7 0.4-1.1 1.1-1.2 1.9v4.2c0 0.7 0.5 0.9 1.2 0.5l4.2-2.4c0.7-0.4 1.2-1.1 1.2-1.9v-4.2c0-0.7-0.5-0.9-1.2-0.5l-4.2 2.4z"/>
		</g>
		<g transform="translate(43.149 40.583)">
			<path class="st13" d="m32-6.1c0-0.1 0.4-0.4 0.9-0.8s0.9-0.4 0.9-0.3 0 0 0 0c0-0.1 0.3-0.3 0.7-0.6v2.3 0.3c0.1 0.3 0.3 0.3 0.6 0.2 0.4-0.2 0.6-0.6 0.6-1 0-0.1-0.1-0.1-0.1-0.1-0.1 0.1-0.1 0.1-0.1 0.2 0 0.2-0.2 0.4-0.3 0.5-0.4 0.2-0.3-0.2-0.3-0.2v-2.4c0.4-0.2 0.7-0.3 0.7-0.2s0 0 0 0c0-0.1 0.4-0.4 0.9-0.7s0.9-0.4 0.9-0.3 0 0 0 0c0-1-1.2-1.5-2.5-0.8 0-0.1-0.1-0.1-0.2 0s-0.2 0.2-0.2 0.3c-1.3 0.8-2.2 2.1-2.5 3.6z"/>
			<path class="st13" d="m31.2-3.2v-4.2c0.1-1 0.6-1.8 1.5-2.3l4.2-2.4c0.8-0.5 1.5-0.2 1.5 0.6v4.2c-0.1 1-0.6 1.8-1.5 2.3l-4.2 2.4c-0.9 0.5-1.5 0.2-1.5-0.6zm1.4-6.2c-0.6 0.4-1.1 1-1.2 1.8v4.2c0 0.7 0.5 0.9 1.2 0.5l4.2-2.4c0.7-0.4 1.2-1.1 1.2-1.9v-4.2c0-0.7-0.5-0.9-1.2-0.5l-4.2 2.5z"/>
		</g>
		<g transform="translate(34.834 45.394)">
			<path class="st13" d="m33.6-7.8c0 0.7 0.5 0.9 1 0.7v2.1l-0.7 0.4v0.3l1.6-0.9v-0.3l-0.7 0.4v-2.1c0.6-0.4 1-1.1 1-1.8v-1.5l-2.2 1.3v1.4z"/>
			<path class="st13" d="m31.2-3.2v-4.2c0.1-1 0.6-1.8 1.5-2.3l4.2-2.4c0.8-0.5 1.5-0.2 1.5 0.6v4.2c-0.1 1-0.6 1.8-1.5 2.3l-4.2 2.4c-0.9 0.5-1.5 0.2-1.5-0.6zm1.4-6.3c-0.7 0.4-1.1 1.1-1.2 1.9v4.2c0 0.7 0.5 0.9 1.2 0.5l4.2-2.4c0.7-0.4 1.2-1.1 1.2-1.9v-4.2c0-0.7-0.5-0.9-1.2-0.5l-4.2 2.4z"/>
		</g>
	</g>
	<ellipse class="st14" cx="180" cy="286" rx="18.6" ry="8.2"/>
	<g transform="translate(197.29 179.8)">
		<path class="st15" d="m-15.3 17.4c1.7-0.1 3.3 0.8 4 2.4 2.1 4.9 2.6 6.7 4.3 9.8l11.1 3.8h-1.1v3.4l-9.4-1.2v0.6c-2.5 0.1-4.9-1.8-6.3-3.7-0.9-1.3-1.6-2.6-2.1-4.1-1.2-3.8-2.2-7.5-2.4-8.4-0.3-1.9-0.6-1.6 1.9-2.6z"/>
		<path class="st16" d="m-11.5 21c-0.3-1.1-0.8-2.1-1.4-3-0.7-0.5-1.6-0.7-2.4-0.6-2.5 1-2.2 0.7-1.9 2.5 0.2 0.9 1.1 4.7 2.4 8.4 0.5 1.5 1.2 2.8 2.1 4.1 0.4 0.6 0.9 1.1 1.4 1.6 1.4-4.1 0.8-8.6-0.2-13z"/>
		<path class="st16" d="m4.1 33.4-11.1-3.9c-1.7-3.1-2.1-4.8-4.3-9.8-0.7-1.5-2.2-2.4-3.9-2.4 4.8 2.6 5.4 9.1 6.3 14.1 0.7-0.5 1.6-0.6 2.4-0.3 3 1.5 6.1 3.2 9.5 2.9v-0.8l1.1 0.2z"/>
		<path d="m-29.3 100.8c-0.1 0.3-0.1 0.7 0 1 0 0.9-0.2 1.7-0.5 2.5-0.2 0.9-0.3 1.7-0.3 2.6 0.1 1.3 0.6 2.6 1.5 3.6 0.4 0.5 1 0.9 1.6 1.1s1.3 0.2 1.9-0.2c0.5-0.4 0.9-0.9 1-1.6 0.1-0.6 0.1-1.1 0.1-1.7v-0.1c-0.1-1.2-0.1-2.4 0-3.5 0.1-0.8 0.4-1.6 0.5-2.5 0-0.3 0-0.7-0.1-1 0-0.1-0.1-0.2-0.1-0.2-0.1-0.2-0.2-0.3-0.4-0.4-0.3-0.3-0.6-0.6-0.9-0.8-0.1-0.1-1.7-0.9-1.7-0.9-0.2 0.7-0.7 1.3-1.4 1.6-0.3 0.1-0.6 0.2-0.8 0.4-0.2-0.2-0.4-0.1-0.4 0.1z"/>
		<path class="st17" d="m-29.3 100.1c-0.1 0.3-0.1 0.7 0 1 0 0.9-0.2 1.7-0.5 2.5-0.2 0.9-0.3 1.7-0.3 2.6 0.1 1.3 0.6 2.6 1.5 3.6 0.4 0.5 1 0.9 1.6 1.1s1.3 0.2 1.9-0.2c0.5-0.4 0.9-0.9 1-1.6 0.1-0.6 0.1-1.1 0.1-1.7v-0.2c-0.1-1.2-0.1-2.4 0-3.5 0.1-0.8 0.4-1.6 0.5-2.5 0-0.3 0-0.7-0.1-1 0-0.1-0.1-0.2-0.1-0.2-0.1-0.2-0.2-0.3-0.4-0.4-0.3-0.3-0.6-0.6-0.9-0.8-0.1-0.1-1.7-0.9-1.7-0.9-0.2 0.7-0.7 1.3-1.4 1.6-0.3 0.1-0.6 0.2-0.8 0.4-0.2 0-0.3 0.1-0.4 0.2z"/>
		<path d="m-13.9 95.4s-3.7-1.7-4.1 3.3c-0.1 1.3 1.5 1.8 2.2 1.9 0.4 0 0.9 0.1 1.2 0.3 0.3 0.3 0.6 0.7 0.9 1.1 1.7 2 5.1 2 6.1 1.1 1.5-1.2-0.9-3.1-3.2-4.9-1.1-0.8-2.2-1.7-3.1-2.8z"/>
		<g transform="translate(15.346 94.43)">
			<path class="st17" d="m-29.3 0.3s-3.7-1.7-4.1 3.3c-0.1 1.3 1.5 1.8 2.2 1.9 0.4 0 0.9 0.1 1.2 0.3 0.3 0.3 0.6 0.7 0.9 1.1 1.7 2 5.1 2 6.1 1.1 1.5-1.2-0.9-3.1-3.2-4.9-1-0.8-2.1-1.8-3.1-2.8z"/>
		</g>
		<g transform="translate(1.984 52.063)">
			<path class="st18" d="m-17.9 1.8c-0.3 0.6-0.6 1.6-1.1 2.7-0.1 0.1-0.1 0.3-0.2 0.4-0.2 0.4-0.4 0.9-0.5 1.4-0.2 0.4-0.3 0.8-0.5 1.2l-0.6 1.5c-0.7 1.6-1.2 3.2-1.7 4.8-0.1 2-0.2 6.2-0.3 8.1v0.5c-0.1 1.1-0.6 6-0.7 7.2-1 7.7-1.1 15.8-1.5 21.9 0 0-0.1 0-0.2 0.1-0.1 0-0.3 0.1-0.4 0.1-0.2 0-0.3 0.1-0.5 0.1-1.4 0.2-2.8 0.3-4.2 0.4h-1.3-0.3c-0.3 0-0.6 0-0.8-0.1v-1.4c0.1-1.6 0-3.3-0.2-4.9-0.1-0.4-0.2-0.7-0.2-1-0.2-1.2-0.3-2.3-0.4-3.5-0.3-4.9 0.1-9.9 1.1-14.7 0-0.2 0.1-0.3 0.1-0.5 0-0.3-0.1-0.7-0.1-1.1-0.4-5.2-1.2-20.8-0.9-25l1 1.3 0.1 0.2h0.2l2.1 0.1h1.7l3.6 0.1 6.7 0.1z"/>
			<path class="st19" d="m-30 27.5c-0.7-0.3-1.4-0.6-2.1-1 0-0.2 0.1-0.3 0.1-0.5 0-0.3-0.1-0.7-0.1-1.1 1.1-0.1 2.3 0 3.4 0.3-0.4 0.2-2.3 0.8-2.6 0.4 0.5 0.6 1 1.2 1.3 1.9z"/>
			<path class="st19" d="m-23 8.3c-0.3 1-0.3 6.2-0.4 7.2-0.3 2.5-0.3 5-0.5 7.5-0.4 5.4-1.7 10.7-1.8 16.1 0.1 2.2 0 4.4-0.4 6.6-0.6 2.1-2 4.2-4.2 4.7-0.7 0.2-1.4 0.2-2.1 0.3v1.4c0.2 0 0.5 0.1 0.8 0.1h0.3 1.3c1.4 0 2.8-0.1 4.2-0.4 0.2 0 0.3-0.1 0.5-0.1s0.3-0.1 0.4-0.1 0.1 0 0.2-0.1c0.4-6.1 0.5-14.3 1.5-21.9 0.2-1.2 0.7-6.1 0.7-7.2v-0.5c0.1-1.9 0.2-6.1 0.3-8.1 0-0.3 0.1-0.6 0.2-0.8 0-0.1-0.4-4.4-0.4-4.6l-0.6-0.1z"/>
			<g transform="translate(7.275 2.934)">
				<path class="st18" d="m-19.8 5.5v-0.9c-0.2-1.8-0.2-3.3-0.3-4.6h-9.7v2.1 0.4 2.3c0 1.3 0 2.8 0.1 4.3s0.1 3.1 0.1 4.7v0.7c0.1 1.9 0.1 3.9 0.2 5.9 0.4 8.4 0.1 22 1.5 23 1.3 0.8 6.2 0.3 7.3-0.4 0.2-0.1 0.3-1.1 0.4-2.6 0.2-4.6-0.1-13.8-0.2-18.3 0-3.7 0.7-13.5 0.6-16.6z"/>
				<path class="st20" d="m-27.1 35.5c-0.1-1.6 0-3.2 0.1-4.8 0-1.2 0.4-2.3 1.2-3.2l0.3-0.3c0.1-0.3-0.2-0.6-0.5-0.8-0.7-0.7-1.2-1.6-1.3-2.7-0.2-1.5-0.4-3-0.5-4.6 0-0.5-0.3-3.5-0.7-6.3-0.2-0.3-1.1-7.1-1.2-7.4-0.3-0.6 0.2 5.3-0.1 4.7 0.1 1.8 0.3 4 0.3 4.2 0.1 1.9 0.1 3.9 0.2 5.9 0.4 8.4 0.1 22 1.5 23 1.3 0.8 6.2 0.3 7.3-0.4 0.2-0.1 0.3-1.1 0.4-2.6-0.6 0.2-1.2 0.5-1.7 0.9-0.6 0.4-1.2 0.7-2 0.8"/>
				<path class="st21" d="m-30.7 5.4c-0.5-0.1-1.1 0-1.6 0.1 0.6 0.1 1.2 0.2 1.8 0.1 0.3 0 0.6-0.1 0.8-0.2 0.3-0.2 0.6-0.4 0.9-0.7 0.7-0.5 1.4-0.8 2.3-0.9-0.8 0.3-1.6 0.8-2.3 1.4 0.9 0 1.9 0 2.9 0.1 0.3 0 0.6 0.1 0.8 0.3-1.4 0.4-2.8 0.6-4.2 0.7-0.5 0-0.8-1.2-1.2-1.5-0.9-0.5-1.9-0.9-2.9-1.1 0 0.5 2 1.4 2.7 1.7z"/>
			</g>
		</g>
		<path class="st22" d="m-10.8 55.6s-20.1 3.3-20.2 1c0-0.5-0.1-0.9-0.1-1.3v-0.4c0-3.1 0.1-6.1 0.5-9.2 0.1-0.9 0.2-1.9 0.2-3 0-0.5 0.1-1 0.1-1.5 0.1-2.3-0.1-4.7-0.6-6.9-0.1-0.6-0.3-1.1-0.4-1.7v-0.2c-0.1-0.5-0.3-1-0.4-1.5v-0.1c-0.1-0.2-0.1-0.4-0.2-0.6 0-0.1-0.1-0.3-0.1-0.4-0.2-0.7-0.3-1.3-0.4-2.1v-0.3c-0.2-1.1-0.3-2.2-0.3-3.4 0-0.9 0.2-1.9 0.7-2.7 0.4-0.4 0.9-0.7 1.4-0.9 0.3-0.1 0.7-0.3 1.2-0.5 0.8-0.3 1.6-0.7 2.4-1.1 0 0 0.1 0 0.1-0.1 0.2-0.1 0.4-0.2 0.6-0.2 0.3-0.1 0.6-0.2 0.9-0.3h0.1c0.3-0.1 2.8-0.8 3.3-0.9 0.3-0.1 0.7-0.1 1-0.2 0.6-0.1 1.1-0.3 1.7-0.3h0.3 0.3 0.6 0.3c0.3 0 0.8 0.1 1.4 0.2 1.1 0.1 2.2 0.6 3.1 1.3 0.9 1 1.3 3 1.5 4.8 0.1 0.7 0.1 1.3 0.1 1.9v2.5 0.1 0.5c0 0.9-0.1 2-0.1 3.3-0.1 1.4-0.2 2.9-0.2 4.5-0.1 2.1-0.2 4.2 0 6.3v0.4c0.1 0.5 0.2 1.4 0.3 2.5 0.3 4 0.9 10.2 0.9 10.5z"/>
		<g transform="translate(13.849 16.909)">
			<path class="st18" d="m-27.4 14.5c-0.3 1.4-2.4 0.2-3.4-0.3 0.3-8.9-1.6-12.7-2.6-14.1h0.3 0.3 0.6 0.3c0.3 0 0.8 0.1 1.4 0.2 2.2 4.1 3.4 13.1 3.1 14.2z"/>
		</g>
		<path class="st18" d="m-10.8 56s-20.2 3.4-20.2 0.7c0-0.5-0.1-0.9-0.1-1.3v-0.4c0-3.1 0.1-6.1 0.5-9.2 0.1-0.7 0.1-1.4 0.2-2.2h0.3c0.5 0 1-0.1 1.5-0.2 1.1-0.5 2-1.6 2.3-2.8 0.1-0.4 0.2-0.9 0.3-1.3 0.6-3.9 0-7.8 1.4-11.5 0.4-0.8 1.1-1.3 2-1.3 2.7-0.6 6.5-1.9 8 0.7 1.6 2.8 0.8 6.2 1.6 9.5 0.1 0.5 0.4 1 0.7 1.4v0.6c-0.1 1.3-0.1 2.7 0 4v0.4s0 0.2 0.1 0.4c0.1 0.5 0.2 1.2 0.3 2.1 0.6 3.3 0.9 6.8 1.1 10.4z"/>
		<path class="st21" d="m-12.2 43.3c-3 0.9-6 1.8-9 2.6-2.2 0.6-4.7 1.3-6.7 0.1-0.9-0.6-1.7-1.5-2.2-2.5 0.5 0 1-0.1 1.5-0.2 1.1-0.5 2-1.6 2.3-2.8 0.1-0.4 0.2-0.9 0.3-1.3 0.9 0.5 1.8 0.8 2.8 1 1.6 0.2 3.2 0.1 4.8-0.3 2.1-0.4 4.1-1 6.2-1.3-0.1 1.3-0.1 2.7 0 4v0.4 0.3z"/>
		<g transform="translate(8.133 15.421)">
			<path class="st23" d="m-31.1 4.3c-0.9-0.2-2-0.6-2.1-1.2-0.1-0.8-0.2-2.8-0.2-2.8l5.7-0.3s0 2.2-0.1 2.9c-0.1 0.9-1.9 1.7-3.3 1.4z"/>
		</g>
		<g class="st24" transform="translate(8.133 15.421)">
			<path class="st23" d="m-27.8 2.6c0.1-0.9 0.1-2.6 0.1-2.6l-5.7 0.3v0.8c1.6 1.2 3.6 1.8 5.6 1.5z"/>
		</g>
		<g transform="translate(2.36)">
			
				<path class="st25" d="m-20.9 16.5c-0.7 0.6-1.7 1-2.7 0.9-1.3-0.1-2.6-0.5-3.8-1.2-1.4-1.4-2.6-3.1-3.3-5-0.1-0.2-0.1-0.4-0.2-0.6-0.8-3.5 2.4-4.7 4.6-6.8 2.4-2.2 5.7-2 6.4 2.2s1.1 8.6-1 10.5z"/>
				<path class="st26" d="m-19.9 6c-0.7-4.2-4-4.4-6.4-2.2-2.3 2.1-5.4 3.2-4.6 6.8 0 0.2 0.1 0.4 0.2 0.6 0.1 0.4 0.3 0.7 0.5 1 0.9-0.7 1.7-1.6 2.5-2.2 0.3-0.2 1.5 0.4 1.6-0.4 0.3-1.2 0.2-0.8 0.7-1.1 1.4-1.2 2.4 0.6 4.3-1.6 2 3 2.8 8.9-1.7 10-1 0.2-2.1 0.3-3.1 0.1 0.8 0.3 1.6 0.5 2.4 0.5 1 0.1 2-0.2 2.7-0.9 2-2 1.6-6.4 0.9-10.6z"/>
				<path class="st27" d="m-19.9 5.9c-0.2 0-0.2-1.8-2.6 0.8-1.4 1.5-3.5-0.6-4 0.3-0.5 0.7-0.1 1 0.2 2.2 0.1 0.6-1.3 2-1.6 1.9-0.5-0.1 0.5 0.5 0.3 0.9-0.5 1.1-0.1 3.4 0.1 3.9-0.9-0.5-1.6-1.1-2.2-1.9-0.1-0.1-0.2-0.2-0.3-0.4-0.4-0.3-0.8-0.7-1.1-1.2-0.7-0.9-1.3-2-1.7-3-1.9-5.3 2.3-6.4 2.3-6.4s2.8-4.5 7.4-2.6c3.8 1.7 3.6 5.5 3.2 5.5z"/>
			
			<path class="st25" d="m-26.4 13c-0.5 0.4-1.4 0.2-2.1-0.6s-0.9-1.7-0.4-2.2 1.4-0.2 2.1 0.6 0.8 1.7 0.4 2.2z"/>
			<path class="st28" d="m-27.3 12.2c-0.2 0.2-0.7 0-1-0.4s-0.3-0.9-0.1-1 0.7 0 1 0.4 0.3 0.8 0.1 1z"/>
		</g>
		<g transform="translate(3.809 18.925)">
			<path class="st18" d="m-26.9 13.1c-0.2 1.4-1.5 3.1-2.6 2.8-0.5-8.4-2.6-12.9-3.9-14.8 0.8-0.3 1.6-0.7 2.4-1.1 2.6 3.6 4.2 11.9 4.1 13.1z"/>
		</g>
		<path class="st29" d="m-13.5 41.6c-1-1.2-0.8-3.5-0.4-4.3 0.9-0.3 1.9-0.6 2.9-0.7 1.8-0.3 3.8-0.4 4.9 0.4 2.3 1.6 1.7 2.7 0.9 3.6-1.4 1.3-6.7-0.4-8.3 1z"/>
		<path class="st15" d="m-10.9 41.3-13.8 4.2c-0.3 0.1-0.6 0.1-0.9 0.1-0.4 0-0.9-0.1-1.2-0.3-1.5-0.9-2.6-3-3.1-3.9-2.1-3.9-3.4-15.4-3.4-17.2s-0.1-3.1 2.5-3.8c0.4-0.1 0.7 0 1.1 0.2 1 0.5 1.7 1.3 2.1 2.3 1.9 4.2 3.2 8.7 3.7 13.4 0.1 0.7 0.1 2.1 1.8 1.8 4.3-0.7 9.9-2.1 9.9-2.1l0.4 1.5 0.9 3.8z"/>
		<path class="st16" d="m-26.2 40.5c1.3-5.2 0.6-10.7-1-15.9-0.3-1-0.7-1.9-1.2-2.8-0.3-0.5-0.8-1-1.3-1.3 1 0.5 1.7 1.3 2.1 2.3 1.9 4.2 3.2 8.7 3.7 13.4 0.1 0.7 0.1 2.1 1.8 1.8 4.3-0.7 9.9-2.1 9.9-2.1l0.4 1.5c-4.8 0.9-9.6 1.9-14.4 3.1z"/>
		<g transform="translate(21.482 29.354)">
			<path class="st30" d="m-32.7 8.8 14.7-8.7c0.2-0.1 0.4-0.1 0.5-0.1 0.3 0.1 0.5 0.3 0.7 0.4-0.2-0.1-0.4-0.1-0.5 0.1l-0.7 0.5h0.1c0.1 0.1 0.3 0.2 0.4 0.3l0.3 0.2c0.1 0.1 0.1 0.2 0.1 0.3l0.1 9c0 0.3-0.2 0.6-0.4 0.8-0.1-0.1-0.2-0.1-0.3-0.2l0.3 0.2-14.1 8.4c-0.1 0.1-0.2 0.1-0.3 0-0.2-0.1-0.5-0.3-0.7-0.4v0.9c0 0.2 0.1 0.4 0.2 0.5-0.1-0.1-0.3-0.1-0.4-0.2s-0.3-0.1-0.4-0.2c-0.2-0.1-0.2-0.3-0.2-0.5l-0.1-9.8c0-0.7 0.3-1.2 0.7-1.5z"/>
			<g transform="translate(1.753 7.913)">
				
					<g transform="translate(.959 .153)">
						
							<defs>
								<path id="d" d="m-33.3 0.2v-0.2 0.2l-0.1 0.1 0.1-0.1z"/>
							</defs>
							<clipPath id="c">
								<use xlink:href="#d"/>
							</clipPath>
							<g class="st31">
								<path class="st32" d="m-33.4 0.1v0.2c0.1 0 0.1-0.1 0-0.2l0.1-0.1s0 0.1-0.1 0.1z"/>
							</g>
						
					</g>
					<g transform="translate(.473 .278)">
						<path class="st33" d="M-33.4,0.3v0.2l0.5-0.3V0L-33.4,0.3z"/>
					</g>
					<g transform="translate(0 .445)">
						
							<defs>
								<path id="b" d="m-33.4 0v0.2s0 0.1 0.1 0.1c0.1 0.1 0.3 0.1 0.4 0v-0.2c-0.1 0.1-0.3 0.1-0.4 0l-0.1-0.1z"/>
							</defs>
							<clipPath id="a">
								<use xlink:href="#b"/>
							</clipPath>
							<g class="st34">
								<path class="st32" d="m-33.4 0v0.2 0.1-0.3 0z"/>
								<path class="st35" d="m-33.4 0.1v0.2h0.1 0.1v-0.1s-0.1-0.1-0.2-0.1c0.1 0 0.1 0 0 0z"/>
								<path class="st32" d="m-33.2 0.2v0.2h0.3v-0.3c-0.1 0.1-0.2 0.1-0.3 0.1z"/>
							</g>
						
					</g>
				
			</g>
			<path class="st36" d="m-31.9 9.2 14.7-8.7c0.4-0.2 0.7-0.1 0.7 0.4l0.1 9.8c0 0.5-0.3 1-0.7 1.3l-14.7 8.7c-0.4 0.2-0.7 0.1-0.7-0.4l-0.1-9.8c0-0.5 0.2-1 0.7-1.3z"/>
			<path class="st37" d="m-31.5 10.8c0-0.5 0.3-0.9 0.6-1.1 0.4-0.2 0.6 0 0.6 0.4 0 0.5-0.3 0.9-0.6 1.1-0.2 0.1-0.4 0.1-0.6-0.1v-0.3z"/>
		</g>
		<path class="st29" d="m2.9 35.7c0.2-0.1 0.3-0.3 0.4-0.4-0.2 0-0.5 0-0.5-0.2 0-0.1 0-0.3 0.1-0.4s0.2-0.2 0.4-0.2c0.6-0.2 1.3-0.6 1.9-0.8 0.7 0.2 1.1 1.8 1.1 2.2 0.2 0.6 0 1.3-0.3 1.8-0.2 0-0.4 0.1-0.7 0.1-0.2 0-0.4 0.1-0.5 0.1s-0.2-0.2-0.2-0.2v-0.2c0-0.1 0-0.2-0.1-0.2-0.3 0-0.9 0-0.8-0.5 0-0.1-0.1-0.1-0.1-0.1-0.6-0.2-0.7-0.6-0.7-1z"/>
	</g>
</g>
</svg>
