<?xml version="1.0" encoding="UTF-8"?>
<svg enable-background="new 0 0 170 158.1" version="1.1" viewBox="0 0 170 158.1" xml:space="preserve" xmlns="http://www.w3.org/2000/svg">
<style type="text/css">
	.st0{fill:#B2B2B2;}
	.st1{fill:#888888;}
	.st2{fill:#5A5C54;}
	.st3{fill:#878787;}
	.st4{fill:#4F4F4F;}
	.st5{fill:url(#n);}
	.st6{fill:#424852;}
	.st7{fill:url(#f);}
	.st8{fill:url(#e);}
	.st9{fill:#D7D9DB;}
	.st10{fill:url(#d);}
	.st11{fill:#E3E5E6;}
	.st12{fill:url(#c);}
	.st13{fill:#D9DBDD;}
	.st14{fill:url(#b);}
	.st15{fill:url(#a);}
	.st16{fill:url(#af);}
	.st17{fill:url(#ae);}
	.st18{fill:url(#ad);}
	.st19{fill:url(#ac);}
	.st20{fill:url(#ab);}
	.st21{fill:#389303;}
	.st22{fill:#41BA03;}
	.st23{fill:#317704;}
	.st24{fill:#A17F4C;}
	.st25{fill:#D2B371;}
	.st26{fill:none;stroke:#A05E00;stroke-width:1.145;stroke-miterlimit:10;}
	.st27{fill:#A05E00;}
	.st28{fill:#F5DF95;}
	.st29{fill:#FEE9AB;}
	.st30{fill:#FEF1CB;}
	.st31{fill:#DBC68A;}
	.st32{fill:#E6CF91;}
	.st33{fill:url(#aa);}
	.st34{fill:#E1F0F0;}
	.st35{fill:#B9C6C7;}
	.st36{fill:#DDE2E6;}
	.st37{fill:#A6A9AB;}
	.st38{fill:url(#z);}
	.st39{fill:url(#y);}
	.st40{fill:#BFCCCC;}
	.st41{fill:url(#x);}
	.st42{fill:url(#w);}
	.st43{fill:url(#v);}
	.st44{fill:#49AF08;}
	.st45{fill:url(#u);}
	.st46{fill:#828282;}
	.st47{fill:#BDCEDF;}
	.st48{fill:#E2E9EC;}
	.st49{fill:url(#t);}
	.st50{fill:#8D9296;}
	.st51{fill:#80898A;}
	.st52{fill:#9FAAAB;}
	.st53{fill:#BDC1C4;}
	.st54{fill:#44A307;}
	.st55{fill:#3A4044;}
	.st56{fill:url(#s);}
	.st57{fill:url(#r);}
	.st58{fill:url(#q);}
	.st59{fill:url(#p);}
	.st60{fill:url(#o);}
	.st61{fill:#2C5E8C;}
	.st62{fill:#345982;}
	.st63{fill:#EAC72F;}
	.st64{fill:#57D307;}
	.st65{fill:#66F40B;}
	.st66{fill:#C6D4D4;}
	.st67{fill:#CEDBDB;}
	.st68{fill:#99AFBA;}
	.st69{fill:url(#m);}
	.st70{fill:url(#l);}
	.st71{fill:url(#k);}
	.st72{fill:url(#j);}
	.st73{fill:url(#i);}
	.st74{fill:#B03A28;}
	.st75{fill:#44739E;}
	.st76{fill:#38546D;}
	.st77{fill:#B5D6C7;}
	.st78{fill:#CF9219;}
	.st79{fill:#B06A00;}
	.st80{fill:url(#h);}
	.st81{fill:url(#g);}
	.st82{fill:#A93E38;}
	.st83{fill:#ED8333;}
	.st84{fill:#EDBD51;}
	.st85{fill:#CF5633;}
	.st86{fill:#8B8B8B;}
	.st87{fill:#F9FCFC;}
	.st88{fill:#E0E0E0;}
	.st89{fill:#F8FFFF;}
	.st90{fill:#019AE6;}
	.st91{fill:#204C04;}
	.st92{fill:#73818E;}
	.st93{fill:#4B4146;}
</style>
<g transform="translate(76.455 47.418)">
	<g transform="translate(53.348)">
		<path class="st0" d="M37,22.4l2.1-1.1L2.1,0L0,1.1L37,22.4z"/>
		<path class="st1" d="m37 28.3 2.1-1.1v-5.9l-2.1 1.1v5.9z"/>
		<path class="st2" d="M0,1.1l37,21.4v5.9L0,6.9V1.1z"/>
	</g>
	<path class="st3" d="M82.8,18.8l-61,31.6L0.6,36.8L51.9,7.2l8-1.6L82.8,18.8z"/>
	<path class="st4" d="m82.8 23.5-61 35.2v-8.3l51.3-29.6 9.7-2v4.7z"/>
	<g transform="translate(56.887 20.418)">
		
			<linearGradient id="n" x1="-1103.8" x2="-1104.4" y1="751.78" y2="752.68" gradientTransform="matrix(24.404 0 0 -25.74 23709 13753)" gradientUnits="userSpaceOnUse">
			<stop stop-color="#68737B" offset=".126"/>
			<stop stop-color="#6C7880" offset=".127"/>
			<stop stop-color="#6C7880" offset=".438"/>
			<stop stop-color="#50585E" offset=".441"/>
			<stop stop-color="#50585E" offset=".837"/>
			<stop stop-color="#3B4145" offset=".839"/>
		</linearGradient>
		<path class="st5" d="m0 17.4c0 2.4 0.8 4.1 2.2 5 1.8 1.2 5.8 3.3 5.8 3.3 5.5-3.2 16.4-14.3 16.4-19.8 0-2.4-5.2-4.2-6.6-5.1-1.8-1.2-4.6-1-7.8 0.8-5.5 3.2-10 10.2-10 15.8z"/>
		<path class="st6" d="m5.4 20.5c0 5.5 4.5 7.4 10 4.2s10-10.3 10-15.8-4.5-7.4-10-4.2-10 10.3-10 15.8z"/>
		
			<linearGradient id="f" x1="-1103.9" x2="-1104.4" y1="752.11" y2="753.01" gradientTransform="matrix(24.404 0 0 -25.74 23716 13757)" gradientUnits="userSpaceOnUse">
			<stop stop-color="#68737B" offset=".126"/>
			<stop stop-color="#6C7880" offset=".127"/>
			<stop stop-color="#6C7880" offset=".438"/>
			<stop stop-color="#50585E" offset=".441"/>
			<stop stop-color="#50585E" offset=".837"/>
			<stop stop-color="#3B4145" offset=".839"/>
		</linearGradient>
		<path class="st7" d="m6.4 21c0 2.4 0.8 4.1 2.2 5 1.8 1.2 5.8 3.4 5.8 3.4 5.5-3.2 16.4-14.3 16.4-19.8 0-2.4-5.2-4.2-6.6-5.1-1.8-1.2-4.6-1-7.8 0.8-5.5 3.1-10 10.2-10 15.7z"/>
		
			<ellipse class="st6" transform="matrix(.6011 -.7992 .7992 .6011 -5.9501 24.789)" cx="21.9" cy="18.4" rx="13.3" ry="7.5"/>
		
			<linearGradient id="e" x1="-1172.7" x2="-1173.4" y1="868.63" y2="869.62" gradientTransform="matrix(13.316 0 0 -15.375 12555 8040)" gradientUnits="userSpaceOnUse">
			<stop stop-color="#DBE0E3" offset=".126"/>
			<stop stop-color="#E0E5E8" offset=".127"/>
			<stop stop-color="#E0E5E8" offset=".438"/>
			<stop stop-color="#C0C4C6" offset=".441"/>
			<stop stop-color="#C0C4C6" offset=".837"/>
			<stop stop-color="#A8ABAD" offset=".839"/>
		</linearGradient>
		<path class="st8" d="m14.8 21.9c0 3.7 3 4.9 6.7 2.8s6.7-6.8 6.7-10.5-3-4.9-6.7-2.8-6.7 6.8-6.7 10.5z"/>
		<path class="st9" d="m15.2 22.2c0 3.7 3 4.9 6.7 2.8s6.7-6.8 6.7-10.5-3-4.9-6.7-2.8-6.7 6.8-6.7 10.5z"/>
		
			<linearGradient id="d" x1="-1191.5" x2="-1192.1" y1="905.76" y2="906.75" gradientTransform="matrix(11.952 0 0 -13.805 11182 7174)" gradientUnits="userSpaceOnUse">
			<stop stop-color="#797B7D" offset=".161"/>
			<stop stop-color="#919496" offset=".163"/>
			<stop stop-color="#919496" offset=".559"/>
			<stop stop-color="#B1B5B8" offset=".562"/>
			<stop stop-color="#B1B5B8" offset=".873"/>
			<stop stop-color="#ACB0B3" offset=".874"/>
		</linearGradient>
		<path class="st10" d="m27.8 14.9c0 3.3-2.7 7.5-6 9.4s-6 0.8-6-2.5c0-0.4 0-0.8 0.1-1.1 0.7-3.5 2.9-6.5 5.9-8.3 0.2-0.1 0.5-0.3 0.7-0.4 3-1.3 5.3-0.1 5.3 2.9z"/>
		<path class="st11" d="m24.9 14.6c0 2.5-2 5.7-4.5 7.2-0.4 0.3-0.9 0.4-1.3 0.6-1.4 0.4-2.5-0.1-2.9-1.2-0.1-0.2-0.2-0.4-0.2-0.5 0.1-0.5 0.2-0.9 0.3-1.4 0.9-2.6 2.5-4.8 4.7-6.4 0.3-0.2 0.6-0.4 0.8-0.6l0.6-0.3s0.1 0 0.1-0.1c1.5 0.1 2.4 1 2.4 2.7z"/>
		
			<linearGradient id="c" x1="-1257" x2="-1257.7" y1="1013.6" y2="1014.5" gradientTransform="matrix(8.532 0 0 -10.255 7736.6 5214.3)" gradientUnits="userSpaceOnUse">
			<stop stop-color="#ACB0B3" offset=".126"/>
			<stop stop-color="#B1B5B8" offset=".127"/>
			<stop stop-color="#B1B5B8" offset=".438"/>
			<stop stop-color="#919496" offset=".441"/>
			<stop stop-color="#919496" offset=".837"/>
			<stop stop-color="#797B7D" offset=".839"/>
		</linearGradient>
		<path class="st12" d="m24.5 13.9c0 2.4-3.1 6.9-5.6 8.4s0 0-0.1 0-0.2-0.1-0.3-0.1h-0.1c-0.8-0.3-1.5-0.6-2.2-1-0.1-0.2-0.2-0.4-0.2-0.5 0.1-0.5 0.2-0.9 0.3-1.4 0.9-2.6 2.5-4.8 4.7-6.4 0.3-0.2 0.6-0.4 0.8-0.6l0.6-0.3c0.6 0.5 1.2 1 1.8 1.6l0.3 0.3z"/>
		<path class="st13" d="m25.1 15.6c-0.3 2.6-1.7 4.8-3.9 6.1-2.1 1.2-3.9 0.5-3.9-1.6 0-0.2 0-0.5 0.1-0.7 0.5-2.3 1.9-4.2 3.8-5.4 0.2-0.1 0.3-0.2 0.5-0.2 1.9-1 3.4-0.2 3.4 1.8z"/>
		
			<linearGradient id="b" x1="-1590.1" x2="-1590.8" y1="1659.9" y2="1660.9" gradientTransform="matrix(3.8 0 0 -4.3884 2973.4 1978.9)" gradientUnits="userSpaceOnUse">
			<stop stop-color="#797B7D" offset=".161"/>
			<stop stop-color="#919496" offset=".163"/>
			<stop stop-color="#919496" offset=".559"/>
			<stop stop-color="#B1B5B8" offset=".562"/>
			<stop stop-color="#B1B5B8" offset=".873"/>
			<stop stop-color="#ACB0B3" offset=".874"/>
		</linearGradient>
		<path class="st14" d="m23.2 16.9c-0.1 1.2-0.8 2.4-1.9 3-1 0.6-1.9 0.2-1.9-0.8v-0.4c0.2-1.1 0.9-2.1 1.9-2.6 0.1 0 0.2-0.1 0.2-0.1 1-0.5 1.7-0.1 1.7 0.9z"/>
		<path class="st11" d="m21.6 17.1c0 0.5-0.3 0.9-0.8 1.2-0.4 0.2-0.8 0.1-0.8-0.3v-0.1c0.1-0.4 0.4-0.8 0.7-1.1h0.1c0.5-0.2 0.8-0.1 0.8 0.3z"/>
	</g>
	<g transform="translate(33.85 33.715)">
		
			<linearGradient id="a" x1="-1081.4" x2="-1081.9" y1="738.97" y2="739.87" gradientTransform="matrix(24.404 0 0 -25.74 23147 13411)" gradientUnits="userSpaceOnUse">
			<stop stop-color="#68737B" offset=".126"/>
			<stop stop-color="#6C7880" offset=".127"/>
			<stop stop-color="#6C7880" offset=".438"/>
			<stop stop-color="#50585E" offset=".441"/>
			<stop stop-color="#50585E" offset=".837"/>
			<stop stop-color="#3B4145" offset=".839"/>
		</linearGradient>
		<path class="st15" d="m0 17.4c0 2.4 0.8 4.1 2.2 5 1.8 1.2 5.8 3.3 5.8 3.3 5.5-3.2 16.4-14.3 16.4-19.8 0-2.4-5.2-4.2-6.6-5.1-1.8-1.2-4.6-1-7.8 0.8-5.5 3.2-10 10.2-10 15.8z"/>
		<path class="st6" d="m5.4 20.5c0 5.5 4.5 7.4 10 4.2s10-10.3 10-15.8-4.5-7.4-10-4.2-10 10.3-10 15.8z"/>
		
			<linearGradient id="af" x1="-1081.4" x2="-1081.9" y1="739.44" y2="740.34" gradientTransform="matrix(24.404 0 0 -25.74 23153 13414)" gradientUnits="userSpaceOnUse">
			<stop stop-color="#68737B" offset=".126"/>
			<stop stop-color="#6C7880" offset=".127"/>
			<stop stop-color="#6C7880" offset=".438"/>
			<stop stop-color="#50585E" offset=".441"/>
			<stop stop-color="#50585E" offset=".837"/>
			<stop stop-color="#3B4145" offset=".839"/>
		</linearGradient>
		<path class="st16" d="m6.4 21c0 2.4 0.8 4.1 2.2 5 1.8 1.2 5.8 3.4 5.8 3.4 5.5-3.2 16.4-14.3 16.4-19.8 0-2.4-5.2-4.2-6.6-5.1-1.8-1.2-4.6-1-7.8 0.8-5.5 3.1-10 10.2-10 15.7z"/>
		<path class="st6" d="m11.8 24.2c0 5.5 4.5 7.4 10 4.2s10-10.3 10-15.8-4.5-7.4-10-4.2-10 10.2-10 15.8z"/>
		
			<linearGradient id="ae" x1="-1150.5" x2="-1151.1" y1="856.52" y2="857.52" gradientTransform="matrix(13.316 0 0 -15.375 12248 7835.6)" gradientUnits="userSpaceOnUse">
			<stop stop-color="#DBE0E3" offset=".126"/>
			<stop stop-color="#E0E5E8" offset=".127"/>
			<stop stop-color="#E0E5E8" offset=".438"/>
			<stop stop-color="#C0C4C6" offset=".441"/>
			<stop stop-color="#C0C4C6" offset=".837"/>
			<stop stop-color="#A8ABAD" offset=".839"/>
		</linearGradient>
		<path class="st17" d="m14.8 21.9c0 3.7 3 4.9 6.7 2.8s6.7-6.8 6.7-10.5-3-4.9-6.7-2.8-6.7 6.8-6.7 10.5z"/>
		
			<ellipse class="st9" transform="matrix(.6011 -.7992 .7992 .6011 -5.9511 24.794)" cx="21.9" cy="18.4" rx="8.8" ry="5"/>
		
			<linearGradient id="ad" x1="-1169.6" x2="-1170.2" y1="892.98" y2="893.97" gradientTransform="matrix(11.952 0 0 -13.804 10906 6990.1)" gradientUnits="userSpaceOnUse">
			<stop stop-color="#797B7D" offset=".161"/>
			<stop stop-color="#919496" offset=".163"/>
			<stop stop-color="#919496" offset=".559"/>
			<stop stop-color="#B1B5B8" offset=".562"/>
			<stop stop-color="#B1B5B8" offset=".873"/>
			<stop stop-color="#ACB0B3" offset=".874"/>
		</linearGradient>
		<path class="st18" d="m27.8 14.9c0 3.3-2.7 7.5-6 9.4s-6 0.8-6-2.5c0-0.4 0-0.8 0.1-1.1 0.7-3.5 2.9-6.5 5.9-8.3 0.2-0.1 0.5-0.3 0.7-0.4 3-1.3 5.3-0.1 5.3 2.9z"/>
		<path class="st11" d="m24.9 14.6c0 2.5-2 5.7-4.5 7.2-0.4 0.3-0.9 0.4-1.3 0.6-1.4 0.4-2.5-0.1-2.9-1.2-0.1-0.2-0.2-0.4-0.2-0.5 0.1-0.5 0.2-0.9 0.3-1.4 0.9-2.6 2.5-4.8 4.7-6.4 0.3-0.2 0.6-0.4 0.8-0.6l0.6-0.3s0.1 0 0.1-0.1c1.5 0.1 2.4 1 2.4 2.7z"/>
		
			<linearGradient id="ac" x1="-1234.5" x2="-1235.2" y1="1003.8" y2="1004.7" gradientTransform="matrix(8.532 0 0 -10.255 7540.1 5078)" gradientUnits="userSpaceOnUse">
			<stop stop-color="#ACB0B3" offset=".126"/>
			<stop stop-color="#B1B5B8" offset=".127"/>
			<stop stop-color="#B1B5B8" offset=".438"/>
			<stop stop-color="#919496" offset=".441"/>
			<stop stop-color="#919496" offset=".837"/>
			<stop stop-color="#797B7D" offset=".839"/>
		</linearGradient>
		<path class="st19" d="m24.5 13.9c0 2.4-3.1 6.9-5.6 8.4s0 0-0.1 0-0.2-0.1-0.3-0.1h-0.1c-0.8-0.3-1.5-0.6-2.2-1-0.1-0.2-0.2-0.4-0.2-0.5 0.1-0.5 0.2-0.9 0.3-1.4 0.9-2.6 2.5-4.8 4.7-6.4 0.3-0.2 0.6-0.4 0.8-0.6l0.6-0.3c0.6 0.5 1.2 1 1.8 1.6l0.3 0.3z"/>
		<path class="st13" d="m25.1 15.6c-0.3 2.6-1.7 4.8-3.9 6.1-2.1 1.2-3.9 0.5-3.9-1.6 0-0.2 0-0.5 0.1-0.7 0.5-2.3 1.9-4.2 3.8-5.4 0.2-0.1 0.3-0.2 0.5-0.2 1.9-1 3.4-0.2 3.4 1.8z"/>
		
			<linearGradient id="ab" x1="-1566.4" x2="-1567" y1="1659.2" y2="1660.2" gradientTransform="matrix(3.8 0 0 -4.3882 2885.8 1920.5)" gradientUnits="userSpaceOnUse">
			<stop stop-color="#797B7D" offset=".161"/>
			<stop stop-color="#919496" offset=".163"/>
			<stop stop-color="#919496" offset=".559"/>
			<stop stop-color="#B1B5B8" offset=".562"/>
			<stop stop-color="#B1B5B8" offset=".873"/>
			<stop stop-color="#ACB0B3" offset=".874"/>
		</linearGradient>
		<path class="st20" d="m23.2 16.9c-0.1 1.2-0.8 2.4-1.9 3-1 0.6-1.9 0.2-1.9-0.8v-0.4c0.2-1.1 0.9-2.1 1.9-2.6 0.1 0 0.2-0.1 0.2-0.1 1-0.5 1.7-0.1 1.7 0.9z"/>
		<path class="st11" d="m21.6 17.1c0 0.5-0.3 0.9-0.8 1.2-0.4 0.2-0.8 0.1-0.8-0.3v-0.1c0.1-0.4 0.4-0.8 0.7-1.1h0.1c0.5-0.2 0.8-0.1 0.8 0.3z"/>
	</g>
	<g transform="translate(31.709 35.911)">
		
			<path class="st21" d="m19.5 5.6c0 0.5-3.7 4.3-6.9 10.1-1.5 2.7-2.8 5.6-3.7 8.6l-8.9-5.6c0.3-3 1.2-6 2.7-8.7 2-3.8 4.7-7.2 7.9-10l8.9 5.6z"/>
		
		<path class="st22" d="M19.5,5.6c0,0.5-3.7,4.3-6.9,10.1L2.7,10c2-3.8,4.7-7.2,7.9-10L19.5,5.6z"/>
		<path class="st23" d="M10,23.9l-1.1,0.4C9.8,13.8,19.1,6,19.5,5.6L20,6.4C19.9,6.5,10.9,14.1,10,23.9z"/>
	</g>
</g>
<g transform="translate(69.171)">
	<g transform="translate(0)">
		
			<g transform="translate(0 21.155)">
				<path class="st24" d="M36.7,76.5L0,55.3V15.9L36.7,37V76.5z"/>
				<path class="st25" d="M100.8,0L36.7,37v39.5l64.2-36.9V0z"/>
				<path class="st26" d="m49.1 34.9-8.9 5.2v12.1l8.9-5.1v-12.2z"/>
			</g>
			<path class="st27" d="m46 62.7v6l-2.8 1.6v-6l-1.4 0.7 2.8-5.9 2.8 2.8-1.4 0.8z"/>
			<path class="st28" d="m100.8 21.2-64.1 37-17.2-9.9-5.6-3.3-13.9-8 31.8-18.3 5.6-3.2 26.7-15.5 13.9 8 5.6 3.2 17.2 10z"/>
		
	</g>
	<path class="st29" d="M19.5,48.2L13.9,45L78,8l5.6,3.2L19.5,48.2z"/>
	<path class="st30" d="M74,36.6l-5.6,3.2L31.8,18.7l5.6-3.2L74,36.6z"/>
	<path class="st31" d="m13.9 45v13.3l1.1-3.1 1.2 4.4 1.6-2.8 1.4 4.5 0.2-13.1-5.5-3.2z"/>
	<path class="st32" d="m74 36.6v13.3l-1.1-3.1-1.2 4.4-1.6-2.8-1.4 4.5-0.2-13.1 5.5-3.2z"/>
	<path class="st27" d="m90.7 32.6-2.7 1.6v3.6l2.7-1.5v-3.7z"/>
	<path class="st27" d="m94.5 30.5-2.7 1.5v3.6l2.7-1.5v-3.6z"/>
	<path class="st27" d="m98.2 28.3-2.7 1.6v3.6l2.7-1.5v-3.7z"/>
</g>
<g transform="translate(43.527 48.809)">
	
		<linearGradient id="aa" x1="-732.51" x2="-731.51" y1="556.02" y2="556.02" gradientTransform="matrix(4.724 0 0 -31.349 3460.4 17460)" gradientUnits="userSpaceOnUse">
		<stop stop-color="#A7AAAC" offset=".161"/>
		<stop stop-color="#BEC2C5" offset=".163"/>
		<stop stop-color="#BEC2C5" offset=".559"/>
		<stop stop-color="#DEE3E7" offset=".562"/>
		<stop stop-color="#DEE3E7" offset=".873"/>
		<stop stop-color="#D9DEE2" offset=".874"/>
	</linearGradient>
	<path class="st33" d="M0,14.1v29.7c0,0.8,1.1,1.5,2.4,1.5s2.4-0.7,2.4-1.5V14L0,14.1z"/>
	<path class="st34" d="M4.7,14.1c0,0.8-1.1,1.5-2.4,1.5S0,15,0,14.1s1.1-1.5,2.4-1.5S4.7,13.3,4.7,14.1z"/>
	<g transform="translate(1.153)">
		<path class="st35" d="m5.1 1.2c0.1 1-0.4 2-1.2 2.6l-0.6 0.5c-0.5 0.4-0.9 1.1-0.9 1.8v7.6c-0.2 0.4-0.7 0.7-1.2 0.6-0.5 0-0.9-0.2-1.2-0.6v-8.2c0-1.2 0.5-2.4 1.5-3.1l2.6-2.4s0.9-0.2 1 1.2z"/>
		<path class="st36" d="m0.5 14.2v-8.3c0-1.2 0.5-2.4 1.5-3.1l2.6-2.4h0.3c-0.2-0.3-0.5-0.5-0.8-0.4l-2.6 2.4c-0.9 0.7-1.5 1.9-1.5 3.1v8.3c0.1 0.2 0.3 0.4 0.5 0.4z"/>
		<path class="st37" d="m4.7 2.9-1.4 1.3c-0.9 0.7-1.5 1.9-1.5 3.1v6.9c0.3-0.1 0.5-0.3 0.6-0.5v-7.6c0-0.7 0.3-1.4 0.9-1.8l0.6-0.5c0.3-0.3 0.6-0.5 0.8-0.9z"/>
	</g>
</g>
<g transform="translate(18.68 90.552)">
	
		<linearGradient id="z" x1="-771.89" x2="-770.89" y1="402.68" y2="402.68" gradientTransform="matrix(7.236 0 0 -3.643 5587.7 1480.4)" gradientUnits="userSpaceOnUse">
		<stop stop-color="#A7AAAC" offset=".161"/>
		<stop stop-color="#BEC2C5" offset=".163"/>
		<stop stop-color="#BEC2C5" offset=".559"/>
		<stop stop-color="#DEE3E7" offset=".562"/>
		<stop stop-color="#DEE3E7" offset=".873"/>
		<stop stop-color="#D9DEE2" offset=".874"/>
	</linearGradient>
	<path class="st38" d="m2.3 11.7v1.2c0 1.3 1.6 2.4 3.6 2.4s3.6-1.1 3.6-2.4v-1.3l-7.2 0.1z"/>
	
		<linearGradient id="y" x1="-784.05" x2="-783.05" y1="415.68" y2="415.68" gradientTransform="matrix(8.046 0 0 -4.061 6310.3 1699.8)" gradientUnits="userSpaceOnUse">
		<stop stop-color="#BCC0C2" offset=".161"/>
		<stop stop-color="#D3D7DB" offset=".163"/>
		<stop stop-color="#D3D7DB" offset=".559"/>
		<stop stop-color="#F3F8FD" offset=".562"/>
		<stop stop-color="#F3F8FD" offset=".873"/>
		<stop stop-color="#EEF3F8" offset=".874"/>
	</linearGradient>
	<path class="st39" d="m1.9 9.8v1.3c0 1.4 1.8 2.6 4 2.6s4-1.2 4-2.6v-1.4l-8 0.1z"/>
	<path class="st40" d="m9.9 9.8c0 1.4-1.8 2.6-4 2.6s-4-1.2-4-2.6 1.8-2.6 4-2.6 4 1.2 4 2.6z"/>
	
		<linearGradient id="x" x1="-771.89" x2="-770.89" y1="448.56" y2="448.56" gradientTransform="matrix(7.236 0 0 -5.722 5587.7 2575.5)" gradientUnits="userSpaceOnUse">
		<stop stop-color="#A7AAAC" offset=".161"/>
		<stop stop-color="#BEC2C5" offset=".163"/>
		<stop stop-color="#BEC2C5" offset=".559"/>
		<stop stop-color="#DEE3E7" offset=".562"/>
		<stop stop-color="#DEE3E7" offset=".873"/>
		<stop stop-color="#D9DEE2" offset=".874"/>
	</linearGradient>
	<path class="st41" d="M2.3,6.1v3.3c0,1.3,1.6,2.4,3.6,2.4s3.6-1.1,3.6-2.4V6L2.3,6.1z"/>
	
		<linearGradient id="w" x1="-784.05" x2="-783.05" y1="415.68" y2="415.68" gradientTransform="matrix(8.046 0 0 -4.061 6310.3 1693.8)" gradientUnits="userSpaceOnUse">
		<stop stop-color="#BCC0C2" offset=".161"/>
		<stop stop-color="#D3D7DB" offset=".163"/>
		<stop stop-color="#D3D7DB" offset=".559"/>
		<stop stop-color="#F3F8FD" offset=".562"/>
		<stop stop-color="#F3F8FD" offset=".873"/>
		<stop stop-color="#EEF3F8" offset=".874"/>
	</linearGradient>
	<path class="st42" d="m1.9 3.8v1.3c0 1.4 1.8 2.6 4 2.6s4-1.2 4-2.6v-1.4l-8 0.1z"/>
	<path class="st40" d="m9.9 3.8c0 1.4-1.8 2.6-4 2.6s-4-1.2-4-2.6 1.8-2.6 4-2.6 4 1.2 4 2.6z"/>
	
		<linearGradient id="v" x1="-771.89" x2="-770.89" y1="402.82" y2="402.82" gradientTransform="matrix(7.236 0 0 -3.647 5587.7 1473.1)" gradientUnits="userSpaceOnUse">
		<stop stop-color="#A7AAAC" offset=".161"/>
		<stop stop-color="#BEC2C5" offset=".163"/>
		<stop stop-color="#BEC2C5" offset=".559"/>
		<stop stop-color="#DEE3E7" offset=".562"/>
		<stop stop-color="#DEE3E7" offset=".873"/>
		<stop stop-color="#D9DEE2" offset=".874"/>
	</linearGradient>
	<path class="st43" d="M2.3,2.4v1.2c0,1.3,1.6,2.4,3.6,2.4s3.6-1.1,3.6-2.4V2.2L2.3,2.4z"/>
	<path class="st34" d="M9.5,2.4c0,1.3-1.6,2.4-3.6,2.4S0,4,0,2.7S3.9,0,5.9,0S9.5,1.1,9.5,2.4z"/>
</g>
<g transform="translate(3.261 103.18)">
	
		<path class="st44" d="m30.5 13.2c-1-5.6-3.2-8.5-6.7-8.5h-0.6c-0.4-0.6-4 0.2-4.5 0.5-0.2 0.2-4.5 5.8-11.9 18.8l-6.8-3.7c1.3-6.9 10.3-20.3 18.4-20.3h0.1c1 0 2 0.2 3 0.6 1.2 0.6 4 4.7 5 6.3 0.8 1.6 3.6 3.6 4 6.3z"/>
	
</g>
<g transform="translate(1.609 117.51)">
	
		
			<linearGradient id="u" x1="-320.6" x2="-320.27" y1="1262.4" y2="1263" gradientTransform="matrix(7.856 0 0 -7.3356 6005 3226.1)" gradientUnits="userSpaceOnUse">
			<stop stop-color="#D9DEE2" offset=".126"/>
			<stop stop-color="#DEE3E7" offset=".127"/>
			<stop stop-color="#DEE3E7" offset=".438"/>
			<stop stop-color="#BEC2C5" offset=".441"/>
			<stop stop-color="#BEC2C5" offset=".837"/>
			<stop stop-color="#A7AAAC" offset=".839"/>
		</linearGradient>
		<path class="st45" d="M8.1,4.5V6c0,0.3-0.1,0.5-0.4,0.6C7.6,6.7,6.6,7.4,6.3,7.3L3,3.2C2.4,2.9,2.1,2.3,2.1,1.7    L0.3,1c0-0.2,1.1-0.7,1.3-0.8c0,0,0,0,0.1,0C1.8,0,2,0,2.2,0.1l5,2.8C7.8,3.2,8.1,3.8,8.1,4.5z"/>
		<path class="st46" d="M6.9,5.2v1.5c0,0.4-0.3,0.7-0.7,0.7c-0.1,0-0.2,0-0.3-0.1l-5-2.8C0.3,4.1,0,3.6,0,2.9V1.4    C0,1,0.3,0.7,0.7,0.7c0.1,0,0.2,0,0.3,0.1l5,2.8C6.5,4,6.9,4.6,6.9,5.2z"/>
	
	<path class="st47" d="m3.1 3.9c0 0.2 0 0.3-0.1 0.4-0.2 0.4-0.7 0.5-1.2 0.2-0.8-0.4-1.3-1.2-1.4-2.1 0-0.5 0.3-0.8 0.7-0.7 0.2 0 0.4 0.1 0.6 0.2 0.8 0.4 1.3 1.2 1.4 2z"/>
	<path class="st47" d="m6 5.7c0 0.2 0 0.3-0.1 0.4-0.2 0.4-0.7 0.5-1.2 0.2-0.8-0.5-1.3-1.2-1.3-2.1 0-0.5 0.3-0.8 0.7-0.8 0.2 0 0.4 0.1 0.6 0.2 0.7 0.5 1.2 1.2 1.3 2.1z"/>
	<path class="st48" d="m3.1 3.9c0 0.2 0 0.3-0.1 0.4-0.2 0-0.4-0.1-0.6-0.2-0.8-0.3-1.2-1.1-1.3-2 0-0.2 0-0.3 0.1-0.4 0.2 0 0.4 0.1 0.6 0.2 0.7 0.4 1.2 1.2 1.3 2z"/>
	<path class="st48" d="m6 5.7c0 0.2 0 0.3-0.1 0.4-0.2 0-0.4 0-0.6-0.1-0.7-0.5-1.2-1.2-1.3-2.1 0-0.2 0-0.3 0.1-0.5 0.2 0 0.4 0.1 0.6 0.2 0.7 0.5 1.2 1.2 1.3 2.1z"/>
</g>
<path class="st21" d="m99.1 62.2-16.9 23.6-33.7 6.4v-28.6c0-2.3 2.1-7.1 3.5-9 5.3-7 7.8-9.3 13.3-11.9l33.8 19.5z"/>
<path class="st23" d="m74 80.7c0-2.3 2.2-8 3.4-9.9 4.9-7.5 8.9-9.9 14.3-12.5v-1.3l-21.1-11c-5.5 2.6-9.8 7.8-12.7 15.2-0.9 2.2-2.4 6.2-2.4 8.6l-1.8 25.8 21.3-4.1-1-10.8z"/>
<path class="st22" d="m74 79.4c0-2.3 2.2-8 3.4-9.9 4.9-7.5 8.9-9.9 14.3-12.5l-21.1-12.3c-5.5 2.6-9.8 7.8-12.7 15.2-0.9 2.2-2.4 6.2-2.4 8.6l-1.8 25.8 21.3-4.1-1-10.8z"/>
<path class="st4" d="m38.8 149 61.1-35.4v-7l-61.1 32.4v10z"/>
<g transform="translate(82.633 104.43)">
	
		<linearGradient id="t" x1="-764.61" x2="-764.89" y1="796.04" y2="795.49" gradientTransform="matrix(23.256 0 0 -20.398 21375 10057)" gradientUnits="userSpaceOnUse">
		<stop stop-color="#A7AAAC" offset=".161"/>
		<stop stop-color="#BEC2C5" offset=".163"/>
		<stop stop-color="#BEC2C5" offset=".559"/>
		<stop stop-color="#DEE3E7" offset=".562"/>
		<stop stop-color="#DEE3E7" offset=".873"/>
		<stop stop-color="#D9DEE2" offset=".874"/>
	</linearGradient>
	<path class="st49" d="m8.1 20.4 15-8.9c2-1.2 2.2-4.6 0.4-7.7s-4.8-4.6-6.8-3.5l-15.2 9 6.6 11.1z"/>
	<path class="st50" d="m1.6 9.3c2-1.2 5.1 0.4 6.8 3.5s1.6 6.5-0.4 7.7-5-0.5-6.8-3.6-1.6-6.5 0.4-7.6z"/>
	<path class="st51" d="m1.5 10.8c1.6-0.9 4.1 0.3 5.5 2.8s1.3 5.2-0.3 6.1-4.1-0.3-5.5-2.8-1.3-5.2 0.3-6.1z"/>
</g>
<path class="st52" d="m61.1 139.3 19.5-11.3v-7l-19.5 11.3v7z"/>
<path class="st51" d="m79.5 125.7v-3.2l-2.3 1.2v3.8l2.3 0.9v-2.7z"/>
<path class="st36" d="m80.7 127.8-18.2 10.5 2.2 1.3 18.2-10.5-2.2-1.3z"/>
<path class="st53" d="m78.4 119.8-18.2 10.5 2.2 1.3 18.2-10.5-2.2-1.3z"/>
<path class="st1" d="m62.4 138.3v0.5l2.2 1.3v-0.5l-2.2-1.3z"/>
<path class="st0" d="m82.9 129.6-18.2 10.5v-0.5l18.2-10.5v0.5z"/>
<path class="st36" d="m77.3 124.4-18.2 10.6 2.2 1.3 18.2-10.5-2.2-1.4z"/>
<path class="st0" d="m79.5 126.2-18.2 10.5v-0.5l18.2-10.5v0.5z"/>
<path class="st23" d="m63.8 129.2 18.5-10.7v-35.7l-17.6 10.5 0.5 5.8 1-1.8-2.3 14.8-0.1 17.1z"/>
<path class="st54" d="m36.8 139.8 27.1-10.6v-17.1c-6.8-3.6-27.1 11.5-27.1 11.5v16.2z"/>
<path class="st55" d="m69.2 140.1-5.4-3c-0.3-1.9-0.9-3.8-1.8-5.5h0.6c3.3 0 5.6 2.9 6.6 8.5z"/>
<g transform="translate(41.437 129.56)">
	
		<linearGradient id="s" x1="-1014.1" x2="-1014.6" y1="693.55" y2="694.45" gradientTransform="matrix(24.404 0 0 -25.74 21466 12164)" gradientUnits="userSpaceOnUse">
		<stop stop-color="#68737B" offset=".126"/>
		<stop stop-color="#6C7880" offset=".127"/>
		<stop stop-color="#6C7880" offset=".438"/>
		<stop stop-color="#50585E" offset=".441"/>
		<stop stop-color="#50585E" offset=".837"/>
		<stop stop-color="#3B4145" offset=".839"/>
	</linearGradient>
	<path class="st56" d="M0,17.4c0,2.4,0.8,4.1,2.2,5C4,23.6,8,25.7,8,25.7c5.5-3.2,16.4-14.3,16.4-19.8   c0-2.4-5.2-4.2-6.6-5.1c-1.8-1.2-4.6-1-7.8,0.8C4.5,4.8,0,11.8,0,17.4z"/>
	<path class="st6" d="m5.4 20.5c0 5.5 4.5 7.4 10 4.2s10-10.3 10-15.8-4.5-7.4-10-4.2-10 10.3-10 15.8z"/>
	
		<linearGradient id="r" x1="-1084.4" x2="-1085" y1="811.91" y2="812.9" gradientTransform="matrix(13.316 0 0 -15.375 11324 7087.4)" gradientUnits="userSpaceOnUse">
		<stop stop-color="#DBE0E3" offset=".126"/>
		<stop stop-color="#E0E5E8" offset=".127"/>
		<stop stop-color="#E0E5E8" offset=".438"/>
		<stop stop-color="#C0C4C6" offset=".441"/>
		<stop stop-color="#C0C4C6" offset=".837"/>
		<stop stop-color="#A8ABAD" offset=".839"/>
	</linearGradient>
	<path class="st57" d="m8.4 18.3c0 3.7 3 4.9 6.7 2.8s6.7-6.8 6.7-10.5-3-4.9-6.7-2.8-6.7 6.8-6.7 10.5z"/>
	
		<ellipse class="st9" transform="matrix(.6011 -.7992 .7992 .6011 -5.6133 18.233)" cx="15.5" cy="14.7" rx="8.8" ry="5"/>
	
		<linearGradient id="q" x1="-1103.5" x2="-1104.2" y1="849.54" y2="850.53" gradientTransform="matrix(11.952 0 0 -13.805 10077 6318.2)" gradientUnits="userSpaceOnUse">
		<stop stop-color="#797B7D" offset=".161"/>
		<stop stop-color="#919496" offset=".163"/>
		<stop stop-color="#919496" offset=".559"/>
		<stop stop-color="#B1B5B8" offset=".562"/>
		<stop stop-color="#B1B5B8" offset=".873"/>
		<stop stop-color="#ACB0B3" offset=".874"/>
	</linearGradient>
	<path class="st58" d="m21.4 11.3c0 3.3-2.7 7.5-6 9.4s-6 0.8-6-2.5c0-0.4 0-0.8 0.1-1.1 0.7-3.5 2.9-6.5 5.9-8.3 0.2-0.1 0.5-0.3 0.7-0.4 3-1.4 5.3-0.2 5.3 2.9z"/>
	<path class="st11" d="m18.5 11c0 2.5-2 5.7-4.5 7.2-0.4 0.3-0.9 0.4-1.3 0.6-1.4 0.4-2.5-0.1-2.9-1.2-0.1-0.1-0.1-0.3-0.2-0.4 0.1-0.5 0.2-0.9 0.3-1.4 0.9-2.6 2.5-4.8 4.7-6.4 0.3-0.2 0.6-0.4 0.8-0.6l0.6-0.3s0.1 0 0.1-0.1c1.5-0.1 2.4 0.9 2.4 2.6z"/>
	
		<linearGradient id="p" x1="-1170.3" x2="-1170.9" y1="959.87" y2="960.8" gradientTransform="matrix(8.532 0 0 -10.254 6946.1 4577.5)" gradientUnits="userSpaceOnUse">
		<stop stop-color="#ACB0B3" offset=".126"/>
		<stop stop-color="#B1B5B8" offset=".127"/>
		<stop stop-color="#B1B5B8" offset=".438"/>
		<stop stop-color="#919496" offset=".441"/>
		<stop stop-color="#919496" offset=".837"/>
		<stop stop-color="#797B7D" offset=".839"/>
	</linearGradient>
	<path class="st59" d="m18.1 10.3c0 2.4-3.1 6.9-5.6 8.4s0 0-0.1 0-0.2-0.1-0.3-0.1h-0.1c-0.8-0.3-1.5-0.6-2.2-1-0.1-0.1-0.1-0.3-0.2-0.4 0.1-0.5 0.2-0.9 0.3-1.4 0.9-2.6 2.5-4.8 4.7-6.4 0.3-0.2 0.6-0.4 0.8-0.6l0.6-0.3c0.6 0.5 1.2 1 1.8 1.6 0.2 0.1 0.3 0.2 0.3 0.2z"/>
	<path class="st13" d="m18.7 12c-0.3 2.6-1.7 4.8-3.9 6.1-2.1 1.2-3.9 0.5-3.9-1.6 0-0.2 0-0.5 0.1-0.7 0.5-2.3 1.9-4.2 3.8-5.4 0.2-0.1 0.3-0.2 0.5-0.2 1.9-1 3.4-0.2 3.4 1.8z"/>
	
		<linearGradient id="o" x1="-1510.5" x2="-1511.1" y1="1616.5" y2="1617.5" gradientTransform="matrix(3.8 0 0 -4.3884 2617.7 1704.4)" gradientUnits="userSpaceOnUse">
		<stop stop-color="#797B7D" offset=".161"/>
		<stop stop-color="#919496" offset=".163"/>
		<stop stop-color="#919496" offset=".559"/>
		<stop stop-color="#B1B5B8" offset=".562"/>
		<stop stop-color="#B1B5B8" offset=".873"/>
		<stop stop-color="#ACB0B3" offset=".874"/>
	</linearGradient>
	<path class="st60" d="m16.8 13.3c-0.1 1.2-0.8 2.4-1.9 3-1 0.6-1.9 0.2-1.9-0.8v-0.4c0.2-1.1 0.9-2.1 1.9-2.6 0.1 0 0.2-0.1 0.2-0.1 1-0.5 1.7-0.1 1.7 0.9z"/>
	<path class="st11" d="m15.2 13.5c0 0.5-0.3 0.9-0.8 1.2-0.4 0.2-0.8 0.1-0.8-0.3v-0.1c0.1-0.4 0.4-0.8 0.7-1.1h0.1c0.5-0.2 0.8-0.1 0.8 0.3z"/>
</g>
<path class="st36" d="m67.2 108.6c-0.4 0-0.8-0.2-1.1-0.5s-0.4-0.8-0.3-1.2l1.5-9.7c0.3-1.4 1.1-2.6 2.3-3.3l4.9-3.2c0.3-0.2 0.5-0.2 0.8-0.2 0.9 0 1.6 0.7 1.6 1.6v8.7c0 1.5-0.8 2.8-2 3.5l-7 4.1c-0.3 0.1-0.5 0.2-0.7 0.2z"/>
<path class="st61" d="m67.6 108 7-4.1c1.1-0.6 1.8-1.8 1.8-3.1v-8.7c0-0.6-0.5-1.1-1.1-1.1-0.2 0-0.4 0.1-0.6 0.2l-4.9 3.2c-1.1 0.7-1.8 1.8-2.1 3l-1.5 9.7c-0.1 0.5 0.2 1 0.7 1.1 0.3 0 0.5-0.1 0.7-0.2z"/>
<path class="st36" d="m67.5 121.5c-0.7 0-1.3-0.6-1.3-1.3v-6.7c0-0.7 0.4-1.3 1-1.7l2.7-1.6c0.2-0.1 0.4-0.2 0.6-0.2 0.7 0 1.3 0.6 1.3 1.3v6.7c0 0.7-0.4 1.3-1 1.7l-2.7 1.6c-0.1 0.2-0.3 0.2-0.6 0.2z"/>
<path class="st62" d="m70.6 119.4-2.6 1.6c-0.4 0.2-0.9 0.1-1.1-0.3-0.1-0.1-0.1-0.3-0.1-0.4v-6.7c0-0.5 0.3-1 0.7-1.3l2.7-1.5c0.4-0.2 0.9-0.1 1.1 0.3 0.1 0.1 0.1 0.3 0.1 0.4v6.7c0 0.5-0.3 1-0.8 1.2z"/>
<path class="st36" d="m99.1 104.8-20.5 11.9v3.1l0.7 0.5 20.5-15-0.7-0.5z"/>
<path class="st37" d="m99.8 105.2-20.5 11.9v3.1l20.5-11.9v-3.1z"/>
<g transform="translate(81.417 115.54)">
	<path class="st51" d="m2.8 0.2v0.5c0 0.2-0.1 0.4-0.3 0.5l-2.1 1.3c-0.1 0-0.3 0-0.4-0.1v-0.1-0.2l1.7-1c0.2-0.1 0.4-0.3 0.4-0.5v-0.4l0.3-0.2c0.1 0 0.3 0 0.3 0.1l0.1 0.1z"/>
	<path class="st63" d="M2.1,0.2v0.4c0,0.2-0.1,0.4-0.3,0.5L0,2.1V1.8c0-0.2,0.1-0.4,0.3-0.5L2.1,0.2z"/>
</g>
<g transform="translate(96.086 106.87)">
	<path class="st51" d="m2.8 0.2v0.5c0 0.2-0.1 0.4-0.3 0.5l-2.1 1.3c-0.1 0-0.3 0-0.4-0.1v-0.1-0.2l1.7-1c0.2-0.1 0.4-0.3 0.4-0.5v-0.4l0.3-0.2c0.1 0 0.3 0 0.3 0.1l0.1 0.1z"/>
	<path class="st63" d="M2.1,0.2v0.4c0,0.2-0.1,0.4-0.3,0.5L0,2.1V1.8c0-0.2,0.1-0.4,0.3-0.5L2.1,0.2z"/>
</g>
<g transform="translate(91.198 109.76)">
	<path class="st51" d="m2.8 0.2v0.5c0 0.2-0.1 0.4-0.3 0.5l-2.1 1.3c-0.1 0-0.3 0-0.4-0.1v-0.1-0.2l1.7-1c0.2-0.1 0.4-0.3 0.4-0.5v-0.4l0.3-0.2c0.1 0 0.3 0 0.3 0.1l0.1 0.1z"/>
	<path class="st63" d="M2.1,0.2v0.4c0,0.2-0.1,0.4-0.3,0.5L0,2.1V1.8c0-0.2,0.1-0.4,0.3-0.5L2.1,0.2z"/>
</g>
<g transform="translate(86.305 112.65)">
	<path class="st51" d="m2.8 0.2v0.5c0 0.2-0.1 0.4-0.3 0.5l-2.1 1.3c-0.1 0-0.3 0-0.4-0.1v-0.1-0.2l1.7-1c0.2-0.1 0.4-0.3 0.4-0.5v-0.4l0.3-0.2c0.1 0 0.3 0 0.3 0.1l0.1 0.1z"/>
	<path class="st63" d="M2.1,0.2v0.4c0,0.2-0.1,0.4-0.3,0.5L0,2.1V1.8c0-0.2,0.1-0.4,0.3-0.5L2.1,0.2z"/>
</g>
<path class="st64" d="m31.3 75.8c0.4 9.8 36.5 29 33.9 19.6-0.8-2.8 17.1-12.1 17.1-12.1s-19.3-6.7-33.8-19.6c0 0-17.4 6.9-17.2 12.1z"/>
<path class="st23" d="m74.9 80.2c-6.3-2.9-15.7-7.1-24-13.9-6.1 3-17.8 9.4-17.6 13.3 0 0.5 0.1 1 0.3 1.5 4.1 5.2 12.9 11.1 20.3 14.5 3.3 0.6 5.5-0.2 4.7-3.1-0.7-2.4 13.3-9.7 16.3-12.3z"/>
<path class="st65" d="m74.9 80.2c-8.6-3.8-16.7-8.7-24-14.5-6.1 3-17.8 9.4-17.6 13.3 0 0.5 0.1 1 0.3 1.5 4.1 5.2 12.9 11.1 20.3 14.5 3.3 0.6 5.5-0.2 4.7-3.1-0.7-2.4 12.9-9.9 16.3-11.7z"/>
<path class="st65" d="m63.5 112.2c-6.8 1.9-24.4 9.6-24.4 9.6l-26-15.6s7-5.2 16.9-13.6c7.4-6.3 32.3 18.1 33.8 19.5-0.1 0-0.2 0-0.3 0.1z"/>
<path class="st23" d="m56.6 108.6-22.7 13.6-18.7-14.2 21.3-17.5 20.1 18.1z"/>
<path class="st64" d="m59.2 106.9-25.3 14.3-18.7-14.2 21.3-17.5 22.7 17.4z"/>
<path class="st64" d="m56.8 101.6-25.4 17-16.3-7.4 25-19.1 16.7 9.5z"/>
<path class="st66" d="m22.3 112.9 4.2-3.3c-3.3-2-6.9-3.4-10.8-3.9-1.4-0.2-2.8 0.3-3.6 1.4l-1.6 1.9 11.8 3.9z"/>
<path class="st34" d="m40.3 123.8v13.9l-3.6 2.1-0.6-15.7v-0.6l-13.9-10.6 4.2-3.3c3 1.3 8.6 6.3 11.7 9.2 1 0.9 1.7 2.1 2 3.4 0.2 0.5 0.2 1 0.2 1.6z"/>
<path class="st67" d="m40.3 123.8v13.9l-3.6 2.1-0.6-15.7 4-1.9c0.2 0.5 0.2 1 0.2 1.6z"/>
<path class="st68" d="m12.4 108.3 3.2 0.6c5 1.7 9.6 4.2 13.8 7.5l6 5.6c0.9 0.8 1.4 2 1.4 3.2v23l-26.9-15.6v-22.3c0-1.2 1-2.1 2.1-2.1 0.2 0 0.3 0.1 0.4 0.1z"/>
<path class="st34" d="M1.5,122.2l42.8,24.7l2.7-0.5l1.3,0.8l-3.1,1.9L0,123L1.5,122.2z"/>
<path class="st68" d="m48.3 147.2-1 10.1-0.8 0.5c-0.5 0.3-1 0.4-1.5 0.4-0.4 0-0.9-0.1-1.2-0.3l-42.8-24.8c-0.6-0.3-1-1-1-1.7v-8.4l43.7 25.2c0.4 0.2 0.8 0.3 1.2 0.3 0.5 0 1.1-0.1 1.5-0.4l1.9-0.9z"/>
<path class="st67" d="m48.3 147.2-1 10.1-0.8 0.5c-0.5 0.3-1 0.4-1.5 0.4v-9.5c0.5 0 1.1-0.1 1.5-0.4l1.8-1.1z"/>
<path class="st21" d="m47.3 155.7-0.8 0.5c-0.8 0.5-1.9 0.5-2.8 0l-43.7-25.2v0.4c0 0.7 0.4 1.4 1 1.7l42.8 24.7c0.9 0.5 1.9 0.5 2.8 0l0.8-0.5 0.2-1.6h-0.3z"/>
<path class="st34" d="m7.5 136.8-4.2-2.4v-1.5l4.2 2.4v1.5z"/>
<g transform="translate(57.621 113.47)">
	
		<linearGradient id="m" x1="-810.84" x2="-809.84" y1="379.9" y2="379.9" gradientTransform="matrix(7.236 0 0 -3.647 5867.6 1398.9)" gradientUnits="userSpaceOnUse">
		<stop stop-color="#A7AAAC" offset=".161"/>
		<stop stop-color="#BEC2C5" offset=".163"/>
		<stop stop-color="#BEC2C5" offset=".559"/>
		<stop stop-color="#DEE3E7" offset=".562"/>
		<stop stop-color="#DEE3E7" offset=".873"/>
		<stop stop-color="#D9DEE2" offset=".874"/>
	</linearGradient>
	<path class="st69" d="m0.4 11.7v1.2c0 1.3 1.6 2.4 3.6 2.4s3.6-1.1 3.6-2.4v-1.3l-7.2 0.1z"/>
	
		<linearGradient id="l" x1="-823" x2="-822" y1="392.75" y2="392.75" gradientTransform="matrix(8.046 0 0 -4.061 6621.8 1606.7)" gradientUnits="userSpaceOnUse">
		<stop stop-color="#BCC0C2" offset=".161"/>
		<stop stop-color="#D3D7DB" offset=".163"/>
		<stop stop-color="#D3D7DB" offset=".559"/>
		<stop stop-color="#F3F8FD" offset=".562"/>
		<stop stop-color="#F3F8FD" offset=".873"/>
		<stop stop-color="#EEF3F8" offset=".874"/>
	</linearGradient>
	<path class="st70" d="M0,9.8v1.3c0,1.4,1.8,2.6,4,2.6s4-1.2,4-2.6V9.7L0,9.8z"/>
	<path class="st40" d="m8 9.8c0 1.4-1.8 2.6-4 2.6s-4-1.2-4-2.6 1.8-2.6 4-2.6 4 1.2 4 2.6z"/>
	
		<linearGradient id="k" x1="-810.84" x2="-809.84" y1="425.64" y2="425.64" gradientTransform="matrix(7.236 0 0 -5.722 5867.6 2444.4)" gradientUnits="userSpaceOnUse">
		<stop stop-color="#A7AAAC" offset=".161"/>
		<stop stop-color="#BEC2C5" offset=".163"/>
		<stop stop-color="#BEC2C5" offset=".559"/>
		<stop stop-color="#DEE3E7" offset=".562"/>
		<stop stop-color="#DEE3E7" offset=".873"/>
		<stop stop-color="#D9DEE2" offset=".874"/>
	</linearGradient>
	<path class="st71" d="M0.4,6.1v3.3c0,1.3,1.6,2.4,3.6,2.4s3.6-1.1,3.6-2.4V6L0.4,6.1z"/>
	
		<linearGradient id="j" x1="-823" x2="-822" y1="392.75" y2="392.75" gradientTransform="matrix(8.046 0 0 -4.061 6621.8 1600.7)" gradientUnits="userSpaceOnUse">
		<stop stop-color="#BCC0C2" offset=".161"/>
		<stop stop-color="#D3D7DB" offset=".163"/>
		<stop stop-color="#D3D7DB" offset=".559"/>
		<stop stop-color="#F3F8FD" offset=".562"/>
		<stop stop-color="#F3F8FD" offset=".873"/>
		<stop stop-color="#EEF3F8" offset=".874"/>
	</linearGradient>
	<path class="st72" d="M0,3.8v1.3c0,1.4,1.8,2.6,4,2.6s4-1.2,4-2.6V3.7L0,3.8z"/>
	<path class="st40" d="M8,3.8c0,1.4-1.8,2.6-4,2.6S0,5.3,0,3.8s1.8-2.6,4-2.6S8,2.4,8,3.8z"/>
	
		<linearGradient id="i" x1="-810.84" x2="-809.84" y1="379.9" y2="379.9" gradientTransform="matrix(7.236 0 0 -3.647 5867.6 1389.5)" gradientUnits="userSpaceOnUse">
		<stop stop-color="#A7AAAC" offset=".161"/>
		<stop stop-color="#BEC2C5" offset=".163"/>
		<stop stop-color="#BEC2C5" offset=".559"/>
		<stop stop-color="#DEE3E7" offset=".562"/>
		<stop stop-color="#DEE3E7" offset=".873"/>
		<stop stop-color="#D9DEE2" offset=".874"/>
	</linearGradient>
	<path class="st73" d="M0.4,2.4v1.2C0.4,4.8,2,5.9,4,5.9s3.6-1.1,3.6-2.4V2.2L0.4,2.4z"/>
	<path class="st34" d="M7.6,2.4C7.6,3.7,6,4.7,4,4.7S0.4,3.7,0.4,2.4S2,0,4,0S7.6,1.1,7.6,2.4z"/>
</g>
<g transform="translate(36.417 126.92)">
	<path class="st21" d="m32.8 13.2c-0.3-1.9-0.9-3.7-1.8-5.4-0.9-1.9-2.8-3.1-4.9-3.1h-0.6c-0.4-0.6-4 0.2-4.5 0.5-0.2 0.1-3.6 1.9-8.1 7.1-2.1 2.5-1.9 3.9-4.3 8l-8.6-4.7c0.6-3 3.4-6.6 7.2-9.8 4.9-4.2 8.8-5.8 13.4-5.8h0.1c1 0 2 0.2 3 0.6 1.2 0.6 6.5 2.9 7.5 4.5 0.3 0.5 0.5 1 0.6 1.6 0.4 1.9 0.6 4.5 1 6.5z"/>
</g>
<path class="st22" d="m68.1 133.7c-0.2 0.3-0.5 0.7-0.7 1-0.9-1.9-2.8-3.1-4.9-3.1h-0.6c-0.4-0.6-4 0.2-4.5 0.5-0.2 0.1-3.6 1.9-8.1 7.1l-5.7-6.6c4.9-4.2 8.8-5.8 13.4-5.8h0.1c1 0 2 0.2 3 0.6 1.2 0.6 6.5 2.9 7.5 4.5 0.2 0.7 0.4 1.2 0.5 1.8z"/>
<path class="st74" d="m54.9 129.3-1.8 1-1.4-0.8 1.8-1 1.4 0.8z"/>
<g transform="translate(44.993 129.9)">
	<path class="st23" d="m25.9 9.9-1.7 0.3c-1-5.6-3.2-8.5-6.7-8.5h-0.6c-7 0.7-13.8 8.8-14.9 14.8l-2 0.9c1.2-6.4 7.9-15.7 15.7-17.2 0.6-0.1 1.2-0.2 1.8-0.2 1.9 0 3.8 0.8 5 2.2 1.5 1.5 2.7 3.9 3.4 7.7z"/>
</g>
<path class="st21" d="m66.1 97.3-2.3 14.8-19.1-9.3-2-0.9-0.3-0.2-12.4-9.2 2.7-15.5 13 9.3 2 1.1 18.4 9.9z"/>
<path class="st75" d="m65.2 97.6-2.2 12.9-18.3-8.9-2-0.9-11.4-8.5 2.2-12.8 1.6 0.9 7.2 4.2 3.4 2 2 1.1 17.5 10z"/>
<path class="st76" d="m47 98.9-2-0.9-11.4-8.5-2 1.2-0.2 1.4 11.4 8.5 2 0.9 18.3 8.9 0.6-3.5-16.7-8z"/>
<path class="st77" d="m42.3 84.4c-0.2 0.2-0.4 0.3-0.6 0.4l-7 4.1c-0.4 0.3-1 0.1-1.3-0.3-0.1-0.2-0.2-0.4-0.1-0.7l1.5-6.7 0.3-0.9 7.2 4.1z"/>
<g transform="translate(52.602 128)">
	<path class="st78" d="M3.2,0.8l-1.8,1L0,1l1.8-1L3.2,0.8z"/>
	<path class="st63" d="m3.2 0.8v1l-1.8 1v-1l1.8-1z"/>
	<path class="st79" d="M1.4,1.8v1L0,2V1L1.4,1.8z"/>
</g>
<g transform="translate(36.62 137.73)">
	
		
			<linearGradient id="h" x1="-353.31" x2="-352.98" y1="1246.4" y2="1247.1" gradientTransform="matrix(7.856 0 0 -7.3356 6280.1 3077.8)" gradientUnits="userSpaceOnUse">
			<stop stop-color="#D9DEE2" offset=".126"/>
			<stop stop-color="#DEE3E7" offset=".127"/>
			<stop stop-color="#DEE3E7" offset=".438"/>
			<stop stop-color="#BEC2C5" offset=".441"/>
			<stop stop-color="#BEC2C5" offset=".837"/>
			<stop stop-color="#A7AAAC" offset=".839"/>
		</linearGradient>
		<path class="st80" d="M8.1,4.5V6c0,0.3-0.1,0.5-0.4,0.6C7.6,6.7,6.6,7.4,6.3,7.3L3,3.2C2.4,2.9,2.1,2.3,2.1,1.7    L0.3,1c0-0.2,1.1-0.7,1.3-0.8c0,0,0,0,0.1,0C1.8,0,2,0,2.2,0.1l5,2.8C7.8,3.2,8.1,3.8,8.1,4.5z"/>
		<path class="st46" d="M6.9,5.2v1.5c0,0.4-0.3,0.7-0.7,0.7c-0.1,0-0.2,0-0.3-0.1l-5-2.8C0.3,4.1,0,3.6,0,2.9V1.4    C0,1,0.3,0.7,0.7,0.7c0.1,0,0.2,0,0.3,0.1l5,2.8C6.5,4,6.9,4.6,6.9,5.2z"/>
	
	<path class="st47" d="m3.1 3.9c0 0.2 0 0.3-0.1 0.4-0.2 0.4-0.7 0.5-1.2 0.2-0.8-0.4-1.3-1.2-1.4-2.1 0-0.5 0.3-0.8 0.7-0.7 0.2 0 0.4 0.1 0.6 0.2 0.8 0.4 1.3 1.2 1.4 2z"/>
	<path class="st47" d="m6 5.7c0 0.2 0 0.3-0.1 0.4-0.2 0.4-0.7 0.5-1.2 0.2-0.8-0.5-1.3-1.2-1.3-2.1 0-0.5 0.3-0.8 0.7-0.8 0.2 0 0.4 0.1 0.6 0.2 0.7 0.5 1.2 1.2 1.3 2.1z"/>
	<path class="st48" d="m3.1 3.9c0 0.2 0 0.3-0.1 0.4-0.2 0-0.4-0.1-0.6-0.2-0.8-0.3-1.2-1.1-1.3-2 0-0.2 0-0.3 0.1-0.4 0.2 0 0.4 0.1 0.6 0.2 0.7 0.4 1.2 1.2 1.3 2z"/>
	<path class="st48" d="m6 5.7c0 0.2 0 0.3-0.1 0.4-0.2 0-0.4 0-0.6-0.1-0.7-0.5-1.2-1.2-1.3-2.1 0-0.2 0-0.3 0.1-0.5 0.2 0 0.4 0.1 0.6 0.2 0.7 0.5 1.2 1.2 1.3 2.1z"/>
</g>
<path class="st21" d="m47.6 87.5-2.9 14.1-0.3 1.1-2-0.9 0.3-1.1 3-14.3 1.9 1.1z"/>
<g transform="translate(78.608 69.441)">
	
		<linearGradient id="g" x1="-767.6" x2="-766.6" y1="536.92" y2="536.92" gradientTransform="matrix(4.724 0 0 -35.014 3626.1 18831)" gradientUnits="userSpaceOnUse">
		<stop stop-color="#A7AAAC" offset=".161"/>
		<stop stop-color="#BEC2C5" offset=".163"/>
		<stop stop-color="#BEC2C5" offset=".559"/>
		<stop stop-color="#DEE3E7" offset=".562"/>
		<stop stop-color="#DEE3E7" offset=".873"/>
		<stop stop-color="#D9DEE2" offset=".874"/>
	</linearGradient>
	<path class="st81" d="M0,14.1v33.4c0,0.8,1.1,1.5,2.4,1.5s2.4-0.7,2.4-1.5V14L0,14.1z"/>
	<path class="st34" d="M4.7,14.1c0,0.8-1.1,1.5-2.4,1.5S0,15,0,14.1s1.1-1.5,2.4-1.5S4.7,13.3,4.7,14.1z"/>
	<g transform="translate(1.153)">
		<path class="st35" d="m5.1 1.2c0.1 1-0.4 2-1.2 2.6l-0.6 0.5c-0.5 0.4-0.9 1.1-0.9 1.8v7.6c-0.2 0.4-0.7 0.7-1.2 0.6-0.5 0-0.9-0.2-1.2-0.6v-8.2c0-1.2 0.5-2.4 1.5-3.1l2.6-2.4s0.9-0.2 1 1.2z"/>
		<path class="st36" d="m0.5 14.2v-8.3c0-1.2 0.5-2.4 1.5-3.2l2.6-2.4h0.3c-0.1-0.2-0.5-0.4-0.8-0.3l-2.6 2.4c-0.9 0.7-1.5 1.9-1.5 3.1v8.3c0.1 0.2 0.3 0.4 0.5 0.4z"/>
		<path class="st37" d="m4.7 2.9-1.4 1.3c-0.9 0.7-1.5 1.9-1.5 3.1v6.9c0.3-0.1 0.5-0.3 0.6-0.5v-7.6c0-0.7 0.3-1.4 0.9-1.8l0.6-0.5c0.3-0.3 0.6-0.5 0.8-0.9z"/>
	</g>
</g>
<path class="st23" d="m31.3 75.8c0.2 0.7 0.6 1.3 1 1.9 6.2 7.6 33.8 19.6 33.8 19.6l-1-1.9c0.1 0-26.4-12.1-33.8-19.6z"/>
<g transform="translate(49.148 77.146)">
	<path class="st82" d="M2.3,1.6L1.4,2.2C1.1,2.3,1.1,2.6,0.8,2.4L0.4,2.1C0.1,2-0.2,1.4,0.1,1.2L1,0.6   C1.3,0.5,2.3,0,2.5,0.2l0.1,0C2.9,0.4,2.5,1.4,2.3,1.6z"/>
	<path class="st83" d="M3.6,1.7L2.1,2.6c-0.3,0.2-0.6,0.2-0.9,0L0.8,2.4C0.5,2.3,0.9,1,1.2,0.8l1-0.1   c0.3-0.2,0.7-0.6,1-0.5l0.2,0.2C3.8,0.8,3.9,1.3,3.6,1.7z"/>
	<path class="st84" d="m3.2 0.9-0.9 0.6c-0.3 0.1-0.6 0.1-0.8 0h-0.1c-0.3-0.2-0.3-0.4-0.2-0.7 0-0.1 0.1-0.1 0.1-0.1l0.9-0.6c0.3-0.1 0.6-0.1 0.9 0h0.1c0.2 0.1 0.3 0.4 0.2 0.6-0.1 0.1-0.1 0.2-0.2 0.2z"/>
</g>
<path class="st85" d="m24.8 115.5c0 0.2-0.1 0.3-0.2 0.4-0.3 0.3-1 0.3-1.9-0.1-1.1-0.6-2.1-1.6-2.1-2.3 0-0.5 0.5-0.7 1.2-0.6 0.3 0.1 0.6 0.2 0.9 0.3 1.2 0.6 2.1 1.6 2.1 2.3z"/>
<g transform="translate(82.319 62.223)">
	<path class="st23" d="m16.8 43.5-16.8 9.7v-28.3c0-2.7 0.5-5.3 1.4-7.8 2-4.7 10.1-15.6 15.4-17.1v43.5z"/>
</g>
<path class="st34" d="m15.8 141.6-4.2-2.4v-1.5l4.2 2.4v1.5z"/>
<path class="st34" d="m24.2 146.4-4.2-2.4v-1.5l4.2 2.4v1.5z"/>
<path class="st34" d="m32.6 151.2-4.2-2.4v-1.5l4.2 2.4v1.5z"/>
<path class="st34" d="m40.9 156.1-4.2-2.4v-1.5l4.2 2.4v1.5z"/>
<g transform="translate(14.172 134.07)">
	<path class="st86" d="m1.1 6.6c-0.6-0.5-1-1.1-1.1-1.9v-3.4c0-0.7 0.5-0.9 1.1-0.6l8.2 4.8c0.6 0.4 1.1 1.1 1.1 1.9v3.4c0 0.7-0.5 0.9-1.1 0.6l-8.2-4.8z"/>
	<path class="st87" d="M1.4,6C0.8,5.6,0.4,4.9,0.3,4.1V0.7c0-0.7,0.5-0.9,1.1-0.6L9.6,5c0.6,0.4,1.1,1.1,1.1,1.9   v3.4c0,0.7-0.5,0.9-1.1,0.6L1.4,6z"/>
	<path class="st88" d="M1.1,6.1C0.5,5.7,0.1,5,0,4.2V0.8c0-0.7,0.5-0.9,1.1-0.6l8.2,4.8c0.6,0.4,1.1,1.1,1.1,1.9   v3.4c0,0.7-0.5,0.9-1.1,0.6L1.1,6.1z"/>
	<path class="st89" d="m9.3 10.7-8.2-4.8c-0.5-0.4-0.9-0.9-0.9-1.5v-3.4c0-0.5 0.4-0.7 0.9-0.5l8.2 4.8c0.5 0.3 0.9 0.9 0.9 1.5v3.4c0 0.5-0.4 0.8-0.9 0.5z"/>
	<g transform="translate(.207 .367)">
		<path class="st90" d="M10,6.4c0-0.6-0.4-1.2-0.9-1.5L0.9,0.1C0.4-0.2,0,0,0,0.6L10,6.4z"/>
		<path class="st90" d="M0,4c0,0.6,0.4,1.2,0.9,1.5l8.2,4.8c0.5,0.3,0.9,0.1,0.9-0.4L0,4z"/>
	</g>
</g>
<g transform="translate(87.933 82.032)">
	<path class="st91" d="M1.3,18.3C0.6,18.3,0,17.7,0,17V3.4c0-0.7,0.4-1.3,1-1.7l2.7-1.6C3.8,0.1,4.1,0,4.3,0   C5,0,5.6,0.6,5.6,1.3v13.6c0,0.7-0.4,1.3-1,1.7L2,18.2C1.8,18.3,1.5,18.3,1.3,18.3z"/>
	<path class="st23" d="m4.5 16.2-2.7 1.5c-0.4 0.2-0.9 0.1-1.1-0.3-0.1-0.1-0.1-0.3-0.1-0.4v-13.6c0-0.5 0.3-1 0.7-1.3l2.7-1.5c0.4-0.2 0.9-0.1 1.1 0.3 0.1 0.1 0.1 0.2 0.1 0.4v13.6c0 0.6-0.3 1-0.7 1.3z"/>
</g>
<g transform="translate(44.736 121.43)">
	<path class="st83" d="m1.2 0-0.8 0.3c-0.3 0.1-0.4 0.3-0.4 0.6v0.3c0 0.2 0.2 0.4 0.4 0.4h0.1l0.8-0.3c0.3-0.1 0.4-0.3 0.4-0.6v-0.3c0-0.2-0.2-0.4-0.5-0.4 0.1 0 0 0 0 0z"/>
	<path class="st84" d="m1.4 0.2-0.8 0.4c-0.2 0.1-0.4 0.3-0.4 0.5v0.3c0 0.2 0.2 0.4 0.4 0.4h0.1l0.8-0.3c0.3-0.1 0.5-0.3 0.4-0.5v-0.3c0-0.3-0.2-0.5-0.5-0.5 0.1 0 0 0 0 0z"/>
</g>
<g transform="translate(11.914 112.87)">
	<path class="st92" d="M22.4,23.6v1C14.7,20.9,7.2,16.8,0,12.3v-1C6.6,15.5,17.8,21.4,22.4,23.6z"/>
	<path class="st92" d="m22.4 21.6v1c-4.6-2.2-15.8-8-22.4-12.3v-1c6.6 4.3 17.8 10.1 22.4 12.3z"/>
	<path class="st92" d="M22.4,19.7v1C14.7,17,7.2,12.9,0,8.4v-1C7.2,11.9,14.7,16,22.4,19.7z"/>
	<path class="st92" d="M22.4,17.7v1C14.7,15,7.2,10.9,0,6.4v-1C7.2,9.9,14.7,14,22.4,17.7z"/>
	<g transform="translate(0 5.933)">
		<path class="st68" d="m22.4 18.2v1c-5.1-2.5-16.2-8.4-22.4-12.4v-1c6.2 4 17.3 9.9 22.4 12.4z"/>
		<path class="st68" d="M22.4,16.2v1C17.8,15,6.6,9.2,0,5v-1C6.6,8.2,17.8,14,22.4,16.2z"/>
		<path class="st68" d="M22.4,14.3v1C17.3,12.8,6.2,7,0,3V2C6.2,5.9,17.3,11.8,22.4,14.3z"/>
		<path class="st68" d="M22.4,12.3v1C14.7,9.6,7.2,5.5,0,1V0C7.2,4.5,14.7,8.6,22.4,12.3z"/>
	</g>
	<path class="st92" d="M22.4,15.7v1C14.7,13,7.2,8.9,0,4.4v-1C7.2,7.9,14.7,12,22.4,15.7z"/>
	<path class="st92" d="M22.4,13.8v1C17.8,12.6,6.6,6.8,0,2.5v-1C6.6,5.7,17.8,11.6,22.4,13.8z"/>
	<path class="st92" d="m22.3 12.8c-7.6-3.7-15-7.8-22.3-12.2 0-0.1 0.1-0.3 0.2-0.4 0.2-0.1 0.4-0.2 0.5-0.2 0.3 0.2 3.2 2 4.7 2.9l0.1 0.1c2.3 1.3 4.6 2.6 6.8 3.7 0.1 0 0.1 0.1 0.2 0.1 2.9 1.4 9 4.9 9 4.9 0.2 0.1 0.4 0.3 0.6 0.5 0 0.2 0.2 0.4 0.2 0.6z"/>
	<g transform="translate(0 .216)">
		<path class="st68" d="M22.4,16v1C17.3,14.6,6.2,8.7,0,4.7v-1C6.2,7.7,17.3,13.5,22.4,16z"/>
		<path class="st68" d="M22.4,14.1v1C17.8,12.9,6.6,7.1,0,2.8v-1C6.6,6.1,17.8,11.9,22.4,14.1z"/>
		<path class="st68" d="m22.4 13.1c-5.1-2.4-16.2-8.3-22.4-12.3v-0.2-0.2c0-0.1 0.1-0.3 0.2-0.4 1.6 1 3.4 2.2 5.1 3.2 0 0 0.1 0 0.1 0.1 2.3 1.3 4.6 2.6 6.8 3.7 0.1 0 0.1 0.1 0.2 0.1 2.1 1.1 7.8 4 9.6 4.9 0.2 0.2 0.3 0.4 0.3 0.6 0.1 0.2 0.1 0.3 0.1 0.5z"/>
	</g>
</g>
<g transform="translate(31.887 96.916)">
	<g transform="translate(11.646 7.652)">
		<path class="st93" d="M7.7,3.4L7.2,3.8C6.8,3.9,6.4,3.9,6,3.8L0.7,1.4C0,1.1,0,0.6,0.6,0.3l0.5-0.2    c0.3-0.1,0.7-0.1,1,0l5.3,2.3C7.9,2.7,8.1,3.1,7.7,3.4z"/>
		
			<path class="st64" d="M5.4,3.7l0.4,0.1L8,2.5L7.7,2.3L5.4,3.7z"/>
			<path class="st64" d="m4.2 3.2 0.4 0.1 2.2-1.3-0.3-0.1-2.3 1.3z"/>
			<path class="st64" d="m3.1 2.8 0.4 0.1 2.2-1.3-0.3-0.1-2.3 1.3z"/>
			<path class="st64" d="M2,2.4l0.4,0.1l2.2-1.3L4.3,1L2,2.4z"/>
			<path class="st64" d="M0.9,1.9L1.3,2l2.2-1.3L3.2,0.6L0.9,1.9z"/>
			<path class="st64" d="M0,1.3l0.4,0.1l2.2-1.3L2.3,0L0,1.3z"/>
		
	</g>
	
		<path class="st93" d="M0.5,0.4L1,0.1C1.3-0.1,1.7,0,2,0.2l4,3C6.3,3.3,6.4,3.7,6.2,4C6.2,4.1,6,4.2,5.8,4.3    L5.4,4.5C5.1,4.6,4.8,4.6,4.5,4.4L0.6,1.5C0.1,1.2,0.1,0.7,0.5,0.4z"/>
		<g transform="translate(0 .176)">
			<path class="st64" d="M2.6,0.2L2.2,0L0,1.2l0.3,0.2L2.6,0.2z"/>
			<path class="st64" d="M3.4,0.7L3.1,0.6L0.9,1.8L1.1,2L3.4,0.7z"/>
			<path class="st64" d="M4.3,1.3L3.9,1.1L1.7,2.3L2,2.5L4.3,1.3z"/>
			<path class="st64" d="m5.1 1.8-0.3-0.2-2.2 1.2 0.3 0.2 2.2-1.2z"/>
			<path class="st64" d="m5.9 2.4-0.3-0.2-2.2 1.2 0.3 0.2 2.2-1.2z"/>
			<path class="st64" d="M6.6,3.1L6.2,2.9L4,4.1l0.3,0.2L6.6,3.1z"/>
		</g>
	
</g>
</svg>
