<?xml version="1.0" encoding="UTF-8"?>
<svg viewBox="0 0 245.83 285.92" xmlns="http://www.w3.org/2000/svg">
<defs>
<linearGradient id="a" x1=".5" x2=".5" y2="1">
<stop stop-color="#0f6bc7" offset="0"/>
<stop stop-color="#41ba03" offset="1"/>
</linearGradient>
</defs>
<g transform="translate(-1486.1 -1985)" fill="url(#a)" data-name="Group 2611">
<path transform="translate(1621.3 2067.5)" d="M98.84,13.292h-5.9V1.5H81.151V13.292H33.981V1.5H22.189V13.292h-5.9A11.739,11.739,0,0,0,4.559,25.085L4.5,107.632a11.789,11.789,0,0,0,11.792,11.792H98.84a11.827,11.827,0,0,0,11.792-11.792V25.085A11.827,11.827,0,0,0,98.84,13.292Zm0,94.34H16.292V42.774H98.84ZM28.085,54.566H57.566V84.047H28.085Z" opacity=".2" data-name="Icon material-today"/>
<path transform="translate(1481.6 1983.5)" d="M55.64,7.892h-3.2V1.5H46.051V7.892H20.481V1.5H14.089V7.892h-3.2a6.363,6.363,0,0,0-6.36,6.392L4.5,59.032a6.391,6.391,0,0,0,6.392,6.392H55.64a6.411,6.411,0,0,0,6.392-6.392V14.285A6.411,6.411,0,0,0,55.64,7.892Zm0,51.14H10.892V23.874H55.64ZM17.285,30.266H33.266V46.247H17.285Z" opacity=".15" data-name="Icon material-today"/>
<path transform="translate(1481.6 2205.5)" d="M55.64,7.892h-3.2V1.5H46.051V7.892H20.481V1.5H14.089V7.892h-3.2a6.363,6.363,0,0,0-6.36,6.392L4.5,59.032a6.391,6.391,0,0,0,6.392,6.392H55.64a6.411,6.411,0,0,0,6.392-6.392V14.285A6.411,6.411,0,0,0,55.64,7.892Zm0,51.14H10.892V23.874H55.64ZM17.285,30.266H33.266V46.247H17.285Z" opacity=".1" data-name="Icon material-today"/>
</g>
</svg>
