<?xml version="1.0" encoding="UTF-8"?>
<svg viewBox="0 0 216.68 216.83" xmlns="http://www.w3.org/2000/svg">
<defs>
<linearGradient id="a" x1=".5" x2=".5" y2="1">
<stop stop-color="#0f6bc7" offset="0"/>
<stop stop-color="#41ba03" offset="1"/>
</linearGradient>
</defs>
<g transform="translate(-1525.3 -2785)" fill="url(#a)" data-name="Group 2513">
<path transform="translate(1579.1 2839.1)" d="m162.56 34.307a11.76 11.76 0 0 0-2.993-6.386l-23.948-23.948q-2.8-2.395-4.191 0.8l-19.358 36.319q-1.6 3.19 1 6.187l8.781 8.781a9.93 9.93 0 0 1 2.794 6.187q0 5.987-6.187 15.367a131.23 131.23 0 0 1-12.173 15.971l-6.187 6.38c-1.865 1.865-4.253 4.16-7.191 6.885a120.48 120.48 0 0 1-14.462 10.777q-10.075 6.689-15.865 6.685a8.687 8.687 0 0 1-6.386-2.594l-10.386-10.379q-2.8-2.8-5.981-0.8l-34.926 20.561a2.916 2.916 0 0 0-1.6 2.1 2.549 2.549 0 0 0 0.8 2.3l23.948 23.948a11.728 11.728 0 0 0 6.38 2.987q9.785 1.4 22.058-2.694a99.8 99.8 0 0 0 22.744-10.876q10.477-6.782 19.458-13.764t14.369-11.974l5.189-5q1.993-1.992 5.288-5.488t11.487-13.764a200.43 200.43 0 0 0 14.167-20.065 117 117 0 0 0 10.377-22.252q4.388-12.47 2.994-22.251z" opacity=".2" data-name="Icon zocial-call"/>
<path transform="translate(1551.1 2811.1)" d="M110.735,24.1a7.934,7.934,0,0,0-2.02-4.308L92.559,3.639q-1.887-1.616-2.827.539l-13.06,24.5a3.526,3.526,0,0,0,.673,4.174l5.924,5.924a6.7,6.7,0,0,1,1.885,4.174q0,4.039-4.174,10.367A88.534,88.534,0,0,1,72.767,64.1l-4.174,4.3c-1.258,1.258-2.869,2.806-4.851,4.645a81.285,81.285,0,0,1-9.757,7.27q-6.8,4.512-10.7,4.51a5.861,5.861,0,0,1-4.308-1.75l-7.005-7a2.959,2.959,0,0,0-4.035-.539L4.366,89.4a1.967,1.967,0,0,0-1.077,1.414,1.719,1.719,0,0,0,.539,1.548l16.157,16.157a7.912,7.912,0,0,0,4.3,2.015q6.6.947,14.882-1.818a67.33,67.33,0,0,0,15.345-7.338q7.069-4.576,13.127-9.286t9.694-8.078l3.5-3.37q1.344-1.344,3.568-3.7t7.75-9.286a135.223,135.223,0,0,0,9.559-13.531,78.934,78.934,0,0,0,7-15.012Q111.675,30.7,110.735,24.1Z" opacity=".15" data-name="Icon zocial-call"/>
<path transform="translate(1522 2782.1)" d="M76.849,17.433a5.433,5.433,0,0,0-1.383-2.95L64.4,3.421q-1.292-1.106-1.936.369L53.526,20.567a2.414,2.414,0,0,0,.461,2.858l4.056,4.056a4.587,4.587,0,0,1,1.291,2.858q0,2.766-2.858,7.1a60.619,60.619,0,0,1-5.623,7.378L48,47.762c-.861.861-1.965,1.921-3.322,3.18a55.656,55.656,0,0,1-6.681,4.978q-4.654,3.09-7.329,3.088a4.013,4.013,0,0,1-2.95-1.2l-4.8-4.794a2.026,2.026,0,0,0-2.763-.369L4.02,62.143a1.347,1.347,0,0,0-.737.968,1.177,1.177,0,0,0,.369,1.06L14.713,75.234a5.418,5.418,0,0,0,2.947,1.38A22.3,22.3,0,0,0,27.85,75.369a46.1,46.1,0,0,0,10.506-5.024q4.84-3.133,8.988-6.358t6.637-5.531l2.4-2.308q.92-.92,2.443-2.535t5.306-6.358a92.586,92.586,0,0,0,6.545-9.265,54.045,54.045,0,0,0,4.794-10.279A21.866,21.866,0,0,0,76.849,17.433Z" opacity=".1" data-name="Icon zocial-call"/>
</g>
</svg>
