<?xml version="1.0" encoding="UTF-8"?>
<svg viewBox="0 0 278 246" xmlns="http://www.w3.org/2000/svg">
<defs>
<linearGradient id="a" x1=".5" x2=".5" y2="1">
<stop stop-color="#0f6bc7" offset="0"/>
<stop stop-color="#41ba03" offset="1"/>
</linearGradient>
</defs>
<g transform="translate(-224.88 -2512)" fill="url(#a)" data-name="Group 2614">
<path transform="translate(295.88 2594)" d="M6.8,82A6.819,6.819,0,0,1,0,75.167V6.833A6.819,6.819,0,0,1,6.8,0H129.2A6.819,6.819,0,0,1,136,6.833V75.167A6.819,6.819,0,0,1,129.2,82ZM112.2,71.75h13.6V58.083A13.631,13.631,0,0,0,112.2,71.75Zm-102,0H23.8A13.631,13.631,0,0,0,10.2,58.083ZM47.6,41c0,13.207,9.134,23.917,20.4,23.917S88.4,54.213,88.4,41,79.266,17.083,68,17.083,47.6,27.79,47.6,41Zm78.2-17.083V10.25H112.2A13.631,13.631,0,0,0,125.8,23.917Zm-115.6,0A13.631,13.631,0,0,0,23.8,10.25H10.2ZM66.888,61.448a1.267,1.267,0,0,1-1.259-1.266v-3.8a11.086,11.086,0,0,1-6.805-2.373,1.284,1.284,0,0,1-.141-1.938l2.736-2.687a1.223,1.223,0,0,1,1.537-.159,4.8,4.8,0,0,0,2.69.831h5.22a2.335,2.335,0,0,0,.653-4.573l-8.068-2.373a9.04,9.04,0,0,1-6.6-7.64,8.651,8.651,0,0,1,8.579-9.46h.2V22.222a1.267,1.267,0,0,1,1.259-1.266h2.519a1.265,1.265,0,0,1,1.259,1.266v3.794a11.1,11.1,0,0,1,6.808,2.373,1.285,1.285,0,0,1,.141,1.938l-2.739,2.69a1.218,1.218,0,0,1-1.534.159,4.776,4.776,0,0,0-2.69-.831h-5.22a2.335,2.335,0,0,0-.653,4.573l8.5,2.5a8.694,8.694,0,0,1,5.707,11.207,8.892,8.892,0,0,1-8.32,5.748v3.813a1.265,1.265,0,0,1-1.259,1.266Z" opacity=".2" data-name="Union 11"/>
<path transform="translate(424.88 2512)" d="M3.9,46A3.869,3.869,0,0,1,0,42.167V3.833A3.869,3.869,0,0,1,3.9,0H74.1A3.869,3.869,0,0,1,78,3.833V42.167A3.869,3.869,0,0,1,74.1,46Zm60.45-5.75h7.8V32.583A7.733,7.733,0,0,0,64.35,40.25Zm-58.5,0h7.8a7.733,7.733,0,0,0-7.8-7.667ZM27.3,23c0,7.409,5.238,13.417,11.7,13.417s11.7-6,11.7-13.417S45.462,9.583,39,9.583,27.3,15.589,27.3,23Zm44.85-9.583V5.75h-7.8A7.733,7.733,0,0,0,72.15,13.417Zm-66.3,0a7.733,7.733,0,0,0,7.8-7.667H5.85ZM38.362,34.471a.719.719,0,0,1-.722-.71v-2.13a6.448,6.448,0,0,1-3.9-1.331.71.71,0,0,1-.081-1.087l1.569-1.507a.713.713,0,0,1,.881-.089,2.794,2.794,0,0,0,1.543.466h2.994a1.307,1.307,0,0,0,.374-2.565L36.39,24.187A5.107,5.107,0,0,1,32.607,19.9a4.9,4.9,0,0,1,4.92-5.307h.112V12.466a.719.719,0,0,1,.722-.71h1.445a.718.718,0,0,1,.722.71v2.128a6.459,6.459,0,0,1,3.9,1.331.711.711,0,0,1,.081,1.087l-1.571,1.509a.711.711,0,0,1-.88.089,2.782,2.782,0,0,0-1.543-.466H37.527a1.307,1.307,0,0,0-.374,2.565l4.875,1.4A4.857,4.857,0,0,1,45.3,28.4a5.1,5.1,0,0,1-4.772,3.225v2.139a.718.718,0,0,1-.722.71Z" opacity=".15" data-name="Union 12"/>
<path transform="translate(224.88 2712)" d="M3.9,46A3.869,3.869,0,0,1,0,42.167V3.833A3.869,3.869,0,0,1,3.9,0H74.1A3.869,3.869,0,0,1,78,3.833V42.167A3.869,3.869,0,0,1,74.1,46Zm60.45-5.75h7.8V32.583A7.733,7.733,0,0,0,64.35,40.25Zm-58.5,0h7.8a7.733,7.733,0,0,0-7.8-7.667ZM27.3,23c0,7.409,5.238,13.417,11.7,13.417s11.7-6,11.7-13.417S45.462,9.583,39,9.583,27.3,15.589,27.3,23Zm44.85-9.583V5.75h-7.8A7.733,7.733,0,0,0,72.15,13.417Zm-66.3,0a7.733,7.733,0,0,0,7.8-7.667H5.85ZM38.362,34.471a.719.719,0,0,1-.722-.71v-2.13a6.448,6.448,0,0,1-3.9-1.331.71.71,0,0,1-.081-1.087l1.569-1.507a.713.713,0,0,1,.881-.089,2.794,2.794,0,0,0,1.543.466h2.994a1.307,1.307,0,0,0,.374-2.565L36.39,24.187A5.107,5.107,0,0,1,32.607,19.9a4.9,4.9,0,0,1,4.92-5.307h.112V12.466a.719.719,0,0,1,.722-.71h1.445a.718.718,0,0,1,.722.71v2.128a6.459,6.459,0,0,1,3.9,1.331.711.711,0,0,1,.081,1.087l-1.571,1.509a.711.711,0,0,1-.88.089,2.782,2.782,0,0,0-1.543-.466H37.527a1.307,1.307,0,0,0-.374,2.565l4.875,1.4A4.857,4.857,0,0,1,45.3,28.4a5.1,5.1,0,0,1-4.772,3.225v2.139a.718.718,0,0,1-.722.71Z" opacity=".1" data-name="Union 14"/>
</g>
</svg>
