<?xml version="1.0" encoding="utf-8"?>
<!-- Generator: Adobe Illustrator 24.0.1, SVG Export Plug-In . SVG Version: 6.00 Build 0)  -->
<svg version="1.1" id="Ñëîé_1" xmlns="http://www.w3.org/2000/svg" xmlns:xlink="http://www.w3.org/1999/xlink" x="0px" y="0px"
	 viewBox="0 0 35 26.6" style="enable-background:new 0 0 35 26.6;" xml:space="preserve">
<style type="text/css">
	.st0{fill:#FFCD94;}
	.st1{fill:#F7CAA5;}
	.st2{fill:#41BA03;}
</style>
<g>
	<g>
		<g>
			<g>
				<path class="st0" d="M22.4,0c-1.5,0-2.8,1.2-2.8,2.8c0,0.4,0.1,0.9,0.3,1.2c0.5,0.9,1.4,1.5,2.5,1.5s2-0.6,2.5-1.5
					c0.2-0.4,0.3-0.8,0.3-1.2C25.2,1.2,24,0,22.4,0z"/>
			</g>
			<g>
				<path class="st0" d="M25.7,6.5c-0.2-0.1-0.4-0.2-0.6-0.3l-2.3,2.3c-0.1,0.1-0.2,0.2-0.4,0.2l0,0c-0.2,0-0.3-0.1-0.4-0.2
					l-2.3-2.4c-0.2,0.1-0.4,0.2-0.7,0.4c-1.5,0.9-3.2,2.6-3.3,7.1H29C29,9,27.2,7.4,25.7,6.5z"/>
			</g>
		</g>
	</g>
	<g id="support_icon" transform="translate(-34 -83.191)">
		<g id="_Group_" transform="translate(34 100.361)">
			<g id="_Group_2" transform="translate(5.62 0.878)">
				<path id="_Path_" class="st1" d="M19.8,1.6l5.9-2.9C27-2,28.7-1.5,29.4-0.2l-12,8c-1.6,0.8-3.4,1-5.2,0.7L3.8,6.2
					C3,6,2.2,6.1,1.5,6.5l-1.7,1l0.1-8.5H0c2.5-1.8,5.8-2.1,8.5-0.7L9-1.5c0.8,0.4,1.6,0.6,2.5,0.6l4.9,0.1
					C17.9-0.8,19.3,0.1,19.8,1.6z"/>
			</g>
			<g id="_Group_3" transform="translate(0 0)">
				<path id="_Path_2" class="st2" d="M5.4,8.3l0,1L0,9.2L0.2-2.6l5.4,0.1l0,2.3L5.4,8.3z"/>
			</g>
		</g>
	</g>
</g>
</svg>
