<?xml version="1.0" encoding="UTF-8"?>
<svg viewBox="0 0 245.18 85.883" xmlns="http://www.w3.org/2000/svg">
<g transform="translate(-254.04 -292.06)" data-name="Group 2917">
<g data-name="Group 2891">
<circle transform="translate(254.04 350.17) rotate(-56.646)" cx="24.991" cy="24.991" r="24.991" fill="#019ae6" data-name="Ellipse 170"/>
<circle transform="translate(254.04 350.17) rotate(-56.646)" cx="24.991" cy="24.991" r="24.991" fill="#fff" opacity=".3" data-name="Ellipse 171"/>
<g data-name="Group 2886">
<path d="m280.04 336.74c0.946-0.078 1.806 0.966 1.919 2.334s-0.564 2.538-1.511 2.616-1.807-0.967-1.919-2.334 0.564-2.538 1.511-2.616z" fill="#263238" data-name="Path 3303"/>
</g>
<g data-name="Group 2887">
<path d="m295.92 336.42c-0.95-0.039-1.764 1.039-1.821 2.41s0.668 2.513 1.617 2.552 1.765-1.041 1.822-2.411-0.669-2.513-1.618-2.551z" fill="#263238" data-name="Path 3304"/>
</g>
<g data-name="Group 2888">
<path d="m298.65 347.99c0 0.3-4.658 0.534-10.4 0.534s-10.4-0.239-10.4-0.534 4.658-0.533 10.4-0.533 10.4 0.239 10.4 0.533z" fill="#263238" data-name="Path 3305"/>
</g>
<g data-name="Group 2889">
<path d="M281.947,333.871c-.061.3-1.246.286-2.636.513-1.394.208-2.519.58-2.668.316-.153-.241.892-1.122,2.5-1.369S282.019,333.6,281.947,333.871Z" fill="#263238" data-name="Path 3306"/>
</g>
<g data-name="Group 2890">
<path d="M300.435,335.082c-.189.238-1.268-.327-2.656-.742-1.382-.435-2.592-.573-2.614-.876-.038-.282,1.324-.64,2.927-.143S300.625,334.87,300.435,335.082Z" fill="#263238" data-name="Path 3307"/>
</g>
</g>
<g data-name="Group 2897">
<circle transform="translate(439.92 362.47) rotate(-80.951)" cx="25.903" cy="25.903" r="25.903" fill="#ff6b76" data-name="Ellipse 172"/>
<g data-name="Group 2892">
<path d="m460.63 334.44c0.981-0.081 1.872 1 1.989 2.419s-0.585 2.631-1.566 2.712-1.873-1-1.989-2.419 0.584-2.631 1.566-2.712z" fill="#263238" data-name="Path 3308"/>
</g>
<g data-name="Group 2893">
<path d="m477.1 334.1c-0.984-0.041-1.829 1.078-1.888 2.5s0.693 2.605 1.677 2.646 1.83-1.079 1.888-2.5-0.691-2.607-1.677-2.646z" fill="#263238" data-name="Path 3309"/>
</g>
<g data-name="Group 2894">
<path d="M479.927,346.1c-.107.141-1.183-.622-3.034-1.573a16.793,16.793,0,0,0-7.711-1.9,19.2,19.2,0,0,0-7.732,2.007c-1.877.913-2.993,1.612-3.091,1.471-.072-.1.891-1.02,2.737-2.136a16.822,16.822,0,0,1,8.068-2.408,15.148,15.148,0,0,1,8.1,2.313C479.089,345.025,480,346.006,479.927,346.1Z" fill="#263238" data-name="Path 3310"/>
</g>
<g data-name="Group 2895">
<path d="M462.614,331.463c.088.11-.082.434-.511.811a4.308,4.308,0,0,1-2.027.949,3.891,3.891,0,0,1-2.247-.249c-.529-.246-.772-.526-.713-.652.136-.282,1.354.124,2.774-.149C461.314,331.92,462.417,331.215,462.614,331.463Z" fill="#263238" data-name="Path 3311"/>
</g>
<g data-name="Group 2896">
<path d="M481.777,332.719c.043.13-.241.383-.813.565a3.847,3.847,0,0,1-2.328-.085,4.529,4.529,0,0,1-1.9-1.273c-.38-.439-.518-.784-.417-.884.225-.233,1.267.659,2.67,1.15C480.378,332.7,481.676,332.419,481.777,332.719Z" fill="#263238" data-name="Path 3312"/>
</g>
</g>
<g data-name="Group 2908">
<g data-name="Group 2906">
<g data-name="Group 2903">
<circle transform="matrix(.307 -.952 .952 .307 338.19 357.02)" cx="34.122" cy="34.122" r="34.122" fill="#41ba03" data-name="Ellipse 174"/>
<g data-name="Group 2898">
<path d="m369.36 326.4c1.293-0.106 2.466 1.32 2.621 3.187s-0.77 3.465-2.063 3.573-2.467-1.321-2.62-3.187 0.769-3.465 2.062-3.573z" fill="#263238" data-name="Path 3313"/>
</g>
<g data-name="Group 2899">
<path d="m391.05 325.96c-1.3-0.053-2.409 1.42-2.486 3.292s0.912 3.431 2.209 3.484 2.41-1.421 2.486-3.292-0.912-3.431-2.209-3.484z" fill="#263238" data-name="Path 3314"/>
</g>
<g data-name="Group 2900">
<path d="M394.773,337.154c.053.052-.224.4-.774,1a19.5,19.5,0,0,1-2.558,2.3,18.225,18.225,0,0,1-4.513,2.473,15.988,15.988,0,0,1-6.255.98,18.456,18.456,0,0,1-6.153-1.418,26.525,26.525,0,0,1-4.532-2.374c-2.416-1.618-3.7-2.875-3.626-2.965.108-.142,1.553.9,4.017,2.32a32.163,32.163,0,0,0,4.494,2.1,19.033,19.033,0,0,0,5.85,1.269,16.112,16.112,0,0,0,5.877-.841,20.089,20.089,0,0,0,4.41-2.165c1.163-.8,2.1-1.473,2.708-1.991C394.346,337.354,394.721,337.1,394.773,337.154Z" fill="#263238" data-name="Path 3315"/>
</g>
<g data-name="Group 2901">
<path d="M370.9,318.726c-.059.3-1.692.192-3.63.508-1.943.291-3.464.892-3.612.623-.154-.236,1.288-1.346,3.448-1.676S370.975,318.453,370.9,318.726Z" fill="#263238" data-name="Path 3316"/>
</g>
<g data-name="Group 2902">
<path d="M398.371,320.32c-.188.244-1.634-.619-3.568-1.2-1.928-.605-3.608-.7-3.628-1.009-.04-.279,1.792-.677,3.941-.01S398.561,320.113,398.371,320.32Z" fill="#263238" data-name="Path 3317"/>
</g>
</g>
<g data-name="Group 2904">
<path d="M366.918,334.7c.134-.024.35.329.385.974a4.017,4.017,0,0,1-2.723,3.836c-.621.18-1.025.092-1.046-.042-.05-.3,1.259-.735,2.158-2.053C366.64,336.131,366.623,334.75,366.918,334.7Z" fill="#263238" data-name="Path 3318"/>
</g>
<g data-name="Group 2905">
<path d="M397.657,337.836c.026.135-.254.341-.788.387a3.09,3.09,0,0,1-3.087-2.291c-.11-.524.006-.852.142-.867.3-.024.636.985,1.638,1.7C396.53,337.512,397.594,337.544,397.657,337.836Z" fill="#263238" data-name="Path 3319"/>
</g>
</g>
<g data-name="Group 2907">
<path d="M422.855,334.7s-.03-.233-.062-.686L422.665,332q-.041-.664-.088-1.481c-.057-.543-.173-1.131-.268-1.771s-.211-1.328-.327-2.063a22.763,22.763,0,0,0-.554-2.311,40.412,40.412,0,0,0-4.693-11.246A42.13,42.13,0,0,0,406,301.155l-1.825-1.359c-.641-.42-1.316-.8-1.984-1.216-.681-.388-1.326-.859-2.057-1.19l-2.19-1.05-1.114-.528-1.17-.426-2.374-.865c-.806-.266-1.65-.438-2.485-.665a21.417,21.417,0,0,0-2.552-.578,39.233,39.233,0,0,0-5.331-.616c-.909-.032-1.825-.12-2.748-.106l-2.79.144c-.467.033-.94.03-1.408.092l-1.406.216c-.938.155-1.892.265-2.835.46a44.6,44.6,0,0,0-5.62,1.65,43.914,43.914,0,0,0-5.5,2.415c-.89.483-1.743,1.045-2.624,1.567-.431.277-.891.512-1.3.823l-1.241.929a47.53,47.53,0,0,0-4.779,4.063l-2.141,2.358-.539.593-.484.641-.964,1.291-.969,1.3-.849,1.386-.847,1.4-.425.7-.36.737q-.712,1.479-1.43,2.971-.57,1.554-1.143,3.12a41.752,41.752,0,0,0,0,26.585q.573,1.567,1.143,3.121.717,1.492,1.43,2.972l.36.738.425.7.847,1.395.849,1.387.969,1.3.964,1.292.484.641.539.593q1.075,1.185,2.142,2.359a47.328,47.328,0,0,0,4.78,4.064l1.24.929c.411.312.872.547,1.3.823.881.523,1.734,1.085,2.624,1.568a44.148,44.148,0,0,0,5.5,2.416,44.646,44.646,0,0,0,5.62,1.649c.944.2,1.9.3,2.836.461l1.406.216c.468.062.941.059,1.409.091l2.79.144c.923.014,1.839-.074,2.748-.106a39.106,39.106,0,0,0,5.332-.616,21.654,21.654,0,0,0,2.552-.578c.835-.227,1.679-.4,2.485-.666l2.373-.864,1.171-.426,1.113-.529,2.191-1.05c.73-.332,1.376-.8,2.057-1.19.668-.411,1.343-.8,1.984-1.216l1.824-1.36a42.111,42.111,0,0,0,10.736-11.974,40.419,40.419,0,0,0,4.693-11.245,23.08,23.08,0,0,0,.553-2.311q.174-1.1.327-2.063c.1-.64.211-1.227.268-1.77q.048-.816.088-1.482c.055-.871.1-1.54.128-2.011.032-.454.062-.686.062-.686s.006.232-.008.687c-.017.472-.042,1.143-.075,2.017q-.029.669-.062,1.488c-.049.545-.157,1.136-.244,1.779s-.2,1.336-.3,2.076a23.065,23.065,0,0,1-.532,2.326,40.215,40.215,0,0,1-4.638,11.348,42.264,42.264,0,0,1-10.763,12.121l-1.836,1.379c-.645.426-1.325.817-2,1.235-.686.394-1.337.871-2.073,1.208l-2.208,1.068q-.558.268-1.123.537l-1.18.435-2.4.88c-.813.272-1.665.448-2.508.68a21.851,21.851,0,0,1-2.577.591,39.7,39.7,0,0,1-5.387.638c-.918.034-1.844.125-2.778.113l-2.82-.139c-.473-.032-.951-.029-1.425-.09l-1.422-.215c-.949-.155-1.914-.265-2.869-.461a44.889,44.889,0,0,1-5.689-1.658,44.288,44.288,0,0,1-5.565-2.436c-.9-.487-1.766-1.054-2.658-1.582-.437-.279-.9-.517-1.319-.832l-1.257-.938a47.725,47.725,0,0,1-4.842-4.108q-1.081-1.186-2.171-2.386l-.546-.6-.49-.648-.978-1.306-.982-1.312-.86-1.4-.859-1.413-.43-.709-.365-.746-1.45-3.008q-.578-1.575-1.159-3.16a42.23,42.23,0,0,1,0-26.92l1.159-3.159,1.45-3.008.365-.746.431-.708.858-1.412.86-1.4.982-1.312.977-1.3.491-.648.546-.6q1.089-1.2,2.17-2.385a47.845,47.845,0,0,1,4.842-4.107l1.256-.938c.416-.314.882-.553,1.319-.831.892-.528,1.757-1.1,2.658-1.582a44.264,44.264,0,0,1,5.564-2.436A45.09,45.09,0,0,1,371.629,293c.955-.2,1.92-.3,2.869-.46l1.422-.216c.473-.061.951-.057,1.424-.089l2.821-.139c.933-.013,1.859.079,2.777.113a39.373,39.373,0,0,1,5.386.637,21.918,21.918,0,0,1,2.578.59c.843.232,1.694.409,2.508.68l2.395.881,1.18.434,1.123.537,2.208,1.068c.736.337,1.387.814,2.073,1.208.673.417,1.352.808,2,1.235l1.836,1.378a42.273,42.273,0,0,1,10.765,12.121,40.185,40.185,0,0,1,4.638,11.348,22.886,22.886,0,0,1,.533,2.327q.162,1.11.3,2.076c.087.643.2,1.234.244,1.78q.033.819.062,1.488c.032.874.058,1.545.075,2.018C422.861,334.467,422.855,334.7,422.855,334.7Z" fill="#41ba03" data-name="Path 3320"/>
</g>
</g>
</g>
</svg>
