<?xml version="1.0" encoding="UTF-8"?>
<svg enable-background="new 0 0 134.1 83.7" version="1.1" viewBox="0 0 134.1 83.7" xml:space="preserve" xmlns="http://www.w3.org/2000/svg">
<style type="text/css">
	.st0{fill:#41B903;}
	.st1{fill:#FFFFFF;}
	.st2{fill:#004194;}
	.st3{fill:#0199E5;}
	.st4{fill:#0399E4;}
	.st5{fill:#0299E5;}
	.st6{fill:#029AE5;}
</style>

	
		<path class="st0" d="m130.9 49.3h-0.2-126.2l-0.1-0.6-0.1 0.6c-0.2 0-0.5 0-0.8-0.3l-1.3-0.9 1.8-0.2c0.9-0.2 1.7-0.3 2.5-0.4l3.8-0.6c2.6-0.4 5.3-0.8 7.9-1.2 3.4-0.5 6.4-0.9 9.1-1.2 1.9-0.2 4-0.4 6-0.5h0.1c0.4 0 0.7 0.1 1 0.3 0.8 0.6 1.8 0.9 2.8 0.9s2-0.3 2.8-1c0.7-0.5 1.4-0.7 2-0.7h0.2c0.6 0 1.2 0.2 1.7 0.6 0.8 0.7 1.8 1 2.9 1 1.3 0 2.5-0.5 3.4-1.4 0.3-0.3 0.6-0.4 1-0.4 3-0.1 5.9-0.1 8.9-0.2 0.7 0 1.1 0.2 1.5 0.6 0.8 0.9 2 1.4 3.3 1.4 1.1 0 2.2-0.4 3.1-1.1 0.3-0.2 0.5-0.5 0.8-0.7 0.3-0.3 0.7-0.5 1-0.5s0.6 0.1 0.9 0.4c0.8 0.7 1.6 1.4 2.6 1.7 0.4 0.1 0.9 0.2 1.3 0.2 1.5 0 2.8-0.7 3.7-1.9 0.3-0.3 0.6-0.5 1-0.5l7-0.1c2.9 0 5.8-0.1 8.7-0.1 0.5 0 0.9 0.2 1.2 0.6 0.8 1.3 2.1 2 3.5 2 1.5 0 2.8-0.8 3.6-2.1 0.3-0.4 0.6-0.6 1.1-0.6 7.4 0 14.8-0.1 22.2-0.1h1.4 2.9c0.9 0 1 0.6 1 1v4.7 0.1c0 1-0.7 1-0.9 1l-0.1 0.2z"/>
		<path class="st1" d="m130.9 43.1c0.3 0 0.4 0.1 0.4 0.4v4.8c0 0.2 0 0.4-0.3 0.4h-0.1-0.1-0.2-126.2-0.1c-0.1 0-0.3 0-0.5-0.2 1-0.2 1.9-0.3 2.8-0.5 3.9-0.6 7.8-1.2 11.6-1.8 3-0.5 6.1-0.9 9.1-1.2 2-0.2 4-0.4 6-0.5h0.1c0.2 0 0.4 0.1 0.6 0.2 1 0.7 2.1 1.1 3.2 1.1s2.2-0.4 3.2-1.1c0.5-0.4 1.1-0.5 1.7-0.6h0.2c0.5 0 0.9 0.1 1.3 0.5 0.9 0.8 2.1 1.2 3.3 1.2 1.4 0 2.8-0.6 3.8-1.6 0.2-0.2 0.3-0.3 0.6-0.3 3-0.1 5.9-0.1 8.9-0.2h0.1c0.4 0 0.6 0.1 0.9 0.4 1 1.1 2.4 1.7 3.8 1.7 1.2 0 2.5-0.4 3.5-1.2 0.3-0.2 0.5-0.5 0.8-0.8 0.2-0.2 0.4-0.3 0.6-0.3s0.3 0.1 0.5 0.2c0.8 0.8 1.7 1.5 2.8 1.8 0.5 0.1 1 0.2 1.5 0.2 1.7 0 3.2-0.8 4.2-2.1 0.1-0.2 0.3-0.3 0.5-0.3 2.3 0 4.7-0.1 7-0.1 2.9 0 5.8-0.1 8.7-0.1 0.3 0 0.5 0.1 0.6 0.3 1 1.5 2.5 2.3 4 2.3 1.6 0 3.2-0.8 4.1-2.4 0.2-0.2 0.3-0.3 0.6-0.3 7.4 0 14.8-0.1 22.2-0.1 1.4 0.2 2.9 0.2 4.3 0.2m0-1.2h-2.9-1.5c-7.4 0-14.8 0.1-22.2 0.1-0.7 0-1.2 0.3-1.6 0.9-0.7 1.1-1.8 1.8-3.1 1.8-1.2 0-2.3-0.6-3-1.7-0.4-0.6-1-0.9-1.7-0.9-2.9 0-5.8 0.1-8.7 0.1-1.2 0-2.3 0-3.5 0.1-1.2 0-2.3 0-3.5 0.1-0.6 0-1.1 0.3-1.5 0.8-0.8 1-1.9 1.6-3.2 1.6-0.4 0-0.8-0.1-1.2-0.2-0.9-0.2-1.6-0.8-2.3-1.5-0.4-0.4-0.9-0.6-1.4-0.6s-1 0.2-1.4 0.6l-0.7 0.7c-0.7 0.6-1.7 1-2.7 1-1.1 0-2.2-0.4-2.8-1.2-0.5-0.6-1.1-0.8-1.9-0.8h-0.1c-3 0.1-5.9 0.1-8.9 0.2-0.6 0-1 0.2-1.4 0.6-0.7 0.8-1.8 1.2-2.9 1.2-0.9 0-1.8-0.3-2.5-0.9-0.6-0.6-1.3-0.9-2-0.9h-0.3c-0.7 0-1.5 0.2-2.4 0.8-0.7 0.5-1.5 0.8-2.4 0.8s-1.7-0.3-2.4-0.8c-0.4-0.3-0.9-0.5-1.4-0.5h-0.2c-1.9 0.1-3.8 0.3-6 0.5-2.8 0.3-5.8 0.7-9.2 1.2-2.6 0.4-5.2 0.8-7.8 1.2l-3.9 0.6c-0.7 0.2-1.4 0.3-2.3 0.4l-0.4 0.1-3.1 0.5 2.6 1.7c0.4 0.2 0.7 0.4 1.2 0.4h0.1 126.2 0.1 0.2c0.7 0 1.5-0.5 1.5-1.6v-4.8c0.2-1-0.5-1.6-1.5-1.6z"/>
	
	
		<path class="st2" d="m99.6 45.8c-2.1 0-4-1.6-4.6-3.8v-0.5-0.1h-0.1-0.2-0.3-12.6c-0.6 0-0.9-0.3-0.9-0.9v-29.2-1l0.7 0.2c1.5 0.5 2 1.3 2 2.8v2.5c0.2-0.1 0.4-0.2 0.6-0.2s0.3 0 0.5 0.1c5.8 2.3 9.9 5.7 12.7 10.5 0.3 0.4 0.4 0.8 0.6 1.1v0.1h0.2c1.7 0 3.7 0 5.6 0.6 1.1 0.3 1.5 0.8 2.2 1.7l0.7 0.8h-1.1-1.3c0.1 0.1 0.2 0.2 0.5 0.2h1 0.7c0.5 0 0.8 0.3 1 0.7 0.2 0.6 0.3 1.3 0.3 2 0 0.6 0 1.1 0.1 1.7 0.1 1.1 0.1 2.3 0.1 3.5 0 0.5-0.1 1-0.3 1.4-0.4 0.8-1 1.2-1.9 1.2h-1.3c-0.3 2.4-2.1 4.1-4.5 4.3-0.2 0.3-0.3 0.3-0.4 0.3zm0.1-7.9c-1.7 0-3.2 1.5-3.2 3.2 0 1.8 1.4 3.2 3.2 3.2s3.2-1.4 3.2-3.2-1.4-3.2-3.2-3.2v-0.5 0.5zm-10.3-12.9v3.3h1.3 4.1c0-0.1 0-0.2-0.1-0.3-0.3-1.1-0.6-1.9-1.2-2.6-1-1-2.2-1.5-3.8-1.5h-0.3v1.1z"/>
		<path class="st1" d="m81.4 11.2c1.3 0.5 1.7 1 1.7 2.3v14.6c0 0.4 0 0.8 0.1 1.2 0.1-3 0.2-6 0.4-9 0-1.1 0.1-2.2 0.2-3.3 0-0.4 0.2-0.6 0.5-0.6 0.1 0 0.2 0 0.4 0.1 5.3 2.1 9.6 5.3 12.4 10.3 0.2 0.3 0.4 0.7 0.5 1.1 0.1 0.3 0.3 0.4 0.7 0.4 1.8 0 3.7 0.1 5.5 0.6 0.9 0.3 1.3 0.6 2 1.5h-1.5c-0.6 0-0.6 0.1-0.4 0.6 0.2 0.4 0.6 0.6 1 0.6h1 0.7c0.3 0 0.4 0.1 0.4 0.4 0.2 0.6 0.2 1.3 0.3 1.9 0.1 1.7 0.2 3.4 0.2 5.2 0 0.4-0.1 0.8-0.3 1.2-0.3 0.6-0.7 0.9-1.4 0.9h-0.1-0.3-0.5-0.5c-0.2 0-0.3 0.1-0.3 0.3-0.2 2.3-1.8 3.8-4.1 4h-0.3c-1.9 0-3.6-1.4-4.1-3.4-0.1-0.3 0.1-0.7-0.2-0.9-0.1 0-0.2-0.1-0.3-0.1h-0.5-12.6c-0.3 0-0.4-0.1-0.4-0.4v-29.2c-0.2-0.1-0.2-0.2-0.2-0.3m7.8 17.6h1.5s1 0 1.4 0h2.4c1 0 0.9 0 0.7-0.9-0.3-1-0.6-2-1.4-2.8-1.2-1.2-2.6-1.6-4.2-1.6h-0.6c-0.3 0-0.2 0.2-0.2 0.4v4.6c0 0.2 0.2 0.3 0.4 0.3m10.5 16c2.1 0 3.7-1.6 3.7-3.7 0-2-1.6-3.7-3.7-3.7-2 0-3.7 1.7-3.7 3.7s1.6 3.7 3.7 3.7m-19.3-35v1.7 29.2c0 0.9 0.5 1.4 1.4 1.4h12.6 0.1v0.1c0.6 2.4 2.7 4.2 5 4.2h0.3c2.5-0.2 4.4-1.9 4.9-4.3h0.2 0.3 0.3 0.1c1 0 1.9-0.5 2.3-1.5 0.2-0.5 0.4-1.1 0.4-1.6 0-1.2 0-2.4-0.1-3.5 0-0.6-0.1-1.1-0.1-1.7 0-0.7-0.1-1.4-0.3-2.1 0-0.1-0.1-0.2-0.1-0.3v-0.1c-0.1-0.2-0.3-0.4-0.4-0.5l-0.9-1.1c-0.8-0.9-1.3-1.5-2.5-1.8-1.9-0.5-3.9-0.6-5.6-0.6-0.1-0.3-0.3-0.6-0.5-1-2.8-4.9-7.1-8.4-12.9-10.7-0.2-0.1-0.5-0.1-0.7-0.1h-0.1v-1.8c0-1.7-0.7-2.7-2.4-3.3l-1.3-0.6zm9.4 18v-2.8-0.5c1.4 0 2.4 0.5 3.3 1.3 0.5 0.5 0.8 1.2 1 2h-2-0.7-0.7-0.9zm9.9 16c-1.5 0-2.7-1.2-2.7-2.7s1.2-2.7 2.7-2.7 2.7 1.2 2.7 2.7-1.2 2.7-2.7 2.7z"/>
	
	
		<path class="st0" d="m54.6 33.3c-0.2 0-0.4 0-0.7-0.1l-1.3-0.4 0.7-1.1c0.9-1.4 1.6-2.9 2.2-4.4-0.4 0.2-0.9 0.3-1.3 0.3h-0.5c-1 0-2-0.4-2.7-1.1-0.6-0.6-1-1.5-1-2.4-1.1-0.4-2-1.2-2.3-2.3-0.4-1.3-0.1-2.7 0.8-3.8 0.7-0.8 1.5-1.4 2.4-1.7-1.1-0.8-1.8-1.8-2.1-3.1-0.3-1.2 0-2.3 0.7-3.2 0.7-0.8 1.6-1.3 2.7-1.4 0.5-1.5 1.9-2.5 3.6-2.5 0.6 0 1.1 0.1 1.6 0.4 1.2 0.6 2.1 1.6 2.6 2.9 0.6-0.8 1.4-1.5 2.3-1.9 0.5-0.2 1.1-0.3 1.7-0.3 2 0 3.5 1.4 3.7 3.4v0.1s0.1 0 0.2 0.1c1 0.3 1.7 1.1 2.1 2 0.4 1.1 0.4 2.2-0.2 3.3-0.6 1.2-1.6 2-2.9 2.4 1.2 0.8 2 2 2.2 3.4 0.2 1.1-0.1 2.2-0.9 3-0.7 0.8-1.6 1.3-2.6 1.3-0.6 1.5-1.9 2.5-3.5 2.5-0.8 0-1.5-0.2-2.2-0.7-0.6-0.4-1.1-0.8-1.4-1.4-0.5 1.7-1.2 3.5-2.2 5.3-0.4 1-0.9 1.4-1.7 1.4z"/>
		<path class="st1" d="m55.7 7.2c0.4 0 0.8 0.1 1.2 0.3 1.4 0.7 2.1 1.9 2.4 3.3 0.2 1.1 0.1 2.2 0 3.3 0 0.1-0.1 0.3 0 0.4 0.2-0.9 0.3-1.7 0.6-2.5 0.4-1.5 1.2-2.8 2.8-3.5 0.4-0.2 0.9-0.3 1.3-0.3 1.4 0 2.6 1 2.7 2.5 0.1 0.7 0.3 0.8 0.8 1 1.5 0.5 2.1 2.4 1.4 3.9-0.7 1.2-1.8 1.8-3.1 2.1-1.2 0.3-2.4 0.3-3.6 0.3 1.2 0.3 2.4 0.5 3.5 1.1 1.2 0.7 2.1 1.6 2.3 3.1 0.3 1.6-1.1 3.2-2.7 3.2h-0.3-0.1c-0.1 0-0.2 0.1-0.2 0.3-0.3 1.4-1.4 2.3-2.7 2.3-0.5 0-1.1-0.2-1.6-0.5-1.3-0.8-1.9-2.1-2-3.6 0-0.3 0-0.6-0.1-0.9-0.1 0.6-0.2 1.2-0.4 1.9-0.5 2.5-1.4 4.8-2.6 7-0.2 0.4-0.4 0.6-0.8 0.6-0.1 0-0.2 0-0.4-0.1 1.8-2.8 3-5.9 3.7-9.1-0.1 0.4-0.3 0.7-0.4 1.1-0.7 1.3-1.7 2.3-3.3 2.5h-0.4c-1.6 0-2.8-1.2-2.7-2.8 0-0.3 0-0.4-0.3-0.5-2.2-0.5-2.9-2.9-1.5-4.6 1-1.2 2.4-1.6 3.9-1.7h0.4c0.6 0 1.2 0.1 1.8 0.1h0.1c-1-0.3-2.1-0.4-3.1-0.9-1.3-0.6-2.3-1.6-2.7-3-0.4-1.8 0.8-3.4 2.7-3.4h0.1 0.1c0.3 0 0.3-0.1 0.4-0.4 0.3-1.6 1.5-2.5 2.8-2.5m0-2c-1.8 0-3.5 1.1-4.3 2.6-1.1 0.2-2.1 0.8-2.8 1.7-0.9 1.1-1.2 2.6-0.9 4.1 0.2 1 0.7 1.9 1.3 2.6-0.5 0.3-0.9 0.7-1.4 1.3-1.1 1.4-1.5 3.2-0.9 4.7 0.4 1.2 1.2 2.1 2.4 2.7 0.2 0.9 0.6 1.7 1.2 2.4 0.9 0.9 2.1 1.4 3.4 1.4h0.1c-0.4 0.8-0.9 1.7-1.4 2.5l-1.4 2.2 2.5 0.8c0.3 0.1 0.7 0.1 1 0.1 0.6 0 1.8-0.2 2.6-1.7 0.7-1.3 1.2-2.6 1.7-3.9 0.2 0.1 0.3 0.2 0.5 0.3 0.8 0.5 1.8 0.8 2.7 0.8 1.8 0 3.4-1 4.2-2.6 1-0.2 2-0.8 2.7-1.6 0.9-1.1 1.3-2.5 1.1-3.8-0.2-1.2-0.7-2.2-1.4-3 0.8-0.5 1.5-1.3 2-2.2 0.7-1.3 0.8-2.8 0.2-4.1-0.4-1.1-1.3-2-2.3-2.4-0.4-2.2-2.3-3.8-4.6-3.8-0.7 0-1.4 0.1-2 0.4s-1.2 0.6-1.7 1c-0.6-0.9-1.4-1.6-2.4-2.1-0.7-0.2-1.4-0.4-2.1-0.4z"/>
	
	
		<path class="st2" d="m45.8 68.8c-0.6 0-0.9-0.3-1.1-0.8-1.3-4.4-2.6-8.9-4-13.3-0.1-0.2-0.2-0.5 0.1-0.8 0.2-0.3 0.6-0.3 0.8-0.3h1.5s1 0 1.5 0c0.6 0 1 0.3 1.2 0.9 0.6 2.2 1.2 4.5 1.8 6.7 0.7-2.2 1.4-4.4 2.1-6.7 0.1-0.2 0.3-1 1.2-1h0.2 0.9 0.9 0.1c0.6 0 0.9 0.3 1.1 0.9l1.8 6 0.2 0.7c0.1-0.5 1-3.3 1-3.3 0.3-1.1 0.7-2.2 1-3.4 0.2-0.6 0.6-0.9 1.1-0.9h1.3 1.7c0.2 0 0.6 0 0.8 0.3s0.1 0.7 0.1 0.8c-1.4 4.5-2.9 8.9-4.3 13.4-0.2 0.6-0.7 0.8-1 0.8h-1.6-1.3c-0.7 0-1.1-0.3-1.2-0.9-0.5-1.6-1-3.3-1.5-4.9l-0.3-1c-0.1 0.4-0.6 1.7-0.6 1.7-0.5 1.4-1 2.9-1.4 4.3-0.2 0.5-0.5 0.8-1.1 0.8h-1.5s-1-0.1-1.5 0z"/>
		<path class="st1" d="m50.9 54h0.1 1s0.6 0 1 0h0.1c0.3 0 0.4 0.2 0.5 0.4 0.8 2.8 1.7 5.6 2.5 8.4 0 0.1 0 0.1 0.2 0.2 0.3-1.1 0.6-2.1 0.9-3.2 0.5-1.8 1-3.6 1.5-5.3 0.1-0.3 0.2-0.4 0.5-0.4h1.3 1.7 0.1c0.2 0 0.3 0 0.2 0.3-1.4 4.5-2.9 8.9-4.3 13.4-0.1 0.2-0.2 0.3-0.4 0.3h-1.6-1.3c-0.3 0-0.5-0.1-0.6-0.5-0.7-2.5-1.5-5-2.2-7.5 0 0-0.1-0.1-0.1-0.2-0.3 1-0.7 1.9-1 2.9-0.6 1.6-1.1 3.2-1.6 4.9-0.1 0.3-0.2 0.4-0.5 0.4h-1.5-1.5-0.1c-0.3 0-0.4-0.1-0.5-0.4-1.3-4.4-2.6-8.9-4-13.3-0.1-0.3-0.1-0.4 0.3-0.4h1.5s1 0 1.5 0c0.3 0 0.4 0.1 0.5 0.4 0.7 2.8 1.5 5.6 2.3 8.5 0 0 0 0.1 0.1 0.2 0.9-2.9 1.9-5.7 2.8-8.6 0.1-0.3 0.3-0.5 0.6-0.5m0-1.2c-0.5 0-1.4 0.2-1.8 1.4-0.5 1.5-1 3.1-1.5 4.6-0.4-1.6-0.8-3.1-1.2-4.7-0.2-0.9-0.8-1.3-1.7-1.3h-0.1-1.5s-1 0-1.5 0c-0.2 0-0.9 0-1.3 0.6s-0.2 1.2-0.2 1.4c1.3 4.4 2.7 8.9 4 13.3 0.2 0.8 0.8 1.3 1.7 1.3h0.1 1.4s1 0 1.4 0h0.1c0.8 0 1.4-0.5 1.7-1.3 0.4-1.4 0.9-2.7 1.4-4.1 0.4 1.3 0.8 2.7 1.2 4 0.2 0.9 0.9 1.4 1.8 1.4h0.1 1.3 1.6 0.1c0.8 0 1.4-0.4 1.6-1.2 1.4-4.5 2.8-9 4.3-13.4 0.2-0.5 0.1-1-0.2-1.4-0.2-0.3-0.6-0.6-1.2-0.6h-0.1-0.9-0.8-1.2-0.1c-0.9 0-1.5 0.5-1.7 1.3-0.3 1.1-0.6 2.3-1 3.4l-0.4 1.3c-0.5-1.6-1-3.1-1.4-4.7-0.3-1.2-1.3-1.3-1.7-1.3h-0.1-0.9-0.9-0.4z"/>
	
	
		<path class="st3" d="m30.2 41.5c-0.1 0-0.3 0-0.5-0.2s-0.2-0.4-0.2-0.5v-7.6c0-0.7 0.5-0.7 0.6-0.7h0.1 44.1v0.4h5.7 0.3c0.4 0 0.5 0.2 0.5 0.4 0.1 0.3 0 0.5 0 0.7-0.1 0.2-0.3 0.3-0.6 0.3h-1.1-2.6-2.5c-2.6 0-5.2 0-7.7 0.1h4.9 4.5 0.1c1.5 0 2.9 0 4.4 0.1h0.2c0.3 0 0.6 0.2 0.6 0.6 0 0.2 0 0.4-0.2 0.5-0.2 0.2-0.4 0.2-0.5 0.2l-0.1-0.4v0.4s-12 0.1-12.1 0.1h0.7 4.6c1.7 0 3.4 0.1 5.1 0.1h1.7 0.2c0.3 0 0.6 0.2 0.6 0.6 0 0.2 0 0.4-0.2 0.5-0.1 0.1-0.3 0.2-0.4 0.2h-0.1l-12.3-0.1h-2.9c-2.5 0-5.1 0-7.6 0.1-1.8 0-3.6 0.1-5.5 0.1h-3.6c-0.4 0-0.7-0.1-1-0.1-0.3-0.1-0.5-0.1-0.7-0.1-0.3 0-0.5 0-0.8 0.1-0.6 0.2-1.3 0.2-1.8 0.2h-0.9-0.5-1.1-1.7c-0.6 0-1.2 0-1.9-0.2-0.3-0.1-0.6-0.1-0.9-0.1-0.4 0-0.8 0.1-1.3 0.2-1.9 0.5-2.9 1.6-3.3 3.4-0.1 0.4-0.3 0.6-0.8 0.6h-0.8s-0.4 0-0.7 0.1z"/>
		<path class="st1" d="m30.1 32.8c0.1 0 0.1 0 0 0h0.2 0.2 31.3 12.5c-4 0.2-8.1 0.1-12.3 0.2h-13c-2.9 0.1-5.9 0-8.8 0.1h-3.7c0.1 0.1 0.3 0.2 0.4 0.2h0.1 5.3 2.4 0.1 1c0.4 0 0.7 0 1.1-0.1h33.1 0.3s0.2 0 0.2 0.1c0.1 0.3 0 0.4-0.3 0.4h-1.1-2.6c-3.8 0-7.7 0-11.5 0.1-3.5 0.1-7 0-10.4 0.1-3.5 0.1-7 0.1-10.4 0.1-2.5 0-4.9 0.1-7.4 0.1h-3.3c0.6 0.1 1.2 0.2 1.7 0.2h0.6 1.2c2.8 0 5.6 0 8.4 0.1 3.1 0 6.3 0 9.4 0.1 3.4 0.1 6.9 0 10.3 0.1 3.5 0.1 7 0 10.4 0.1 1.5 0 3 0 4.6 0.1h0.2c0.1 0 0.2 0 0.2 0.2 0 0.3-0.1 0.3-0.3 0.3h-0.1c-3.9 0-7.9 0.1-11.8 0.1-3.8 0-7.7 0-11.5 0.1-3.4 0.1-6.9 0-10.3 0.1-3 0.1-6.1 0.1-9.1 0.1h-1.3c-0.8 0-1.6 0-2.4 0.2h3.4 5.6c3.8 0 7.6 0 11.4 0.1h10.3c2.9 0.1 5.9 0 8.8 0.1 2.3 0.1 4.6 0.1 6.9 0.1h0.2c0.1 0 0.2 0 0.2 0.3 0 0.2-0.1 0.3-0.2 0.3h-0.2c-4 0-8.1 0.1-12.1 0.1-3.5 0-7 0-10.5 0.1-3 0.1-6 0.1-9.1 0.1h-0.1c-0.3 0-0.7-0.1-1-0.1-0.2-0.1-0.5-0.1-0.7-0.1-0.3 0-0.6 0-0.9 0.1-0.6 0.2-1.2 0.2-1.7 0.2h-0.8-0.5-1-1.4-0.4c-0.6 0-1.2 0-1.8-0.2-0.3-0.1-0.6-0.1-1-0.1-0.5 0-0.9 0.1-1.4 0.2-1.9 0.5-3.2 1.7-3.6 3.7 0 0.2-0.1 0.3-0.4 0.3h-0.8-0.8c-0.2 0-0.3-0.1-0.3-0.3v-7.6c0.1-0.3 0.1-0.4 0.3-0.4m0-0.8c-0.5 0-1 0.3-1 1.1v7.6c0 0.7 0.4 1.1 1.1 1.1h0.1 0.8 0.8 0.1c0.6 0 1-0.3 1.1-1 0.3-1.7 1.3-2.7 3-3.1 0.5-0.1 0.9-0.2 1.2-0.2s0.5 0 0.8 0.1c0.7 0.2 1.4 0.2 2 0.2h0.2 0.2 0.7 0.7 1.1 0.5 0.4 0.4c0.6 0 1.3 0 1.9-0.2 0.2-0.1 0.4-0.1 0.7-0.1 0.2 0 0.4 0 0.6 0.1h0.1c0.3 0.1 0.7 0.1 1 0.1h0.1 3.6c1.8 0 3.6 0 5.5-0.1 2.5-0.1 5.1-0.1 7.6-0.1h2.9l5.3-0.1 6.7-0.1h0.1 0.2c0.4 0 0.6-0.2 0.7-0.3 0.2-0.2 0.3-0.5 0.3-0.8s-0.1-0.5-0.3-0.7c0.1-0.1 0.3-0.4 0.3-0.8 0-0.3-0.1-0.5-0.3-0.7l0.2-0.2c0.1-0.2 0.3-0.5 0.1-1-0.1-0.4-0.5-0.6-0.9-0.6h-0.2-5.7v-0.4h-44.2-0.1-0.1-0.1c-0.1 0.2-0.1 0.2-0.2 0.2z"/>
	
	
		<path class="st2" d="m6.5 68.7h-1.2-1.5c-0.4 0-0.6-0.1-0.8-0.3s-0.2-0.5-0.2-0.7v-13.3c0-0.7 0.4-1 1-1h1.5s1 0 1.5 0c0.6 0 0.9 0.4 1.1 0.6 1.8 2.3 3.6 4.6 5.4 6.9v-0.4-6.1c0-1 0.7-1.1 1-1.1h1.3 1.5c0.3 0 1 0.1 1 1v13.3c0 0.9-0.7 1-0.9 1h-1.5s-1 0-1.5 0c-0.6 0-0.9-0.3-1.1-0.6-1.8-2.3-3.6-4.6-5.4-6.9v6.4c0 1-0.6 1.1-1 1.1l-0.2 0.1z"/>
		<path class="st1" d="m14.2 54.1h1.3 1.5c0.3 0 0.4 0.1 0.4 0.4v13.3c0 0.3-0.1 0.4-0.3 0.4h-1.5-1.5c-0.3 0-0.4-0.1-0.6-0.3-2.1-2.7-4.2-5.4-6.3-8.2l-0.1-0.1c-0.2 0.1-0.1 0.2-0.1 0.4v7.6c0 0.3-0.1 0.5-0.4 0.5h-0.1-1.3-1.5c-0.3 0-0.3-0.1-0.3-0.4v-13.3c0-0.3 0.1-0.4 0.4-0.4h1.5 1.5c0.3 0 0.4 0.1 0.5 0.3 2 2.6 4.1 5.3 6.1 7.9 0.1 0.1 0.2 0.3 0.4 0.3v-8.1c0-0.2 0.1-0.3 0.4-0.3m0-1.3c-1 0-1.7 0.7-1.7 1.7v4.6c-1.4-1.8-2.8-3.7-4.3-5.5-0.2-0.2-0.6-0.8-1.5-0.8h-1.4-1.5c-1 0-1.7 0.6-1.7 1.7v13.3c0 1.1 0.8 1.6 1.6 1.6h0.1 1.5 1.2 0.1c0.8 0 1.6-0.5 1.6-1.7v-4.6c1.4 1.8 2.9 3.7 4.3 5.5 0.4 0.5 0.9 0.8 1.6 0.8h1.5 1.5 0.1c0.8 0 1.6-0.5 1.6-1.6v-13.3c0-1.1-0.8-1.7-1.6-1.7h-0.1-1.5-1.4z"/>
	
	
		<path class="st2" d="m70.5 69.2c-1.6 0-3.1-0.4-4.5-1.2-2.4-1.5-3.8-4-3.8-7-0.2-3.8 2.8-7.2 6.9-7.8 0.6-0.1 1.1-0.1 1.6-0.1 2.7 0 5 1.1 6.7 3.3 1.6 2 2 5 1 7.7s-3.2 4.5-6 5c-0.6 0-1.3 0.1-1.9 0.1zm0.1-11.5c-1.9 0-3.4 1.6-3.4 3 0 2 1.4 3.6 3.3 3.7h0.1c1.8 0 3.3-1.5 3.3-3.5 0-1.6-1.4-3.1-3.1-3.2h-0.2z"/>
		<path class="st1" d="m70.7 53.6c2.5 0 4.6 1 6.3 3.1 2.9 3.6 1.3 10.6-4.6 11.7-0.6 0.1-1.3 0.2-1.9 0.2-1.4 0-2.8-0.3-4.1-1.2-2.3-1.4-3.5-3.7-3.5-6.5-0.2-3.4 2.5-6.6 6.4-7.2 0.4-0.1 0.9-0.1 1.4-0.1m-0.1 11.4c2.2 0 3.9-1.8 3.9-4.1 0.1-2-1.7-3.8-3.7-3.9h-0.2c-2.2 0-4 1.8-4 3.6-0.1 2.4 1.6 4.3 3.9 4.3 0 0.1 0.1 0.1 0.1 0.1m0.1-12.7c-0.6 0-1.1 0-1.7 0.1-4.4 0.6-7.6 4.4-7.4 8.5 0 3.3 1.5 5.9 4.1 7.5 1.4 0.9 3 1.3 4.8 1.3 0.7 0 1.4-0.1 2.1-0.2 3-0.6 5.4-2.5 6.4-5.4 1.1-2.9 0.7-6.1-1.1-8.3-1.8-2.3-4.2-3.5-7.2-3.5zm-0.1 11.5c-1.6 0-2.8-1.4-2.7-3.1 0-1.1 1.2-2.4 2.8-2.4h0.1c1.4 0.1 2.6 1.3 2.5 2.6 0 1.6-1.2 2.9-2.7 2.9z"/>
	
	
		<path class="st2" d="m26.7 69.2c-1.6 0-3.1-0.4-4.4-1.3-2.5-1.6-3.8-4-3.8-7.3-0.1-3.6 2.9-7 6.9-7.6h1.6c2.5 0 4.7 1 6.4 2.9 2 2.2 2.4 4.9 1.4 8-0.9 2.8-3 4.5-5.9 5.1-0.8 0.1-1.5 0.2-2.2 0.2zm0.2-11.4c-1.8 0-3.4 1.4-3.4 3.1 0 2 1.4 3.6 3.3 3.6s3.4-1.5 3.4-3.5c0-0.8-0.3-1.6-0.9-2.2-0.7-0.7-1.5-1-2.4-1v-0.6 0.6z"/>
		<path class="st1" d="m27 53.6c2.3 0 4.3 0.8 5.9 2.7 1.9 2.2 2.2 4.7 1.3 7.4-0.9 2.6-2.8 4.2-5.4 4.7-0.7 0.1-1.4 0.2-2 0.2-1.4 0-2.8-0.4-4.1-1.2-2.4-1.5-3.5-3.7-3.5-6.8-0.1-3.2 2.5-6.4 6.4-7h1.4m-0.2 11.5c2.2 0 3.9-1.8 4-4.1 0-2-1.8-3.8-3.9-3.8-2.2 0-4 1.7-4 3.7-0.1 2.2 1.7 4.1 3.9 4.2m0.2-12.8c-0.6 0-1.1 0-1.7 0.1-4.3 0.7-7.6 4.3-7.4 8.2 0 3.5 1.4 6.1 4.1 7.8 1.4 0.9 3 1.4 4.8 1.4 0.7 0 1.5-0.1 2.3-0.2 3.2-0.7 5.4-2.6 6.4-5.6 1.1-3.3 0.6-6.2-1.5-8.6-2-2-4.3-3.1-7-3.1zm-0.2 11.5c-1.6 0-2.7-1.3-2.7-3 0-1.3 1.3-2.5 2.8-2.5 0.7 0 1.4 0.3 1.9 0.8s0.8 1.1 0.8 1.8c-0.1 1.6-1.3 2.9-2.8 2.9z"/>
	
	
		<path class="st2" d="m93.1 68.8c-0.1 0-0.5 0-0.7-0.3-0.3-0.3-0.3-0.6-0.2-0.8v-13.2c0-0.9 0.6-1 0.9-1h0.8 1.4 1.4c1 0 1.7 0 2.5 0.1 2.1 0.2 3.6 1.1 4.2 2.8s0.5 3.3-0.4 4.8c-0.5 0.7-1.1 1.3-1.9 1.6 1.3 1.6 2.5 3.3 3.9 5l0.8 1h-3.4-2.1c-0.6 0-0.9-0.4-1-0.6-0.7-1.1-1.4-2.2-2.1-3.4v2.9c0 0.1 0 0.5-0.3 0.8s-0.6 0.3-0.8 0.3h-1.3c-0.7-0.1-1.2-0.1-1.7 0zm4-9.1c0.4 0 0.7-0.1 1-0.2 0.4-0.2 0.6-0.5 0.6-0.9 0-0.5-0.2-0.7-0.6-0.9-0.3-0.1-0.7-0.2-1.1-0.2 0 0.9 0 1.6 0.1 2.2z"/>
		<path class="st1" d="m96.6 54.1c0.8 0 1.6 0 2.4 0.1 1.6 0.1 3 0.8 3.7 2.4 0.6 1.4 0.5 2.9-0.3 4.2-0.5 0.8-1.2 1.3-2.1 1.5-0.1 0-0.2 0-0.3 0.2 1.4 1.8 2.9 3.7 4.4 5.7h-2.2s-1.4 0-2.1 0c-0.3 0-0.4-0.1-0.5-0.3l-3-4.8c0-0.1-0.1-0.1-0.1-0.2-0.2 0.1-0.1 0.2-0.1 0.4v4.5c0 0.4-0.1 0.4-0.4 0.4h-1.3-1.5c-0.3 0-0.3-0.1-0.3-0.4v-13.3c0-0.2 0-0.4 0.3-0.4h0.8 2.6m0.1 6.3h0.2 0.2c0.5 0 0.9-0.1 1.2-0.2 0.6-0.3 1-0.8 1-1.5s-0.3-1.2-1-1.5c-0.5-0.2-1-0.3-1.5-0.3h-0.1c-0.3 0-0.4 0.1-0.4 0.4v2.5c0 0.4 0.1 0.6 0.4 0.6m-0.1-7.6h-1.4-1.4-0.8c-0.7 0-1.6 0.4-1.6 1.6v13.3c0 0.2 0 0.7 0.4 1.2 0.3 0.3 0.7 0.5 1.2 0.5h0.1 1.5 1.2c0.3 0 0.8 0 1.3-0.5s0.4-1.1 0.4-1.3v-0.8c0.3 0.5 0.7 1 1 1.6 0.1 0.2 0.6 0.9 1.5 0.9h2.1 1.1 1.1 2.5l-1.5-2-0.1-0.1c-1.1-1.5-2.2-2.9-3.3-4.3 0.6-0.4 1.1-0.9 1.5-1.5 1-1.6 1.1-3.5 0.4-5.3-0.5-1.3-1.8-3-4.8-3.2-0.6-0.1-1.4-0.1-2.4-0.1zm1 6.2v-0.8c0.1 0 0.1 0 0.2 0.1 0.2 0.1 0.2 0.1 0.2 0.3s0 0.3-0.2 0.3c0 0.1-0.1 0.1-0.2 0.1z"/>
	
	
		<path class="st2" d="m88.1 68.7c-0.9 0-1.6-0.4-2.1-1.3s-1.1-1.8-1.7-2.7v2.9c0 0.9-0.6 1.1-1 1.1h-1.4-1.4c-0.4 0-0.7-0.1-0.9-0.3s-0.2-0.5-0.2-0.7v-13.1c0-0.7 0.4-1.1 1-1.1h1.5 2.1 2.2c0.8 0 1.5 0.2 2.3 0.6 1.7 0.8 2.6 2.3 2.5 4.5 0 2-1.1 3.6-2.6 4.2l4.6 6h-1.3-1.1-1-1.2c-0.1-0.1-0.2-0.1-0.3-0.1zm-3.8-8.9h0.1c0.3 0 0.6-0.1 0.8-0.2 0.5-0.2 0.8-0.5 0.8-1s-0.2-0.8-0.7-1c-0.3-0.1-0.6-0.2-1-0.2v0.8 0.5 0.1c0.1 0.2 0 0.5 0 0.7v0.3z"/>
		<path class="st1" d="m80.5 54h1.5 2.2 2.2c0.7 0 1.4 0.2 2 0.5 1.6 0.8 2.2 2.2 2.1 3.9-0.1 2.1-1.3 3.5-2.9 3.8l-0.1 0.1c1.4 1.9 2.9 3.7 4.4 5.7h-2.1-1.3-0.2c-0.7 0-1.2-0.3-1.5-1-0.9-1.5-1.8-2.9-2.8-4.4h-0.1v4.8c0 0.3-0.1 0.5-0.4 0.5h-1.4s-0.9 0-1.4 0c-0.3 0-0.4-0.1-0.4-0.5v-13.1c-0.2-0.1-0.2-0.3 0.2-0.3m3.9 6.4c0.3 0 0.7-0.1 1-0.2h0.1c0.7-0.3 1.1-0.8 1.1-1.5s-0.4-1.3-1.1-1.6c-0.5-0.2-1-0.2-1.5-0.2-0.2 0-0.3 0.1-0.3 0.4v1.4 0.4c0.1 0.5-0.3 1.1 0.2 1.3h0.5m-3.9-7.6c-0.8 0-1.7 0.5-1.7 1.7v13.1c0 1.3 0.9 1.7 1.6 1.7h0.1 1.3s0.9 0 1.3 0h0.1c0.8 0 1.7-0.5 1.7-1.7v-0.7c0.2 0.3 0.3 0.6 0.5 0.9 0.6 1.1 1.5 1.6 2.6 1.6h0.3 1.2 1 1.1 2.5l-1.5-2-2-2.7c-0.5-0.6-0.9-1.2-1.3-1.8 1.4-0.9 2.3-2.5 2.3-4.4 0.1-3-1.5-4.4-2.8-5-0.8-0.4-1.7-0.6-2.5-0.6h-2.2-1.1-1.1c-0.4-0.1-0.9-0.1-1.4-0.1zm4.5 6v-0.2-0.3h0.1c0.2 0.1 0.2 0.1 0.2 0.4 0 0.2 0 0.3-0.3 0.4v-0.1-0.2z"/>
	
	
		<path class="st2" d="m126 69.1c-1.7 0-3.4-0.5-4.9-1.5-0.6-0.4-0.7-0.9-0.4-1.5 0.4-0.7 0.8-1.4 1.1-2.1l0.6-1.2 0.6 0.5c0.7 0.6 1.3 1 1.9 1.1 0.4 0.1 0.7 0.2 0.9 0.2 0.3 0 0.6-0.1 0.8-0.2s0.3-0.3 0.4-0.5c0-0.2-0.1-0.4-0.3-0.5-0.4-0.3-0.8-0.4-1.3-0.6-0.2 0-0.8-0.2-0.8-0.2-0.3-0.1-0.6-0.2-0.9-0.3-2.2-0.9-2.9-2.1-2.7-4.7 0.2-2.8 2.4-4.8 5.5-4.8 0.3 0 0.6 0 1 0.1 1.2 0.2 2.4 0.5 3.4 1 0.1 0.1 0.4 0.2 0.5 0.6 0.1 0.3-0.1 0.6-0.1 0.7-0.4 0.7-0.8 1.4-1.1 2.2-0.1 0.2-0.3 0.6-0.8 0.6-0.3 0-0.5-0.1-0.6-0.3-0.6-0.4-1.1-0.6-1.6-0.6-0.2 0-0.4 0-0.5 0.1-0.2 0-0.3 0.1-0.4 0.2s-0.1 0.1-0.1 0.2 0 0.2 0.1 0.3c0.2 0.2 0.5 0.4 1 0.5l0.5 0.2c0.4 0.1 0.8 0.2 1.1 0.4 2.7 1 3.8 2.9 3.2 5.7-0.5 2.3-2.2 3.8-4.6 4.2-0.6 0.2-1.1 0.2-1.5 0.2z"/>
		<path class="st1" d="m126.5 53.7c0.3 0 0.6 0 0.9 0.1 1.1 0.1 2.2 0.4 3.2 0.9 0.2 0.1 0.3 0.2 0.2 0.4-0.4 0.7-0.8 1.4-1.1 2.2-0.1 0.2-0.1 0.3-0.2 0.3s-0.2 0-0.3-0.1c-0.6-0.4-1.2-0.7-2-0.7-0.2 0-0.5 0-0.7 0.1-0.3 0.1-0.5 0.2-0.7 0.3-0.4 0.4-0.5 0.9-0.1 1.4 0.3 0.4 0.8 0.5 1.3 0.7s1.1 0.3 1.6 0.5c2.4 0.9 3.3 2.5 2.8 5-0.4 2-1.9 3.4-4.1 3.7-0.4 0.1-0.9 0.1-1.3 0.1-1.6 0-3.1-0.5-4.6-1.4-0.3-0.2-0.3-0.3-0.2-0.6 0.5-0.8 0.9-1.7 1.4-2.6 0.7 0.6 1.3 1 2.1 1.3 0.4 0.1 0.7 0.2 1.1 0.2s0.8-0.1 1.1-0.3c0.8-0.5 0.9-1.4 0.1-2-0.6-0.4-1.3-0.6-2-0.8-0.4-0.1-0.8-0.2-1.1-0.4-1.9-0.8-2.5-1.8-2.3-4 0.3-2.6 2.2-4.3 4.9-4.3m0-1.3c-3.3 0-5.8 2.2-6.1 5.3-0.2 2.2 0.3 3.5 1.7 4.5l-0.6 1.1-0.2 0.5c-0.4 0.7-0.7 1.4-1.1 2-0.5 0.9-0.3 1.8 0.6 2.3 1.6 1 3.4 1.5 5.2 1.5 0.5 0 1 0 1.5-0.1 2.7-0.4 4.6-2.1 5.1-4.6 0.6-2.9-0.4-5-3-6.2 0.5-0.1 0.9-0.4 1.1-0.9 0.4-0.9 0.8-1.5 1.1-2.1 0.2-0.4 0.3-0.8 0.2-1.2-0.2-0.6-0.7-0.8-0.8-0.9-1.1-0.5-2.3-0.9-3.6-1.1-0.4 0-0.8-0.1-1.1-0.1zm1.5 5.9c-0.1 0-0.2 0-0.2-0.1-0.2-0.1-0.3-0.1-0.5-0.2h-0.1c0.2 0 0.5 0.1 0.8 0.3zm-2.1 5.8c-0.2 0-0.4 0-0.8-0.1-0.5-0.2-1-0.5-1.6-0.9 0.3 0.1 0.6 0.2 0.9 0.3l0.3 0.1c0.2 0.1 0.3 0.1 0.5 0.1 0.4 0.1 0.8 0.2 1.1 0.4-0.1 0.1-0.2 0.1-0.4 0.1z"/>
	
	
		<path class="st2" d="m115.4 68.7h-3.7c-0.1 0-0.5 0-0.7-0.3-0.2-0.2-0.2-0.6-0.2-0.7v-6.7-1.6-4.9c0-0.9 0.6-1.1 1-1.1h3.6 3.5c0.2 0 0.6 0 0.8 0.3 0.3 0.3 0.2 0.7 0.2 0.8v2.3c0 0.1 0 0.5-0.2 0.8-0.3 0.3-0.6 0.3-0.7 0.3h-2.3-1.1v1.1h1.8 1.3c0.2 0 0.5 0 0.8 0.3s0.3 0.7 0.2 0.8v2.1c0 0.1 0 0.5-0.3 0.8s-0.6 0.3-0.8 0.3h-1-1-1.1v1.2h1.7 0.5 1c0.2 0 0.6 0 0.8 0.3 0.3 0.3 0.3 0.7 0.3 0.8v1.9 0.4c0 0.6-0.3 0.9-0.9 0.9 0.2-0.1-2.3-0.1-3.5-0.1z"/>
		<path class="st1" d="m111.9 54.1h3.6s2.4 0 3.5 0c0.3 0 0.5 0 0.4 0.4v2.3c0 0.3-0.1 0.4-0.3 0.4h-0.1-0.8-1.4-1.3c-0.3 0-0.4 0.1-0.4 0.4v1.6c0 0.3 0.1 0.4 0.4 0.4h1 1 1.3c0.3 0 0.4 0.1 0.4 0.5v2.2c0 0.4-0.1 0.5-0.4 0.5h-0.1-0.9-1-1.2c-0.4 0-0.5 0.1-0.5 0.5v1.5c0 0.4 0.1 0.5 0.5 0.5h1.3 1.1 1 0.1c0.3 0 0.4 0.1 0.4 0.5v2.3c0 0.2-0.1 0.3-0.3 0.3h-3.7-3.7c-0.3 0-0.3-0.2-0.3-0.4v-6.6-6.5c-0.1-0.7 0-0.8 0.4-0.8m0-1.3c-0.8 0-1.7 0.5-1.7 1.7v4.9 1.6 6.6c0 0.3 0 0.8 0.4 1.2 0.3 0.3 0.7 0.4 1.1 0.4h3.7 3.7c0.9 0 1.6-0.6 1.6-1.6v-0.4-1.9c0-0.5-0.1-1-0.4-1.3s-0.7-0.4-1-0.5c0.2-0.1 0.5-0.2 0.8-0.4 0.3-0.3 0.5-0.8 0.4-1.3v-2c0-0.2 0-0.8-0.4-1.3-0.2-0.2-0.4-0.3-0.6-0.4 0.3-0.1 0.6-0.2 0.8-0.4 0.3-0.3 0.4-0.7 0.4-1.2v-2.2c0-0.5-0.1-0.9-0.4-1.2-0.5-0.5-1-0.5-1.3-0.5h-3.5s-2.4 0.2-3.6 0.2z"/>
	
	
		<path class="st0" d="m74.4 45.9c-1.3 0-2.5-0.5-3.5-1.4 0 0-1-0.9-1.3-1.2 0 0.1-0.1 0.2-0.1 0.2-1 1-2.2 2.1-3.9 2.3h-0.7c-2.5 0-4.6-1.7-4.9-4-0.2-1.8 0.9-3.8 2.7-4.5 0.8-0.3 1.5-0.5 2.3-0.5 1.3 0 2.4 0.5 3.5 1.4 0 0 1.3 1.2 1.4 1.2 0-0.3 0.2-0.5 0.6-0.8 0.9-0.8 1.9-1.6 3.2-1.8 0.2 0 0.4 0 0.6-0.1h0.2c2 0 3.4 0.7 4.3 2.1 0.7 1.1 0.9 2.4 0.5 3.7s-1.5 2.3-2.8 2.8c-0.8 0.4-1.4 0.6-2.1 0.6zm-9.5-6.2c-0.2 0-0.3 0-0.5 0.1-0.8 0.2-1.5 1-1.4 1.7 0.1 0.9 0.8 1.6 1.8 1.6h0.1c0.4 0 0.8-0.1 1.1-0.3l0.3-0.3 0.2-0.1 0.3-0.3c0.2-0.3 0.5-0.6 0.8-0.6-0.4-0.4-0.8-0.7-1.2-1.1-0.5-0.5-1-0.7-1.5-0.7zm8 2.6c0.5 0.5 1 0.7 1.6 0.7 0.2 0 0.5 0 0.8-0.1 0.7-0.3 1.3-1 1.2-1.7-0.1-0.8-0.8-1.5-1.7-1.6h-0.2c-0.6 0-1.2 0.2-1.6 0.7l-0.2 0.2c-0.3 0.3-0.5 0.6-0.9 0.7 0.3 0.5 0.7 0.8 1 1.1z"/>
		<path class="st1" d="m65 37.3c1.1 0 2.2 0.4 3.2 1.3 1.5 1.3 3 2.7 4.4 4 0.6 0.5 1.2 0.8 1.8 0.8 0.3 0 0.6-0.1 0.9-0.2 0.9-0.3 1.5-1.2 1.4-2.1-0.1-1-1-1.8-2-1.9h-0.2c-0.8 0-1.4 0.3-1.9 0.8-0.3 0.3-0.6 0.8-1 0.8-0.3 0-0.6-0.5-0.9-0.8-0.7-0.6-0.6-0.6 0-1.2 0.8-0.8 1.7-1.5 2.9-1.6 0.3 0 0.6-0.1 0.8-0.1 1.7 0 3 0.6 4 1.9 1.5 2.1 0.5 5-2.1 5.9-0.6 0.2-1.2 0.3-1.8 0.3-1.2 0-2.3-0.4-3.3-1.3-1.5-1.4-3-2.7-4.5-4.1-0.5-0.5-1.1-0.7-1.7-0.7-0.2 0-0.4 0-0.6 0.1-1.1 0.2-1.8 1.2-1.7 2.1 0.1 1.1 1 1.9 2.2 2h0.1c0.5 0 0.9-0.1 1.3-0.4 0.2-0.1 0.3-0.3 0.5-0.4 0.3-0.3 0.7-0.8 1-0.8h0.1c0.6 0.2 1 0.8 1.4 1.2 0.1 0.1 0 0.2 0 0.2-1 1.1-2.1 2-3.7 2.2h-0.6c-2.2 0-4.3-1.5-4.5-3.7-0.2-1.6 0.8-3.4 2.5-4.1 0.6-0.1 1.3-0.2 2-0.2m0-0.8c-0.8 0-1.6 0.2-2.4 0.5-1.9 0.8-3.2 2.9-2.9 4.9 0.3 2.5 2.6 4.3 5.3 4.3h0.7c1.8-0.2 3-1.3 4.1-2.4 0.3 0.3 0.7 0.6 1 0.9 1.1 1 2.4 1.5 3.8 1.5 0.7 0 1.4-0.1 2.1-0.4 1.5-0.5 2.6-1.6 3-3.1 0.4-1.4 0.2-2.8-0.6-4-1-1.5-2.5-2.2-4.6-2.3h-0.2c-0.2 0-0.4 0-0.6 0.1-1.4 0.2-2.5 1.1-3.3 1.8l-0.1 0.1c-0.2 0.1-0.3 0.3-0.4 0.4l-1-0.9c-1.3-0.9-2.5-1.4-3.9-1.4zm7.5 4.9c0.2-0.2 0.4-0.4 0.6-0.5l0.2-0.2c0.4-0.4 0.8-0.6 1.4-0.6h0.2c0.7 0.1 1.2 0.6 1.3 1.2 0.1 0.5-0.4 1.1-1 1.3-0.2 0.1-0.4 0.1-0.6 0.1-0.4 0-0.9-0.2-1.3-0.6-0.4-0.2-0.6-0.5-0.8-0.7zm-7.6 1.3s-0.1 0 0 0c-0.9 0-1.5-0.6-1.5-1.3 0-0.5 0.4-1.1 1.1-1.3 0.1 0 0.3-0.1 0.4-0.1 0.4 0 0.8 0.2 1.2 0.5 0.3 0.3 0.5 0.5 0.8 0.7-0.2 0.1-0.3 0.3-0.4 0.4l-0.4 0.4c-0.1 0.1-0.2 0.2-0.3 0.2-0.3 0.4-0.6 0.5-0.9 0.5z"/>
	
	
		<path class="st0" d="m46.7 45.8c-1.3 0-2.5-0.5-3.5-1.4-0.4-0.4-0.9-0.8-1.3-1.2 0 0.1-0.1 0.1-0.1 0.2l-0.2 0.2c-0.8 0.8-1.6 1.6-2.8 1.9-0.6 0.2-1.2 0.3-1.7 0.3-1.3 0-2.4-0.5-3.4-1.4-1.2-1.1-1.7-2.5-1.3-4.1s1.4-2.6 3.1-3.2c0.5-0.1 1-0.2 1.5-0.2h0.2 0.1c1.3 0 2.4 0.5 3.5 1.5 0.4 0.4 0.8 0.7 1.2 1.1 0-0.2 0.2-0.3 0.3-0.4l0.3-0.2c0.7-0.6 1.4-1.3 2.4-1.7 0.6-0.2 1.1-0.3 1.7-0.3 1.5 0 3 0.7 3.9 1.8s1.2 2.5 0.8 3.9c-0.5 1.5-1.6 2.6-3.2 3-0.4 0.2-0.9 0.2-1.5 0.2zm-1.3-3.3c0.4 0.4 0.9 0.6 1.4 0.6 0.2 0 0.5 0 0.8-0.1 0.8-0.3 1.3-1 1.2-1.9-0.1-0.7-0.9-1.3-1.7-1.4h-0.2c-0.6 0-1.1 0.2-1.5 0.6l-0.4 0.4c-0.1 0.1-0.3 0.2-0.4 0.4-0.1 0.1-0.2 0.2-0.4 0.2l1.2 1.2zm-8.2-2.8c-0.2 0-0.3 0-0.5 0.1-0.9 0.2-1.5 1-1.4 1.8s0.9 1.5 1.8 1.6h0.1c0.5 0 0.9-0.2 1.3-0.5s0.7-0.6 1-0.9c0.1-0.1 0.2-0.2 0.4-0.2-0.4-0.4-0.8-0.7-1.2-1.1-0.5-0.6-1-0.8-1.5-0.8z"/>
		<path class="st1" d="m46.8 37.3c1.4 0 2.8 0.6 3.6 1.6 1.9 2.2 0.7 5.5-2.2 6.3-0.5 0.1-1 0.2-1.5 0.2-1.2 0-2.3-0.4-3.3-1.3-1.5-1.4-3-2.7-4.5-4.1-0.5-0.5-1.1-0.8-1.8-0.8-0.2 0-0.4 0-0.6 0.1-1.1 0.3-1.8 1.2-1.7 2.2s1 1.8 2.2 1.9h0.2c0.6 0 1.1-0.2 1.5-0.6 0.4-0.3 0.7-0.6 1-0.9 0.1-0.1 0.2-0.2 0.3-0.2s0.2 0 0.3 0.1c0.4 0.4 0.7 0.7 1.1 1 0.1 0.1 0.2 0.1 0.1 0.3-0.8 0.8-1.7 1.7-2.8 2-0.6 0.2-1.1 0.2-1.6 0.2-1.1 0-2.2-0.4-3.2-1.3-1.1-1-1.5-2.3-1.1-3.7 0.4-1.5 1.4-2.5 2.9-2.9 0.5-0.1 0.9-0.2 1.4-0.2h0.2 0.1c1.3 0 2.3 0.5 3.3 1.4 1.5 1.4 3 2.7 4.5 4.1 0.5 0.4 1 0.7 1.6 0.7 0.3 0 0.6-0.1 0.9-0.2 1-0.4 1.6-1.3 1.4-2.3-0.1-0.9-1.1-1.6-2-1.7h-0.2c-0.7 0-1.3 0.2-1.8 0.7-0.3 0.3-0.6 0.5-0.8 0.8-0.2 0.2-0.2 0.3-0.3 0.3s-0.2 0-0.3-0.1c-0.3-0.3-0.7-0.7-1.1-1-0.2-0.2-0.3-0.3 0-0.5 0.8-0.7 1.5-1.4 2.6-1.8 0.5-0.2 1-0.3 1.6-0.3m0-0.8c-0.6 0-1.3 0.1-1.9 0.3-1.1 0.4-1.8 1.1-2.5 1.7l-0.3 0.2-0.1 0.1c-0.3-0.3-0.6-0.5-0.9-0.8-1.2-1.1-2.4-1.6-3.8-1.6h-0.1-0.2c-0.5 0-1.1 0.1-1.6 0.2-1.8 0.6-3 1.8-3.4 3.5s0 3.2 1.4 4.5c1.1 1 2.3 1.5 3.7 1.5 0.6 0 1.2-0.1 1.8-0.3 1.2-0.4 2.1-1.2 2.9-2l0.1-0.1c0.3 0.3 0.7 0.6 1 0.9 1.1 1 2.4 1.5 3.8 1.5 0.5 0 1.1-0.1 1.7-0.2 1.7-0.5 3-1.7 3.4-3.3 0.5-1.5 0.1-3.1-0.9-4.3-0.9-1.1-2.5-1.8-4.1-1.8zm-9.6 6.2h-0.1c-0.7 0-1.4-0.6-1.5-1.2s0.4-1.2 1.1-1.4c0.1 0 0.3-0.1 0.4-0.1 0.4 0 0.9 0.2 1.3 0.6 0.3 0.3 0.6 0.5 0.8 0.8-0.4 0.3-0.7 0.6-1 0.9-0.3 0.2-0.6 0.4-1 0.4zm7.5-1.3c0.1 0 0.1 0 0 0l0.4-0.4c0.2-0.1 0.3-0.3 0.5-0.4 0.4-0.4 0.7-0.5 1.2-0.5h0.2c0.6 0 1.2 0.6 1.3 1.1 0.1 0.6-0.3 1.2-0.9 1.4-0.2 0.1-0.4 0.1-0.6 0.1-0.4 0-0.8-0.2-1.1-0.5l-1-0.8z"/>
	
	
		<path class="st3" d="m69.8 32.5h-6.2-7.5l0.4-0.7c0.7-1.4 1.3-2.8 1.7-4.1l0.2-0.7 1.1 0.9c0.8 0.6 1.7 1 2.6 1 1.3 0 2.6-0.7 3.3-2 0.1-0.2 0.3-0.5 0.7-0.6 1.3-0.3 2.3-1.2 2.7-2.3 0.5-1.3 0.2-2.7-0.7-4-0.2-0.2-0.3-0.4-0.5-0.6-0.1-0.1-0.3-0.3-0.3-0.6s0.3-0.5 0.4-0.6c1.2-0.7 2-1.7 2.3-3 0-0.2 0.1-0.4 0.1-0.6v-0.3l0.1-1 5.5 5.5-0.3 0.4c-0.1 0.1-0.2 0.2-0.5 0.2h-0.2-2-1.9v4.8 7.5c0 0.2-0.1 0.8-1 0.8z"/>
		<path class="st1" d="m70.6 14.2 4.4 4.4h-0.1-0.3-2s-1.3 0-2 0c-0.3 0-0.4 0.1-0.4 0.5v12.4c0 0.4-0.1 0.6-0.5 0.6h-6.2-6.2-0.5c0.7-1.4 1.3-2.7 1.8-4.2 0.2 0.2 0.4 0.3 0.5 0.4 0.9 0.7 1.9 1.1 2.9 1.1 1.5 0 2.9-0.8 3.7-2.2 0.1-0.2 0.2-0.3 0.4-0.3 3.1-0.7 4.5-4.2 2.4-7.1-0.2-0.2-0.3-0.5-0.6-0.6-0.2-0.2-0.2-0.3 0.1-0.4 1.3-0.8 2.2-1.9 2.5-3.4 0.1-0.5 0.1-0.9 0.1-1.2m-0.7-2.2-0.2 2.1v0.3c0 0.2 0 0.4-0.1 0.5-0.3 1.2-0.9 2.1-2 2.7-0.2 0.1-0.6 0.4-0.7 1 0 0.4 0.1 0.7 0.5 1 0.1 0.1 0.3 0.3 0.4 0.5 0.8 1.1 1 2.4 0.6 3.6-0.4 1-1.3 1.8-2.4 2-0.6 0.1-0.9 0.6-1 0.8-0.6 1.1-1.7 1.7-2.9 1.7-0.8 0-1.6-0.3-2.3-0.9l-0.3-0.3h-0.2l-1.1-0.9-0.5 1.4c-0.5 1.4-1 2.6-1.7 4.1l-0.7 1.4h2.1 3.1 3.1 6.2c0.6 0 1.5-0.2 1.5-1.6v-7.4-4.4h1.4 1.9 0.3c0.3 0 0.6-0.1 0.9-0.4l0.6-0.7-6.5-6.5z"/>
	
	
		<path class="st3" d="m48.8 32.5h-1.8c-0.3 0-0.5-0.1-0.7-0.2-0.2-0.2-0.2-0.5-0.2-0.7v-3.1-9.2-0.1h-1.8-2.4-1.2l7.9-7.9v1.2c0 0.4 0.1 1.1 0.4 1.9 0.3 0.6 0.7 1.2 1.2 1.7l0.5 0.5-0.6 0.3c-0.8 0.5-1.4 1-1.8 1.6-0.7 0.9-0.9 2-0.7 3.1s0.9 1.9 1.9 2.5c0.3 0.2 0.5 0.4 0.6 0.8 0.3 1.4 1.6 2.9 3.7 2.9h0.6l1.1-0.2-0.4 0.8c-0.7 1.5-1.4 2.8-2 3.8-0.3 0.4-0.7 0.4-0.8 0.4l-3.5-0.1z"/>
		<path class="st1" d="m48.2 12.4c0 0.6 0.1 1.4 0.5 2.1 0.3 0.7 0.8 1.3 1.3 1.9-0.8 0.5-1.5 1-2 1.7-1.6 2.2-1 5 1.3 6.3 0.2 0.1 0.3 0.3 0.4 0.5 0.4 1.6 1.8 3.3 4.2 3.3h0.6 0.3c-0.6 1.3-1.3 2.5-2 3.7-0.1 0.1-0.3 0.1-0.4 0.1h-3.6-1.8c-0.4 0-0.3-0.3-0.3-0.5v-12.3c0-0.5-0.1-0.6-0.5-0.6h-0.1-1.7-2.4c2-2.1 4.1-4.2 6.2-6.2m1-2.4-1.7 1.7-3.8 3.7-4.2 4.2h2.4 1.2 1.2 1.3v8.8 3.1c0 0.2-0.1 0.7 0.3 1.1 0.2 0.2 0.5 0.4 1 0.4h1.8 1.8 1.8c0.7 0 1.1-0.4 1.3-0.7 0.6-0.9 1.4-2.3 2.1-3.8l0.7-1.6-1.8 0.2h-0.2-0.1-0.5c-1.8 0-2.9-1.2-3.2-2.5-0.1-0.5-0.4-0.9-0.9-1.2-0.9-0.5-1.4-1.3-1.6-2.2s0-1.9 0.6-2.7c0.4-0.5 0.9-1 1.7-1.5l1.1-0.7-0.9-0.9c-0.5-0.5-0.9-1-1.1-1.6-0.2-0.5-0.4-1.1-0.4-1.6v-2.2h0.1z"/>
	
	
		<path class="st3" d="m42 82.3h-0.3-0.2-0.5c-1.1 0-1.4-0.2-1.5-1.3-0.1-0.6-0.1-1.2-0.2-1.8-0.3 0.8-0.7 1.6-1 2.4s-0.9 0.8-1.2 0.8c-0.2 0-0.8 0-1.1-0.8s-0.6-1.6-0.9-2.3l-0.1 0.9c-0.1 0.4-0.1 0.9-0.2 1.3-0.1 0.8-0.8 0.9-1 0.9h-0.1-0.7-0.6c-0.4 0-0.6-0.1-0.8-0.3-0.3-0.3-0.2-0.7-0.2-0.9l1.1-6.6v-0.3c0-0.4 0-0.9 0.5-1.3 0.2-0.2 0.5-0.3 0.8-0.3h0.4 0.3 0.4c1 0 1.3 0.9 1.4 1.2 0.2 0.7 0.5 1.5 0.8 2.2 0.4-0.9 0.7-1.7 1-2.6 0.2-0.5 0.6-0.8 1.1-0.8h0.1 0.7 0.6 0.2c0.4 0 0.9 0.2 1.1 1 0.2 1.4 0.4 2.7 0.6 4.1v0.3c0.1 1 0.3 2 0.5 3 0 0.2 0.1 0.7-0.2 1-0.2 0-0.5 0.2-0.8 0.2z"/>
		<path class="st1" d="m33.8 73.3h0.7 0.2 0.2c0.4 0 0.7 0.3 0.8 0.7 0.4 1.2 0.9 2.4 1.4 3.7 0.6-1.4 1.1-2.7 1.6-4.1 0.1-0.3 0.2-0.4 0.5-0.4h0.1 0.7 0.6 0.1c0.3 0 0.4 0.2 0.4 0.5 0.2 1.4 0.4 2.7 0.6 4.1 0.2 1.1 0.3 2.2 0.5 3.3 0.1 0.3 0 0.6-0.3 0.6h-0.2-0.3-0.5c-0.8 0-0.8 0-0.9-0.8-0.1-1.2-0.3-2.4-0.4-3.6 0-0.1 0-0.2-0.1-0.3-0.2 0.1-0.2 0.2-0.2 0.3-0.6 1.3-1.1 2.7-1.7 4-0.1 0.3-0.3 0.4-0.6 0.4s-0.4-0.1-0.6-0.4l-1.5-3.9c-0.1-0.2-0.1-0.3-0.2-0.6-0.1 1-0.3 1.8-0.4 2.6l-0.3 1.8c0 0.2-0.1 0.4-0.3 0.4h-0.1-0.8-0.6-0.1c-0.3 0-0.3-0.2-0.3-0.4 0.4-2.2 0.8-4.4 1.1-6.6 0.1-0.4 0-1 0.3-1.2 0.3-0.1 0.4-0.1 0.6-0.1m0-1.3c-0.5 0-0.9 0.1-1.2 0.4-0.6 0.5-0.7 1.3-0.7 1.8v0.3l-1.2 6.6c0 0.2-0.1 0.8 0.3 1.4 0.2 0.2 0.6 0.5 1.2 0.5h0.1 0.6 0.7 0.1c0.6 0 1.4-0.3 1.6-1.3 0 0.1 0 0.1 0.1 0.2 0.2 0.5 0.7 1.2 1.7 1.2 0.9 0 1.5-0.4 1.8-1.1 0-0.1 0.1-0.1 0.1-0.2 0.2 1 0.8 1.3 2 1.3h0.3 0.2 0.2 0.3c0.7 0 1-0.3 1.2-0.5 0.5-0.6 0.4-1.2 0.3-1.5-0.2-1-0.3-2-0.5-3.1v-0.2c-0.2-1.4-0.4-2.7-0.6-4.1-0.2-1.5-1.4-1.7-1.7-1.7h-0.2-0.5-0.6-0.2c-0.5 0-1.3 0.2-1.7 1.2-0.1 0.4-0.3 0.7-0.4 1.1-0.1-0.2-0.2-0.4-0.2-0.7-0.5-1.3-1.4-1.6-2-1.6h-0.4-0.2-0.5z"/>
	
	
		<path class="st2" d="m108.6 68.7h-1.2-1.5c-0.9 0-1-0.7-1-1v-13.3c0-0.6 0.4-1 1-1h1.7 1.2c0.3 0 0.6 0 0.8 0.3s0.3 0.6 0.3 0.8v5 3.2 4.9c0 1-0.6 1.1-1 1.1h-0.3z"/>
		<path class="st1" d="m105.8 54.1h1.7 1.2 0.1c0.3 0 0.4 0.1 0.4 0.5v6.6 6.5c0 0.3-0.1 0.5-0.4 0.5h-0.1-1.3-1.5c-0.3 0-0.4-0.1-0.4-0.4v-13.3c-0.1-0.4 0-0.4 0.3-0.4m0-1.3c-1 0-1.6 0.7-1.6 1.6v13.3c0 1 0.6 1.6 1.6 1.6h1.5 1.2 0.1c0.8 0 1.6-0.5 1.6-1.7v-4.9-1.6-1.7-4.9c0-0.2 0-0.8-0.4-1.3-0.3-0.3-0.7-0.5-1.2-0.5h-0.1-1.1c-0.5 0.1-1 0.1-1.6 0.1z"/>
	
	
		<path class="st3" d="m81.7 82.3c-0.3 0-0.6 0-0.9-0.3-0.5-0.4-0.4-1.1-0.4-1.6v-0.4-3.1-3.1c0-0.7 0.3-1.1 1-1.1h0.6c1.2 0 2.1 0.5 2.8 1.6 0.5 0.8 1.1 1.6 1.8 2.4v-1.9-1.1c0-0.1 0-0.4 0.2-0.7 0.2-0.2 0.4-0.3 0.7-0.3h0.8 0.8c0.3 0 1 0.1 1 1v7.6c0 0.4-0.1 1-1 1h-0.8c-1.3 0-1.6-0.4-2.5-1.5-0.7-0.8-1.3-1.7-1.9-2.5v2.8c0 0.2 0 0.6-0.3 0.9-0.2 0.2-0.4 0.3-0.8 0.3h-0.3-0.4-0.4z"/>
		<path class="st1" d="m82 73.3c1 0 1.6 0.4 2.2 1.3 0.8 1.2 1.8 2.4 2.7 3.5 0 0.1 0.1 0.1 0.2 0.1v-3-1.7c0-0.2 0.1-0.3 0.3-0.3h0.8s0.5 0 0.8 0 0.3 0.1 0.3 0.4v7.6c0 0.3-0.1 0.4-0.4 0.4h-0.8c-1 0-1.2-0.2-2-1.3-1-1.3-2-2.5-2.9-3.8h-0.1v4.5c0 0.4-0.1 0.5-0.4 0.5h-0.1-0.1-0.9c-0.2 0-0.4 0-0.5-0.1-0.3-0.3-0.1-1-0.1-1.5v-6.2c0-0.4 0.1-0.5 0.5-0.5 0.2 0.1 0.4 0.1 0.5 0.1m0-1.3h-0.7c-1 0.1-1.6 0.8-1.6 1.8v3.1 3.1 0.4c-0.1 0.5-0.2 1.5 0.6 2.1 0.5 0.4 1.1 0.4 1.3 0.4h0.5 0.3 0.1 0.2c0.6 0 1-0.3 1.2-0.5 0.5-0.5 0.5-1.1 0.5-1.3v-1c0.3 0.3 0.5 0.7 0.8 1 0.9 1.2 1.4 1.8 3 1.8h0.8c1 0 1.6-0.7 1.6-1.6v-7.6c0-1.1-0.8-1.6-1.5-1.6h-0.1-0.7s-0.5 0-0.7 0c-0.6 0-1 0.2-1.2 0.5-0.2 0.2-0.4 0.6-0.4 1.2v1 0.1l-0.6-0.9c-0.9-1.4-2-2-3.4-2z"/>
	
	
		<path class="st3" d="m51.4 82.6c-3 0-5.2-2.2-5.2-5.2 0-1.3 0.5-2.5 1.4-3.4 1-1 2.4-1.6 3.9-1.6 3 0 5.2 2.2 5.2 5 0 3-2.2 5.2-5.3 5.2zm-0.1-6.8c-0.4 0-0.9 0.2-1.2 0.5s-0.5 0.7-0.5 1.1c0 1 0.8 1.8 1.7 1.8 0.5 0 0.9-0.2 1.2-0.5 0.4-0.4 0.5-0.8 0.5-1.3 0.2-0.9-0.6-1.7-1.7-1.6l0.1-0.6-0.1 0.6z"/>
		<path class="st1" d="m51.5 73c2.6 0 4.6 1.9 4.6 4.4 0 2.6-2 4.5-4.6 4.5-2.7 0-4.6-1.9-4.6-4.6-0.1-2.4 2-4.3 4.6-4.3m-0.1 6.8c1.3 0 2.4-1.2 2.4-2.5 0-1.2-1.1-2.2-2.4-2.2h-0.1c-1.2 0-2.3 1.1-2.2 2.3 0 1.4 1.1 2.4 2.3 2.4m0.1-8c-1.7 0-3.2 0.6-4.3 1.7-1 1-1.6 2.4-1.6 3.8 0 3.4 2.5 5.8 5.8 5.8s5.8-2.5 5.8-5.8c0.1-3-2.5-5.5-5.7-5.5z"/>
	
	
		<path class="st3" d="m98.7 82.6c-2.1 0-3.9-1.2-4.6-3.1-0.6-1.5-0.5-3.2 0.2-4.5 0.6-1.2 1.7-2.1 3.1-2.4 0.5-0.1 1-0.2 1.5-0.2 1.7 0 3.2 0.8 4.1 2.2 0.1 0.2 0.3 0.5 0.2 0.9s-0.6 0.5-0.7 0.6c-0.2 0.1-0.4 0.2-0.6 0.2h0.9 0.1c0.5 0 0.8 0.3 0.8 0.9 0 2.5-1 4.2-2.9 5-0.7 0.2-1.3 0.4-2.1 0.4zm0.1-7.1c-0.1 0-0.3 0-0.4 0.1-0.5 0.1-1 0.7-1.1 1.5-0.1 1 0.1 1.6 0.7 2.2 0.2 0.2 0.5 0.3 0.9 0.3 0.3 0 0.5-0.1 0.8-0.2h-0.4c-0.3 0-1-0.1-1-1 0-0.8 0-1.3 0.3-1.6s0.7-0.3 1.5-0.3v-0.1c-0.6-0.8-0.9-0.9-1.3-0.9z"/>
		<path class="st1" d="m98.9 73c1.5 0 2.8 0.7 3.6 1.9 0.2 0.3 0.2 0.5-0.2 0.6-0.5 0.2-0.9 0.4-1.3 0.6-0.1 0-0.1 0.1-0.2 0.1s-0.2 0-0.2-0.2c-0.5-0.8-1-1.1-1.7-1.1-0.2 0-0.3 0-0.5 0.1-0.8 0.2-1.5 1.1-1.6 2-0.1 1 0.1 2 0.9 2.7 0.4 0.3 0.8 0.5 1.3 0.5 0.7 0 1.5-0.4 1.7-1.1 0.1-0.3 0.1-0.4-0.2-0.4h-0.3-0.4-0.4c-0.2 0-0.3-0.1-0.3-0.3 0-1.3 0-1.3 1.3-1.3h0.9 1.8 0.1c0.1 0 0.2 0 0.2 0.2 0 1.7-0.5 3.6-2.5 4.4-0.6 0.2-1.2 0.3-1.8 0.3-1.7 0-3.4-0.9-4-2.7-0.9-2.5 0.1-5.4 2.9-6.1 0-0.1 0.5-0.2 0.9-0.2m0-1.2c-0.5 0-1.1 0.1-1.6 0.2-1.5 0.4-2.8 1.4-3.5 2.7-0.8 1.5-0.9 3.4-0.2 5 0.8 2.1 2.8 3.5 5.2 3.5 0.8 0 1.5-0.1 2.3-0.4 2.2-0.8 3.4-2.8 3.3-5.6 0-0.6-0.3-1-0.7-1.3 0-0.1 0.1-0.1 0.1-0.2 0.3-0.7-0.1-1.3-0.2-1.5-1-1.5-2.7-2.4-4.7-2.4z"/>
	
	
		<path class="st3" d="m59.6 41.3h-7.4-0.1c-0.3 0-0.4-0.2-0.5-0.4-0.2-1.3-0.9-2.4-2.1-3.1h-0.1l-0.3-0.6h0.4 12.7v0.2c0.1 0.4-0.2 0.5-0.3 0.6-1 0.8-1.6 1.7-1.8 2.8 0.1 0.2 0 0.5-0.5 0.5z"/>
		<path class="st1" d="m62 37.5c0.1 0.2-0.1 0.3-0.2 0.3-1 0.7-1.7 1.7-1.9 3 0 0.3-0.2 0.3-0.3 0.3h-0.2-5.6-1.8-0.1c-0.1 0-0.2 0-0.2-0.2-0.2-1.5-1-2.6-2.3-3.3l-0.1-0.1h12.7m0.4-0.5h-13.7l0.4 0.7c0.1 0.2 0.2 0.2 0.3 0.3 1.2 0.7 1.8 1.6 2 2.9 0.1 0.4 0.3 0.6 0.7 0.6h0.1 1.8 5.6 0.1 0.1c0.4 0 0.7-0.3 0.8-0.7 0.1-1.1 0.7-1.9 1.7-2.6 0.4-0.2 0.4-0.6 0.4-0.8l-0.3-0.4z"/>
	
	
		<path class="st3" d="m64.9 82.3c-1.5 0-1.7-0.2-2.3-1.5-1-2.3-1.9-4.5-2.9-6.8 0-0.1-0.1-0.2-0.1-0.3l-0.3-0.9h1.9 1c0.7 0 0.9 0.5 1 0.7l1.3 3.3c0.2-0.6 0.9-2.1 0.9-2.1 0.2-0.4 0.3-0.8 0.5-1.1 0.2-0.6 0.6-0.7 1-0.7h0.7 2.3l-0.4 0.9c-0.3 0.7-0.6 1.5-0.9 2.2l-0.6 1c-0.6 1.5-1.3 3-1.9 4.5-0.2 0.5-0.6 0.8-1.2 0.8z"/>
		<path class="st1" d="m62.3 73.3c0.3 0 0.3 0.2 0.4 0.4 0.6 1.4 1.1 2.8 1.7 4.2 0 0.1 0.1 0.3 0.2 0.5 0.4-1.1 0.8-2.1 1.2-3.1 0.2-0.6 0.5-1.1 0.7-1.7 0.1-0.2 0.2-0.3 0.4-0.3h0.7 1.4c-0.3 0.7-0.6 1.4-0.9 2.2-0.8 1.9-1.7 3.9-2.5 5.8-0.1 0.3-0.3 0.4-0.6 0.4-1.2 0-1.2 0-1.7-1.1-1-2.3-1.9-4.5-2.9-6.8-0.1-0.1-0.1-0.2-0.2-0.4h1.1c0.3-0.1 0.7-0.1 1-0.1m0-1.3h-1.1-0.5-0.5-1.8l0.6 1.7v0.1c0.1 0.1 0.1 0.3 0.1 0.4 1 2.3 1.9 4.6 2.9 6.8 0.6 1.5 1.1 1.9 2.8 1.9h0.1c0.6 0 1.3-0.2 1.7-1.2 0.6-1.5 1.3-3 1.9-4.5l0.6-1.3c0.3-0.7 0.6-1.4 0.9-2.2l0.7-1.7h-1.9-0.7-0.7-0.7c-0.3 0-1.1 0.1-1.5 1.1-0.2 0.4-0.3 0.8-0.5 1.2l-0.2 0.5c0 0.1 0 0.1-0.1 0.2l-0.7-1.8c-0.2-1-1-1.2-1.4-1.2z"/>
	
	
		<path class="st4" d="m26.2 78.6h-0.2-16.4-5.4c-1.2 0-1.2-0.9-1.2-1.3 0-0.8 0.4-1.2 1.2-1.2h21.8 0.3c0.4 0 0.7 0.2 0.8 0.6s0.1 0.9 0 1.3c-0.2 0.4-0.4 0.6-0.9 0.6z"/>
		<path class="st1" d="m26.2 76.8c0.1 0 0.2 0 0.2 0.2 0.1 0.3 0.1 0.6 0 0.9 0 0.1-0.1 0.1-0.2 0.1s-0.2 0-0.3 0h-10.9-5.4-5.4c-0.5 0-0.6-0.2-0.6-0.6s0.1-0.6 0.6-0.6h21.8 0.2m0-1.2h-0.3-21.8c-1.1 0-1.8 0.7-1.8 1.8 0 1.7 1.3 1.9 1.8 1.9h5.4 2.7 2.7 10.9 0.3c0.9 0 1.3-0.6 1.4-1 0.1-0.5 0.1-1 0-1.5 0-0.8-0.6-1.2-1.3-1.2z"/>
	
	
		<path class="st5" d="m108.3 78.6c-0.4 0-0.7-0.2-0.8-0.6-0.1-0.5-0.1-1 0-1.4 0.1-0.3 0.4-0.5 0.8-0.5h0.2 11 4.3 6.6c1.1 0 1.2 0.9 1.2 1.2s0 0.7-0.3 1-0.6 0.3-0.9 0.3h-13.1-8.7-0.3z"/>
		<path class="st1" d="m108.2 76.8h0.3 10.9 4.4 6.5c0.5 0 0.5 0.2 0.5 0.6s-0.1 0.6-0.5 0.6h-21.8-0.3s-0.2 0-0.2-0.1c-0.1-0.3-0.1-0.7 0-1 0.1-0.1 0.2-0.1 0.2-0.1m0-1.2c-0.6 0-1.1 0.3-1.3 0.9-0.2 0.5-0.2 1.1-0.1 1.8 0.2 0.7 0.7 1.1 1.4 1.1h0.3 8.7 13.1c0.2 0 0.9 0 1.3-0.5 0.5-0.5 0.5-1.1 0.5-1.4 0-1.7-1.3-1.8-1.8-1.8h-6.5-2.2-2.2-10.9c-0.1-0.1-0.2-0.1-0.3-0.1z"/>
	
	
		<path class="st3" d="m59.7 8.9c-1.6-2.1-2.5-2.6-3.9-2.6-0.3 0-0.8 0-1.2 0.1l-1.4 0.2 1.5-1.6 3.2-3.2c0.1-0.1 0.3-0.3 0.6-0.3s0.5 0.2 0.6 0.3c1.5 1.6 3.1 3.1 4.6 4.6 0.1 0.1 0.1 0.2 0.2 0.3l0.3 0.6-0.6 0.1c-1.2 0.2-2.2 0.7-3 1.6l-0.4 0.4-0.5-0.5z"/>
		<path class="st1" d="m58.4 1.9c0.1 0 0.1 0 0.2 0.1 1.5 1.6 3.1 3.1 4.6 4.7 0 0 0.1 0.1 0.1 0.2-1.3 0.2-2.4 0.8-3.3 1.7-1.6-2.1-2.6-2.8-4.3-2.8-0.4 0-0.8 0-1.3 0.1 0.6-0.6 1-1.1 1.5-1.6l2.2-2.2c0.2-0.1 0.3-0.2 0.3-0.2m0-1c-0.5 0-0.8 0.3-1 0.5-0.7 0.7-1.4 1.4-2.1 2.2l-1.6 1.6-2 2.1 2.9-0.4c0.5-0.1 0.9-0.1 1.2-0.1 1.2 0 1.9 0.4 3.6 2.5l0.7 0.9 0.8-0.8c0.8-0.8 1.7-1.3 2.7-1.4l1.3-0.2-0.5-1.2c-0.1-0.2-0.2-0.4-0.4-0.6l-4.6-4.6c-0.3-0.3-0.6-0.5-1-0.5z"/>
	
	
		<path class="st3" d="m80 33.4c-0.3 0-0.5-0.1-0.6-0.3-0.3-0.3-0.2-0.6-0.2-0.8v-10.5-10.5c0-0.2-0.1-0.5 0.1-0.8 0.1-0.1 0.3-0.3 0.6-0.3h0.3c0.9 0 1.1 0.7 1.1 1.2v20.9c0 0.7-0.3 1-1 1.1h-0.1-0.2z"/>
		<path class="st1" d="m80 10.9c0.4 0 0.8-0.1 0.8 0.5v20.9c0 0.5-0.3 0.4-0.6 0.5h-0.1c-0.3 0-0.2-0.3-0.2-0.5v-10.5s0-7 0-10.5c-0.1-0.1-0.3-0.4 0.1-0.4m0-1.3c-0.5 0-0.8 0.2-1.1 0.5-0.4 0.5-0.3 1.1-0.3 1.3v10.4 10.5c0 0.2-0.1 0.8 0.4 1.3 0.3 0.3 0.7 0.5 1.1 0.5h0.3 0.1c1.5-0.1 1.6-1.3 1.6-1.7v-20.9c0-0.4-0.1-1.7-1.7-1.8h-0.1c-0.2-0.1-0.3-0.1-0.3-0.1z"/>
	
	
		<path class="st6" d="m75.2 82.3h-0.6-0.8c-0.4 0-0.6-0.1-0.8-0.3-0.2-0.3-0.2-0.6-0.2-0.7v-7.7c0-0.7 0.5-1 0.9-1h0.8 0.7c0.3 0 1 0.1 1 1v3.8 1 2.8c0 1-0.7 1-0.9 1l-0.1 0.1z"/>
		<path class="st1" d="m73.8 73.3h0.8 0.8c0.3 0 0.3 0.1 0.3 0.4v3.8 3.8c0 0.3-0.1 0.4-0.3 0.4h-0.1-0.7-0.8c-0.2 0-0.3-0.1-0.3-0.3v-7.7c0-0.3 0-0.4 0.3-0.4m0-1.3c-0.9 0-1.6 0.7-1.6 1.6v7.7c0 0.9 0.6 1.6 1.6 1.6h0.1 0.8 0.6 0.1c0.8 0 1.6-0.5 1.6-1.7v-2.8-0.9-3.8c0-1.1-0.8-1.7-1.6-1.7h-0.1-0.7c-0.3 0.1-0.5 0.1-0.8 0z"/>
	
	
		<path class="st3" d="m74.4 43.1c-0.4 0-0.7-0.1-1-0.4s-0.6-0.6-1-0.8l-0.5-0.5s0.4-0.4 0.6-0.5c0.3-0.3 0.6-0.5 0.9-0.8s0.8-0.4 1.3-0.4c0.7 0 1.4 0.4 1.7 1s0.3 1.2-0.1 1.7c-0.5 0.5-1.1 0.7-1.9 0.7z"/>
		<path class="st1" d="m74.5 39.7c0.7 0 1.3 0.3 1.6 0.9s0.2 1.1-0.1 1.6c-0.4 0.6-1 0.7-1.6 0.7h-0.1c-0.4 0-0.7-0.1-1-0.4-0.5-0.4-0.9-0.8-1.4-1.2 0.5-0.4 0.9-0.9 1.4-1.2 0.4-0.2 0.8-0.4 1.2-0.4m0-0.2c-0.5 0-1 0.2-1.3 0.5s-0.6 0.5-0.9 0.8c-0.2 0.1-0.3 0.3-0.5 0.4l-0.2 0.2 0.6 0.6c0.3 0.3 0.6 0.6 1 0.8 0.3 0.3 0.7 0.4 1.1 0.4h0.1c0.8 0 1.4-0.3 1.8-0.9s0.5-1.3 0.1-1.9c-0.3-0.5-1-0.9-1.8-0.9z"/>
	
	
		<path class="st3" d="m64.9 43.1c-0.8 0-1.4-0.4-1.7-1.1-0.3-0.6-0.1-1.3 0.4-1.8 0.4-0.4 0.9-0.6 1.4-0.6 0.3 0 0.5 0.1 0.8 0.2 0.5 0.2 0.9 0.6 1.2 0.9l0.5 0.5c0.1 0.1 0.1 0.1 0.1 0.2s0 0.2-0.1 0.2l-0.4 0.4c-0.4 0.3-0.7 0.7-1.2 0.9-0.3 0.2-0.6 0.2-0.8 0.2h-0.2z"/>
		<path class="st1" d="m64.9 39.7c0.2 0 0.5 0.1 0.7 0.2 0.7 0.3 1.1 0.9 1.7 1.4 0.1 0.1 0.1 0.2 0 0.3-0.5 0.5-1 1-1.6 1.3-0.2 0-0.4 0.1-0.7 0.1h-0.1c-0.7 0-1.3-0.3-1.6-1-0.3-0.6-0.1-1.2 0.3-1.6 0.4-0.5 0.8-0.7 1.3-0.7m0-0.2c-0.5 0-1 0.2-1.5 0.6-0.5 0.5-0.7 1.2-0.4 1.9 0.3 0.8 1 1.2 1.8 1.2h0.1c0.2 0 0.6 0 0.9-0.2 0.5-0.3 0.8-0.6 1.2-1l0.4-0.4c0.1-0.1 0.2-0.2 0.2-0.3s0-0.2-0.2-0.3-0.3-0.3-0.5-0.5c-0.4-0.4-0.8-0.7-1.3-0.9-0.2-0.1-0.5-0.1-0.7-0.1z"/>
	
	
		<path class="st3" d="m37.3 43.1c-0.9 0-1.6-0.4-1.9-1.2-0.3-0.7-0.1-1.3 0.5-1.8 0.4-0.3 0.8-0.5 1.3-0.5 0.3 0 0.7 0.1 1 0.3 0.4 0.2 0.8 0.6 1.1 0.9l0.4 0.4c0.1 0.1 0.1 0.1 0.1 0.2s-0.1 0.2-0.1 0.2l-0.4 0.4c-0.3 0.3-0.6 0.6-1 0.8-0.3 0.2-0.6 0.3-0.9 0.3h-0.1z"/>
		<path class="st1" d="m37.2 39.7c0.3 0 0.6 0.1 0.9 0.2 0.6 0.3 1 0.8 1.5 1.3 0.1 0.1 0.1 0.2 0 0.3-0.5 0.4-0.9 0.8-1.4 1.2-0.2 0.2-0.5 0.3-0.8 0.3h-0.1c-0.9 0-1.5-0.4-1.8-1.1-0.2-0.6-0.1-1.2 0.5-1.7 0.3-0.3 0.8-0.5 1.2-0.5m0-0.2c-0.5 0-1 0.2-1.4 0.5-0.6 0.5-0.8 1.2-0.5 1.9 0.3 0.8 1 1.2 2 1.3h0.1c0.4 0 0.7-0.1 1-0.4s0.7-0.5 1-0.8c0.1-0.1 0.3-0.2 0.4-0.4 0.1-0.1 0.2-0.2 0.2-0.3s-0.1-0.2-0.2-0.3-0.3-0.2-0.4-0.4c-0.3-0.3-0.7-0.7-1.1-0.9-0.4-0.1-0.7-0.2-1.1-0.2z"/>
	
	
		<path class="st3" d="m46.8 43.1c-0.4 0-0.7-0.1-1.1-0.4-0.3-0.2-0.6-0.5-0.9-0.8-0.1-0.1-0.3-0.2-0.4-0.4-0.1-0.1-0.2-0.1-0.2-0.3 0-0.1 0-0.2 0.1-0.2 0.2-0.1 0.3-0.3 0.5-0.4 0.3-0.3 0.5-0.5 0.8-0.7 0.3-0.3 0.7-0.4 1.2-0.4s0.9 0.2 1.3 0.5c0.4 0.4 0.7 0.8 0.6 1.3 0 0.7-0.3 1.2-0.9 1.5-0.3 0.2-0.7 0.3-1 0.3z"/>
		<path class="st1" d="m46.8 39.7c0.4 0 0.8 0.1 1.2 0.4s0.6 0.7 0.6 1.2c0 0.6-0.3 1.1-0.8 1.4-0.3 0.2-0.7 0.3-1 0.3s-0.7-0.1-1-0.3c-0.5-0.3-0.9-0.7-1.3-1.1-0.1-0.1-0.2-0.2 0-0.3 0.4-0.4 0.8-0.8 1.3-1.1 0.3-0.4 0.7-0.5 1-0.5m0-0.2c-0.4 0-0.9 0.1-1.2 0.4-0.3 0.2-0.6 0.5-0.8 0.7-0.2 0.1-0.3 0.3-0.5 0.4 0 0-0.2 0.2-0.2 0.3 0 0.2 0.1 0.3 0.2 0.4s0.3 0.2 0.4 0.4c0.3 0.3 0.6 0.5 0.9 0.8 0.3 0.2 0.7 0.4 1.1 0.4s0.7-0.1 1.1-0.3c0.6-0.3 1-0.9 1-1.6 0-0.6-0.2-1-0.7-1.4-0.3-0.4-0.8-0.5-1.3-0.5z"/>
	
	
		<path class="st5" d="m42.1 39.6c-0.2 0-0.3-0.1-0.4-0.2l-0.5-0.4c-0.5-0.5-1.1-1-1.8-1.4l-0.9-0.5h6.6l-0.7 0.5c-0.8 0.5-1.4 1.2-2 1.8-0.1 0.1-0.2 0.2-0.3 0.2z"/>
		<path class="st1" d="m44.3 37.4c-0.8 0.5-1.4 1.2-2.1 1.8-0.1 0.1-0.1 0.1-0.2 0.1s-0.2-0.1-0.3-0.2c-0.7-0.6-1.3-1.3-2.2-1.8 1.7 0.1 3.2 0.1 4.8 0.1m1.7-0.5h-8.5l1.8 0.9c0.7 0.3 1.2 0.8 1.7 1.3 0.1 0.1 0.3 0.2 0.4 0.4h0.1c0.1 0.1 0.3 0.3 0.5 0.3s0.4-0.1 0.6-0.3c0.6-0.6 1.2-1.2 2-1.8l1.4-0.8z"/>
	
	
		<path class="st2" d="m99.7 44.4c-1.8 0-3.3-1.5-3.3-3.3s1.4-3.3 3.3-3.3c1.8 0 3.2 1.5 3.2 3.3s-1.4 3.3-3.2 3.3z"/>
		<path class="st1" d="m99.7 38.4c1.5 0 2.6 1.2 2.6 2.7s-1.2 2.6-2.6 2.6c-1.5 0-2.6-1.2-2.6-2.7-0.1-1.4 1.1-2.6 2.6-2.6m0-1.2c-2.2 0-3.9 1.7-3.9 3.9 0 2.1 1.7 3.9 3.9 3.9s3.9-1.7 3.9-3.9-1.7-3.9-3.9-3.9z"/>
	

</svg>
