<svg xmlns="http://www.w3.org/2000/svg" width="4000" height="197.399" viewBox="0 0 4000 197.399">
  <g id="footerbtm" transform="translate(-0.497 -5637.1)">
    <path id="Intersection_8" data-name="Intersection 8" d="M9751.458,479V366.7c145.55-18.245,433.28-61.96,752.128-66.183,319.611-4.23,733.714,44.482,1311.8,45.815s883.791-28.882,1142.261-45.815c243.6-15.956,737.792,28.872,793.814,34.08V479Z" transform="translate(-9750.961 5340)" fill="#3aa404"/>
    <path id="Intersection_7" data-name="Intersection 7" d="M9806.17,465.5V370.487c159.574-17.956,403.545-62.2,663.2-66.487,338.965-5.6,793.078,44.827,1406.163,46.59s967.307-54.59,1286.852-57.257c213.489-1.782,486.184,17.728,643.74,30.88V465.5Z" transform="translate(-9805.668 5369)" fill="#41ba03"/>
  </g>
</svg>
