<?xml version="1.0" encoding="UTF-8"?>
<svg viewBox="0 0 30.262 32.759" xmlns="http://www.w3.org/2000/svg">
<g transform="translate(-450 -1668.7)" data-name="favor icon">
<g transform="translate(460.67 1692.6)" fill="#fff" data-name="Group 956">
<path transform="translate(-679.2 -2180.7)" d="m684.08 2183.1a2.44 2.44 0 1 1-2.44-2.44 2.44 2.44 0 0 1 2.44 2.44z" data-name="Path 1576"/>
<path transform="translate(-688.45 -2189.9)" d="m692.88 2192.3a1.989 1.989 0 1 1-1.989-1.989 1.989 1.989 0 0 1 1.989 1.989z" data-name="Path 1577"/>
<path transform="translate(-698.16 -2199.6)" d="m702.11 2202.1a1.515 1.515 0 1 1-1.515-1.515 1.515 1.515 0 0 1 1.515 1.515z" data-name="Path 1578"/>
<path transform="translate(-714 -2206.4)" d="M717.046,2208.885a.893.893,0,0,0-.445-.191l-.206-.041a.542.542,0,0,1-.2-.072.139.139,0,0,1-.056-.118.16.16,0,0,1,.083-.148.531.531,0,0,1,.257-.048,1.189,1.189,0,0,1,.278.035,1.727,1.727,0,0,1,.3.1v-.4a2.95,2.95,0,0,0-.338-.07l-.1-.011v-.219h-.363v.214a.7.7,0,0,0-.378.143.53.53,0,0,0-.181.432.485.485,0,0,0,.13.356.807.807,0,0,0,.412.193l.187.042a.579.579,0,0,1,.228.085.183.183,0,0,1-.027.287.461.461,0,0,1-.243.053,1.161,1.161,0,0,1-.324-.048,1.8,1.8,0,0,1-.348-.144v.409a2.232,2.232,0,0,0,.36.1c.061.012.123.02.183.026v.215h.363v-.217a.719.719,0,0,0,.375-.141.563.563,0,0,0,.184-.462A.486.486,0,0,0,717.046,2208.885Z" data-name="Path 1579"/>
<rect transform="matrix(.707 -.707 .707 .707 .59 1.189)" width=".475" height=".475" data-name="Rectangle 131"/>
</g>
<path transform="translate(-310.19 -550.42)" d="M775.337,2248.774l5.5-2.4c2.065-.981,2.354.438.82,1.259-1.7.908-5.025,2.331-5.025,2.331l-1.3-.35Z" fill="#fff" data-name="Path 1581"/>
<g transform="translate(454.72 1694.5)" data-name="Group 958">
<g transform="translate(0)" data-name="Group 957">
<path transform="translate(-551.48 -2223)" d="M561.9,2229.947c-1.9-.229-9.3-1.519-9.484-1.522l-.938,0v-4.381l1.137-.017c1.991-.524,2.553-1.35,5.3-.9.732.121,4.481.326,6.38.561,1.267.157,1.586,1.694-1.072,1.8-2.809.109-4.119.158-4.119.158s2.553,1.053,3.4,1.368l6.06-2.163c1.67-.778,1.926.645.823,1.265A82.533,82.533,0,0,1,561.9,2229.947Z" fill="#fff" data-name="Path 1582"/>
</g>
</g>
<rect transform="translate(452.44 1695)" width="3.18" height="5.433" fill="#fff" data-name="Rectangle 132"/>
<rect transform="translate(450 1694.7)" width="4.839" height="6.093" fill="#fff" data-name="Rectangle 133"/>
<path transform="translate(-55.27 -550.42)" d="m509.01 2246.6a0.522 0.522 0 1 1-0.522-0.523 0.523 0.523 0 0 1 0.522 0.523z" fill="#fff" data-name="Path 1584"/>
<path transform="translate(-283.15 -65.35)" d="M760.188,1740.654l-2.313,2.181a6.5,6.5,0,0,1-2.775,3.436,14.338,14.338,0,0,0-4.625,2.115c-.12.235-.224.473-.324.692-.146.319-.49,1.121-.905,1-.555-.164-.6-2.121.04-3.277l2.379-1.718c.124-1.629-.218-3.058-2.775.595l-.2,3.7c0,.772-.565,1.272-.975,1.193-.207-.039-.375-.226-.412-.6-.078-1.071-.011-.149-.33-4.493,2.278-5.2,2.221-4.606,6.608-5.982l3.766-2.212Z" fill="#fff" data-name="Path 1585"/>
<g transform="translate(460.66 1686.1)" fill="#fff" data-name="Group 959">
<path transform="translate(-678.93 -2041.1)" d="m683.81 2043.5a2.44 2.44 0 1 1-2.44-2.44 2.441 2.441 0 0 1 2.44 2.44z" data-name="Path 1586"/>
<circle transform="matrix(.036 -.999 .999 .036 .381 4.356)" cx="1.989" cy="1.989" r="1.989" data-name="Ellipse 25"/>
<path transform="translate(-697.88 -2060)" d="m701.84 2062.5a1.515 1.515 0 1 1-1.515-1.515 1.515 1.515 0 0 1 1.515 1.515z" data-name="Path 1587"/>
<path transform="translate(-713.72 -2066.8)" d="M716.774,2069.281a.89.89,0,0,0-.445-.192l-.206-.041a.538.538,0,0,1-.2-.073.139.139,0,0,1-.056-.117.16.16,0,0,1,.083-.149.533.533,0,0,1,.257-.048,1.189,1.189,0,0,1,.278.036,1.737,1.737,0,0,1,.3.1v-.4a2.959,2.959,0,0,0-.338-.07c-.033,0-.065-.008-.1-.011v-.219h-.363v.214a.7.7,0,0,0-.379.143.529.529,0,0,0-.181.431.484.484,0,0,0,.13.356.807.807,0,0,0,.412.193l.187.042a.578.578,0,0,1,.228.086.166.166,0,0,1,.057.136.168.168,0,0,1-.084.151.46.46,0,0,1-.243.053,1.162,1.162,0,0,1-.324-.048,1.853,1.853,0,0,1-.348-.144v.409a2.212,2.212,0,0,0,.36.1c.061.012.122.02.183.026v.215h.363v-.218a.713.713,0,0,0,.375-.141.563.563,0,0,0,.184-.462A.484.484,0,0,0,716.774,2069.281Z" data-name="Path 1588"/>
<rect transform="translate(.59 1.189) rotate(-45)" width=".475" height=".475" data-name="Rectangle 134"/>
</g>
<g transform="translate(465.45 1688.5)" fill="#fff" data-name="Group 960">
<path transform="translate(-781.91 -2093.5)" d="m786.79 2095.9a2.44 2.44 0 1 1-2.44-2.44 2.441 2.441 0 0 1 2.44 2.44z" data-name="Path 1589"/>
<path transform="translate(-791.16 -2102.7)" d="m795.58 2105.2a1.989 1.989 0 1 1-1.989-1.989 1.989 1.989 0 0 1 1.989 1.989z" data-name="Path 1590"/>
<path transform="translate(-800.86 -2112.4)" d="m804.82 2114.9a1.515 1.515 0 1 1-1.515-1.515 1.515 1.515 0 0 1 1.515 1.515z" data-name="Path 1591"/>
<path transform="translate(-816.71 -2119.3)" d="M819.755,2121.7a.894.894,0,0,0-.446-.191l-.206-.041a.537.537,0,0,1-.2-.073.139.139,0,0,1-.056-.118.161.161,0,0,1,.083-.148.534.534,0,0,1,.257-.048,1.188,1.188,0,0,1,.278.035,1.734,1.734,0,0,1,.3.1v-.4a2.848,2.848,0,0,0-.338-.07c-.033,0-.065-.008-.1-.011v-.219h-.364v.214a.694.694,0,0,0-.378.144.529.529,0,0,0-.181.431.483.483,0,0,0,.13.356.807.807,0,0,0,.412.193l.188.042a.58.58,0,0,1,.228.086.166.166,0,0,1,.058.136.168.168,0,0,1-.085.151.457.457,0,0,1-.243.053,1.161,1.161,0,0,1-.324-.049,1.817,1.817,0,0,1-.348-.144v.409a2.213,2.213,0,0,0,.36.1c.061.012.122.02.183.026v.215h.364v-.218a.716.716,0,0,0,.375-.141.563.563,0,0,0,.185-.462A.486.486,0,0,0,819.755,2121.7Z" data-name="Path 1592"/>
<rect transform="translate(.59 1.189) rotate(-44.987)" width=".475" height=".475" data-name="Rectangle 135"/>
</g>
<rect transform="translate(472.24 1672.7) rotate(-41.222)" width="3.18" height="5.433" fill="#fff" data-name="Rectangle 136"/>
<rect transform="matrix(.752 -.659 .659 .752 472.61 1671.9)" width="4.839" height="6.093" fill="#fff" data-name="Rectangle 137"/>
</g>
</svg>
