<svg xmlns="http://www.w3.org/2000/svg" width="35.405" height="33.261" viewBox="0 0 35.405 33.261">
  <g id="discount_icon" data-name="discount icon" transform="translate(-217.667 -135.872)">
    <path id="Path_2971" data-name="Path 2971" d="M226.227,170.658s.669-5.512-5.7-2.708c-4.268,1.879-3.377,7.35.192,6.372,2.416-.662,5.9-2.986,7.711-3.7,2.749-1.077,6-2,10-4.652,3.832-2.538,6.564-8.029,6.564-8.029Zm-3.233,1.779c-1.655.87-3.4.808-3.9-.141s.437-2.423,2.091-3.294,3.4-.809,3.9.14S224.647,171.566,222.994,172.437Z" transform="translate(0 -11.473)" fill="#a0a0a0"/>
    <g id="Group_2434" data-name="Group 2434" transform="translate(224.649 135.872)">
      <rect id="Rectangle_577" data-name="Rectangle 577" width="14.523" height="25.673" transform="translate(0 10.269) rotate(-45.001)" fill="#41ba03"/>
      <path id="Path_2972" data-name="Path 2972" d="M260.923,155.421l-12.075-12.075a4.367,4.367,0,0,1-4.977,0l-4.191,4.19a4.371,4.371,0,0,1,0,4.979l12.076,12.075a4.369,4.369,0,0,1,4.978,0l4.191-4.191A4.37,4.37,0,0,1,260.923,155.421Z" transform="translate(-236.09 -139.757)" fill="#aadc78"/>
      <path id="Path_2973" data-name="Path 2973" d="M260.4,164.064c-1.646,1.646-4.765,1.2-6.966-1.007s-2.653-5.321-1.007-6.967,4.765-1.194,6.966,1.007S262.044,162.418,260.4,164.064Z" transform="translate(-242.2 -145.866)" fill="#41ba03"/>
      <path id="Path_2974" data-name="Path 2974" d="M249.278,152.945a1.181,1.181,0,1,1,0-1.671A1.181,1.181,0,0,1,249.278,152.945Z" transform="translate(-240.031 -143.698)" fill="#41ba03"/>
      <path id="Path_2975" data-name="Path 2975" d="M273.433,177.1a1.181,1.181,0,1,1,0-1.67A1.18,1.18,0,0,1,273.433,177.1Z" transform="translate(-252.586 -156.253)" fill="#41ba03"/>
      <g id="Group_2433" data-name="Group 2433" transform="translate(10.895 11.373)">
        <path id="Path_2976" data-name="Path 2976" d="M255.268,164.722l.594-.595a5.419,5.419,0,0,1-.644-.861q-.208-.367-.327-.624l.981-.98,1.089,1.089a.481.481,0,0,0-.161.28c-.008.088.05.194.176.319a.584.584,0,0,0,.282.183.24.24,0,0,0,.218-.079.227.227,0,0,0,.064-.179,1.174,1.174,0,0,0-.109-.351q-.228-.506-.377-.906a2.78,2.78,0,0,1-.175-.735,1.387,1.387,0,0,1,.089-.629,1.766,1.766,0,0,1,.408-.586,1.981,1.981,0,0,1,.51-.376,1.283,1.283,0,0,1,.567-.136,1.592,1.592,0,0,1,.639.144,3.136,3.136,0,0,1,.729.468l.57-.57.648.649-.559.559a5.226,5.226,0,0,1,.364.458q.146.211.252.4c.072.127.132.247.183.362a1.63,1.63,0,0,1,.107.3l-.887.886-1.04-1.04a.306.306,0,0,0,.116-.275.481.481,0,0,0-.141-.245.692.692,0,0,0-.277-.193.22.22,0,0,0-.218.074.186.186,0,0,0-.047.2,2.216,2.216,0,0,0,.141.319q.193.381.344.74a2.569,2.569,0,0,1,.191.705,1.583,1.583,0,0,1-.067.676,1.9,1.9,0,0,1-1.639,1.2,2.251,2.251,0,0,1-1.349-.6l-.6.6Z" transform="translate(-254.892 -159.555)" fill="#b4e682"/>
      </g>
    </g>
    <path id="Path_2977" data-name="Path 2977" d="M234.291,167,247,148.231s-5.492,2.732-8.029,6.563a44.626,44.626,0,0,0-4.651,10c-.709,1.81-3.034,5.294-3.7,7.71-.976,3.568,4.494,4.459,6.372.192C239.8,166.328,234.291,167,234.291,167Zm1.656,5.042c-.872,1.654-2.347,2.589-3.3,2.09s-1.01-2.245-.14-3.9,2.346-2.59,3.295-2.09S236.818,170.385,235.948,172.039Z" transform="translate(-6.676 -6.424)" fill="#b4b4b4"/>
    <path id="Path_2978" data-name="Path 2978" d="M239.7,182.789a.36.36,0,1,1,0-.509A.36.36,0,0,1,239.7,182.789Z" transform="translate(-11.133 -24.066)" fill="#a0a0a0"/>
  </g>
</svg>
