<svg xmlns="http://www.w3.org/2000/svg" width="32.117" height="40.362" viewBox="0 0 32.117 40.362">
  <g id="experience_icon" data-name="experience icon" transform="translate(-306.248 -282.181)">
    <g id="Group_2454" data-name="Group 2454" transform="translate(306.248 282.181)">
      <path id="Path_2984" data-name="Path 2984" d="M390.763,425.938l-6.832-14.453,9.6-4.538,6.832,14.453-5.9-.062Z" transform="translate(-370.625 -385.576)" fill="#3c9b04"/>
      <path id="Path_2985" data-name="Path 2985" d="M342.226,426.016l6.786-14.356-9.537-4.508-6.786,14.357,5.863-.062Z" transform="translate(-328.16 -385.746)" fill="#41ba03"/>
      <path id="Path_2986" data-name="Path 2986" d="M322.11,282.861c.371,0,.948-.7,1.317-.679s.844.8,1.211.856,1.051-.54,1.411-.453.7.928,1.053,1.043,1.126-.359,1.467-.214.539,1.031.867,1.2,1.17-.169,1.482.03.361,1.1.657,1.329,1.181.026,1.457.273.175,1.149.429,1.419,1.161.22,1.392.51-.017,1.162.189,1.47,1.109.407,1.29.731-.208,1.144-.055,1.481,1.026.585,1.151.934-.393,1.094-.3,1.452.917.746.982,1.111-.568,1.015-.533,1.383.781.886.786,1.257-.728.907-.754,1.277.625,1,.568,1.369-.867.775-.953,1.135.451,1.092.335,1.443-.982.621-1.127.963.265,1.151.093,1.479-1.072.451-1.27.764.072,1.18-.152,1.476-1.131.269-1.379.545-.123,1.175-.393,1.43-1.16.079-1.45.311-.314,1.138-.622,1.345-1.157-.113-1.481.068-.5,1.071-.835,1.224-1.123-.3-1.472-.177-.668.975-1.026,1.07-1.058-.483-1.423-.416-.819.851-1.188.887-.964-.65-1.335-.646-.948.705-1.318.68-.844-.8-1.21-.856-1.051.54-1.411.453-.7-.928-1.053-1.044-1.126.359-1.467.215-.538-1.031-.867-1.2-1.17.169-1.482-.03-.361-1.1-.657-1.328-1.182-.026-1.457-.273-.175-1.15-.429-1.419-1.161-.22-1.392-.509.017-1.163-.19-1.471-1.109-.407-1.289-.731.208-1.144.055-1.481-1.026-.585-1.151-.934.394-1.094.3-1.452-.916-.746-.982-1.11.568-1.015.532-1.384-.781-.886-.786-1.257.728-.907.753-1.277-.624-1-.568-1.369.866-.776.953-1.136-.451-1.092-.335-1.443.983-.622,1.127-.963-.265-1.151-.092-1.48,1.071-.451,1.27-.764-.072-1.179.152-1.475,1.132-.269,1.379-.545.124-1.175.393-1.429,1.16-.079,1.45-.311.314-1.139.622-1.345,1.157.112,1.481-.068.5-1.071.836-1.224,1.123.3,1.471.176.668-.974,1.026-1.07,1.057.483,1.422.417.819-.851,1.188-.887S321.74,282.866,322.11,282.861Z" transform="translate(-306.248 -282.181)" fill="#fdb813"/>
      <path id="Path_2987" data-name="Path 2987" d="M349.817,312.456a13.075,13.075,0,1,1-13.075-13.075A13.075,13.075,0,0,1,349.817,312.456Z" transform="translate(-320.683 -296.435)" fill="#41ba03"/>
      <path id="Path_2988" data-name="Path 2988" d="M353.247,316.781A12.181,12.181,0,1,1,341.065,304.6,12.181,12.181,0,0,1,353.247,316.781Z" transform="translate(-325.269 -300.541)" fill="#41ba03"/>
      <path id="Path_2989" data-name="Path 2989" d="M346.994,308.9a13.811,13.811,0,1,1-13.811-13.811A13.811,13.811,0,0,1,346.994,308.9Z" transform="translate(-317.125 -292.877)" fill="none" stroke="#41ba03" stroke-miterlimit="10" stroke-width="1"/>
      <circle id="Ellipse_123" data-name="Ellipse 123" cx="1" cy="1" r="1" transform="translate(10.307 23.362)" fill="#fdb813"/>
      <circle id="Ellipse_124" data-name="Ellipse 124" cx="1" cy="1" r="1" transform="translate(20.307 23.362)" fill="#fdb813"/>
      <line id="Line_49" data-name="Line 49" x2="6" transform="translate(13.307 24.362)" fill="none" stroke="#fdb813" stroke-width="1"/>
      <path id="Path_3022" data-name="Path 3022" d="M354.924,317.618A13.02,13.02,0,1,1,341.9,304.6,13.019,13.019,0,0,1,354.924,317.618Z" transform="translate(-325.9 -301.541)" fill="none" stroke="#fdb813" stroke-width="0.75"/>
    </g>
    <g id="Group_2455" data-name="Group 2455" transform="translate(316.197 291.668)">
      <text id="_15" data-name="15" transform="translate(5.857 10.875)" fill="#fff" font-size="12" font-family="Montserrat-SemiBold, Montserrat" font-weight="600" letter-spacing="0.06em"><tspan x="-6.15" y="0">15</tspan></text>
    </g>
  </g>
</svg>
