<?xml version="1.0" encoding="UTF-8"?>
<svg enable-background="new 0 0 611.7 403.7" version="1.1" viewBox="0 0 611.7 403.7" xml:space="preserve" xmlns="http://www.w3.org/2000/svg">
<style type="text/css">
	.st0{fill:#EBF3FA;}
	.st1{fill:#F8FBFF;}
	.st2{fill:#C4D9ED;}
	.st3{fill:#D5E7F7;}
	.st4{fill:#DCEAF9;}
	.st5{fill:#ADC9E0;}
	.st6{fill:#0F50C7;}
	.st7{opacity:0.3;fill:#0F50C7;enable-background:new    ;}
	.st8{fill:#0F3CC7;}
	.st9{fill:#0F78C7;}
	.st10{fill:#0F4BC7;}
	.st11{fill:#0F6BC7;}
	.st12{fill:#A2C2DD;}
	.st13{fill:#0F55C7;}
	.st14{opacity:0.3;fill:#0F5AC7;enable-background:new    ;}
	.st15{fill:#41BA03;}
	.st16{fill:#A8D29F;}
	.st17{fill:url(#a);}
	.st18{fill:#FFB27D;}
	.st19{fill:#FFC197;}
	.st20{opacity:0.3;fill:#E2915A;enable-background:new    ;}
	.st21{fill:#418203;}
	.st22{opacity:0.4;fill:#418203;enable-background:new    ;}
	.st23{opacity:0.4;fill:#419603;enable-background:new    ;}
	.st24{fill:#FBECDB;}
	.st25{fill:#FCE6D2;}
	.st26{fill:#41A503;}
	.st27{fill:#E0B477;}
</style>
<path class="st0" d="m566.9 327.3s-28.6 0.1-72.3 0.1c-127.8 0.2-384.6 0.7-429.4 0.4-60.1-0.3-101.7-157.8 10.7-147.1 122.1 11.6 32.8-59.3 104.7-71.1 78.3-12.8 94 36.5 150.2 16.4 76.8-27.5 118.5-18 145.3 2.1 29.3 22.1 40.5 56.8 60.2 68.9 0.4 0.3 0.9 0.5 1.3 0.8 38.2 21.2 55.6 41.7 61.3 60 12.6 40.5-32 69.5-32 69.5z"/>
<path class="st1" d="m536.4 197.1-289.9 49.9-21.7-26.3 251.3-92.5c29.4 22 40.6 56.7 60.3 68.9z"/>
<path class="st1" d="M385,135L98.1,228.7c8.4-6.2-11-40,0.4-51.3L385,135z"/>
<path class="st1" d="m420.3 119.2c-3.8 0-6.9 3.1-6.9 7s3.1 7 6.9 7 6.9-3.1 6.9-7c0-3.8-3.1-7-6.9-7z"/>
<g transform="translate(308.51 334.44)">
	<g transform="translate(297.7)">
		<rect class="st2" x="-275.5" y="-192.3" width="32.8" height="161.2"/>
		<rect class="st3" x="-268.1" y="-192.3" width="32.8" height="161.2"/>
		<rect class="st2" x="-268.1" y="-192.4" width="32.8" height="9.4"/>
		<rect class="st2" x="-268.1" y="-172.1" width="32.8" height="9.4"/>
	</g>
	<g transform="translate(370.25 31.234)">
		<rect class="st2" x="-295.7" y="-200.7" width="32.8" height="138.4"/>
		<rect class="st3" x="-288.3" y="-200.7" width="32.8" height="138.4"/>
		<rect class="st2" x="-288.3" y="-200.8" width="32.8" height="8"/>
		<rect class="st2" x="-288.3" y="-183.4" width="32.8" height="8"/>
		<rect class="st2" x="-288.3" y="-166.1" width="32.8" height="8"/>
		<rect class="st2" x="-288.3" y="-148.8" width="32.8" height="8"/>
		<rect class="st2" x="-288.3" y="-131.4" width="32.8" height="8"/>
		<rect class="st2" x="-288.3" y="-114.1" width="32.8" height="8"/>
	</g>
	<rect class="st4" x="4.6" y="-36" width="13.7" height="20.2"/>
	<path class="st3" d="m8.8-63.6v56.2h-146.3l-37.1-0.4c0-0.1-0.1-0.1-0.1-0.2-0.1-0.1-0.1-0.2-0.2-0.4 0-0.1-0.1-0.1-0.1-0.1-0.1-0.2-0.2-0.4-0.4-0.7-0.1-0.3-0.4-0.7-0.6-1.1-0.8-1.5-1.8-3.5-3-6.1-0.4-0.8-0.8-1.8-1.2-2.7-0.1-0.4-0.4-0.7-0.5-1.2-0.1-0.4-0.4-0.7-0.5-1.2v-0.1c-0.1-0.3-0.2-0.5-0.4-0.8-0.1-0.3-0.2-0.6-0.4-0.9-0.6-1.5-1.2-3.1-1.9-4.8 0-0.1 0-0.1-0.1-0.1-0.4-1.1-0.8-2.3-1.2-3.4-0.2-0.7-0.4-1.3-0.6-2 0-0.1 0-0.1-0.1-0.1l-0.3-0.9c-0.1-0.2-0.1-0.5-0.2-0.7-0.1-0.5-0.3-1-0.5-1.6l-0.6-2.1c-0.3-0.9-0.5-1.9-0.8-2.9-0.1-0.3-0.1-0.6-0.2-0.9l-0.6-2.7c-0.1-0.3-0.1-0.6-0.2-0.9-0.1-0.2-0.1-0.4-0.1-0.6-0.4-1.5-0.6-2.9-0.9-4.5-0.3-1.7-0.6-3.4-0.9-5l-0.6-4.8c-0.2-1.5-0.4-3.1-0.4-4.7-0.3-3.7-0.4-7.5-0.4-11.3 0.1-6.9 0.9-13.9 2.3-20.7 0.1-0.2 0.1-0.5 0.1-0.7 0.4-1.7 0.8-3.4 1.2-5 0.4-1.2 0.7-2.6 1.2-3.8 0.3-0.9 0.6-1.8 0.9-2.8 0.7-2.1 1.6-4.2 2.5-6.3h0.8v-1.8c5.6-11.9 13.2-22.6 22.7-31.7l0.6-0.6h0.6v21.5h18.8v-35.1h20.7v23h4.8v-27.2h20.7"/>
	<rect class="st5" x="-136.5" y="-52.3" width="7.8" height="44.9"/>
	<g transform="translate(264.48 193.15)">
		<rect class="st3" x="-266.2" y="-239.4" width="55.9" height="38.1"/>
		<g transform="translate(3.832 21.969)">
			<g transform="translate(0 19.656)">
				<g transform="translate(35.777)">
					<rect class="st2" x="-256.5" y="-255.6" width="2.9" height="4.1"/>
					<rect class="st2" x="-261.9" y="-255.6" width="2.9" height="4.1"/>
					<rect class="st2" x="-267.2" y="-255.6" width="2.9" height="4.1"/>
					<rect class="st2" x="-272.2" y="-255.6" width="2.9" height="4.1"/>
					<rect class="st2" x="-277.2" y="-255.6" width="2.9" height="4.1"/>
				</g>
				<g transform="translate(0)">
					<rect class="st2" x="-246.6" y="-255.6" width="2.9" height="4.1"/>
					<rect class="st2" x="-252" y="-255.6" width="2.9" height="4.1"/>
					<rect class="st2" x="-257.2" y="-255.6" width="2.9" height="4.1"/>
					<rect class="st2" x="-262.2" y="-255.6" width="2.9" height="4.1"/>
					<rect class="st2" x="-267.3" y="-255.6" width="2.9" height="4.1"/>
				</g>
			</g>
		</g>
	</g>
	<g transform="translate(346.89 193.15)">
		<rect class="st3" x="-289.2" y="-239.4" width="55.9" height="38.1"/>
		<g transform="translate(3.831 21.969)">
			<g transform="translate(0 19.656)">
				<g transform="translate(35.777)">
					<rect class="st2" x="-279.5" y="-255.6" width="2.9" height="4.1"/>
					<rect class="st2" x="-284.9" y="-255.6" width="2.9" height="4.1"/>
					<rect class="st2" x="-290.2" y="-255.6" width="2.9" height="4.1"/>
					<rect class="st2" x="-295.1" y="-255.6" width="2.9" height="4.1"/>
					<rect class="st2" x="-300.2" y="-255.6" width="2.9" height="4.1"/>
				</g>
				<g transform="translate(0)">
					<rect class="st2" x="-269.5" y="-255.6" width="2.9" height="4.1"/>
					<rect class="st2" x="-274.9" y="-255.6" width="2.9" height="4.1"/>
					<rect class="st2" x="-280.2" y="-255.6" width="2.9" height="4.1"/>
					<rect class="st2" x="-285.2" y="-255.6" width="2.9" height="4.1"/>
					<rect class="st2" x="-290.2" y="-255.6" width="2.9" height="4.1"/>
				</g>
			</g>
		</g>
	</g>
	<g transform="translate(509.17 193.15)">
		<rect class="st3" x="-334.4" y="-239.4" width="55.9" height="38.1"/>
		<rect class="st2" x="-334.4" y="-244.4" width="55.9" height="12.3"/>
		<g transform="translate(3.832 21.969)">
			<g transform="translate(0)">
				<rect class="st2" x="-314.7" y="-250.3" width="2.9" height="4.1"/>
				<rect class="st2" x="-320.1" y="-250.3" width="2.9" height="4.1"/>
				<rect class="st2" x="-325.4" y="-250.3" width="2.9" height="4.1"/>
				<rect class="st2" x="-330.4" y="-250.3" width="2.9" height="4.1"/>
				<rect class="st2" x="-335.4" y="-250.3" width="2.9" height="4.1"/>
			</g>
			<g transform="translate(0 9.904)">
				<g transform="translate(0)">
					<rect class="st2" x="-320.1" y="-253" width="2.9" height="4.1"/>
					<rect class="st2" x="-325.4" y="-253" width="2.9" height="4.1"/>
					<rect class="st2" x="-330.4" y="-253" width="2.9" height="4.1"/>
					<rect class="st2" x="-335.4" y="-253" width="2.9" height="4.1"/>
				</g>
			</g>
			<g transform="translate(0 19.656)">
				<g transform="translate(0)">
					<rect class="st2" x="-325.4" y="-255.6" width="2.9" height="4.1"/>
					<rect class="st2" x="-330.4" y="-255.6" width="2.9" height="4.1"/>
					<rect class="st2" x="-335.4" y="-255.6" width="2.9" height="4.1"/>
				</g>
			</g>
		</g>
		<rect class="st5" x="-285.1" y="-240.9" width="2.4" height="4.2"/>
		<rect class="st5" x="-309" y="-240.9" width="2.4" height="4.2"/>
		<rect class="st5" x="-328.2" y="-240.9" width="2.4" height="4.2"/>
	</g>
</g>
<g transform="translate(309.69 372.38)">
	<g transform="translate(376.11 75.409)">
		<path class="st6" d="m-283.1-216.5v11.3c0 3.5-2.8 6.4-6.3 6.4h-2c-3.5 0-6.3-2.8-6.3-6.4v-11.3c0-1.2 0.3-2.3 0.9-3.3 1.2-1.9 3.2-3.1 5.3-3.1h2c3.6 0 6.4 2.8 6.4 6.4z"/>
		<path class="st7" d="m-283.8-202.4c-1.1 2.1-3.2 3.5-5.6 3.5h-2c-3.5 0-6.3-2.8-6.3-6.4v-11.3c0-1.2 0.3-2.3 0.9-3.3 0.2 0.8 2.9 16.3 13 17.5z"/>
	</g>
	<path class="st8" d="m-6.2-58.3h30.9v-31.6h-32.3l1.4 31.6z"/>
	<path class="st9" d="m91.3-125.1-152.1 3.8v-81.2h99.9c9.5 0 18.3 5.4 22.6 14l6.6 12.9 23 50.5z"/>
	<g transform="translate(263.93 165.71)">
		<path class="st10" d="m-258.9-229.2c0 8.6 4.4 18 4.4 18h7.4c6.5 0 11.8-8.1 11.8-18s-12.7-18-19.2-18c-6.6 0-4.4 8.1-4.4 18z"/>
		<ellipse class="st11" cx="-254.6" cy="-229.2" rx="11.8" ry="18"/>
		<ellipse class="st8" cx="-254.5" cy="-229.2" rx="8.9" ry="13.6"/>
	</g>
	<g transform="translate(381.94 165.71)">
		<path class="st10" d="m-291.8-229.2c0 8.6 4.4 18 4.4 18h7.4c6.5 0 11.8-8.1 11.8-18s-12.7-18-19.2-18c-6.6 0-4.4 8.1-4.4 18z"/>
		<path class="st11" d="m-299.2-229.2c0 10 5.3 18 11.8 18s11.8-8.1 11.8-18-5.3-18-11.8-18c-6.6 0-11.8 8.1-11.8 18z"/>
		<path class="st8" d="m-296.2-229.2c0 7.5 4 13.6 8.9 13.6s8.9-6.1 8.9-13.6-4-13.6-8.9-13.6-8.9 6.1-8.9 13.6z"/>
	</g>
	<g transform="translate(110.94 165.71)">
		<path class="st10" d="m-216.3-229.2c0 8.6 4.4 18 4.4 18h7.4c6.5 0 11.8-8.1 11.8-18s-12.7-18-19.2-18-4.4 8.1-4.4 18z"/>
		<path class="st11" d="m-223.8-229.2c0 10 5.3 18 11.8 18s11.8-8.1 11.8-18-5.3-18-11.8-18-11.8 8.1-11.8 18z"/>
		<path class="st8" d="m-220.7-229.2c0 7.5 4 13.6 8.9 13.6s8.9-6.1 8.9-13.6-4-13.6-8.9-13.6-8.9 6.1-8.9 13.6z"/>
	</g>
	<path class="st9" d="m125.4-72c0 7.5-6 13.7-13.4 13.7h-87.2c0.3-1.5 0.4-3.1 0.4-4.6 0-11.7-6.9-21.2-15.4-21.2s-15.4 9.5-15.4 21.2c0 1.5 0.1 3.1 0.4 4.6h-51.2s-2-23-1.8-34.6c0.2-10.1 0.2-29.7-0.4-34.6 0-0.7 49.1-0.8 61.5-0.9h2.8l0.1 0.1 0.2 0.1c2.3 1.6 15.1 10.7 23.1 16.1 7 4.7 58.8 6.6 79.1 7.2 5.1 0.1 8.2 0.2 8.2 0.2 2 2.3 3.8 4.7 5.3 7.5 2.2 3.9 3.5 8.5 3.6 13v10.4c0.1 0.6 0.1 1.3 0.1 1.8z"/>
	<path class="st12" d="m79.1-128.4h-68.3c-1.6 0-3-0.9-3.7-2.4l-16.9-38.1c-0.4-0.9 0-2 0.9-2.5 0.2-0.1 0.5-0.1 0.7-0.1h72.1c1.6 0 3 0.9 3.7 2.4l12.1 28.1 3 7c0.9 2-0.1 4.5-2.1 5.3-0.4 0.3-1 0.3-1.5 0.3z"/>
	<path class="st6" d="m47.2-73.8c0 1.2-0.1 2.3-0.1 3.3-0.5 6.6-7.1 12.1-7.1 12.1h-15.3c0.9-5.2 0.2-10.6-1.8-15.5-2.7-6.1-7.6-10.3-13.3-10.3-5.6 0-10.5 4.1-13.3 10.3-2 4.9-2.7 10.2-1.8 15.5h-55.2v-144.2h44.4v28.6s13.3 31.6 19.3 45.6c1.5 3.5 2.5 5.8 2.8 6.4 1.3 2.6 32.2 18.4 37.4 23.1 2.8 2.6 4.2 16.1 4 25.1z"/>
	<path class="st12" d="m-15.8-164.7 14.6 36.3h-25s-5.1-0.9-5.8-11.5c-0.7-11.3-0.7-30.8-0.7-30.8l11-0.1c4.1 0.7 4.7 3.1 5.9 6.1z"/>
	<path class="st9" d="m116.5-104.7h-81l-29.6-23.5-0.1-0.1h81.7l23.2 18.9 5.8 4.7z"/>
	<path class="st2" d="m121.8-97.2c-0.4 0.7-1 1.2-1.7 1.4l-11.3 2.1c-0.9 0.2-1.7-1.5-1.4-3.2l1.1-7.7v-0.2l0.2-1.6c0.2-1.4 0.8-2.4 1.5-2.7l0.6-0.2 5.8 4.7c1.9 2.2 3.7 4.7 5.2 7.4z"/>
	<path class="st6" d="m46-90.8-7.3-0.7c-2.5-0.2-4.6-2.2-5.1-4.7l-1.7-9.4c-0.1-0.1-0.1-0.3 0-0.4 5.2 3.1 9.6 5.8 11.3 7.2 1.2 1.1 2.1 4.1 2.8 8z"/>
	<path class="st2" d="m59.9-89.4-13.8-1.4-7.3-0.7c-2.5-0.2-4.6-2.2-5.1-4.7l-1.7-9.4c-0.1-0.1-0.1-0.3 0-0.4-0.1-1.8 1.3-3.1 3-3.2 0.2 0 0.5 0 0.7 0.1l21.6 4.5c1.4 0.3 2.5 1.3 2.8 2.7l2.5 9.5c0.4 1.4-0.4 2.8-1.8 3.1-0.3-0.1-0.6-0.1-0.9-0.1z"/>
	<path class="st9" d="m68.2-175.7h-84.4c-0.4-4-1.2-7.9-2.5-11.7-1.9-5.5-5.1-11.7-10.8-15.2h69c11.3 0 21.2 6.1 25.2 15.2 0.2 0.4 0.4 0.7 0.5 1.1 1.3 3.4 2.3 7 3 10.6z"/>
	<path class="st12" d="m46-90.8-7.4-0.7c-2.5-0.2-4.6-2.2-5.1-4.7l-1.7-9.4c-0.1-0.1-0.1-0.3 0-0.4 5.2 3.1 9.6 5.8 11.3 7.3 1.3 1 2.2 4 2.9 7.9z"/>
	<path class="st7" d="m125.4-72c0 7.5-6.3 13.7-14.1 13.7h-86.5c0.9-5.2 0.2-10.6-1.8-15.5h102.4v1.8z"/>
	<path class="st7" d="m-5.8-62.9c0 1.5 0.1 3.1 0.4 4.6h-55.3v-15.5h57.1c-1.5 3.5-2.2 7.2-2.2 10.9z"/>
	<path class="st7" d="m68.4-104h33.1c1.1 0 1.9 1.5 1.7 3.1l-1.2 11.7c-0.1 1.7-1.2 3-2.2 3h-27.3c-1.7 0-3.3-1.8-3.8-4.3l-1.9-9.9c-0.4-1.9 0.4-3.6 1.6-3.6z"/>
	<path class="st2" d="m79.8-141c-39-2-65.5-23.2-73.4-30.5h57.7c1.6 0 3 0.9 3.7 2.4l12 28.1z"/>
	<rect class="st13" x="-192.9" y="-202.6" width="147.8" height="144.3"/>
	<path class="st10" d="m-8.7-147s1.3 14.7-5.9 18.7h13.4l-7.5-18.7z"/>
	<path class="st10" d="m-6.7-137.1s-3-2.2-3.2-3.9v10.2h4l-0.8-6.3z"/>
	<g transform="translate(233.32 75.409)">
		<path class="st9" d="m-243.3-216.5v11.3c0 3.5-2.8 6.4-6.3 6.4h-2c-3.5 0-6.3-2.8-6.3-6.4v-11.3c0-1.2 0.3-2.3 0.9-3.3 1.2-1.9 3.2-3.1 5.3-3.1h2c3.6 0 6.4 2.8 6.4 6.4z"/>
		<path class="st7" d="m-244-202.4c-1.1 2.1-3.2 3.5-5.6 3.5h-2c-3.5 0-6.3-2.8-6.3-6.4v-11.3c0-1.2 0.3-2.3 0.9-3.3 0.2 0.8 2.8 16.3 13 17.5z"/>
	</g>
	<path class="st8" d="m-144.6-58.3h-36.4c-0.8-3.3-3.1-27 17.3-27 18.6 0.1 19.9 21.6 19.1 27z"/>
	<g transform="translate(22.022 165.71)">
		<path class="st10" d="m-191.6-229.2c0 8.6 4.4 18 4.4 18h7.4c6.5 0 11.8-8.1 11.8-18s-12.7-18-19.2-18-4.4 8.1-4.4 18z"/>
		<path class="st11" d="m-199-229.2c0 10 5.3 18 11.8 18s11.8-8.1 11.8-18-5.3-18-11.8-18-11.8 8.1-11.8 18z"/>
		<path class="st8" d="m-196-229.2c0 7.5 4 13.6 8.9 13.6s8.9-6.1 8.9-13.6-4-13.6-8.9-13.6-8.9 6.1-8.9 13.6z"/>
	</g>
	<path class="st14" d="m68.2-175.7h-84.4c-0.4-4-1.2-7.9-2.5-11.7h83.3c0.2 0.4 0.4 0.7 0.5 1.1 1.4 3.4 2.4 7 3.1 10.6z"/>
</g>
<path class="st15" d="m306.1 80.5c-15.2 0-27.6 12.5-27.6 28 0 15.4 27.6 49.8 27.6 49.8s27.6-34.3 27.6-49.8c0-15.4-12.4-28-27.6-28zm0 40.8c-7.1 0-12.9-5.8-12.9-13.1s5.8-13.1 12.9-13.1 12.9 5.8 12.9 13.1c0 7.2-5.8 13.1-12.9 13.1z"/>
<path class="st16" d="m566.9 327.3s-28.6 0.1-72.3 0.1c-0.6-0.3-1-0.4-1-0.4s4.9-27.3 30.5-33.2c25.6-5.8 25.9-30.9 41.9-35.9 13.1-4.1 24.9 1.3 32.9-0.1 12.6 40.5-32 69.5-32 69.5z"/>
<linearGradient id="a" x1="-1506.8" x2="-1507.5" y1="399.01" y2="399.01" gradientTransform="matrix(804.15 0 0 3.11 1212295 -912.73)" gradientUnits="userSpaceOnUse">
	<stop stop-color="#0F6BC7" offset="0"/>
	<stop stop-color="#41BA03" offset="1"/>
</linearGradient>
<path class="st17" d="m30 327h577.9c0.6 0 1.2 0.5 1.2 1.2s-0.5 1.2-1.2 1.2h-577.9c-0.6 0-1.2-0.5-1.2-1.2 0.1-0.6 0.6-1.2 1.2-1.2z"/>
<g transform="translate(238.65 267.97)">
	<g transform="translate(0 73.384)">
		<path class="st18" d="m-51.6-113.7s-0.4 0.4-0.9 1c-2.2 2.4-8.2 9.1-14.8 16.6-1.6 1.8-3.2 3.7-4.8 5.5-2.4 2.8-4.8 5.6-6.9 8.3-0.6 0.8-1.3 1.6-1.9 2.3-1.3 1.6-2.5 3.2-3.6 4.7-3.3 4.5-5.7 8-6.1 9.9-2.7 11.3 2.5 43.3 3.9 51.1h-73.4c2.2-16.2 5.3-39.1 5.7-42.6 0.6-5.5-18.3-29.1-18.6-46.2-0.3-17.3 10.9-29.5 12.7-46.5 0.9-8-0.1-18.3-1.4-27.2-0.6-4.7-1.4-8.9-2-12.1-0.3-1.5 0.1-2.9 1.2-4 0.2-0.3 0.5-0.5 0.9-0.7 1.2-0.8 2.8-0.9 4.1-0.4 4.2 1.8 8.9 6.6 10 18.6 0 0 3.5 2.3 9.2 5.9 2.3 1.5 5 3.1 7.9 5 2.2 1.5 4.7 3 7.2 4.6 0.1 0.1 0.4 0.2 0.5 0.3 1 0.7 2 1.3 3.1 2 0.4 0.2 0.7 0.5 1.2 0.7 0.6 0.4 1.4 0.9 2.1 1.3 0.1 0.1 0.3 0.2 0.4 0.3 4.6 3 9.5 6.1 14.3 9.2 0.8 0.4 1.6 1 2.4 1.5 0.6 0.4 1.2 0.8 1.9 1.2l2.4 1.5c5.5 3.5 10.9 7 15.9 10.2l2.4 1.5 1.8 1.2c0.8 0.5 1.6 1 2.3 1.5 9.7 6.1 17.1 11 19.8 12.7 0.6 0.9 1.1 1.1 1.1 1.1z"/>
		<path class="st19" d="m-158-180.9c0.1 2-1.3 3.7-3.2 4.1h-0.5c-0.6-4.7-1.4-8.9-2-12.1-0.3-1.5-0.7-3.1-0.6-4.7 3.2-1.6 4.4 2.3 4.8 3.8 0.7 3 1.2 5.9 1.5 8.9z"/>
	</g>
	<path class="st20" d="m-72.2-17.2c-2.4 2.8-4.8 5.6-6.9 8.3-0.6 0.8-1.3 1.6-1.9 2.3-1.3 1.6-2.5 3.2-3.6 4.7-3.3 4.5-5.7 8-6.1 9.8-2.7 11.3 2.5 43.3 3.9 51.1h-47.7c8.8-13.3 10-36.8 10-47.6 0-2.7 0.9-6 2.3-9.4 2.7-6.6 7.2-14.1 11.4-20.2 3.9-5.7 7.4-10.3 8.9-12.1 0.4-0.5 0.7-0.9 0.7-0.9l26.3-1.1 0.4 1.9 0.3 1.6 1.2 6.6 0.8 5z"/>
	<g transform="translate(26.997)">
		<path class="st21" d="m-80.7-5.1-78.7 8.3c-2.5 0.2-4.7-1.5-5-4.1l-16.2-159.4c-0.2-2.5 1.5-4.7 4-5l78.7-8.3c2.5-0.2 4.7 1.5 5 4.1l16.2 159.3c0.4 2.6-1.4 4.9-4 5.1z"/>
		<path class="st15" d="m-72.2-6-78.7 8.3c-2.5 0.2-4.7-1.5-5-4.1l-16.2-159.4c-0.2-2.5 1.5-4.7 4-5l78.7-8.3c2.5-0.2 4.7 1.5 5 4.1l16.2 159.3c0.3 2.6-1.5 4.9-4 5.1z"/>
		<g transform="translate(52.332 12.551)">
			<path class="st22" d="m-166.5-177c-0.1-0.5-0.5-0.9-1-0.8l-22.8 2.4c-0.5 0.1-0.9 0.4-0.8 0.9s0.4 0.9 0.9 0.8h0.1l22.8-2.4c0.5 0 0.8-0.4 0.8-0.9z"/>
			<path class="st22" d="m-194.4-175c-0.5 0.1-0.9 0.5-0.8 1s0.5 0.9 1 0.8 0.9-0.5 0.8-1c0-0.5-0.5-0.9-1-0.8z"/>
		</g>
		<path class="st23" d="m-105.6-11.9c-0.4-3.2-3.2-5.6-6.3-5.2-3.2 0.4-5.5 3.2-5.1 6.4s3.2 5.6 6.3 5.2c3.1-0.3 5.4-3.2 5.1-6.4z"/>
		<polygon class="st24" points="-163.8 -153.1 -90.9 -160.7 -77 -24.5 -149.9 -16.8"/>
		<polygon class="st25" points="-151.5 -32.7 -78.6 -40.3 -77 -24.4 -149.9 -16.8"/>
		<g transform="translate(71.53 190.82)">
			<path class="st26" d="m-199.6-220.3 37.6-3.9c0.4-0.1 0.7-0.4 0.7-0.9-0.1-0.4-0.4-0.7-0.9-0.7l-37.6 3.9c-0.4 0.1-0.7 0.4-0.7 0.9 0.1 0.4 0.4 0.8 0.9 0.7z"/>
			<path class="st26" d="m-161-221.6c-0.1-0.4-0.4-0.7-0.9-0.7l-37.6 3.9c-0.4 0.1-0.7 0.4-0.7 0.9 0.1 0.4 0.4 0.7 0.9 0.7l37.6-3.9c0.5-0.1 0.8-0.5 0.7-0.9z"/>
		</g>
		<path class="st21" d="m-134-32.9c-0.1-0.5-0.1-1-0.4-1.5-0.9-2.3-3.1-3.6-5.5-3.4s-4.3 2-4.7 4.4c-0.1 0.5-0.1 1-0.1 1.6 0.3 3 6.3 9.1 6.3 9.1s4.7-7.2 4.4-10.2zm-5.1 3c-1.4 0.1-2.6-0.9-2.7-2.3-0.1-0.5 0.1-1.1 0.4-1.5 0.4-0.7 1.1-1.2 1.9-1.2 0.8-0.1 1.6 0.2 2.1 0.8 0.9 1 0.9 2.6-0.1 3.6-0.5 0.3-1 0.6-1.6 0.6z"/>
		<g transform="translate(37.458 47.5)">
			<polygon class="st21" points="-191 -181.4 -149 -185.8 -145.4 -150.7 -187.5 -146.3"/>
			<polygon class="st26" points="-170 -183.6 -134.6 -187.3 -131 -152.2 -166.4 -148.5"/>
			<path class="st23" d="m-131.9-161 0.9 8.9-35.4 3.7-3.6-35.1 38.1 22.5z"/>
			<path class="st26" d="m-188.3-155.2 6.6-0.7-0.8-1.8 0.4-1.4-6.6 0.7 0.4 3.2z"/>
			<path class="st26" d="m-189.7-169.3 6.6-0.7-0.8-1.8 0.4-1.4-6.6 0.7 0.4 3.2z"/>
			<path class="st23" d="m-133.4-175.2-6.6 0.7 0.4-2-0.8-1.3 6.6-0.7 0.4 3.3z"/>
		</g>
		<g transform="translate(41.677 110.7)">
			<g transform="translate(0 5.626)">
				<path class="st27" d="m-185.3-205.1c-0.2-0.1-0.4-0.3-0.7-0.4-0.7-0.3-1.4-0.4-2.2-0.3-1.8 0.2-3.2 1.5-3.8 3.1-0.2 0.6-0.3 1.2-0.2 1.8 0.3 2.5 2.5 4.3 4.9 4 0.9-0.1 1.9-0.5 2.5-1.2 1.1-0.9 1.6-2.3 1.4-3.8 0-1.2-0.8-2.4-1.9-3.2zm0.2 6.9c-0.6 0.5-1.4 0.9-2.2 0.9-2.2 0.2-4.1-1.4-4.3-3.6-0.1-0.5 0-1 0.1-1.5 0.4-1.6 1.7-2.8 3.4-2.9 0.6-0.1 1.2 0 1.8 0.3 0.3 0.1 0.5 0.2 0.8 0.4 1.8 1.2 2.3 3.7 1.1 5.6-0.2 0.3-0.4 0.5-0.7 0.8z"/>
			</g>
			<path class="st21" d="m-190.3-197.7 2.8 4.5 3.8-11-4.1 7.8-2.5-1.3z"/>
			<g transform="translate(2.357 22.712)">
				<g transform="translate(0 5.622)">
					<path class="st27" d="m-183.9-207.8c-0.1-1.4-0.9-2.6-2-3.4-0.2-0.1-0.4-0.3-0.7-0.4-0.7-0.3-1.4-0.4-2.2-0.3-2.5 0.3-4.3 2.5-4 5s2.5 4.3 4.9 4c2.4-0.2 4.2-2.4 4-4.9zm-4 4.4c-2.2 0.2-4.1-1.3-4.3-3.5s1.3-4.2 3.5-4.4h0.1c0.6-0.1 1.2 0 1.8 0.3 0.3 0.1 0.5 0.2 0.8 0.4 0.9 0.7 1.6 1.8 1.7 2.9 0 2.1-1.5 4-3.6 4.3z"/>
				</g>
				<path class="st21" d="m-191-203.8 2.8 4.5 3.8-11-4.1 7.8-2.5-1.3z"/>
			</g>
			<g transform="translate(4.712 51.035)">
				<path class="st27" d="m-184.6-213.9c-0.3-2.5-2.5-4.3-4.9-4-2.5 0.3-4.3 2.5-4 5s2.5 4.3 4.9 4c2.5-0.4 4.3-2.6 4-5zm-4 4.4c-2.2 0.2-4.1-1.4-4.3-3.6s1.4-4.2 3.5-4.4c2.2-0.2 4.1 1.4 4.3 3.6s-1.3 4.1-3.5 4.4z"/>
			</g>
			<g transform="translate(20.181 .851)">
				<path class="st27" d="m-154.8-202.8-42.1 4.4c-0.4 0.1-0.8-0.3-0.9-0.7v-0.1c-0.1-0.4 0.3-0.8 0.7-0.9l42.1-4.4c0.5-0.1 0.8 0.3 0.9 0.7v0.1c0 0.5-0.4 0.9-0.7 0.9z"/>
				<path class="st27" d="m-154.5-199.7-42.1 4.4c-0.4 0.1-0.8-0.3-0.9-0.7v-0.1c-0.1-0.4 0.3-0.8 0.7-0.9l42.1-4.4c0.4-0.1 0.8 0.3 0.9 0.7v0.1c0 0.5-0.3 0.9-0.7 0.9z"/>
			</g>
			<g transform="translate(22.532 23.601)">
				<path class="st27" d="m-155.5-208.9-42.1 4.4c-0.4 0.1-0.8-0.3-0.9-0.7v-0.1c-0.1-0.4 0.3-0.8 0.7-0.9l42.1-4.4c0.4-0.1 0.8 0.3 0.9 0.7v0.1c0 0.5-0.3 0.8-0.7 0.9z"/>
				<path class="st27" d="m-155.2-205.8-42 4.4c-0.4 0.1-0.8-0.3-0.9-0.7v-0.1c-0.1-0.4 0.3-0.8 0.7-0.9l42.1-4.4c0.4-0.1 0.8 0.3 0.9 0.7v0.1c-0.1 0.5-0.4 0.9-0.8 0.9z"/>
			</g>
			<g transform="translate(24.884 46.351)">
				<path class="st27" d="m-156.1-215-42.1 4.4c-0.4 0.1-0.8-0.3-0.9-0.7v-0.1c-0.1-0.4 0.3-0.8 0.7-0.9l42.1-4.5c0.4-0.1 0.8 0.3 0.9 0.7v0.1c0 0.5-0.4 0.9-0.7 1z"/>
				<path class="st27" d="m-155.8-211.9-42.1 4.4c-0.4 0.1-0.8-0.3-0.9-0.7v-0.1c-0.1-0.4 0.3-0.8 0.7-0.9l42.1-4.4c0.4-0.1 0.8 0.3 0.9 0.7v0.1c0 0.5-0.3 0.9-0.7 0.9z"/>
			</g>
		</g>
	</g>
	<g transform="translate(143.74 27.408)">
		<path class="st18" d="m-198.9-175.6s11.4-10.3 18.9-4.5-16.8 24.7-16.8 24.7l-2.1-20.2z"/>
		<path class="st18" d="m-185.7-133.4-13.3 7.5c-3.9 2.1-8.7 0.7-10.9-3.1l-2.2-3.9c-2.1-3.9-0.7-8.8 3.1-11l13.3-7.5c3.9-2.1 8.7-0.7 10.9 3.1l2.2 3.9c2.2 3.9 0.8 8.8-3.1 11z"/>
		<path class="st18" d="m-183.4-110.9-13.3 7.5c-3.9 2.1-8.7 0.7-10.9-3.1l-2.2-3.9c-2.1-3.9-0.7-8.8 3.1-11l13.3-7.5c3.9-2.1 8.7-0.7 10.9 3.1l2.2 3.9c2.2 3.9 0.8 8.8-3.1 11z"/>
		<path class="st18" d="m-181.1-89-13.3 7.5c-3.9 2.1-8.7 0.7-10.9-3.1l-2.2-3.9c-2.1-3.9-0.7-8.8 3.1-11l13.3-7.5c3.9-2.1 8.7-0.7 10.9 3.1l2.2 3.9c2.1 3.9 0.7 8.8-3.1 11z"/>
		<path class="st19" d="m-211.4-138.4c2.3-1.8 4.8-3.4 7.4-4.8 1.8-0.9 3.9-0.2 4.9 1.5l2.9 4.9c1 1.7 0.5 3.9-1.2 5-2.5 1.6-5.2 3-7.9 4.2-2.1 0.9-4.5 0.1-5.6-1.9l-1.7-3.1c-1-2-0.5-4.5 1.2-5.8z"/>
		<path class="st19" d="m-209-115.3c2.3-1.8 4.8-3.4 7.4-4.8 1.8-0.9 3.9-0.2 4.9 1.5l2.9 4.9c1 1.7 0.5 3.9-1.2 5-2.5 1.6-5.2 3-7.9 4.2-2.1 0.9-4.5 0.1-5.6-1.9l-1.7-3.1c-1-2-0.5-4.5 1.2-5.8z"/>
		<path class="st19" d="m-206.3-93.6c2.3-1.8 4.8-3.4 7.4-4.8 1.8-0.9 3.9-0.2 4.9 1.5l2.9 4.9c1 1.7 0.5 3.9-1.2 5-2.5 1.6-5.2 3-7.9 4.2-2.1 0.9-4.5 0.1-5.6-1.9l-1.7-3.1c-1.1-2-0.6-4.5 1.2-5.8z"/>
	</g>
</g>
<g transform="translate(399.77 235.06)">
	<path class="st21" d="m-194.1-145.7-23.8-12.4 21.3 0.4-1.6 3.8 4.6 4.7-0.5 3.5z"/>
	<path class="st26" d="m-217.9-158.1 24.6 3.6 18.3 11.8-42.9-15.4z"/>
	<path class="st26" d="m-196.7-157.7-21.3-0.4 22-7.5-0.7 7.9z"/>
</g>
</svg>
