<?xml version="1.0" encoding="UTF-8"?>
<svg viewBox="0 0 63.009 74.666" xmlns="http://www.w3.org/2000/svg">
<path transform="translate(-3341.5 -2548.6)" d="m3374 2589.1v4.847h-7.078a1.093 1.093 0 0 1-1.1-1.092v-3.687a0.4 0.4 0 0 1 0-0.068z" fill="#f9ef75"/>
<path transform="translate(-3341.5 -2539.7)" d="m3382.3 2580.1h-16.347a1.09 1.09 0 0 1 1.093-1.025h14.161a1.091 1.091 0 0 1 1.093 1.025z" fill="#fbf4a4"/>
<path transform="translate(-3412.9 -2548.6)" d="m3453.6 2589.2v3.687a1.094 1.094 0 0 1-1.1 1.092h-7.084v-4.847h8.177a0.335 0.335 0 0 1 7e-3 0.068z" fill="#f8da47"/>
<path transform="translate(-3313.8 -2599.9)" d="M3343.156,2646.24v4.847h-7.078a1.093,1.093,0,0,1-1.1-1.092v-3.687a.3.3,0,0,1,.005-.068Z" fill="#f9ef75"/>
<path transform="translate(-3313.8 -2591)" d="m3351.4 2637.3h-16.348a1.089 1.089 0 0 1 1.093-1.024h14.161a1.09 1.09 0 0 1 1.094 1.024z" fill="#fbf4a4"/>
<path transform="translate(-3385.1 -2599.9)" d="m3422.7 2646.3v3.692a1.094 1.094 0 0 1-1.1 1.092h-7.083v-4.847h8.176a0.3 0.3 0 0 1 7e-3 0.063z" fill="#f8da47"/>
<path transform="translate(-3329.6 -2651.2)" d="M3360.806,2703.39v4.847h-7.079a1.094,1.094,0,0,1-1.1-1.092v-3.687a.373.373,0,0,1,0-.068Z" fill="#f9ef75"/>
<path transform="translate(-3329.6 -2642.2)" d="m3369 2694.4h-16.348a1.089 1.089 0 0 1 1.093-1.024h14.161a1.087 1.087 0 0 1 1.094 1.024z" fill="#fbf4a4"/>
<path transform="translate(-3401 -2651.2)" d="m3440.4 2703.5v3.687a1.1 1.1 0 0 1-1.1 1.092h-7.081v-4.847h8.175a0.334 0.334 0 0 1 6e-3 0.068z" fill="#f8da47"/>
<path transform="translate(-3329.6 -2702.5)" d="m3360.8 2760.5v4.847h-7.079a1.1 1.1 0 0 1-1.1-1.093v-3.686a0.373 0.373 0 0 1 0-0.068z" fill="#f9ef75"/>
<path transform="translate(-3329.6 -2693.5)" d="m3369 2751.6h-16.348a1.09 1.09 0 0 1 1.093-1.024h14.161a1.088 1.088 0 0 1 1.094 1.024z" fill="#fbf4a4"/>
<path transform="translate(-3401 -2702.5)" d="m3440.4 2760.6v3.686a1.1 1.1 0 0 1-1.1 1.093h-7.081v-4.847h8.175a0.334 0.334 0 0 1 6e-3 0.068z" fill="#f8da47"/>
<path transform="translate(-3329.6 -2753.7)" d="M3360.806,2817.68v4.847h-7.079a1.094,1.094,0,0,1-1.1-1.092v-3.687a.377.377,0,0,1,0-.069Z" fill="#f9ef75"/>
<path transform="translate(-3329.6 -2744.8)" d="m3369 2808.7h-16.348a1.089 1.089 0 0 1 1.093-1.024h14.161a1.089 1.089 0 0 1 1.094 1.024z" fill="#fbf4a4"/>
<path transform="translate(-3401 -2753.7)" d="m3440.4 2817.7v3.686a1.094 1.094 0 0 1-1.1 1.092h-7.081v-4.847h8.175a0.35 0.35 0 0 1 6e-3 0.069z" fill="#f8da47"/>
<path transform="translate(-3329.6 -2805)" d="M3360.806,2874.83v4.847h-7.079a1.094,1.094,0,0,1-1.1-1.092V2874.9a.378.378,0,0,1,0-.069Z" fill="#f9ef75"/>
<path transform="translate(-3329.6 -2796.1)" d="m3369 2865.9h-16.348a1.09 1.09 0 0 1 1.093-1.024h14.161a1.088 1.088 0 0 1 1.094 1.024z" fill="#fbf4a4"/>
<path transform="translate(-3401 -2805)" d="m3440.4 2874.9v3.686a1.1 1.1 0 0 1-1.1 1.093h-7.081v-4.847h8.175a0.347 0.347 0 0 1 6e-3 0.068z" fill="#f8da47"/>
<path transform="translate(-3128.5 -2651.2)" d="M3136.676,2703.39v4.847H3129.6a1.094,1.094,0,0,1-1.1-1.092v-3.687a.422.422,0,0,1,0-.068Z" fill="#f9ef75"/>
<path transform="translate(-3128.5 -2642.2)" d="m3144.9 2694.4h-16.347a1.089 1.089 0 0 1 1.092-1.024h14.161a1.088 1.088 0 0 1 1.094 1.024z" fill="#fbf4a4"/>
<path transform="translate(-3199.9 -2651.2)" d="m3216.2 2703.5v3.687a1.094 1.094 0 0 1-1.1 1.092h-7.082v-4.847h8.176a0.4 0.4 0 0 1 6e-3 0.068z" fill="#f8da47"/>
<path transform="translate(-3128.5 -2702.5)" d="m3136.7 2760.5v4.847h-7.076a1.1 1.1 0 0 1-1.1-1.093v-3.686a0.422 0.422 0 0 1 0-0.068z" fill="#f9ef75"/>
<path transform="translate(-3128.5 -2693.5)" d="m3144.9 2751.6h-16.347a1.089 1.089 0 0 1 1.092-1.024h14.161a1.088 1.088 0 0 1 1.094 1.024z" fill="#fbf4a4"/>
<path transform="translate(-3199.9 -2702.5)" d="m3216.2 2760.6v3.686a1.1 1.1 0 0 1-1.1 1.093h-7.082v-4.847h8.176a0.4 0.4 0 0 1 6e-3 0.068z" fill="#f8da47"/>
<path transform="translate(-3128.5 -2753.7)" d="M3136.676,2817.68v4.847H3129.6a1.094,1.094,0,0,1-1.1-1.092v-3.687a.426.426,0,0,1,0-.069Z" fill="#f9ef75"/>
<path transform="translate(-3128.5 -2744.8)" d="m3144.9 2808.7h-16.347a1.089 1.089 0 0 1 1.092-1.024h14.161a1.089 1.089 0 0 1 1.094 1.024z" fill="#fbf4a4"/>
<path transform="translate(-3199.9 -2753.7)" d="m3216.2 2817.7v3.686a1.094 1.094 0 0 1-1.1 1.092h-7.082v-4.847h8.176a0.414 0.414 0 0 1 6e-3 0.069z" fill="#f8da47"/>
<path transform="translate(-3128.5 -2805)" d="M3136.676,2874.83v4.847H3129.6a1.094,1.094,0,0,1-1.1-1.092V2874.9a.428.428,0,0,1,0-.069Z" fill="#f9ef75"/>
<path transform="translate(-3128.5 -2796.1)" d="m3144.9 2865.9h-16.347a1.089 1.089 0 0 1 1.092-1.024h14.161a1.089 1.089 0 0 1 1.094 1.024z" fill="#fbf4a4"/>
<path transform="translate(-3199.9 -2805)" d="m3216.2 2874.9v3.686a1.094 1.094 0 0 1-1.1 1.093h-7.082v-4.847h8.176a0.411 0.411 0 0 1 6e-3 0.068z" fill="#f8da47"/>
<path transform="translate(-3512 -2548.6)" d="M3564.106,2589.09v4.847h-7.078a1.094,1.094,0,0,1-1.1-1.092v-3.687a.378.378,0,0,1,0-.068Z" fill="#f9ef75"/>
<path transform="translate(-3512 -2539.7)" d="m3572.3 2580.1h-16.347a1.089 1.089 0 0 1 1.092-1.025h14.161a1.09 1.09 0 0 1 1.094 1.025z" fill="#fbf4a4"/>
<path transform="translate(-3583.4 -2548.6)" d="m3643.7 2589.2v3.687a1.093 1.093 0 0 1-1.1 1.092h-7.082v-4.847h8.175a0.335 0.335 0 0 1 7e-3 0.068z" fill="#f8da47"/>
<path transform="translate(-3512 -2497.4)" d="M3564.106,2531.94v4.847h-7.078a1.1,1.1,0,0,1-1.1-1.092v-3.687a.373.373,0,0,1,0-.068Z" fill="#f9ef75"/>
<path transform="translate(-3512 -2488.4)" d="m3572.3 2523h-16.347a1.089 1.089 0 0 1 1.092-1.024h14.161a1.09 1.09 0 0 1 1.094 1.024z" fill="#fbf4a4"/>
<path transform="translate(-3583.4 -2497.4)" d="m3643.7 2532v3.687a1.094 1.094 0 0 1-1.1 1.093h-7.082v-4.847h8.175a0.337 0.337 0 0 1 7e-3 0.067z" fill="#f8da47"/>
<path transform="translate(-3492.2 -2446.1)" d="m3542 2474.8v4.848h-7.078a1.1 1.1 0 0 1-1.1-1.092v-3.687a0.374 0.374 0 0 1 0-0.068z" fill="#f9ef75"/>
<path transform="translate(-3492.2 -2437.1)" d="m3550.2 2465.9h-16.348a1.089 1.089 0 0 1 1.092-1.025h14.162a1.088 1.088 0 0 1 1.094 1.025z" fill="#fbf4a4"/>
<path transform="translate(-3563.6 -2446.1)" d="m3621.6 2474.9v3.687a1.094 1.094 0 0 1-1.1 1.093h-7.082v-4.848h8.176a0.4 0.4 0 0 1 6e-3 0.068z" fill="#f8da47"/>
<path transform="translate(-3520 -2599.9)" d="M3573,2646.24v4.847h-7.078a1.094,1.094,0,0,1-1.1-1.092v-3.687a.37.37,0,0,1,0-.068Z" fill="#f9ef75"/>
<path transform="translate(-3520 -2591)" d="m3581.2 2637.3h-16.347a1.09 1.09 0 0 1 1.093-1.024h14.161a1.088 1.088 0 0 1 1.093 1.024z" fill="#fbf4a4"/>
<path transform="translate(-3591.4 -2599.9)" d="m3652.6 2646.3v3.692a1.093 1.093 0 0 1-1.1 1.092h-7.083v-4.847h8.176a0.37 0.37 0 0 1 7e-3 0.063z" fill="#f8da47"/>
<path transform="translate(-3535.8 -2651.2)" d="M3590.647,2703.39v4.847h-7.078a1.1,1.1,0,0,1-1.1-1.092v-3.687a.373.373,0,0,1,0-.068Z" fill="#f9ef75"/>
<path transform="translate(-3535.9 -2642.2)" d="m3598.9 2694.4h-16.347a1.09 1.09 0 0 1 1.092-1.024h14.162a1.09 1.09 0 0 1 1.093 1.024z" fill="#fbf4a4"/>
<path transform="translate(-3607.2 -2651.2)" d="m3670.2 2703.5v3.687a1.094 1.094 0 0 1-1.1 1.092h-7.083v-4.847h8.177a0.373 0.373 0 0 1 6e-3 0.068z" fill="#f8da47"/>
<path transform="translate(-3535.8 -2702.5)" d="m3590.6 2760.5v4.847h-7.078a1.1 1.1 0 0 1-1.1-1.093v-3.686a0.373 0.373 0 0 1 0-0.068z" fill="#f9ef75"/>
<path transform="translate(-3535.9 -2693.5)" d="m3598.9 2751.6h-16.347a1.09 1.09 0 0 1 1.092-1.024h14.162a1.09 1.09 0 0 1 1.093 1.024z" fill="#fbf4a4"/>
<path transform="translate(-3607.2 -2702.5)" d="m3670.2 2760.6v3.686a1.1 1.1 0 0 1-1.1 1.093h-7.083v-4.847h8.177a0.373 0.373 0 0 1 6e-3 0.068z" fill="#f8da47"/>
<path transform="translate(-3535.8 -2753.7)" d="M3590.647,2817.68v4.847h-7.078a1.094,1.094,0,0,1-1.1-1.092v-3.687a.377.377,0,0,1,0-.069Z" fill="#f9ef75"/>
<path transform="translate(-3535.9 -2744.8)" d="m3598.9 2808.7h-16.347a1.09 1.09 0 0 1 1.092-1.024h14.162a1.091 1.091 0 0 1 1.093 1.024z" fill="#fbf4a4"/>
<path transform="translate(-3607.2 -2753.7)" d="m3670.2 2817.7v3.686a1.094 1.094 0 0 1-1.1 1.092h-7.083v-4.847h8.177a0.39 0.39 0 0 1 6e-3 0.069z" fill="#f8da47"/>
<path transform="translate(-3535.8 -2805)" d="M3590.647,2874.83v4.847h-7.078a1.094,1.094,0,0,1-1.1-1.092V2874.9a.378.378,0,0,1,0-.069Z" fill="#f9ef75"/>
<path transform="translate(-3535.9 -2796.1)" d="m3598.9 2865.9h-16.347a1.09 1.09 0 0 1 1.092-1.024h14.162a1.09 1.09 0 0 1 1.093 1.024z" fill="#fbf4a4"/>
<path transform="translate(-3607.2 -2805)" d="m3670.2 2874.9v3.686a1.094 1.094 0 0 1-1.1 1.093h-7.083v-4.847h8.177a0.388 0.388 0 0 1 6e-3 0.068z" fill="#f8da47"/>
<path transform="translate(-3130.1 -2195.4)" d="m3189.5 2196.4-3.457 1.015 1.01 1.262-23.427 18.63-7.342-4.873-25.972 20.559 2.581 2.95 23.508-19.018 7.344 5.267 24.718-21.752 0.993 1.243 1.749-3.149 1.75-3.149z" fill="#41ba03"/>
</svg>
