<svg xmlns="http://www.w3.org/2000/svg" width="69.334" height="69.334" viewBox="0 0 69.334 69.334"><path d="M328.794,340a34.667,34.667,0,1,1-34.667-34.667A34.667,34.667,0,0,1,328.794,340Z" transform="translate(-259.46 -305.33)" fill="#41ba03"/><g transform="translate(10.743 11.918)"><path d="M310.074,408.873a85.88,85.88,0,0,1-23.924-3.243,24.233,24.233,0,0,0,47.849,0A85.9,85.9,0,0,1,310.074,408.873Z" transform="translate(-286.15 -377.162)" fill="#1a1a1a"/><path d="M310.729,369.57a2.78,2.78,0,1,1-2.78-2.78A2.78,2.78,0,0,1,310.729,369.57Z" transform="translate(-297.508 -353.968)" fill="#1a1a1a"/><path d="M309.7,370.528a.8.8,0,1,1-.8-.8A.8.8,0,0,1,309.7,370.528Z" transform="translate(-299.258 -355.723)" fill="#f2f2f2"/><path d="M377.679,369.57a2.78,2.78,0,1,1-2.78-2.78A2.78,2.78,0,0,1,377.679,369.57Z" transform="translate(-337.488 -353.968)" fill="#1a1a1a"/><path d="M376.645,370.528a.8.8,0,1,1-.8-.8A.8.8,0,0,1,376.645,370.528Z" transform="translate(-339.238 -355.723)" fill="#f2f2f2"/><path d="M286.15,405.63a23.938,23.938,0,0,0,1.688,5.769,114.122,114.122,0,0,0,44.473,0A23.991,23.991,0,0,0,334,405.63a89.874,89.874,0,0,1-47.849,0Z" transform="translate(-286.15 -377.162)" fill="#f2f2f2"/><path d="M338.842,442.764a56.143,56.143,0,0,0-27.772,0,24.206,24.206,0,0,0,27.772,0Z" transform="translate(-301.031 -398.295)" fill="#d65158"/><path d="M309.1,343.836a9.586,9.586,0,0,0-12.307,0" transform="translate(-292.504 -338.925)" fill="rgba(0,0,0,0)"/><path d="M376.482,336.519a9.589,9.589,0,0,0-10.482,0" transform="translate(-333.834 -334.96)" fill="rgba(0,0,0,0)"/></g></svg>