<?xml version="1.0" encoding="UTF-8"?>
<svg viewBox="0 0 348.33 134.67" xmlns="http://www.w3.org/2000/svg">
<defs>
<linearGradient id="a" x1=".5" x2=".5" y2="1">
<stop stop-color="#0f6bc7" offset="0"/>
<stop stop-color="#41ba03" offset="1"/>
</linearGradient>
</defs>
<g transform="translate(-195.88 -1555)" fill="url(#a)" data-name="Group 2607">
<path transform="translate(302.72 1555)" d="M134.009,48.554,120.7,8.627A12.59,12.59,0,0,0,108.733,0H71.542V50.5h62.783A12.015,12.015,0,0,0,134.009,48.554ZM63.125,0H25.934A12.59,12.59,0,0,0,13.966,8.627L.658,48.554A12.013,12.013,0,0,0,.342,50.5H63.125ZM0,58.917v63.125a12.628,12.628,0,0,0,12.625,12.625H122.042a12.628,12.628,0,0,0,12.625-12.625V58.917Z" opacity=".2" data-name="Icon awesome-box"/>
<path transform="translate(475.88 1588.2)" d="M68,24.637,61.246,4.378A6.388,6.388,0,0,0,55.174,0H36.3V25.625H68.16A6.1,6.1,0,0,0,68,24.637ZM32.031,0H13.159A6.388,6.388,0,0,0,7.087,4.378L.334,24.637a6.1,6.1,0,0,0-.16.988H32.031ZM0,29.9V61.927a6.408,6.408,0,0,0,6.406,6.406H61.927a6.408,6.408,0,0,0,6.406-6.406V29.9Z" opacity=".15" data-name="Icon awesome-box"/>
<path transform="translate(195.88 1588.2)" d="M68,24.637,61.246,4.378A6.388,6.388,0,0,0,55.174,0H36.3V25.625H68.16A6.1,6.1,0,0,0,68,24.637ZM32.031,0H13.159A6.388,6.388,0,0,0,7.087,4.378L.334,24.637a6.1,6.1,0,0,0-.16.988H32.031ZM0,29.9V61.927a6.408,6.408,0,0,0,6.406,6.406H61.927a6.408,6.408,0,0,0,6.406-6.406V29.9Z" opacity=".1" data-name="Icon awesome-box"/>
</g>
</svg>
