<svg xmlns="http://www.w3.org/2000/svg" width="75.015" height="46.827" viewBox="0 0 75.015 46.827">
  <g id="Group_1" data-name="Group 1" transform="translate(-155.198 -289.16)">
    <g id="logo" transform="translate(155.198 289.16)">
      <path id="Path_1" data-name="Path 1" d="M348.81,158.7c1.725-.018,3.451-.012,5.176-.041,2.561-.047,5.117-.047,7.678-.077,2.42-.029,4.84.029,7.2-.094h-25.72c-.071,0-.135.006-.206,0-.153-.018-.2.047-.2.2q.009,2.235,0,4.475c0,.159.059.2.206.194.312-.006.63-.012.942,0a.211.211,0,0,0,.253-.2,2.974,2.974,0,0,1,3.5-2.214,4.5,4.5,0,0,0,1.254.1c.471,0,.942.012,1.413-.006a7.806,7.806,0,0,0,1.814-.106,2.09,2.09,0,0,1,.936-.018,3.065,3.065,0,0,0,.607.082c1.772-.029,3.551-.012,5.323-.053,2.049-.047,4.1-.047,6.141-.065l7.089-.071c.106,0,.271.071.265-.159-.012-.206-.159-.135-.259-.135-1.342-.012-2.685-.012-4.027-.047-1.725-.041-3.451-.012-5.176-.053-2.008-.047-4.022-.018-6.029-.059-2.226-.047-4.451-.053-6.677-.071-1.089-.012-2.179-.012-3.268-.018.059-.035.118-.065.171-.1,1.784-.024,3.568-.012,5.352-.053,2.008-.047,4.022-.018,6.029-.059,2.243-.047,4.493-.047,6.736-.071,2.3-.024,4.61-.041,6.913-.065.112,0,.241.035.23-.165-.006-.183-.135-.13-.23-.135-.889-.018-1.784-.029-2.673-.041-2.037-.029-4.08-.006-6.118-.053-2.02-.047-4.039-.018-6.059-.065-1.843-.041-3.686-.035-5.529-.053l-4.946-.035c-.035-.035-.077-.065-.112-.1,1.443-.012,2.879-.024,4.322-.047,2.031-.035,4.057-.012,6.088-.059s4.081-.018,6.118-.059c2.255-.047,4.51-.047,6.766-.071.724-.006,1.448-.018,2.179-.006.206,0,.247-.094.188-.247-.041-.106-.177-.053-.265-.053q-9.724,0-19.449.012c-.948-.006-1.89,0-2.838-.018A3.872,3.872,0,0,1,348.81,158.7Zm-21.333,9.032a.513.513,0,0,0,.389.088H401.75a1.228,1.228,0,0,1,.147,0c.171.024.212-.053.206-.218q-.009-1.413,0-2.826c0-.183-.053-.23-.23-.224-.854.012-1.708.012-2.561.018q-6.492.027-12.978.059a.33.33,0,0,0-.33.177,2.8,2.8,0,0,1-4.793.077.387.387,0,0,0-.377-.2c-1.7.024-3.392.035-5.087.059-1.372.018-2.744.041-4.116.059a.311.311,0,0,0-.289.147,3.072,3.072,0,0,1-3.339,1.136,4.087,4.087,0,0,1-1.66-1.072.392.392,0,0,0-.63.024c-.153.153-.306.3-.471.442a3.11,3.11,0,0,1-4.251-.241.655.655,0,0,0-.577-.241c-1.737.047-3.468.082-5.205.118a.4.4,0,0,0-.324.147,3.083,3.083,0,0,1-4.157.265,1.092,1.092,0,0,0-.848-.283,1.664,1.664,0,0,0-.989.33,3.056,3.056,0,0,1-3.715.018.6.6,0,0,0-.43-.13c-1.166.071-2.326.177-3.486.289-1.784.177-3.562.412-5.335.677-2.273.342-4.546.695-6.819,1.042C328.584,167.54,328.065,167.629,327.477,167.729Zm45.4-21.869v.165q0,8.532-.006,17.07c0,.212.059.253.259.253q3.683-.009,7.36-.006a1.41,1.41,0,0,1,.524.018c.206.088.088.33.13.5a2.52,2.52,0,0,0,2.538,1.984,2.472,2.472,0,0,0,2.385-2.314c.018-.159.077-.194.218-.188.253.006.512-.006.765.006a.879.879,0,0,0,.86-.548,1.732,1.732,0,0,0,.171-.707c.024-1.013-.053-2.02-.088-3.027a4.967,4.967,0,0,0-.153-1.1c-.041-.159-.1-.224-.277-.218-.324.018-.648.006-.972,0a.647.647,0,0,1-.6-.353c-.153-.294-.118-.347.212-.347h1.207a2.838,2.838,0,0,0-1.5-.889,11.737,11.737,0,0,0-3.2-.33.347.347,0,0,1-.389-.253,4.473,4.473,0,0,0-.312-.63,13.812,13.812,0,0,0-7.266-6.024c-.306-.118-.5.006-.518.336-.035.636-.065,1.272-.094,1.908q-.106,2.641-.206,5.288a3.248,3.248,0,0,1-.047-.677q0-4.266.006-8.538A1.228,1.228,0,0,0,372.875,145.86Zm-15.133,3.45c-.447.006-.895-.071-1.348-.041a3.015,3.015,0,0,0-2.29,1.019,1.625,1.625,0,0,0,.871,2.709c.194.047.183.135.177.283a1.568,1.568,0,0,0,1.8,1.649,2.429,2.429,0,0,0,1.92-1.466c.1-.2.171-.412.253-.618a15.488,15.488,0,0,1-2.137,5.341.517.517,0,0,0,.7-.324,16.284,16.284,0,0,0,1.5-4.086c.077-.365.141-.73.212-1.1a2.267,2.267,0,0,1,.071.553,2.594,2.594,0,0,0,1.172,2.1,1.606,1.606,0,0,0,2.52-1.048c.029-.141.059-.153.2-.141a1.6,1.6,0,0,0,1.725-1.837,2.425,2.425,0,0,0-1.36-1.8,7.484,7.484,0,0,0-2.067-.624,12.112,12.112,0,0,0,2.067-.135,2.352,2.352,0,0,0,1.808-1.213,1.6,1.6,0,0,0-.795-2.279c-.318-.112-.465-.177-.495-.589a1.6,1.6,0,0,0-2.32-1.307,2.859,2.859,0,0,0-1.631,2.026c-.135.483-.224.983-.341,1.49a.365.365,0,0,1-.018-.259,7.9,7.9,0,0,0,0-1.937,2.523,2.523,0,0,0-1.378-1.961,1.592,1.592,0,0,0-2.267,1.1c-.029.194-.082.23-.271.218a1.59,1.59,0,0,0-1.649,2,2.585,2.585,0,0,0,1.578,1.778A10.13,10.13,0,0,0,357.742,149.311Zm-4.687,26.95a1.12,1.12,0,0,1-.071-.112c-.442-1.649-.883-3.3-1.319-4.952a.267.267,0,0,0-.318-.241q-.883.018-1.766,0c-.183,0-.2.035-.153.212q1.175,3.9,2.32,7.8a.254.254,0,0,0,.306.212c.571-.012,1.136-.012,1.708,0a.267.267,0,0,0,.312-.218c.312-.954.636-1.908.96-2.862.183-.548.371-1.1.571-1.678.041.065.059.088.071.112.436,1.46.877,2.915,1.307,4.381a.308.308,0,0,0,.365.265c.571-.018,1.136-.012,1.708,0a.223.223,0,0,0,.265-.188q1.245-3.922,2.5-7.837c.071-.218-.024-.2-.165-.2-.577,0-1.16.012-1.737-.006a.29.29,0,0,0-.342.253q-.442,1.563-.9,3.121c-.182.63-.371,1.26-.554,1.884-.082-.018-.076-.065-.088-.1-.495-1.637-.989-3.268-1.484-4.9-.053-.183-.13-.271-.342-.259a8.869,8.869,0,0,1-1.119,0,.356.356,0,0,0-.424.3C354.15,172.91,353.608,174.559,353.055,176.261Zm-19.755-.3a.448.448,0,0,1-.218-.194q-1.793-2.305-3.586-4.616a.386.386,0,0,0-.33-.194c-.577.012-1.16.012-1.737,0-.183,0-.23.053-.23.236q.009,3.886,0,7.767c0,.165.041.218.212.218.548-.012,1.1-.018,1.649,0,.224.006.277-.065.277-.277-.012-1.49-.006-2.979,0-4.475,0-.082-.041-.171.035-.259.024.018.053.024.065.047q1.855,2.385,3.7,4.781a.38.38,0,0,0,.336.183c.577-.012,1.16-.012,1.737,0,.165,0,.212-.047.212-.212q-.009-3.886,0-7.767c0-.177-.047-.241-.23-.236-.542.012-1.077.012-1.619,0-.212-.006-.277.041-.277.271C333.306,172.8,333.3,174.365,333.3,175.961Zm28.729-.977a4.268,4.268,0,0,0,2.031,3.81,4.832,4.832,0,0,0,3.539.565,4.387,4.387,0,0,0,2.709-6.854,4.564,4.564,0,0,0-4.563-1.737A4.2,4.2,0,0,0,362.029,174.983Zm-25.62-.159a4.322,4.322,0,0,0,2.043,3.963,4.69,4.69,0,0,0,3.592.553,4.058,4.058,0,0,0,3.186-2.773,4.138,4.138,0,0,0-.742-4.322,4.563,4.563,0,0,0-4.357-1.49A4.211,4.211,0,0,0,336.409,174.824Zm49.949,4.357c-.877-1.148-1.713-2.238-2.544-3.327a.265.265,0,0,1,.171-.094,1.9,1.9,0,0,0,1.207-.871,2.713,2.713,0,0,0,.194-2.485,2.3,2.3,0,0,0-2.161-1.413c-1.166-.1-2.332-.018-3.5-.041-.188-.006-.194.088-.194.23q.009,3.886,0,7.767c0,.183.041.236.224.23.548-.012,1.1-.012,1.649,0,.206.006.265-.047.259-.259-.012-.883-.006-1.766,0-2.65,0-.065-.053-.153.059-.212.029.041.053.082.082.124q.892,1.4,1.784,2.8c.071.112.13.194.289.194C384.669,179.175,385.475,179.181,386.359,179.181Zm-12.118-3.091.059-.018c.542.848,1.107,1.678,1.613,2.55a.966.966,0,0,0,1.036.571c.636-.053,1.284-.012,2-.012-.877-1.142-1.714-2.238-2.55-3.333.041-.029.059-.059.082-.059a2.154,2.154,0,0,0,1.684-2.226,2.237,2.237,0,0,0-1.248-2.273,2.938,2.938,0,0,0-1.183-.306c-1.119-.053-2.238-.006-3.356-.029-.236-.006-.265.082-.265.288q.009,3.842,0,7.678c0,.194.035.271.253.265.542-.018,1.078-.018,1.619,0,.23.006.271-.065.271-.277C374.229,177.968,374.241,177.032,374.241,176.09Zm22.781.654c-.277.524-.53,1.019-.807,1.5-.1.177-.077.259.094.365a4.98,4.98,0,0,0,3.427.742,2.681,2.681,0,0,0,2.379-2.149,2.247,2.247,0,0,0-1.619-2.915c-.312-.112-.636-.2-.948-.3a1.571,1.571,0,0,1-.736-.406.53.53,0,0,1,.059-.8.942.942,0,0,1,.389-.2,1.814,1.814,0,0,1,1.549.365c.177.124.224.082.306-.077.212-.43.43-.854.659-1.278.077-.141.047-.188-.088-.259a5.862,5.862,0,0,0-1.872-.553c-1.867-.236-3.233.795-3.35,2.414a1.935,1.935,0,0,0,1.36,2.361c.218.088.442.147.665.218a3.639,3.639,0,0,1,1.166.465.675.675,0,0,1-.065,1.184,1.541,1.541,0,0,1-1.307.071A3.6,3.6,0,0,1,397.022,176.744Zm-6.542-1.678v3.886c0,.135-.012.236.188.236,1.431-.006,2.868-.006,4.3,0,.147,0,.183-.047.183-.183-.006-.453-.018-.9.006-1.354.012-.236-.077-.271-.283-.265-.66.012-1.313-.006-1.973.012-.241.006-.3-.077-.289-.3a6.871,6.871,0,0,0,0-.854c-.012-.224.041-.306.289-.3.618.018,1.237,0,1.855.012.206.006.294-.029.283-.265-.024-.418-.018-.842,0-1.266.006-.2-.041-.265-.253-.265-.636.018-1.278,0-1.914.012-.188.006-.265-.047-.253-.247a7.863,7.863,0,0,0,0-.913c-.012-.194.053-.253.247-.247.689.012,1.372,0,2.061.006.171,0,.241-.024.236-.218-.018-.453-.018-.9,0-1.354.006-.212-.077-.236-.253-.236-1.384.006-2.767.012-4.151,0-.236,0-.271.077-.265.283Q390.483,173.152,390.48,175.066Zm-21.68-13.92c-.124.012-.289.018-.453.041a3.2,3.2,0,0,0-1.708.966c-.383.359-.4.353-.012.695.188.165.359.483.571.453s.395-.3.571-.477a1.519,1.519,0,0,1,1.266-.489,1.307,1.307,0,0,1,1.166,1.107,1.221,1.221,0,0,1-.842,1.213,1.447,1.447,0,0,1-1.584-.389c-.86-.789-1.731-1.566-2.591-2.349a2.8,2.8,0,0,0-3.138-.518,2.368,2.368,0,0,0-1.454,2.391,2.637,2.637,0,0,0,3,2.126,3.612,3.612,0,0,0,2.149-1.284c.041-.041.088-.082.024-.141a3.388,3.388,0,0,0-.848-.707c-.177-.071-.406.312-.612.489a2.984,2.984,0,0,1-.3.241,1.352,1.352,0,0,1-.86.236,1.31,1.31,0,0,1-1.26-1.142,1.232,1.232,0,0,1,1.007-1.237,1.447,1.447,0,0,1,1.354.383q1.325,1.21,2.661,2.408a2.79,2.79,0,0,0,2.979.583,2.3,2.3,0,0,0,1.225-3.468A2.652,2.652,0,0,0,368.8,161.146Zm-21.751.006a2.591,2.591,0,0,0-.919.13,2.389,2.389,0,0,0-1.684,1.725,2.111,2.111,0,0,0,.671,2.185,2.761,2.761,0,0,0,2.791.6,4.184,4.184,0,0,0,1.655-1.184c.088-.088,0-.112-.041-.153-.218-.2-.442-.389-.648-.6-.13-.13-.224-.112-.342.012-.194.194-.4.377-.612.553a1.373,1.373,0,0,1-.977.33,1.31,1.31,0,0,1-1.26-1.107,1.233,1.233,0,0,1,1-1.272,1.452,1.452,0,0,1,1.378.4c.877.8,1.761,1.59,2.638,2.391a2.792,2.792,0,0,0,2.785.654,2.316,2.316,0,0,0,1.29-3.715,2.851,2.851,0,0,0-3.08-.789,4.724,4.724,0,0,0-1.5,1.066c-.141.124-.106.188.012.294a8.3,8.3,0,0,1,.63.577c.124.124.2.1.306-.012.159-.159.336-.306.495-.459a1.434,1.434,0,0,1,1.172-.424,1.331,1.331,0,0,1,1.172,1,1.2,1.2,0,0,1-.83,1.325,1.365,1.365,0,0,1-1.466-.3c-.877-.795-1.766-1.59-2.638-2.391A2.731,2.731,0,0,0,347.049,161.152Zm11.5-3.109h.289c2.414,0,4.828-.006,7.242.006.271,0,.318-.077.312-.324-.012-2.414-.006-4.828-.012-7.242,0-.218.047-.283.277-.283.765.018,1.531.006,2.3.006.077,0,.171.041.212-.006-.86-.866-1.719-1.719-2.567-2.567a5.181,5.181,0,0,1-.059.577,2.945,2.945,0,0,1-1.46,1.967c-.141.082-.171.124-.041.241a2.43,2.43,0,0,1,.324.377,2.564,2.564,0,0,1-1.378,4.169.321.321,0,0,0-.224.2,2.5,2.5,0,0,1-3.874.677c-.094-.077-.183-.153-.3-.253A19.179,19.179,0,0,1,358.549,158.043Zm-1.242-2.279c-.088.018-.124.024-.159.029a2.489,2.489,0,0,1-2.8-1.884.4.4,0,0,0-.23-.3,2.492,2.492,0,0,1-.789-3.715,3.862,3.862,0,0,1,1.16-1.019,3.582,3.582,0,0,1-.783-1.089,2.972,2.972,0,0,1-.265-1.207l-3.651,3.633c.765,0,1.578.018,2.4-.006.3-.006.371.077.371.371-.012,2.4-.006,4.787-.006,7.184,0,.13-.065.294.188.294,1.048-.012,2.1-.006,3.15,0a.243.243,0,0,0,.241-.124A17.613,17.613,0,0,0,357.306,155.764Zm-10.346,29.07c-.294-.777-.583-1.472-.818-2.185-.112-.33-.265-.483-.618-.424-.259.041-.583-.1-.771.053s-.124.477-.165.724c-.224,1.29-.442,2.585-.665,3.874-.029.165-.018.259.194.247a6.422,6.422,0,0,1,.824,0c.165.006.218-.053.236-.206.041-.359.1-.718.153-1.072.071-.489.147-.977.23-1.549.071.159.112.247.141.336.306.76.618,1.519.907,2.285a.286.286,0,0,0,.324.212c.171,0,.277-.024.353-.212.312-.789.654-1.572.977-2.355.029-.065.041-.141.124-.188.012.065.029.106.035.159.088.707.177,1.419.259,2.126.053.459.047.459.512.459a3.549,3.549,0,0,1,.5.006c.3.047.312-.106.277-.336-.106-.636-.194-1.278-.294-1.914-.118-.795-.241-1.584-.359-2.379-.029-.188-.082-.294-.312-.271a4.161,4.161,0,0,1-.765,0,.291.291,0,0,0-.336.23C347.614,183.227,347.3,183.992,346.961,184.834Zm42.112-9.751c0-1.284-.006-2.573.006-3.857,0-.224-.059-.283-.277-.271-.542.018-1.078.012-1.619,0-.165,0-.241.024-.241.218q.009,3.9,0,7.8c0,.171.059.212.218.206.548-.012,1.1-.018,1.649,0,.23.006.271-.065.271-.277C389.067,177.633,389.073,176.355,389.073,175.083Zm-15.127,9.1.059-.018c.571.73,1.142,1.466,1.713,2.2.618.795.618.795,1.637.76.165-.006.218-.047.218-.218q-.009-2.235,0-4.469c0-.147-.024-.212-.188-.206-.306.012-.607.012-.913,0-.141-.006-.183.047-.183.188.006.324,0,.648,0,.972v1.749c-.094.006-.106-.047-.135-.082-.536-.689-1.125-1.342-1.59-2.073a1.477,1.477,0,0,0-1.6-.76c-.241.029-.277.094-.277.306.012,1.213,0,2.432.006,3.645,0,.306-.141.724.065.9.177.153.577.029.883.053.247.024.312-.059.306-.306C373.935,185.941,373.946,185.058,373.946,184.18Zm-15.9.436a2.578,2.578,0,0,0-2.685-2.561,2.613,2.613,0,1,0,2.685,2.561Zm26.32-.224h-.5c-.783,0-.777,0-.771.777,0,.153.035.212.188.2.218-.012.43.006.648-.006.188-.006.212.065.153.23a1.1,1.1,0,0,1-1.743.359,1.7,1.7,0,0,1-.512-1.578,1.416,1.416,0,0,1,.948-1.2,1.1,1.1,0,0,1,1.3.618.153.153,0,0,0,.236.065c.259-.112.518-.241.783-.33.236-.077.241-.171.124-.371a2.5,2.5,0,0,0-2.856-1.019,2.624,2.624,0,1,0,1.755,4.934,2.475,2.475,0,0,0,1.484-2.561c0-.159-.112-.13-.2-.13C385.057,184.392,384.71,184.392,384.368,184.392ZM354.2,161.258c.006.006.012.029.029.035a2.609,2.609,0,0,1,1.337,1.931c.024.159.124.124.212.124.342.006.683,0,1.03,0h3.262c.118,0,.247.041.271-.165a2.5,2.5,0,0,1,1.089-1.737c.047-.035.135-.047.106-.183Q357.874,161.255,354.2,161.258Zm8.832,23.912c-.053-.124-.088-.194-.112-.265l-.989-2.473c-.041-.106-.059-.218-.224-.212-.4.012-.8.006-1.225.006.035.1.059.171.088.241q.839,2,1.678,4c.277.659.277.648,1,.659a.331.331,0,0,0,.365-.241c.477-1.136.96-2.261,1.443-3.4.177-.412.347-.824.536-1.26-.43,0-.818.006-1.213,0a.219.219,0,0,0-.236.165c-.124.33-.259.654-.389.977C363.518,183.957,363.289,184.54,363.036,185.17Zm-29.023-.194H340.4c.106,0,.277.047.3-.047a1.252,1.252,0,0,0,.012-.553c-.029-.147-.2-.077-.306-.077-4.257-.006-8.514,0-12.772-.012-.265,0-.324.071-.324.324s.035.371.341.371C329.779,184.969,331.893,184.975,334.013,184.975Zm61.149-.677h-6.383c-.094,0-.241-.047-.277.035a.92.92,0,0,0-.012.577c.029.13.188.065.289.065,4.257.006,8.514,0,12.772.012.283,0,.318-.094.312-.336-.006-.224.006-.365-.312-.359C399.419,184.3,397.293,184.3,395.161,184.3Zm-32.809-40.941a.663.663,0,0,0-.053-.1q-1.36-1.36-2.714-2.726c-.13-.13-.188-.065-.277.024-.424.43-.86.86-1.284,1.29-.294.294-.583.595-.907.924,1.543-.206,2.126.077,3.309,1.6A3.292,3.292,0,0,1,362.352,143.358Zm9.586,8.738v6.118c0,.13-.065.318.2.277.183-.029.347.024.347-.283q-.018-6.1,0-12.212c0-.342-.218-.289-.395-.312-.259-.029-.147.183-.147.283C371.938,148.015,371.938,150.052,371.938,152.1Zm-2.42,32.585c0-.742-.006-1.49.006-2.232,0-.153-.023-.23-.206-.224q-.442.018-.883,0c-.153-.006-.2.041-.2.2.006,1.5.006,3,0,4.5,0,.159.059.2.206.2.283-.006.571-.012.854,0,.188.012.23-.059.224-.236Zm-2.132-21.133c.283.253.548.495.824.73a.907.907,0,0,0,.565.212,1.061,1.061,0,0,0,.972-.436.857.857,0,0,0,.059-.942,1.107,1.107,0,0,0-1.631-.289C367.911,163.042,367.664,163.3,367.387,163.548Zm-4.181.924a.965.965,0,0,0,.512-.1,5.751,5.751,0,0,0,.919-.771c.053-.047.065-.094.006-.147a4.106,4.106,0,0,0-1-.8,1.066,1.066,0,0,0-1.189.236.839.839,0,0,0-.2.966A.973.973,0,0,0,363.206,164.473Zm-16.151,0a.855.855,0,0,0,.577-.165c.277-.218.536-.459.8-.689.065-.059.071-.1,0-.159a6.075,6.075,0,0,0-.871-.736,1.085,1.085,0,0,0-1.26.135.843.843,0,0,0-.265.977A1.009,1.009,0,0,0,347.055,164.473Zm6.648-.936a.84.84,0,0,0-.341-.712,1.08,1.08,0,0,0-1.337-.035c-.265.2-.489.448-.742.671-.088.077-.053.124.012.188.247.218.483.465.754.659a1.072,1.072,0,0,0,1.166.041A.89.89,0,0,0,353.7,163.536Zm-5.305-2.349a6.222,6.222,0,0,1,1.313,1.036c.082.071.141.165.259.035a7.275,7.275,0,0,1,1.207-1.072Z" transform="translate(-327.188 -140.454)" fill="#fcfcfc"/>
      <path id="Path_2" data-name="Path 2" d="M331.9,552.779c.595-.1,1.107-.188,1.625-.265,2.273-.347,4.546-.7,6.819-1.042,1.772-.265,3.551-.5,5.335-.677,1.16-.112,2.32-.218,3.486-.289a.6.6,0,0,1,.43.13,3.065,3.065,0,0,0,3.716-.018,1.663,1.663,0,0,1,.989-.33,1.092,1.092,0,0,1,.848.283,3.077,3.077,0,0,0,4.157-.265.4.4,0,0,1,.324-.147c1.737-.035,3.468-.071,5.205-.118a.655.655,0,0,1,.577.242,3.1,3.1,0,0,0,4.251.241c.165-.135.318-.289.471-.442a.4.4,0,0,1,.63-.023,4.108,4.108,0,0,0,1.66,1.072,3.069,3.069,0,0,0,3.339-1.136.312.312,0,0,1,.289-.147c1.372-.018,2.744-.041,4.116-.059q2.544-.026,5.087-.059a.387.387,0,0,1,.377.2,2.8,2.8,0,0,0,4.793-.077.33.33,0,0,1,.33-.177q6.492-.026,12.978-.059c.854-.006,1.708,0,2.561-.018.177,0,.23.041.23.224-.012.942-.006,1.884,0,2.826,0,.159-.035.241-.206.218a1.208,1.208,0,0,0-.147,0H332.283A.564.564,0,0,1,331.9,552.779Z" transform="translate(-331.611 -525.505)" fill="#41b903"/>
      <path id="Path_3" data-name="Path 3" d="M1102.806,232.2a1.228,1.228,0,0,1,1,1.366q0,4.266-.006,8.538a3.287,3.287,0,0,0,.047.677c.071-1.761.135-3.521.206-5.288.024-.636.053-1.272.094-1.908.018-.33.212-.453.518-.336a13.839,13.839,0,0,1,7.266,6.024,4.194,4.194,0,0,1,.312.63.342.342,0,0,0,.388.253,11.736,11.736,0,0,1,3.2.33,2.816,2.816,0,0,1,1.5.889h-1.207c-.329,0-.365.059-.212.347a.641.641,0,0,0,.6.353c.324.006.648.012.972,0,.177-.006.236.065.277.218a5.048,5.048,0,0,1,.153,1.1c.03,1.007.112,2.014.089,3.027a1.735,1.735,0,0,1-.171.707.861.861,0,0,1-.86.548c-.253-.006-.512.006-.765-.006-.141-.006-.2.029-.218.188a2.471,2.471,0,0,1-2.385,2.314,2.518,2.518,0,0,1-2.538-1.984c-.041-.171.077-.412-.129-.5a1.411,1.411,0,0,0-.524-.018q-3.683,0-7.36.006c-.2,0-.259-.047-.259-.253q.009-8.532.006-17.07Zm6.277,10.3h1.384c.559,0,.553,0,.418-.548a3.294,3.294,0,0,0-.8-1.631,3.371,3.371,0,0,0-2.767-.93c-.177.012-.141.124-.141.224,0,.889.006,1.784-.006,2.673,0,.194.077.224.241.218C1107.964,242.5,1108.523,242.5,1109.083,242.5Zm4.422,9.356a2.161,2.161,0,1,0-2.155-2.173A2.168,2.168,0,0,0,1113.505,251.861Z" transform="translate(-1057.12 -226.794)" fill="#004194"/>
      <path id="Path_4" data-name="Path 4" d="M780.879,198.818a10.339,10.339,0,0,1-1.8-.506,2.6,2.6,0,0,1-1.578-1.778,1.588,1.588,0,0,1,1.649-2c.188.006.236-.029.271-.218a1.6,1.6,0,0,1,2.267-1.1,2.537,2.537,0,0,1,1.378,1.961,8.2,8.2,0,0,1,0,1.937c-.006.082-.041.171.018.259.112-.506.2-1,.342-1.49a2.873,2.873,0,0,1,1.631-2.026,1.6,1.6,0,0,1,2.32,1.307c.035.412.177.483.495.589a1.606,1.606,0,0,1,.795,2.279,2.352,2.352,0,0,1-1.808,1.213,12.781,12.781,0,0,1-2.067.135,7.487,7.487,0,0,1,2.067.624,2.426,2.426,0,0,1,1.36,1.8,1.605,1.605,0,0,1-1.725,1.837c-.141-.018-.171,0-.2.141a1.606,1.606,0,0,1-2.52,1.048,2.617,2.617,0,0,1-1.172-2.1,2.013,2.013,0,0,0-.071-.553l-.212,1.1a16.282,16.282,0,0,1-1.5,4.086.517.517,0,0,1-.7.324,15.35,15.35,0,0,0,2.137-5.341c-.082.206-.153.424-.253.618a2.421,2.421,0,0,1-1.92,1.466,1.574,1.574,0,0,1-1.8-1.649c.006-.147.012-.241-.177-.283a1.629,1.629,0,0,1-.872-2.709,3.036,3.036,0,0,1,2.291-1.019C779.984,198.747,780.431,198.824,780.879,198.818Z" transform="translate(-750.325 -189.961)" fill="#41b903"/>
      <path id="Path_5" data-name="Path 5" d="M708.007,663.666c.553-1.7,1.1-3.35,1.619-5.005.077-.241.183-.318.424-.3a8.817,8.817,0,0,0,1.119,0c.212-.012.289.077.342.259.489,1.637.989,3.274,1.484,4.9.012.035.006.077.088.1.183-.624.371-1.254.554-1.884.3-1.042.606-2.079.9-3.121a.29.29,0,0,1,.341-.253c.577.018,1.16.006,1.737.006.141,0,.236-.018.165.2q-1.263,3.913-2.5,7.837a.228.228,0,0,1-.265.188c-.571-.012-1.136-.018-1.708,0a.308.308,0,0,1-.365-.265c-.43-1.46-.872-2.921-1.307-4.381a.679.679,0,0,0-.071-.112c-.2.583-.388,1.131-.571,1.678-.324.954-.648,1.9-.96,2.862a.264.264,0,0,1-.312.218c-.571-.012-1.136-.012-1.708,0a.254.254,0,0,1-.306-.212q-1.148-3.9-2.32-7.8c-.053-.177-.035-.212.153-.212q.883.018,1.766,0a.267.267,0,0,1,.318.241q.654,2.482,1.319,4.952C707.948,663.578,707.965,663.6,708.007,663.666Z" transform="translate(-682.14 -627.859)" fill="#004194"/>
      <path id="Path_6" data-name="Path 6" d="M595.21,448.433c1.089.006,2.179.006,3.268.018,2.226.018,4.451.024,6.677.071,2.008.041,4.022.012,6.029.059,1.725.041,3.45.006,5.176.053,1.342.035,2.685.035,4.028.047.1,0,.247-.071.259.135.012.23-.153.153-.265.159l-7.089.071c-2.049.018-4.1.018-6.141.065-1.772.041-3.551.029-5.323.053a2.684,2.684,0,0,1-.606-.082,2.091,2.091,0,0,0-.936.018,8.137,8.137,0,0,1-1.814.106c-.471.018-.942.006-1.413.006a4.756,4.756,0,0,1-1.254-.1,2.973,2.973,0,0,0-3.5,2.214c-.029.153-.094.206-.253.2-.312-.012-.63-.012-.942,0-.147.006-.206-.035-.206-.194q.009-2.235,0-4.475c0-.153.047-.218.2-.2.071.006.135,0,.206,0h25.72c-2.355.124-4.775.065-7.2.094-2.561.029-5.117.029-7.678.077-1.725.029-3.45.018-5.176.041H594.8a.3.3,0,0,0,.277.094c1.507.006,3.021.018,4.528.006a7.539,7.539,0,0,0,1.313-.041q9.724-.009,19.449-.012c.088,0,.224-.053.265.053.059.153.012.247-.188.247-.724-.006-1.448,0-2.179.006-2.255.018-4.51.023-6.766.071-2.037.041-4.081.012-6.118.059s-4.057.029-6.088.059c-1.443.024-2.879.029-4.322.047h-1.961a6.562,6.562,0,0,0,1.013.1c.353.012.707,0,1.06-.006l4.946.035c1.843.012,3.686.006,5.529.053,2.02.047,4.039.018,6.059.065,2.037.047,4.081.024,6.118.053.9.012,1.784.023,2.673.041.094,0,.224-.053.23.135s-.118.165-.23.165c-2.3.024-4.611.041-6.913.065-2.243.024-4.493.024-6.736.071-2.008.041-4.022.018-6.03.059-1.784.041-3.568.029-5.352.053a10.341,10.341,0,0,0-2.173.1C593.88,448.433,594.545,448.433,595.21,448.433Z" transform="translate(-575.361 -428.618)" fill="#0199e5"/>
      <path id="Path_7" data-name="Path 7" d="M333.112,663.492c0-1.6.006-3.162-.006-4.728,0-.229.065-.277.277-.271.542.018,1.078.012,1.619,0,.183-.006.23.053.23.236q-.009,3.886,0,7.767c0,.171-.047.218-.212.212-.577-.012-1.16-.012-1.737,0a.38.38,0,0,1-.336-.182q-1.855-2.385-3.71-4.775a.6.6,0,0,0-.065-.047c-.071.083-.035.177-.035.259q-.009,2.235,0,4.475c0,.218-.047.289-.277.277-.548-.018-1.1-.012-1.649,0-.171.006-.212-.053-.212-.218q.009-3.886,0-7.767c0-.182.053-.236.23-.236.577.012,1.16.012,1.737,0a.367.367,0,0,1,.33.194q1.793,2.305,3.586,4.616C332.947,663.368,332.988,663.45,333.112,663.492Z" transform="translate(-327 -627.985)" fill="#004194"/>
      <path id="Path_8" data-name="Path 8" d="M918.627,658.128a4.214,4.214,0,0,1,3.721-4.228,4.58,4.58,0,0,1,4.563,1.737,4.39,4.39,0,0,1-2.709,6.854,4.8,4.8,0,0,1-3.539-.565A4.229,4.229,0,0,1,918.627,658.128Zm6.854.029a2.317,2.317,0,0,0-2.173-2.261A2.348,2.348,0,0,0,920.829,658a2.39,2.39,0,0,0,2.267,2.532A2.358,2.358,0,0,0,925.481,658.157Z" transform="translate(-883.787 -623.598)" fill="#004194"/>
      <path id="Path_9" data-name="Path 9" d="M483.563,657.929a4.206,4.206,0,0,1,3.721-4.069,4.567,4.567,0,0,1,4.357,1.49,4.137,4.137,0,0,1,.742,4.322,4.049,4.049,0,0,1-3.186,2.773,4.69,4.69,0,0,1-3.592-.553A4.322,4.322,0,0,1,483.563,657.929Zm6.86.159a2.274,2.274,0,0,0-2.261-2.226,2.311,2.311,0,0,0-2.391,2.161,2.392,2.392,0,0,0,2.3,2.479A2.364,2.364,0,0,0,490.423,658.088Z" transform="translate(-474.342 -623.559)" fill="#004194"/>
      <path id="Path_10" data-name="Path 10" d="M1222.628,666.658c-.883,0-1.69-.006-2.491.006-.159,0-.218-.083-.288-.194q-.892-1.4-1.784-2.8c-.024-.041-.053-.082-.083-.124-.106.053-.059.141-.059.212-.006.883-.012,1.767,0,2.65.006.212-.053.259-.259.259-.547-.018-1.1-.012-1.648,0-.183.006-.23-.047-.224-.23q.009-3.886,0-7.767c0-.147.006-.236.194-.23,1.166.023,2.337-.059,3.5.041a2.3,2.3,0,0,1,2.161,1.413,2.714,2.714,0,0,1-.194,2.485,1.9,1.9,0,0,1-1.207.872.222.222,0,0,0-.171.094C1220.915,664.415,1221.751,665.51,1222.628,666.658Zm-4.381-4.54a1.778,1.778,0,0,0,.807-.141.954.954,0,0,0,0-1.743,2.525,2.525,0,0,0-.883-.165c-.183-.012-.259.035-.253.241.018.489.024.978,0,1.466C1217.9,662.065,1217.982,662.183,1218.247,662.118Z" transform="translate(-1163.458 -627.931)" fill="#004194"/>
      <path id="Path_11" data-name="Path 11" d="M1091.937,663.436c0,.936-.006,1.878.006,2.815,0,.212-.041.283-.271.277-.542-.018-1.078-.018-1.619,0-.218.006-.253-.071-.253-.265q.009-3.842,0-7.678c0-.206.024-.294.265-.288,1.119.029,2.238-.024,3.356.029a3.034,3.034,0,0,1,1.183.306,2.22,2.22,0,0,1,1.248,2.273,2.159,2.159,0,0,1-1.684,2.226c-.024.006-.047.035-.083.059.836,1.1,1.672,2.185,2.55,3.333-.713,0-1.36-.041-2,.012a.958.958,0,0,1-1.036-.571c-.5-.871-1.072-1.7-1.613-2.55A.2.2,0,0,1,1091.937,663.436Zm0-2.479a1.579,1.579,0,0,0,0,.235c.059.265-.177.636.13.777a1.234,1.234,0,0,0,.883-.082c.012-.006.018-.006.03-.012a.959.959,0,0,0,.012-1.814,2.859,2.859,0,0,0-.866-.129c-.159-.006-.2.059-.194.206C1091.943,660.409,1091.937,660.68,1091.937,660.957Z" transform="translate(-1044.885 -627.8)" fill="#004194"/>
      <path id="Path_12" data-name="Path 12" d="M1499.065,660.736a3.553,3.553,0,0,0,1.254.742,1.562,1.562,0,0,0,1.307-.071.675.675,0,0,0,.065-1.183,3.772,3.772,0,0,0-1.166-.465c-.224-.071-.453-.13-.665-.218a1.937,1.937,0,0,1-1.36-2.361,2.72,2.72,0,0,1,3.35-2.414,5.776,5.776,0,0,1,1.872.554c.13.065.165.118.089.259-.23.418-.448.848-.66,1.278-.082.165-.13.206-.306.077a1.805,1.805,0,0,0-1.549-.365.941.941,0,0,0-.388.2.538.538,0,0,0-.059.8,1.543,1.543,0,0,0,.736.406c.318.1.636.188.948.3a2.255,2.255,0,0,1,1.619,2.915,2.675,2.675,0,0,1-2.379,2.149,4.95,4.95,0,0,1-3.427-.742c-.171-.106-.194-.189-.094-.365C1498.535,661.755,1498.788,661.26,1499.065,660.736Z" transform="translate(-1429.231 -624.446)" fill="#004194"/>
      <path id="Path_13" data-name="Path 13" d="M1401.616,662.505c0-1.278.006-2.549-.006-3.827,0-.206.035-.289.265-.283q2.076.018,4.151,0c.177,0,.265.024.253.236-.017.453-.017.9,0,1.354.006.194-.065.224-.235.218-.689-.006-1.372.006-2.061-.006-.194-.006-.253.053-.247.247a7.8,7.8,0,0,1,0,.913c-.012.2.065.247.253.247.636-.012,1.278.006,1.914-.012.212-.006.265.059.253.265-.018.424-.024.842,0,1.266.012.236-.077.271-.283.265-.618-.012-1.236.006-1.855-.012-.247-.006-.3.077-.288.3a6.777,6.777,0,0,1,0,.854c-.012.224.047.306.288.3.659-.018,1.313,0,1.973-.012.206-.006.294.029.283.265-.023.448-.012.9-.006,1.354,0,.135-.035.183-.182.183-1.431-.006-2.868-.006-4.3,0-.2,0-.188-.094-.188-.235C1401.616,665.1,1401.616,663.8,1401.616,662.505Z" transform="translate(-1338.324 -627.894)" fill="#004194"/>
      <path id="Path_14" data-name="Path 14" d="M902.27,491.668a2.658,2.658,0,0,1,2.314,1.131,2.3,2.3,0,0,1-1.225,3.468,2.79,2.79,0,0,1-2.979-.583q-1.334-1.2-2.661-2.408a1.433,1.433,0,0,0-1.354-.383,1.247,1.247,0,0,0-1.007,1.237,1.305,1.305,0,0,0,1.26,1.142,1.391,1.391,0,0,0,.86-.235,3.852,3.852,0,0,0,.3-.241c.206-.177.436-.559.612-.489a3.492,3.492,0,0,1,.848.707c.071.059.018.094-.024.141a3.6,3.6,0,0,1-2.149,1.284,2.633,2.633,0,0,1-3-2.126,2.368,2.368,0,0,1,1.454-2.391,2.8,2.8,0,0,1,3.138.518c.866.783,1.737,1.56,2.591,2.349a1.447,1.447,0,0,0,1.584.389,1.221,1.221,0,0,0,.842-1.213,1.312,1.312,0,0,0-1.166-1.107,1.506,1.506,0,0,0-1.266.489c-.177.182-.365.453-.571.477s-.383-.289-.571-.453c-.389-.341-.371-.336.012-.695a3.219,3.219,0,0,1,1.708-.966C901.987,491.686,902.152,491.68,902.27,491.668Z" transform="translate(-860.658 -470.976)" fill="#41b903"/>
      <path id="Path_15" data-name="Path 15" d="M621.276,491.555a2.752,2.752,0,0,1,1.99.813c.877.8,1.761,1.6,2.638,2.391a1.356,1.356,0,0,0,1.466.3,1.2,1.2,0,0,0,.83-1.325,1.324,1.324,0,0,0-1.172-1,1.42,1.42,0,0,0-1.172.424c-.159.159-.336.3-.495.459-.106.112-.182.135-.306.012-.2-.2-.412-.389-.63-.577-.118-.1-.147-.165-.012-.294a4.725,4.725,0,0,1,1.5-1.066,2.848,2.848,0,0,1,3.08.789A2.316,2.316,0,0,1,627.7,496.2a2.8,2.8,0,0,1-2.785-.654c-.877-.8-1.761-1.59-2.638-2.391a1.453,1.453,0,0,0-1.378-.4,1.238,1.238,0,0,0-1,1.272,1.368,1.368,0,0,0,2.237.777c.212-.177.412-.359.612-.553.124-.118.212-.141.342-.012.206.206.436.4.648.6.041.041.13.065.041.153a4.183,4.183,0,0,1-1.655,1.184,2.743,2.743,0,0,1-2.791-.6,2.1,2.1,0,0,1-.671-2.185,2.389,2.389,0,0,1,1.684-1.725A2.985,2.985,0,0,1,621.276,491.555Z" transform="translate(-601.415 -470.857)" fill="#41b903"/>
      <path id="Path_16" data-name="Path 16" d="M859.6,272.71a18.666,18.666,0,0,0,1.03-2.455c.112.094.206.177.3.253a2.5,2.5,0,0,0,3.875-.677.321.321,0,0,1,.224-.2,2.565,2.565,0,0,0,1.378-4.169,2.182,2.182,0,0,0-.324-.377c-.129-.118-.094-.159.041-.241a2.932,2.932,0,0,0,1.46-1.967,5.2,5.2,0,0,0,.059-.577l2.567,2.567c-.041.047-.135.006-.212.006-.765.006-1.531.012-2.3-.006-.224-.006-.277.065-.277.283.006,2.414,0,4.828.012,7.242,0,.247-.047.324-.312.324-2.414-.012-4.828-.006-7.242-.006Z" transform="translate(-828.239 -255.121)" fill="#0199e5"/>
      <path id="Path_17" data-name="Path 17" d="M718.413,253.491a16.713,16.713,0,0,1-1.172,2.161.242.242,0,0,1-.241.124c-1.048,0-2.1-.006-3.15,0-.259,0-.188-.159-.188-.294,0-2.4-.006-4.787.006-7.184,0-.294-.065-.383-.371-.371-.813.024-1.625.006-2.4.006l3.651-3.633a2.973,2.973,0,0,0,.265,1.207,3.581,3.581,0,0,0,.783,1.089,3.793,3.793,0,0,0-1.16,1.019,2.493,2.493,0,0,0,.789,3.715.4.4,0,0,1,.23.3,2.489,2.489,0,0,0,2.8,1.884C718.29,253.515,718.325,253.5,718.413,253.491Z" transform="translate(-688.295 -238.181)" fill="#0199e5"/>
      <path id="Path_18" data-name="Path 18" d="M614.237,852.061c.341-.842.654-1.607.954-2.379a.291.291,0,0,1,.336-.23,4.74,4.74,0,0,0,.765,0c.23-.024.283.088.312.271.118.795.236,1.584.359,2.379.094.636.188,1.278.294,1.914.035.23.023.383-.277.336a3.558,3.558,0,0,0-.5-.006c-.465,0-.459,0-.512-.459-.082-.713-.171-1.419-.259-2.126-.006-.047-.024-.094-.035-.159-.088.047-.094.118-.124.188-.324.783-.665,1.566-.977,2.355-.076.188-.182.212-.353.212a.286.286,0,0,1-.324-.212c-.294-.766-.607-1.525-.907-2.285-.035-.088-.077-.171-.141-.336-.082.571-.159,1.06-.229,1.549-.053.359-.112.713-.153,1.072-.018.153-.071.218-.235.206a7.723,7.723,0,0,0-.824,0c-.212.012-.224-.082-.194-.247.224-1.289.442-2.585.665-3.874.041-.247-.012-.577.165-.724s.512-.018.771-.053c.353-.053.506.094.618.424C613.654,850.589,613.942,851.284,614.237,852.061Z" transform="translate(-594.464 -807.681)" fill="#0199e5"/>
      <path id="Path_19" data-name="Path 19" d="M1343.932,662.611c0,1.278-.006,2.549.006,3.827,0,.212-.042.289-.271.277-.548-.018-1.1-.012-1.649,0-.159,0-.218-.035-.218-.206q.009-3.9,0-7.8c0-.194.071-.224.241-.218.542.006,1.078.012,1.619,0,.218-.006.283.047.277.271C1343.926,660.038,1343.932,661.321,1343.932,662.611Z" transform="translate(-1282.047 -627.982)" fill="#004194"/>
      <path id="Path_20" data-name="Path 20" d="M1100.462,851.43c0,.877-.012,1.761.006,2.638.006.247-.065.324-.306.306-.3-.023-.706.1-.883-.053-.2-.177-.059-.589-.065-.895-.006-1.213,0-2.432-.006-3.645,0-.212.041-.277.277-.306a1.477,1.477,0,0,1,1.6.759c.471.73,1.054,1.384,1.59,2.073.029.035.041.088.135.083v-1.749c0-.324.006-.648,0-.972-.006-.135.035-.188.183-.188.306.012.606.012.913,0,.165-.006.188.065.188.206q-.009,2.234,0,4.469c0,.171-.053.212-.218.218-1.025.035-1.019.035-1.637-.76q-.857-1.1-1.714-2.2A.21.21,0,0,0,1100.462,851.43Z" transform="translate(-1053.703 -807.703)" fill="#0199e5"/>
      <path id="Path_21" data-name="Path 21" d="M764.7,849.461a2.707,2.707,0,1,1-2.679-2.561A2.6,2.6,0,0,1,764.7,849.461Zm-4.08.018a1.426,1.426,0,0,0,1.39,1.419,1.443,1.443,0,0,0,1.384-1.466,1.378,1.378,0,0,0-1.46-1.3A1.351,1.351,0,0,0,760.625,849.479Z" transform="translate(-733.845 -805.299)" fill="#0199e5"/>
      <path id="Path_22" data-name="Path 22" d="M1235.924,849.16h1.03c.094,0,.2-.029.2.13a2.46,2.46,0,0,1-1.484,2.561,2.624,2.624,0,1,1-1.755-4.934,2.5,2.5,0,0,1,2.856,1.019c.118.2.112.289-.124.371a7.585,7.585,0,0,0-.783.33.154.154,0,0,1-.236-.065,1.1,1.1,0,0,0-1.3-.618,1.415,1.415,0,0,0-.948,1.2,1.7,1.7,0,0,0,.512,1.578,1.1,1.1,0,0,0,1.743-.359c.059-.165.036-.236-.153-.23-.218.006-.43-.006-.648.006-.159.006-.188-.047-.188-.2-.006-.777-.012-.777.771-.777C1235.594,849.16,1235.759,849.16,1235.924,849.16Z" transform="translate(-1178.744 -805.221)" fill="#0199e5"/>
      <path id="Path_23" data-name="Path 23" d="M785.8,493.7h7.337c.029.135-.059.153-.106.182a2.511,2.511,0,0,0-1.089,1.737c-.029.206-.153.165-.271.165h-4.293c-.088,0-.188.035-.212-.124a2.609,2.609,0,0,0-1.337-1.931C785.812,493.729,785.806,493.712,785.8,493.7Z" transform="translate(-758.785 -472.896)" fill="#0199e5"/>
      <path id="Path_24" data-name="Path 24" d="M895.049,852.646c.253-.63.489-1.219.718-1.8.13-.324.265-.648.389-.977a.213.213,0,0,1,.236-.165c.389.006.783,0,1.213,0-.182.436-.359.848-.536,1.26-.483,1.13-.972,2.261-1.443,3.4a.331.331,0,0,1-.365.241c-.713-.012-.718,0-1-.659q-.839-2-1.678-4c-.029-.071-.053-.141-.088-.241.424,0,.824.006,1.225-.006.165-.006.182.106.224.212l.989,2.473A2.465,2.465,0,0,0,895.049,852.646Z" transform="translate(-859.202 -807.931)" fill="#0199e5"/>
      <path id="Path_25" data-name="Path 25" d="M335.895,885.406c-2.12,0-4.239-.006-6.353.006-.306,0-.342-.106-.342-.371s.059-.324.324-.324q6.386.018,12.766.012c.106,0,.271-.071.306.076a1.256,1.256,0,0,1-.012.554c-.024.094-.194.047-.3.047Z" transform="translate(-329.07 -840.885)" fill="#0399e4"/>
      <path id="Path_26" data-name="Path 26" d="M1374.065,884.654c2.126,0,4.257.006,6.383-.012.318,0,.306.135.312.359.006.241-.029.336-.312.336-4.257-.012-8.514-.006-12.771-.012-.1,0-.253.065-.288-.065a.963.963,0,0,1,.012-.577c.035-.088.182-.035.277-.035Q1370.874,884.657,1374.065,884.654Z" transform="translate(-1306.092 -840.81)" fill="#0299e5"/>
      <path id="Path_27" data-name="Path 27" d="M840.44,143.289a3.29,3.29,0,0,0-1.931,1.013c-1.184-1.525-1.761-1.808-3.309-1.6.324-.33.612-.63.907-.924.43-.43.86-.86,1.284-1.29.088-.094.147-.159.277-.024q1.351,1.369,2.715,2.726A.246.246,0,0,1,840.44,143.289Z" transform="translate(-805.276 -140.386)" fill="#0199e5"/>
      <path id="Path_28" data-name="Path 28" d="M1086.742,235.738c0-2.037,0-4.081.006-6.118,0-.106-.106-.318.147-.283.183.024.4-.035.395.312q-.018,6.1,0,12.212c0,.306-.171.253-.347.283-.265.041-.2-.141-.2-.277Z" transform="translate(-1041.992 -224.096)" fill="#0199e5"/>
      <path id="Path_29" data-name="Path 29" d="M1025.478,852.154c0,.736-.006,1.472.006,2.2,0,.177-.041.247-.224.236a8.286,8.286,0,0,0-.854,0c-.147.006-.206-.041-.206-.2.006-1.5.006-3,0-4.5,0-.153.047-.206.2-.2q.442.018.883,0c.177-.006.206.071.206.224C1025.478,850.665,1025.478,851.406,1025.478,852.154Z" transform="translate(-983.147 -807.927)" fill="#029ae5"/>
      <path id="Path_30" data-name="Path 30" d="M1009.7,517.116c.277-.253.524-.506.795-.73a1.107,1.107,0,0,1,1.631.289.857.857,0,0,1-.059.942,1.074,1.074,0,0,1-.972.436.862.862,0,0,1-.565-.212C1010.253,517.61,1009.982,517.363,1009.7,517.116Z" transform="translate(-969.501 -494.021)" fill="#0199e5"/>
      <path id="Path_31" data-name="Path 31" d="M922.254,517.978a1,1,0,0,1-.954-.607.83.83,0,0,1,.2-.966,1.058,1.058,0,0,1,1.189-.235,4.1,4.1,0,0,1,1,.8c.059.047.047.094-.006.147a5.749,5.749,0,0,1-.919.771A1.006,1.006,0,0,1,922.254,517.978Z" transform="translate(-886.236 -493.959)" fill="#0199e5"/>
      <path id="Path_32" data-name="Path 32" d="M647.06,518.048a1.019,1.019,0,0,1-1.025-.642.84.84,0,0,1,.265-.977,1.1,1.1,0,0,1,1.26-.135,6.129,6.129,0,0,1,.871.736c.071.059.065.106,0,.159-.265.23-.524.471-.8.689A.781.781,0,0,1,647.06,518.048Z" transform="translate(-627.193 -494.029)" fill="#0199e5"/>
      <path id="Path_33" data-name="Path 33" d="M737.775,516.92a.875.875,0,0,1-.489.807,1.072,1.072,0,0,1-1.166-.041,9.9,9.9,0,0,1-.754-.659c-.065-.059-.1-.106-.012-.188.247-.218.477-.471.742-.671a1.08,1.08,0,0,1,1.337.035A.858.858,0,0,1,737.775,516.92Z" transform="translate(-711.261 -493.838)" fill="#0199e5"/>
      <path id="Path_34" data-name="Path 34" d="M687.2,492.5h2.779a7.015,7.015,0,0,0-1.207,1.072c-.118.13-.177.035-.259-.035A6.219,6.219,0,0,0,687.2,492.5Z" transform="translate(-665.991 -471.767)" fill="#0299e5"/>
      <path id="Path_35" data-name="Path 35" d="M663.318,450.259A6.536,6.536,0,0,1,662,450.3c-1.507.012-3.021,0-4.528-.006a.3.3,0,0,1-.277-.094h2.179a4.6,4.6,0,0,0,1.1.041C661.428,450.259,662.37,450.253,663.318,450.259Z" transform="translate(-637.757 -431.958)" fill="#83cdf1"/>
      <path id="Path_36" data-name="Path 36" d="M632.2,475.108h-2a10.3,10.3,0,0,1,2.173-.1C632.314,475.038,632.255,475.073,632.2,475.108Z" transform="translate(-612.347 -455.294)" fill="#a6dbf5"/>
      <path id="Path_37" data-name="Path 37" d="M628.973,460.294c-.353,0-.707.012-1.06.006a7.282,7.282,0,0,1-1.013-.1h1.961Z" transform="translate(-609.241 -441.369)" fill="#93d3f3"/>
      <path id="Path_38" data-name="Path 38" d="M1261.691,504.566a1.546,1.546,0,1,1-1.519-1.566A1.539,1.539,0,0,1,1261.691,504.566Z" transform="translate(-1203.745 -481.648)" fill="#004194"/>
    </g>
  </g>
</svg>
