<?xml version="1.0" encoding="UTF-8"?>
<svg viewBox="0 0 1920 962" xmlns="http://www.w3.org/2000/svg">
<g transform="translate(0 2.001)" data-name="Group 2948">
<g transform="translate(-16494 -4e3)" fill="#004195" data-name="Subtraction 15">
<path d="m17454 4959.5c-16.416 0-33.029-0.42041-49.375-1.249-16.221-0.82178-32.615-2.0684-48.729-3.7046-16.006-1.6255-32.162-3.6787-48.018-6.1021-15.771-2.4097-31.668-5.249-47.252-8.438-30.914-6.3262-61.85-14.281-91.951-23.643-29.771-9.2598-59.432-20.115-88.154-32.265-28.457-12.036-56.676-25.63-83.875-40.404-26.992-14.663-53.607-30.833-79.109-48.061-25.377-17.144-50.229-35.728-73.865-55.236-23.586-19.464-46.512-40.3-68.139-61.927-21.627-21.626-42.463-44.551-61.926-68.138-19.508-23.635-38.092-48.487-55.238-73.866-17.223-25.495-33.395-52.112-48.062-79.111-14.768-27.187-28.361-55.406-40.402-83.874-12.154-28.736-23.008-58.395-32.266-88.154-9.3633-30.103-17.318-61.04-23.643-91.953-3.1914-15.582-6.0293-31.479-8.4375-47.25-2.4277-15.885-4.4805-32.041-6.1016-48.02-1.6406-16.142-2.8867-32.536-3.7051-48.728-0.83008-16.359-1.25-32.971-1.25-49.376v-1.5027h1919v1.5027c0 16.459-0.41992 33.071-1.248 49.376-0.81836 16.171-2.0645 32.565-3.7031 48.728-1.623 15.974-3.6758 32.13-6.1016 48.02-2.4102 15.771-5.248 31.668-8.4375 47.25-6.3262 30.911-14.281 61.848-23.643 91.953-9.2656 29.782-20.121 59.441-32.27 88.154-12.045 28.478-25.637 56.697-40.402 83.875-14.662 26.992-30.832 53.608-48.061 79.11-17.145 25.377-35.729 50.229-55.236 73.866-19.465 23.586-40.301 46.511-61.928 68.138-21.637 21.635-44.561 42.47-68.139 61.927-23.639 19.508-48.49 38.093-73.865 55.236-25.508 17.231-52.123 33.401-79.111 48.061-27.189 14.771-55.41 28.364-83.875 40.404-28.725 12.15-58.385 23.005-88.154 32.265-30.1 9.3623-61.037 17.317-91.953 23.643-15.586 3.1895-31.484 6.0288-47.252 8.438-15.859 2.4238-32.016 4.4771-48.02 6.1021-16.113 1.6362-32.508 2.8828-48.727 3.7046-16.346 0.82861-32.959 1.249-49.377 1.249z"/>
<path d="m17454 4959c16.408 0 33.014-0.41992 49.352-1.2485 16.211-0.8208 32.596-2.0669 48.701-3.7031 15.996-1.624 32.145-3.6758 47.996-6.0981 15.758-2.4082 31.646-5.2456 47.225-8.4336 30.9-6.3232 61.822-14.273 91.906-23.631 29.754-9.2549 59.398-20.105 88.109-32.248 28.449-12.033 56.654-25.62 83.83-40.383 26.973-14.652 53.576-30.813 79.068-48.036 25.363-17.134 50.201-35.709 73.828-55.208 23.566-19.447 46.479-40.271 68.104-61.895 21.615-21.615 42.439-44.528 61.895-68.102 19.498-23.625 38.072-48.464 55.209-73.828 17.219-25.489 33.381-52.092 48.035-79.07 14.758-27.163 28.344-55.368 40.381-83.83 12.143-28.698 22.992-58.341 32.252-88.107 9.3574-30.089 17.309-61.011 23.631-91.905 3.1875-15.573 6.0234-31.461 8.4336-47.224 2.4238-15.881 4.4766-32.029 6.0996-47.995 1.6367-16.154 2.8828-32.54 3.7012-48.702 0.82617-16.296 1.2461-32.9 1.2461-49.35v-1.0027h-1918v1.0027c0 16.396 0.41992 33 1.248 49.351 0.81836 16.183 2.0645 32.569 3.7031 48.702 1.6211 15.971 3.6738 32.118 6.0996 47.995 2.4082 15.763 5.2441 31.651 8.4336 47.224 6.3203 30.897 14.271 61.818 23.631 91.905 9.25 29.743 20.1 59.387 32.248 88.107 12.033 28.453 25.621 56.657 40.381 83.83 14.66 26.985 30.822 53.587 48.037 79.07 17.137 25.366 35.711 50.205 55.209 73.828 19.455 23.574 40.279 46.487 61.895 68.102 21.615 21.616 44.529 42.44 68.104 61.895 23.625 19.499 48.463 38.073 73.828 55.208 25.486 17.22 52.09 33.381 79.066 48.036 27.186 14.767 55.391 28.354 83.83 40.383 28.709 12.143 58.354 22.993 88.109 32.248 30.084 9.3574 61.006 17.308 91.904 23.631 15.574 3.1875 31.463 6.0249 47.225 8.4336 15.85 2.4219 31.996 4.4736 47.994 6.0981 16.104 1.6362 32.49 2.8818 48.703 3.7031 16.338 0.82861 32.941 1.2485 49.35 1.2485m0 1c-16.426 0-33.047-0.42041-49.4-1.2495-16.227-0.82227-32.631-2.0693-48.754-3.707-16.01-1.626-32.174-3.6797-48.043-6.105-15.764-2.4087-31.67-5.2485-47.275-8.4424-30.93-6.3291-61.883-14.288-92-23.656-29.785-9.2637-59.461-20.125-88.201-32.282-28.471-12.042-56.705-25.643-83.918-40.425-27.014-14.674-53.643-30.853-79.15-48.086-25.393-17.154-50.258-35.748-73.904-55.265-23.6-19.476-46.537-40.322-68.174-61.959-21.639-21.638-42.484-44.575-61.959-68.173-19.52-23.65-38.113-48.515-55.266-73.904-17.24-25.52-33.418-52.15-48.088-79.152-14.771-27.193-28.373-55.428-40.424-83.918-12.158-28.748-23.02-58.422-32.281-88.2-9.3691-30.121-17.328-61.074-23.656-92.001-3.1934-15.598-6.0332-31.503-8.4414-47.274-2.4277-15.881-4.4824-32.046-6.1055-48.045-1.6387-16.134-2.8867-32.536-3.707-48.753-0.83008-16.378-1.25-32.999-1.25-49.401v-2.0027h1920v2.0027c0 16.427-0.41797 33.048-1.248 49.401-0.82031 16.21-2.0684 32.613-3.7051 48.753-1.625 15.995-3.6797 32.159-6.1055 48.045-2.4102 15.771-5.25 31.676-8.4414 47.274-6.3301 30.927-14.289 61.881-23.656 92.001-9.2656 29.787-20.127 59.461-32.285 88.2-12.047 28.483-25.646 56.717-40.424 83.918-14.668 27.002-30.846 53.632-48.086 79.152-17.152 25.389-35.746 50.253-55.266 73.904-19.475 23.598-40.32 46.535-61.959 68.173-21.648 21.647-44.586 42.494-68.174 61.959-23.648 19.517-48.514 38.111-73.904 55.265-25.512 17.235-52.141 33.414-79.152 48.086-27.205 14.779-55.439 28.38-83.918 40.425-28.742 12.157-58.418 23.018-88.201 32.282-30.115 9.3672-61.068 17.326-92.002 23.656-15.6 3.1924-31.506 6.0327-47.275 8.4424-15.865 2.4248-32.031 4.479-48.045 6.105-16.123 1.6377-32.525 2.8848-48.752 3.707-16.354 0.8291-32.975 1.2495-49.402 1.2495z" fill="#707070"/>
</g>
<path transform="translate(-16494 -4e3)" d="m16914 4793.9c-15.768-10.745-31.412-22.105-46.5-33.765-15.068-11.644-29.99-23.9-44.346-36.423s-28.5-25.625-42.074-38.964-26.926-27.264-39.684-41.387-25.27-28.823-37.18-43.7c-11.928-14.893-23.555-30.332-34.557-45.886-11.039-15.6-21.744-31.741-31.816-47.961-10.111-16.276-19.855-33.071-28.963-49.919-9.143-16.906-17.887-34.321-25.992-51.762-8.148-17.532-15.855-35.528-22.906-53.487-7.1-18.1-13.73-36.637-19.7-55.1-6.012-18.592-11.523-37.631-16.381-56.59-4.893-19.1-9.248-38.6-12.943-57.965-3.727-19.535-6.883-39.461-9.385-59.226-2.525-19.937-4.449-40.248-5.721-60.369-1.281-20.284-1.93-40.941-1.93-61.4v-2h1278.6l-858.54 795.89z" fill="#0046a1" data-name="Subtraction 16"/>
</g>
</svg>
