<?xml version="1.0" encoding="utf-8"?>
<!-- Generator: Adobe Illustrator 24.0.1, SVG Export Plug-In . SVG Version: 6.00 Build 0)  -->
<svg version="1.1" id="Layer_1" xmlns="http://www.w3.org/2000/svg" xmlns:xlink="http://www.w3.org/1999/xlink" x="0px" y="0px"
	 viewBox="0 0 3621.2 1725.1" style="enable-background:new 0 0 3621.2 1725.1;" xml:space="preserve">
<style type="text/css">
	.st0{opacity:9.000000e-02;enable-background:new    ;}
	.st1{fill:#0F6BC7;}
	.st2{fill:#48443E;}
	.st3{fill:#515151;}
	.st4{fill:#FFFFFF;}
	.st5{fill:#F7B631;}
	.st6{fill:#7ED55A;}
	.st7{fill:#7AB55C;}
	.st8{fill:#7E6467;}
	.st9{fill:#B16856;}
	.st10{fill:#BB7756;}
	.st11{fill:#B5D55A;}
	.st12{fill:#A4B55C;}
	.st13{fill:#A4BC4B;}
	.st14{fill:#FEB66D;}
	.st15{fill:#F7A85F;}
	.st16{fill:#FECC8D;}
	.st17{fill:#198DCE;}
	.st18{fill:#93ACBF;}
	.st19{fill:#F36E5B;}
	.st20{fill:#DC5F4A;}
	.st21{fill:#F4CDAF;}
	.st22{fill:#57453F;}
	.st23{fill:#595957;}
	.st24{fill:#FFFD73;}
	.st25{fill:#A77146;}
	.st26{fill:#B47D4F;}
	.st27{fill:#FFD56F;}
	.st28{fill:#CBE3EA;}
	.st29{fill:#717071;}
	.st30{fill:#7B7D7D;}
	.st31{fill:#A53E4B;}
	.st32{fill:#B6454E;}
	.st33{fill:#525050;}
	.st34{fill:#CCCCD2;}
	.st35{fill:#DADBDA;}
	.st36{fill:#666767;}
	.st37{fill:#595B5C;}
	.st38{fill:#7F8080;}
	.st39{fill:#41AB03;}
	.st40{fill:#F8CFB4;}
	.st41{fill:#E4AC88;}
	.st42{fill:#F1C19F;}
	.st43{opacity:0.77;}
	.st44{fill:#E3AD6E;}
	.st45{fill:#59595B;}
	.st46{opacity:0.45;}
	.st47{fill:#E3D4C4;}
	.st48{opacity:0.78;}
	.st49{fill:#CC9371;}
	.st50{fill:#76C18E;}
	.st51{fill:#FDECDB;}
	.st52{fill:#056795;}
	.st53{opacity:0.1;}
	.st54{fill:#1E1B1B;}
	.st55{fill:#FFDC98;}
	.st56{opacity:0.16;}
	.st57{fill:#3B2C24;}
	.st58{fill:#7A6356;}
	.st59{fill:#41BA03;}
	.st60{fill:#D5E2DC;}
	.st61{fill:#ECD1BD;}
	.st62{fill:#4C4C4C;}
	.st63{fill:#463632;}
	.st64{fill:#CCB09B;}
	.st65{fill:#AB8978;}
	.st66{fill:#E7C8B9;}
	.st67{fill:#41A903;}
	.st68{fill:#8C9091;}
	.st69{fill:#0F82C7;}
	.st70{fill:#AB8A77;}
	.st71{fill:#CDB09C;}
	.st72{fill:#9C7F6D;}
	.st73{fill:#D4D5C9;}
	.st74{fill:#EEEDD8;}
	.st75{fill:#AA977E;}
	.st76{fill:#512B26;}
	.st77{fill:#F4A960;}
	.st78{fill:#7C4035;}
	.st79{fill:#D8D6C5;}
	.st80{fill:#EDDFCA;}
	.st81{fill:#398CC4;}
	.st82{fill:#4997C1;}
	.st83{fill:#287FC6;}
	.st84{fill:#9B4F45;}
	.st85{fill:#DBC6A9;}
	.st86{fill:#D83A64;}
	.st87{fill:#B7A48B;}
	.st88{fill:#D8CAB4;}
	.st89{fill:#D1342C;}
	.st90{fill:#C92D4B;}
	.st91{opacity:0.9;fill:none;stroke:url(#SVGID_1_);stroke-width:1.6936;stroke-linecap:round;stroke-miterlimit:10;}
	.st92{opacity:0.9;fill:none;stroke:url(#SVGID_2_);stroke-width:1.7924;stroke-linecap:round;stroke-miterlimit:10;}
	.st93{opacity:0.9;fill:none;stroke:url(#SVGID_3_);stroke-width:1.886;stroke-linecap:round;stroke-miterlimit:10;}
	.st94{opacity:0.9;fill:none;stroke:url(#SVGID_4_);stroke-width:1.9751;stroke-linecap:round;stroke-miterlimit:10;}
	.st95{opacity:0.9;fill:none;stroke:url(#SVGID_5_);stroke-width:2.0604;stroke-linecap:round;stroke-miterlimit:10;}
	.st96{opacity:0.9;fill:none;stroke:url(#SVGID_6_);stroke-width:2.1423;stroke-linecap:round;stroke-miterlimit:10;}
	.st97{opacity:0.9;fill:none;stroke:url(#SVGID_7_);stroke-width:2.2212;stroke-linecap:round;stroke-miterlimit:10;}
	.st98{opacity:0.9;fill:none;stroke:url(#SVGID_8_);stroke-width:2.2974;stroke-linecap:round;stroke-miterlimit:10;}
	.st99{opacity:0.9;fill:none;stroke:url(#SVGID_9_);stroke-width:2.3711;stroke-linecap:round;stroke-miterlimit:10;}
	.st100{opacity:0.9;fill:none;stroke:url(#SVGID_10_);stroke-width:2.4426;stroke-linecap:round;stroke-miterlimit:10;}
	.st101{opacity:0.9;fill:none;stroke:url(#SVGID_11_);stroke-width:2.5121;stroke-linecap:round;stroke-miterlimit:10;}
	.st102{opacity:0.9;fill:none;stroke:url(#SVGID_12_);stroke-width:2.5797;stroke-linecap:round;stroke-miterlimit:10;}
	.st103{opacity:0.9;fill:none;stroke:url(#SVGID_13_);stroke-width:2.6455;stroke-linecap:round;stroke-miterlimit:10;}
	.st104{opacity:0.9;fill:none;stroke:url(#SVGID_14_);stroke-width:2.7098;stroke-linecap:round;stroke-miterlimit:10;}
	.st105{opacity:0.9;fill:none;stroke:url(#SVGID_15_);stroke-width:2.7726;stroke-linecap:round;stroke-miterlimit:10;}
	.st106{opacity:0.9;fill:none;stroke:url(#SVGID_16_);stroke-width:2.834;stroke-linecap:round;stroke-miterlimit:10;}
	.st107{opacity:0.9;fill:none;stroke:url(#SVGID_17_);stroke-width:2.8941;stroke-linecap:round;stroke-miterlimit:10;}
	.st108{opacity:0.9;fill:none;stroke:url(#SVGID_18_);stroke-width:3.0107;stroke-linecap:round;stroke-miterlimit:10;}
	.st109{opacity:0.9;fill:none;stroke:url(#SVGID_19_);stroke-width:3.0673;stroke-linecap:round;stroke-miterlimit:10;}
	.st110{opacity:0.9;fill:none;stroke:url(#SVGID_20_);stroke-width:3.1229;stroke-linecap:round;stroke-miterlimit:10;}
	.st111{opacity:0.9;fill:none;stroke:url(#SVGID_21_);stroke-width:3.1775;stroke-linecap:round;stroke-miterlimit:10;}
	.st112{opacity:0.9;fill:none;stroke:url(#SVGID_22_);stroke-width:3.2312;stroke-linecap:round;stroke-miterlimit:10;}
	.st113{opacity:0.9;fill:none;stroke:url(#SVGID_23_);stroke-width:3.2841;stroke-linecap:round;stroke-miterlimit:10;}
	.st114{opacity:0.9;fill:none;stroke:url(#SVGID_24_);stroke-width:3.3361;stroke-linecap:round;stroke-miterlimit:10;}
	.st115{opacity:0.9;fill:none;stroke:url(#SVGID_25_);stroke-width:3.3361;stroke-linecap:round;stroke-miterlimit:10;}
	.st116{opacity:0.9;fill:none;stroke:url(#SVGID_26_);stroke-width:3.3361;stroke-linecap:round;stroke-miterlimit:10;}
	.st117{opacity:0.9;fill:none;stroke:url(#SVGID_27_);stroke-width:3.3361;stroke-linecap:round;stroke-miterlimit:10;}
	.st118{opacity:0.5;fill:none;stroke:url(#SVGID_28_);stroke-width:2.953;stroke-linecap:round;stroke-miterlimit:10;}
	.st119{opacity:0.9;fill:none;stroke:url(#SVGID_29_);stroke-width:2.953;stroke-linecap:round;stroke-miterlimit:10;}
</style>
<g transform="translate(150.74 17.409)">
	<g id="sky">
		<path class="st0" d="M3470.5-17.3V1109c-48.3,32.9-187.3,122.6-368,198.3c-1.9,0.9-3.6,1.6-5.5,2.4c-2.8,1.2-5.5,2.2-8.3,3.4
			c-5.9,2.4-11.7,4.8-17.6,7.1c-40.5,16.2-82.9,31.4-126.7,45.2c-30.9,9.7-62.4,18.4-94.5,26.2c-13.3,3.3-26.7,6.2-40.2,9.1
			c-14.1,2.9-28.3,5.7-42.4,8.3c-6.9,1.2-13.6,2.4-20.5,3.4c-18.8,2.9-37.8,5.5-56.7,7.6c-1.9,0.2-3.8,0.3-5.7,0.7
			c-4.8,0.5-9.7,1-14.5,1.4c-4.7,0.3-9.3,0.9-14,1.2c-3.6,0.3-7.1,0.5-10.7,0.7c-0.9,0-1.7,0.2-2.6,0.2c-1.2,0-2.2,0.2-3.4,0.2
			l-9.8,0.5c-9.8,0.5-19.7,0.9-29.5,1h-5.5c-4.7,0-9.3,0.2-14,0.2c-24.7,0-47.9-0.9-70-2.2h-0.2c-20.2-1.4-39.5-3.3-57.8-5.9
			c-13.4-1.7-26.4-3.8-38.8-6.2c-75-14-134.5-37.1-187.9-63.8c-6.9-3.4-13.6-6.9-20.5-10.5c-147.4-78.1-255.2-179.3-535.2-179.3
			c-455.4,0-456.1,268-910.9,268s-908.7-329.9-908.7-329.9V-17.3H3470.5L3470.5-17.3z"/>
		<path class="st1" d="M3470.5-17v1095.3c0,0-193.6,139-454.4,235c-17.2,6.4-34.8,12.6-52.6,18.4c-37.1,12.2-75.2,23.6-114.1,33.5
			c-14.1,3.6-28.5,6.9-42.9,10c-11.4,2.6-22.9,4.8-34.5,7.1c-8.1,1.6-16.2,2.9-24.3,4.3c-16.9,2.9-34,5.5-51.2,7.6
			c-1.9,0.2-3.8,0.5-5.7,0.7c-3.8,0.5-7.8,0.9-11.6,1.4c-4.7,0.5-9.5,1-14.1,1.6c-5.2,0.5-10.3,1-15.3,1.4c-2.2,0.2-4.5,0.3-6.6,0.5
			l-22.2,1.6c-1.9,0.2-4,0.2-5.9,0.3l-11.9,0.5h-0.5c-1.9,0-3.6,0.2-5.5,0.2c-10.5,0.3-21,0.5-31.6,0.5c-16.9,0-33.1-0.3-48.8-1
			c-0.9,0-1.7,0-2.4-0.2c-18.3-0.9-35.7-2.2-52.4-4c-14.1-1.6-27.8-3.3-41-5.3c-75.7-11.7-136-32.6-189.5-57.4
			c-2.1-0.9-4.1-1.9-6.2-2.9c-164.8-78.1-266.6-192.9-565.6-192.9c-453.1,0-453.7,263.6-906.3,263.6
			c-398.1,0-795.4-251.1-885.3-311.6c-10.5-7.1-16.7-11.6-18.4-12.6c-0.3-0.2-0.5-0.3-0.5-0.3V-17H3470.5L3470.5-17z"/>
	</g>
	<g id="truck__x26__houses" transform="translate(-150.74 551.46)">
		<g transform="translate(646 241.13)">
			<g transform="translate(.322)">
				<path class="st2" d="M401,811.2l9.7,5.5h-1.2l7.4,4.3h1.2l70.2,39.8l7.4,4.3l69.3,39.5l7.4,4.3l6.6,3.8c1.7,1,3.8,1.9,5.9,2.1
					H1566c1.2,0,0.5-1-1.6-2.1l-6.6-3.8l-7.4-4.3l-69.3-39.5l-7.6-4.3l-87.2-49.7H401L401,811.2z"/>
			</g>
			<path class="st3" d="M1565.7,914.9H584.6c-2.1-0.3-4.1-1-5.9-2.1L400.8,811.2h985.3l178.1,101.6
				C1566.2,914,1566.9,914.9,1565.7,914.9L1565.7,914.9z"/>
			<path class="st4" d="M1402.1,821.1H416.7l-7.4-4.3h985.3L1402.1,821.1L1402.1,821.1z"/>
			<path class="st4" d="M1555.4,909H574.3c-2.1-0.3-4.1-1-5.9-2.1c-2.1-1.2-2.8-2.1-1.6-2.1H1548c2.1,0.3,4.1,1,5.9,2.1
				C1555.9,908,1556.6,909,1555.4,909L1555.4,909z"/>
			<g transform="translate(46.24 26.368)">
				<path class="st5" d="M702.2,834.5h-59.7l7.4,4.3h59.7L702.2,834.5z"/>
				<path class="st5" d="M913.8,834.5h-59.7l7.4,4.3h59.7L913.8,834.5L913.8,834.5z"/>
				<path class="st5" d="M1019.5,834.5h-59.7l7.4,4.3h59.7L1019.5,834.5z"/>
				<path class="st5" d="M808.1,834.5h-59.7l7.4,4.3h59.7L808.1,834.5z"/>
				<path class="st5" d="M544.5,838.8h59.7l-7.4-4.3h-59.8L544.5,838.8z"/>
				<path class="st5" d="M1125.2,834.5h-59.7l7.4,4.3h59.7L1125.2,834.5z"/>
				<path class="st5" d="M1230.9,834.5h-59.7l7.4,4.3h59.7L1230.9,834.5z"/>
				<path class="st5" d="M490.8,834.5h-49.1l7.4,4.3h49.1C498.3,838.8,490.8,834.5,490.8,834.5z"/>
				<path class="st5" d="M1382.8,834.5l7.4,4.3h44.1l-7.4-4.3H1382.8z"/>
				<path class="st5" d="M1336.8,834.5h-59.7l7.4,4.3h59.7L1336.8,834.5z"/>
			</g>
		</g>
		<g transform="translate(366 241.13)">
			<g transform="translate(.322)">
				<path class="st2" d="M153.1,811.2l9.7,5.5h-1.2l7.4,4.3h1.2l70,39.8l7.4,4.3l69.3,39.5l7.4,4.3l6.6,3.8c1.7,1,3.8,1.9,5.9,2.1
					h981.1c1.2,0,0.5-1-1.6-2.1l-6.6-3.8l-7.4-4.3l-69.3-39.5l-7.4-4.3l-87.2-49.7H153.1L153.1,811.2z"/>
			</g>
			<path class="st3" d="M1317.8,914.9H336.6c-2.1-0.3-4.1-1-5.9-2.1L152.7,811.2h985.3L1316,912.8
				C1318.3,914,1319,914.9,1317.8,914.9z"/>
			<path class="st4" d="M1154.1,821.1H168.7l-7.4-4.3h985.3L1154.1,821.1L1154.1,821.1z"/>
			<path class="st4" d="M1307.4,909H326.3c-2.1-0.3-4.1-1-5.9-2.1c-2.1-1.2-2.8-2.1-1.6-2.1H1300c2.1,0.3,4.1,1,5.9,2.1
				C1307.9,908,1308.6,909,1307.4,909L1307.4,909z"/>
			<g transform="translate(46.24 26.368)">
				<path class="st5" d="M454.3,834.5h-59.7l7.4,4.3h59.7L454.3,834.5z"/>
				<path class="st5" d="M665.8,834.5h-59.7l7.4,4.3h59.7L665.8,834.5L665.8,834.5z"/>
				<path class="st5" d="M771.5,834.5h-59.7l7.4,4.3H779L771.5,834.5z"/>
				<path class="st5" d="M560,834.5h-59.5l7.4,4.3h59.7L560,834.5z"/>
				<path class="st5" d="M296.5,838.8h59.7l-7.4-4.3h-59.8L296.5,838.8z"/>
				<path class="st5" d="M877.2,834.5h-59.7l7.4,4.3h59.7L877.2,834.5z"/>
				<path class="st5" d="M982.9,834.5h-59.7l7.4,4.3h59.7L982.9,834.5z"/>
				<path class="st5" d="M242.9,834.5h-49.1l7.4,4.3h49.1L242.9,834.5z"/>
				<path class="st5" d="M1134.8,834.5l7.4,4.3h44.1l-7.4-4.3H1134.8z"/>
				<path class="st5" d="M1088.6,834.5H1029l7.4,4.3h59.7L1088.6,834.5z"/>
			</g>
		</g>
		<g transform="translate(0 241.13)">
			<path class="st3" d="M0.2,909.2v-97.4c0-0.2,0.2-0.3,0.3-0.3h813.2h0.2l2.9,1.7l1,0.5l5.7,3.3l4.7,2.6l2.9,1.7l3.8,2.1l0.9,0.5
				l16,9.1l6.9,4l2.2,1.2l0,0l2.2,1.4l8.4,4.8l0.5,0.2l4.5,2.6l5.3,3.1l0.7,0.3l0.9,0.5l6.4,3.6l11.4,6.6l7.4,4.3l5,2.9l64.3,36.7
				l7.6,4.1l6.6,3.8c1.7,1,2.4,1.9,1.4,1.9l0,0H0.2V909.2z"/>
			<polygon class="st4" points="829.9,821.1 0.2,821.1 0.2,816.7 822.3,816.7 827,819.3 			"/>
			<path class="st4" d="M983.9,908.7c0,0.2-0.2,0.3-0.5,0.3H1.9c-0.5,0-1-0.2-1.7-0.3v-4h975.6c2.1,0.3,4.1,1,5.9,2.1
				C983,907.6,983.9,908.3,983.9,908.7z"/>
			<g transform="translate(46.24 26.368)">
				<path class="st5" d="M129.9,834.5H70l7.4,4.3h59.7L129.9,834.5z"/>
				<path class="st5" d="M341.3,834.5h-59.7l7.4,4.3h59.7L341.3,834.5L341.3,834.5z"/>
				<path class="st5" d="M447.1,834.5h-59.7l7.4,4.3h59.7L447.1,834.5z"/>
				<path class="st5" d="M235.6,834.5h-59.7l7.4,4.3H243L235.6,834.5z"/>
				<path class="st5" d="M-28.3,838.8h59.7l-7.4-4.3h-59.7L-28.3,838.8z"/>
				<path class="st5" d="M552.8,834.5h-59.7l7.4,4.3h59.7L552.8,834.5z"/>
				<path class="st5" d="M658.7,834.5H599l7.4,4.3h59.7L658.7,834.5z"/>
				<path class="st5" d="M810.6,834.5l7.4,4.3h44.3l-7.4-4.3H810.6z"/>
				<path class="st5" d="M764.4,834.5h-59.7l7.4,4.3h59.7L764.4,834.5z"/>
			</g>
		</g>
		<g transform="translate(1148 241.13)">
			<g transform="translate(.322)">
				<path class="st2" d="M845.7,811.2l9.7,5.5h-1.2l7.4,4.3h1.4l70,39.8l7.4,4.3l69.3,39.5l7.4,4.3l6.6,3.8c1.7,1,3.8,1.9,5.9,2.1
					h981.1c1.2,0,0.5-1-1.6-2.1l-6.6-3.8l-7.4-4.3l-69.3-39.5l-7.6-4.3l-87.2-49.7H845.7L845.7,811.2z"/>
			</g>
			<path class="st3" d="M2010.4,914.9h-981.1c-2.1-0.3-4.1-1-5.9-2.1L845.4,811.2h985.3l178.1,101.6
				C2010.9,914,2011.6,914.9,2010.4,914.9L2010.4,914.9z"/>
			<path class="st4" d="M1846.7,821.1H861.3l-7.4-4.3h985.3L1846.7,821.1L1846.7,821.1z"/>
			<path class="st4" d="M2000,909h-981.1c-2.1-0.3-4.1-1-5.9-2.1c-2.1-1.2-2.8-2.1-1.6-2.1h981.1c2.1,0.3,4.1,1,5.9,2.1
				C2000.5,908,2001.2,909,2000,909L2000,909z"/>
			<g transform="translate(46.24 26.368)">
				<path class="st5" d="M1146.9,834.5h-59.7l7.4,4.3h59.7L1146.9,834.5L1146.9,834.5z"/>
				<path class="st5" d="M1358.5,834.5h-59.7l7.4,4.3h59.7L1358.5,834.5z"/>
				<path class="st5" d="M1464.2,834.5h-59.7l7.4,4.3h59.7L1464.2,834.5z"/>
				<path class="st5" d="M1252.8,834.5h-59.7l7.4,4.3h59.7L1252.8,834.5z"/>
				<path class="st5" d="M989.1,838.8h59.7l-7.4-4.3h-59.8L989.1,838.8z"/>
				<path class="st5" d="M1569.9,834.5h-59.7l7.4,4.3h59.7L1569.9,834.5z"/>
				<path class="st5" d="M1675.5,834.5h-59.7l7.4,4.3h59.7L1675.5,834.5z"/>
				<path class="st5" d="M935.5,834.5h-49.1l7.4,4.3h49.1L935.5,834.5z"/>
				<path class="st5" d="M1827.5,834.5l7.4,4.3h44.1l-7.4-4.3H1827.5z"/>
				<path class="st5" d="M1781.4,834.5h-59.7l7.4,4.3h59.7L1781.4,834.5z"/>
			</g>
		</g>
		<g transform="translate(1590 241.13)">
			<g transform="translate(.322)">
				<path class="st2" d="M2030.9,811.2v103.6h-609.7c-2.1-0.3-4.1-1-5.9-2.1l-6.6-3.8l-1-0.7l-5.3-2.9l-1-0.7l-69.3-39.5l-7.4-4.3
					l-70-39.8h-1.2l-7.6-4.3h1l-9.1-5.2l-0.5-0.3L2030.9,811.2L2030.9,811.2z"/>
			</g>
			<path class="st3" d="M2031.2,811.2v103.6h-610.2c-2.1-0.3-4.1-1-5.9-2.1l-6.6-3.8l-3.1-1.7l-0.7-0.3c-0.2-0.2-0.3-0.2-0.5-0.3
				l-3.3-1.9l-69.3-39.5l-7.4-4.3l-70-39.8l-7.4-4.3l-9.1-5.2l-0.7-0.3H2031.2L2031.2,811.2z"/>
			<polygon class="st4" points="2031.2,816.7 2031.2,821.1 1252.8,821.1 1245.4,816.7 			"/>
			<path class="st4" d="M2031.2,904.7v4.3h-620.6c-0.9-0.2-1.7-0.3-2.6-0.7l-2.6-1l-0.7-0.3c-0.2-0.2-0.3-0.2-0.5-0.3
				c-0.7-0.5-1.2-0.9-1.6-1.2c-0.2-0.2-0.2-0.2-0.2-0.3s0.2-0.3,0.5-0.3L2031.2,904.7L2031.2,904.7z"/>
			<g transform="translate(46.24 26.368)">
				<path class="st5" d="M1538.4,834.5h-59.7l7.4,4.3h59.7L1538.4,834.5z"/>
				<path class="st5" d="M1750,834.5h-59.7l7.4,4.3h59.7L1750,834.5z"/>
				<path class="st5" d="M1855.7,834.5H1796l7.4,4.3h59.7L1855.7,834.5z"/>
				<path class="st5" d="M1644.1,834.5h-59.7l7.4,4.3h59.7L1644.1,834.5z"/>
				<path class="st5" d="M1380.5,838.8h59.7l-7.4-4.3H1373C1373,834.5,1380.5,838.8,1380.5,838.8z"/>
				<path class="st5" d="M1961.4,834.5h-59.7l7.4,4.3h59.7L1961.4,834.5z"/>
				<path class="st5" d="M1327,834.5h-49.1l7.4,4.3h49.1L1327,834.5z"/>
			</g>
		</g>
		<g transform="translate(1450.7 75)">
			<path class="st6" d="M1154.5,774.9l-3.3-64.1l-71.7-46.7l-28.3,139.5l36.9,93.1l50.2-13.8L1154.5,774.9z"/>
			<path class="st7" d="M1151.2,710.7l-22.8-14.8L1081.6,819l-30.5-15.7l36.9,93.1l50.2-13.8l16.4-108.1L1151.2,710.7z"/>
		</g>
		<path class="st8" d="M2553.8,953l-2.2,39.8l-6.4-8.3c-0.7-0.9-1.7-1-2.6-0.3c-0.7,0.5-0.9,1.4-0.7,2.1l8.3,23.8l-1.4,34.7h16.6
			V953H2553.8z"/>
		<g transform="translate(1388.5)">
			<g transform="translate(117.25 .546)">
				<path class="st9" d="M1115.4,735.3l-2.6-117.9l-12.4-0.9l-0.5-18.3l76.9,3.6l0.5,20.9l-16.2-0.2l-1.2,66.2
					C1159.9,688.7,1115.4,735.3,1115.4,735.3z"/>
				<path class="st10" d="M1100.1,598l0.3,12.1l62.6,1.6l6.6-10.3C1169.6,601.3,1100.1,598,1100.1,598z"/>
			</g>
			<g transform="translate(0 182.18)">
				<g transform="translate(85.945)">
					<path class="st11" d="M1078.4,854.2l-6.2-20.9l25.5-74.5l64.7,25.3l2.9,38.5l-7.1,31.4C1158.3,854.1,1078.4,854.2,1078.4,854.2
						z"/>
					<path class="st12" d="M1078.4,854.2l-6.2-20.9l34.1,7.4l35.7-64.5l20.5,8.1l2.9,38.5l-7.1,31.4H1078.4L1078.4,854.2z"/>
				</g>
				<path class="st12" d="M1511.7,854.2h-107.1c-10.3,5.3-20.5,10.7-30.7,16.2h159.3L1511.7,854.2z"/>
				<path class="st11" d="M1164.3,854.2l-15.5,16.2h144.2l1.6,5.2l21.6-5.2l4.8,3.3l21.6-3.3l3.1,1.4l11.2-1.4h17.2
					c10.2-5.5,20.5-10.9,30.7-16.2H1164.3z"/>
				<path class="st11" d="M1011.7,854.2l-15.5,16.2h144.2l1.6,5.2l21.6-5.2l4.8,3.3l21.6-3.3l3.1,1.4l11.2-1.4h17.2
					c10.2-5.5,20.5-10.9,30.7-16.2H1011.7z"/>
				<path class="st13" d="M1024.8,841.1l-15.5,16.2h144.2l1.6,5.2l21.6-5.2l4.8,3.3l21.6-3.3l3.1,1.4l11.2-1.4h17.2
					c10.2-5.5,20.5-10.9,30.7-16.2H1024.8L1024.8,841.1z"/>
			</g>
			<g transform="translate(238.45 57.989)">
				<path class="st8" d="M1262.9,879.6l2.4,42.9l6.9-9c0.7-0.9,1.9-1,2.8-0.3c0.7,0.5,1,1.4,0.7,2.2l-9,25.5l1.6,37.4h-17.9v-98.8
					H1262.9L1262.9,879.6z"/>
				<path class="st6" d="M1207.3,768.4l3.4-69.1l77.2-50.3l30.7,150.4l-39.7,100.4l-54-14.7L1207.3,768.4L1207.3,768.4z"/>
				<path class="st7" d="M1210.8,699.3l24.5-15.9l50.5,132.8l32.9-16.9l-39.7,100.4l-54-14.7l-17.8-116.6L1210.8,699.3L1210.8,699.3
					z"/>
			</g>
			<g transform="translate(95.249)">
				<path class="st14" d="M1378.1,810.2l6-68.5l-131.9-133.1l-138.5,129.1l3.6,74.3C1204.3,812.6,1291.6,812.1,1378.1,810.2z"/>
				<path class="st15" d="M1288.5,641.2l-36.2-36.6l-80.2,74.8h4.5c49.1-0.9,98.3-2.6,147.6-2.4L1288.5,641.2L1288.5,641.2z"/>
				<path class="st16" d="M1117.4,808.3l8.1,228.1h238.1l14.5-230C1291.6,808.3,1204.3,808.8,1117.4,808.3L1117.4,808.3z"/>
				<path class="st14" d="M1225,1020.6c-33.6-9.8-67.4-19.7-101-27.6l1.6,43.6h137.4C1256.2,1018.7,1237.6,1024.7,1225,1020.6z"/>
				<path class="st14" d="M1365.9,1000.2c-45.3-17.2-91-34.3-130.4-62.9c4.1,33.8,18.8,65.5,27.4,99.1h100.5L1365.9,1000.2z"/>
				<path class="st8" d="M1419.9,747.6l-171.4-150l-167.9,154.5l12.8,11.7l155.4-143.5l158.8,139.3L1419.9,747.6L1419.9,747.6z"/>
			</g>
			<g transform="translate(158.24 54.857)">
				<path class="st8" d="M1136.3,646.1c0.5,1.4,5.5,69.5,5.5,69.5l89.8-5l9.7-64.7L1136.3,646.1L1136.3,646.1z"/>
				<path class="st17" d="M1146.8,709.9c-2.6-34.5-3.8-50.7-4.5-58.3h92.6l-8.1,53.8C1226.8,705.5,1146.8,709.9,1146.8,709.9z"/>
				<g transform="translate(3.726 2.917)">
					<path class="st18" d="M1158.7,648.8c-6.2,4.1-12.6,7.9-19,11.6c0.3,3.4,0.5,7.4,1,12.2c11.7-7.8,23.6-15.5,34.8-23.8
						C1175.6,648.8,1158.7,648.8,1158.7,648.8z"/>
					<path class="st18" d="M1183,648.8c-13.6,10.9-27.6,21.4-41.7,31.9c0.2,1.4,0.2,2.8,0.3,4.1c15.7-11.6,30.9-24,46.7-35.9
						L1183,648.8L1183,648.8z"/>
					<path class="st18" d="M1230.7,651.4c-28.8,17.9-57.9,35.3-87.9,51c0.2,1.6,0.2,3.1,0.3,4.7l4.5-0.2
						c27.8-14.7,54.7-31,81.9-47.1C1229.5,659.8,1230.7,651.4,1230.7,651.4z"/>
					<path class="st18" d="M1228.5,667c-21.7,14.3-45.2,25.9-67.2,39.1l11.9-0.7c18.6-9.1,36.7-19.5,54.3-30.7L1228.5,667z"/>
				</g>
				<path class="st8" d="M1184.6,648.4v61.6h5.5l1.9-61.6H1184.6z"/>
				<path class="st8" d="M1233.9,675.6h-91.2v5.5l91.2,1.9V675.6z"/>
				<path class="st9" d="M1236.7,709.9l-99,4.5l1.4,9.3l95.9-3.1L1236.7,709.9z"/>
				<path class="st15" d="M1234.9,720.5l-35.9,21l-60-17.9L1234.9,720.5z"/>
			</g>
			<g transform="translate(158.24 119.34)">
				<path class="st8" d="M1136.3,703.4c0.5,1.4,5.5,69.5,5.5,69.5l89.8-5l9.7-64.7L1136.3,703.4L1136.3,703.4z"/>
				<path class="st17" d="M1146.8,767c-2.6-34.5-3.8-50.7-4.5-58.3h92.6l-8.1,53.8C1226.8,762.5,1146.8,767,1146.8,767z"/>
				<g transform="translate(3.726 2.916)">
					<path class="st18" d="M1158.7,705.8c-6.2,4.1-12.6,7.9-19,11.6c0.3,3.4,0.5,7.4,1,12.2c11.7-7.8,23.6-15.5,34.8-23.8
						C1175.6,705.8,1158.7,705.8,1158.7,705.8z"/>
					<path class="st18" d="M1183,705.8c-13.6,10.9-27.6,21.4-41.7,31.9c0.2,1.4,0.2,2.8,0.3,4.1c15.7-11.6,30.9-24,46.7-35.9
						L1183,705.8L1183,705.8z"/>
					<path class="st18" d="M1230.7,708.4c-28.8,17.9-57.9,35.3-87.9,51c0.2,1.6,0.2,3.1,0.3,4.7l4.5-0.2
						c27.8-14.7,54.7-31,81.9-47.1C1229.5,716.9,1230.7,708.4,1230.7,708.4z"/>
					<path class="st18" d="M1228.5,724.1c-21.7,14.3-45.2,25.9-67.2,39.1l11.9-0.7c18.6-9.1,36.7-19.5,54.3-30.7L1228.5,724.1z"/>
				</g>
				<path class="st8" d="M1184.6,705.6v61.6h5.5l1.9-61.6C1192,705.6,1184.6,705.6,1184.6,705.6z"/>
				<path class="st8" d="M1233.9,732.7h-91.2v5.5l91.2,1.9V732.7z"/>
				<path class="st9" d="M1236.7,767l-99,4.5l1.4,9.3l95.9-3.1L1236.7,767z"/>
			</g>
			<g transform="translate(165 166.27)">
				<path class="st8" d="M1151,870.1l-8.8-121.2l76.2-4.1l-7.9,125.4H1151L1151,870.1z"/>
				<path class="st10" d="M1157.4,870.1l-7.8-114.7l61.6-3.4l-7.1,118.1C1204.1,870.1,1157.4,870.1,1157.4,870.1z"/>
				<path class="st9" d="M1204.1,870.1l-39.8-32.6l-4.1-82.8l-10.5,0.5l7.8,114.7L1204.1,870.1L1204.1,870.1z"/>
				<path class="st8" d="M1199.7,800.8h-5.9l-1.6,12.6h7.4C1199.7,813.4,1199.7,800.8,1199.7,800.8z"/>
			</g>
			<g transform="translate(129.03 224.91)">
				<path class="st19" d="M1110.5,808.8v-3.1l6.6-9l7.6,6.2l-1.2,5.3l-6.4,5.2L1110.5,808.8L1110.5,808.8z"/>
				<path class="st20" d="M1110.5,808.8v-3.1l4.3,2.4l7.6-7.2l2.4,1.9l-1.2,5.3l-6.4,5.2C1117.2,813.3,1110.5,808.8,1110.5,808.8z"
					/>
			</g>
			<g transform="translate(140.06 224.91)">
				<path class="st19" d="M1120.2,808.8v-3.1l6.6-9l7.6,6.2l-1.2,5.3l-6.4,5.2L1120.2,808.8L1120.2,808.8z"/>
				<path class="st20" d="M1120.2,808.8v-3.1l4.3,2.4l7.6-7.2l2.4,1.9l-1.2,5.3l-6.4,5.2C1126.9,813.3,1120.2,808.8,1120.2,808.8z"
					/>
			</g>
			<g transform="translate(151.08 224.91)">
				<path class="st19" d="M1129.9,808.8v-3.1l6.6-9l7.6,6.2l-1.2,5.3l-6.4,5.2L1129.9,808.8L1129.9,808.8z"/>
				<path class="st20" d="M1129.9,808.8v-3.1l4.3,2.4l7.6-7.2l2.4,1.9l-1.2,5.3l-6.4,5.2C1136.6,813.3,1129.9,808.8,1129.9,808.8z"
					/>
			</g>
			<g transform="translate(209.6 224.91)">
				<path class="st19" d="M1181.8,808.8v-3.1l6.6-9l7.6,6.2l-1.2,5.3l-6.4,5.2L1181.8,808.8L1181.8,808.8z"/>
				<path class="st20" d="M1181.8,808.8v-3.1l4.3,2.4l7.6-7.2l2.4,1.9l-1.2,5.3l-6.4,5.2C1188.5,813.3,1181.8,808.8,1181.8,808.8z"
					/>
			</g>
			<g transform="translate(220.63 224.91)">
				<path class="st19" d="M1191.5,808.8v-3.1l6.6-9l7.6,6.2l-1.2,5.3l-6.4,5.2L1191.5,808.8L1191.5,808.8z"/>
				<path class="st20" d="M1191.5,808.8v-3.1l4.3,2.4l7.6-7.2l2.4,1.9l-1.2,5.3l-6.4,5.2C1198.2,813.3,1191.5,808.8,1191.5,808.8z"
					/>
			</g>
			<g transform="translate(231.65 224.91)">
				<path class="st19" d="M1201.4,808.8v-3.1l6.6-9l7.6,6.2l-1.2,5.3l-6.4,5.2L1201.4,808.8L1201.4,808.8z"/>
				<path class="st20" d="M1201.4,808.8v-3.1l4.3,2.4l7.6-7.2l2.4,1.9l-1.2,5.3l-6.4,5.2C1208.1,813.3,1201.4,808.8,1201.4,808.8z"
					/>
			</g>
		</g>
		<g transform="translate(1496.4 179.15)">
			<g transform="translate(6.787)">
				<g transform="translate(0 24.475)">
					<g transform="translate(0 27.822)">
						<g transform="translate(1.605)">
							<path class="st21" d="M1101.3,809.9c-0.7,0-1.4,0-2.1-0.2c-0.2-2.4,0-4.8,0.5-7.2c1.2,1.2,2.1,0.3,2.1,2.6
								C1101.4,806.8,1101.3,808.4,1101.3,809.9z"/>
						</g>
						<g transform="translate(0 3.153)">
							<path class="st22" d="M1100.6,805.5c-0.9-0.2-0.9,1.7-0.9,2.1v0.9c0,0.3-0.2,0.5-0.3,0.9l-1,1.6c-0.2,0.2-0.3,0.5-0.3,0.7
								c-0.2,0.7,0.2,1.4,0.9,1.7c2.2,1,4-1.7,4.5-3.4c0-0.3,0.2-0.5,0.2-0.9c0-0.5,0.5-1.7,0.2-2.4s-1-0.2-1.6-0.3
								C1101.3,805.8,1101,805.5,1100.6,805.5z"/>
						</g>
					</g>
					<g transform="translate(.581)">
						<path class="st23" d="M1113.3,797.2c-1.9,5.5-3.6,11.2-4.8,16.9c-1.2,7.1-3.4,14.1-4.5,21.4h-2.6c-1,0-2.6-0.2-2.9-1.4
							c-0.2-0.7-0.2-1.4,0-2.1v-5.5c0-5.2,0.2-10.5,0.9-15.7c0.7-5.5,1.4-10.9,2.1-16.4c0.3-2.8,0.7-5.7,1.2-8.4
							c0.5-2.8,1.2-5.3,2.1-8.1c4.3,0.5,8.6,1.7,12.4,3.8c0.3,0.2,0.7,0.5,0.9,0.9c0.2,0.3,0.2,0.7,0,1c-1,3.4-2.2,6.7-3.3,10
							C1114,794.8,1113.6,796,1113.3,797.2L1113.3,797.2z"/>
					</g>
					<g transform="translate(6.538 .287)">
						<g transform="translate(2.25 27.758)">
							<g transform="translate(.167)">
								<path class="st21" d="M1105.7,809.7c0.7,0.2,1.4,0.2,2.1,0.2c0.5-2.4,0.9-4.7,1-7.1c-1.4,0.9-2.1,0-2.6,2.2
									C1106.1,806.4,1105.9,808.2,1105.7,809.7z"/>
							</g>
							<g transform="translate(0 2.922)">
								<path class="st22" d="M1108.5,806.3c0.3,1.4,1,2.8,1.7,3.8c0,0.2,0.2,0.3,0.2,0.3c0,0.2-0.2,0.5-0.2,0.7
									c-0.2,0.3-0.3,0.5-0.7,0.7s-0.7,0.2-0.9,0c-0.5,0-1-0.2-1.6-0.3c-0.3,0-0.5-0.2-0.7-0.5c-0.3-0.5-0.7-1.2-0.7-1.9
									c0-0.9,0-1.7-0.2-2.4c-0.2-0.3-0.2-0.9,0.2-1c0.2-0.2,0.7,0,1,0c0.5,0,1,0,1.4,0.2c0.2,0,0.2,0.2,0.2,0.2
									C1108.5,806,1108.5,806.1,1108.5,806.3L1108.5,806.3z"/>
							</g>
						</g>
						<path class="st23" d="M1105.2,795.5c0.9,5.9,1.2,11.6,1.4,17.4c-0.2,7.2,0.7,14.7,0.2,21.9l2.6,0.5c1,0.2,2.6,0.3,3.3-0.7
							l0.5-2.1c0.3-1.9,0.7-3.6,1-5.5c1-5.2,1.9-10.3,2.2-15.5c0.3-5.5,0.7-11,1.2-16.6c0.2-2.8,0.3-5.7,0.3-8.4s0-5.5-0.3-8.3
							c-4.3-0.3-8.8,0-12.9,1.2c-0.3,0-0.9,0.3-1,0.7c-0.2,0.3-0.2,0.7-0.2,1c0.3,3.6,0.9,6.9,1.2,10.5
							C1105,793.1,1105,794.3,1105.2,795.5L1105.2,795.5z"/>
					</g>
				</g>
				<g transform="translate(1.306 9.68)">
					<path class="st24" d="M1117.3,765.9c0.5,0.3,0.9,0.9,1.4,1.4l1.2,1.2c1.2,1.6,2.1,3.4,2.6,5.3c3.3,10.7,4,21.7,2.1,32.8
						c-7.4,0.7-16-1.2-23.5-2.2c-0.7,0-1.4-0.3-1.9-0.9c-0.2-0.3-0.3-0.9-0.2-1.2c0.2-6.6,1-13.1,2.6-19.5c0.5-2.6,1.2-5.3,2.1-7.8
						c0.7-2.8,2.1-5.5,4-7.8c2.4-2.4,6.2-3.1,9.3-1.6C1116.9,765.8,1117.1,765.9,1117.3,765.9z"/>
				</g>
				<g transform="translate(4.704)">
					<g transform="translate(.375 .385)">
						<path class="st25" d="M1102.9,773.2h4.8c1.4,0,2.6,0.3,3.8,0.9c0.2,0.2,0.3,0.2,0.7,0.2c0.2,0,0.3-0.2,0.5-0.2
							c3.6-2.2,5.5-6.4,4.8-10.7c-0.9-3.6-3.8-7.6-7.8-6.9c-2.8,0.7-5,2.6-5.9,5.2c-0.5,1.2-0.9,2.6-1.2,3.8
							C1102.1,768.2,1102.1,770.8,1102.9,773.2z"/>
					</g>
					<g transform="translate(1.515 1.577)">
						<path class="st21" d="M1110,774c0,0.2-0.2,0.2-0.2,0.3c-0.3,0.3-0.9,0.5-1.4,0.5c-0.7,0-1.2,0-1.9-0.2
							c-0.9-0.2-0.7-0.7-0.9-1.6c-0.2-1,0.3-1.9-0.3-2.8c-0.9-1-1.6-1.2-1.7-2.8c-0.2-2.1-0.3-4.1-0.3-6.4c0-2.8,2.1-3.4,4.5-3.6
							c1.7-0.2,3.3,0.3,4.7,1.2c0.5,0.3,1,0.9,1.4,1.6c0.3,1,0.5,2.2,0.2,3.3l-0.3,3.1c0,1.2-0.3,2.4-1.2,3.1
							c-0.5,0.3-1,0.3-1.6,0.7c-0.5,0.5-0.7,1.4-0.7,2.1S1110.1,773.7,1110,774L1110,774z"/>
					</g>
					<path class="st26" d="M1110.9,762.7c-0.7,0.5-1.4,1-2.1,1.4c-2.2,1-4.7,1.4-6.9,1c0.9-1,1.4-2.4,1.6-3.6c0.9-2.8,3.3-4.7,6-5.2
						c1.2-0.2,2.4,0,3.4,0.5C1116.8,759.1,1112.8,761.3,1110.9,762.7L1110.9,762.7z"/>
					<g transform="translate(4.739 .825)">
						<path class="st26" d="M1109.4,763c0.5,1.4,0.7,3.1,0.3,4.5c-0.5,2.4-1.4,4.7-2.8,6.7c0.7-0.2,1.4-0.3,2.1-0.3
							c0.7-0.2,1.4-0.5,2.1-0.9c1.4-0.7,2.4-1.9,3.3-3.1c0.7-1.9,0.7-4,0.2-5.9c-0.5-1.9-1.4-3.8-2.9-5.2c-0.9-0.9-1.9-1.6-3.1-1.7
							c-1-0.2-2.1,0.3-2.4,1.2c-0.3,1,1,1.7,1.7,2.4C1108.5,761.2,1109,762.1,1109.4,763z"/>
					</g>
				</g>
			</g>
			<g transform="translate(.646 10.415)">
				<path class="st21" d="M1096.5,767.8c-0.5-0.3-1-0.9-1.4-1.6c-0.2-0.5-0.7-0.9-1.2-0.9c-0.3,0.2-0.7,0.3-0.9,0.5
					c-0.9,0.7-1.2,1.9-0.9,2.9c0.2,0.5,0.5,1,1,1.4c0.3,0.2,0.7,0.5,1,0.5c0.7,0.3,1.4,0.5,2.1,0.7c0.7,0.3,1.2,1,1.7,1.6
					c1.2,1.2,2.6,2.2,4.1,3.3h0.2c0,0,0.2,0,0.2-0.2l1.4-2.4c-1.2-1-2.4-1.9-3.6-2.8c-1-0.7-2.8-1.4-3.3-2.4
					C1097.2,768.5,1096.9,768.2,1096.5,767.8L1096.5,767.8z"/>
				<g transform="translate(3.427)">
					<path class="st27" d="M1113.8,765.4l-10.5,6l-4.1-0.3l-4,4.8l9,6.9l14-8.6C1120.4,774.2,1116.2,765.6,1113.8,765.4z"/>
				</g>
			</g>
			<g transform="translate(15.757 11.402)">
				<path class="st27" d="M1110.9,766.5l5,11.2l4.7,2.6c1,0.7,1.6,2.1,1,3.1l-1.6,3.8l-10.5-3.1l-3.8-12.6
					C1104.9,767.9,1108.7,766,1110.9,766.5z"/>
			</g>
			<g transform="translate(0 5.799)">
				<g transform="translate(2.5 7.939)">
					<path class="st28" d="M1118.7,782.7c0.7-3.1,1-6.2,0.7-9.3c-0.2-0.9-0.9-1.6-1.7-1.7l-18.3-3.3c-0.9-0.2-1.7,0.3-2.2,1
						c-2.2,5.7-3.3,11.7-3.1,17.9c0.2,0.9,0.9,1.6,1.7,1.7l18.3,3.3c0.9,0.2,1.6-0.2,2.1-0.9
						C1116.8,790.9,1117.9,787.1,1118.7,782.7L1118.7,782.7z"/>
				</g>
				<g transform="translate(17.603 .574)">
					<path class="st29" d="M1108.1,762.2c0-0.2-0.2-0.2-0.3-0.2c-0.2,0-0.3,0.2-0.3,0.2c0,0.2,0.2,0.2,0.3,0.2l0.5,7.8h0.5
						L1108.1,762.2C1107.9,762.3,1108.1,762.2,1108.1,762.2z"/>
					<g transform="translate(.323 4.237)">
						<path class="st30" d="M1107.7,765.7l0.5,8.1h0.9l-0.7-8.1C1108.3,765.7,1107.7,765.7,1107.7,765.7z"/>
					</g>
				</g>
				<g transform="translate(19.084)">
					<g transform="translate(1.769)">
						<path class="st29" d="M1113.6,761.7c0-0.2-0.2-0.3-0.3-0.3h-0.5c0,0,0,0.2,0.2,0.3l-2.8,7.2l0.5,0.2l2.6-7.2
							C1113.4,761.9,1113.6,761.9,1113.6,761.7L1113.6,761.7z"/>
					</g>
					<g transform="translate(0 3.961)">
						<path class="st30" d="M1111.9,765l-3.3,9h0.9l3.1-8.8L1111.9,765z"/>
					</g>
				</g>
				<g transform="translate(2.27 20.292)">
					<path class="st31" d="M1122.2,786.8l-27.6-5l-0.9-2.4l30,5.3L1122.2,786.8z"/>
				</g>
				<g transform="translate(0 5.631)">
					<path class="st32" d="M1096.6,766.3l-4.8,27.4l38.5,6.9l4.8-27.4C1135,773.2,1096.6,766.3,1096.6,766.3z M1129,798.8l-35.5-6.4
						l4.3-24.1l35.5,6.4L1129,798.8z"/>
					<g transform="translate(.932 .995)">
						<path class="st33" d="M1092.6,791.5l35.5,6.4l4.3-24.1l-35.5-6.4C1096.9,767.4,1092.6,791.5,1092.6,791.5z M1098.8,770.9
							c0.5-0.9,1.4-1.2,2.2-1l18.3,3.3c0.9,0.2,1.6,0.9,1.7,1.7c0.2,3.1,0,6.2-0.7,9.3c-0.9,4.7-1.9,8.3-2.6,9
							c-0.5,0.7-1.2,1-2.1,0.9l-18.3-3.4c-0.9-0.2-1.6-0.9-1.7-1.7C1095.5,782.6,1096.7,776.5,1098.8,770.9z"/>
					</g>
				</g>
				<g transform="translate(15.575 9.251)">
					
						<rect x="1099.5" y="778.4" transform="matrix(0.1757 -0.9844 0.9844 0.1757 146.2693 1739.3252)" class="st34" width="24.5" height="7.9"/>
				</g>
				<g transform="translate(16.038 17.944)">
					<g transform="translate(.562)">
						
							<rect x="1109.5" y="775" transform="matrix(0.1757 -0.9844 0.9844 0.1757 148.5861 1734.1792)" class="st35" width="0.7" height="6.7"/>
					</g>
					<g transform="translate(.375 1.049)">
						
							<rect x="1109.2" y="775.8" transform="matrix(0.1757 -0.9844 0.9844 0.1757 147.5543 1734.5535)" class="st35" width="0.7" height="6.7"/>
					</g>
					<g transform="translate(.187 2.098)">
						
							<rect x="1109" y="776.9" transform="matrix(0.1757 -0.9844 0.9844 0.1757 146.3497 1735.2465)" class="st35" width="0.7" height="6.7"/>
					</g>
					<g transform="translate(0 3.147)">
						
							<rect x="1109" y="777.8" transform="matrix(0.1757 -0.9844 0.9844 0.1757 145.4158 1736.0042)" class="st35" width="0.7" height="6.7"/>
					</g>
				</g>
				<g transform="translate(17.218 14.475)">
					<ellipse class="st36" cx="1109.9" cy="777.2" rx="2.6" ry="2.6"/>
					<g transform="translate(.902 .906)">
						<path class="st37" d="M1110.4,776.5c-0.2,0.7-0.9,1.2-1.6,1c-0.7-0.2-1.2-0.9-1-1.6c0.2-0.7,0.9-1.2,1.6-1
							S1110.4,775.8,1110.4,776.5z"/>
					</g>
					<g transform="translate(1.272 .717)">
						<path class="st38" d="M1108.6,778.3h-0.5l0.5-3.3h0.5L1108.6,778.3z"/>
					</g>
				</g>
				<g transform="translate(17.938 10.441)">
					
						<ellipse transform="matrix(9.802544e-03 -1 1 9.802544e-03 326.1338 1876.5776)" class="st36" cx="1110.6" cy="773.6" rx="2.6" ry="2.6"/>
					<g transform="translate(.902 .906)">
						<path class="st37" d="M1110.9,773.1c-0.2,0.7-0.9,1.2-1.6,1c-0.7-0.2-1.2-0.9-1-1.6c0.2-0.7,0.9-1.2,1.6-1
							S1111.1,772.2,1110.9,773.1z"/>
					</g>
					<g transform="translate(.781 .991)">
						<path class="st38" d="M1108.6,773.8l-0.2-0.3v-0.2l2.6-1.9h0.2l0.2,0.3v0.2L1108.6,773.8L1108.6,773.8z"/>
					</g>
				</g>
			</g>
			<g transform="translate(20.492 18.303)">
				<path class="st21" d="M1111.2,772.5c-0.2,0-0.3,0-0.5,0.2c-0.3,0.2-0.3,0.7-0.2,1c0.2,0.3,0.5,0.5,0.9,0.7
					c0.2,0,0.3,0.2,0.3,0.3c0,0.2-0.2,0.3-0.3,0.3c-0.5,0.2-1,0.7-1.4,1c-0.3,0.7-0.2,1.4,0.3,1.9c0.5,0.5,1.2,0.9,2.1,0.9h0.3
					c0.2,0,0.2-0.2,0.2-0.2c0.2-0.3,0.3-0.5,0.5-0.9C1114.9,775.6,1115.2,772.4,1111.2,772.5z"/>
			</g>
		</g>
		<g transform="translate(1440.6 203.76)">
			<g transform="translate(17.783 12.136)">
				<g transform="translate(9.025 3.959)">
					<path class="st21" d="M1066.1,793.9l1.7-0.3c0.3-0.3,1-1.4,1.6-1.2c0.3,0.2,0.5,0.5,0.3,0.9c-0.2,0.3,1.2-0.2,1-0.2
						c1,0,1.4,0.9,1,1.9c-0.3,0.7-1,1.2-1.7,1.2c-0.9,0.2-1.6-0.3-2.2-0.3h-1.9L1066.1,793.9z"/>
				</g>
				<path class="st39" d="M1067.5,796.9c1.9,0.2,3.6,0.3,5.3,0.5c0.9,0,1.7,0,2.6,0.2c0.5,0,0.5,0,0.9,0.5c0.2,0.3,0.2,0.9,0,1.2
					c0,1-0.2,1-1,1.2c-1.6,0.3-3.1,0.5-4.8,0.7c-4,0.3-7.2,1-10.5-2.1c-0.7-0.5-1.4-1-1.7-1.9c-0.3-0.9-0.5-1.7-0.3-2.6
					c0-1.7,0.5-3.4,1.6-4.8c0.3-0.5,1-1.2,1.7-0.9c0.3,0.2,0.7,0.7,0.9,1c1,2.1,2.2,4,3.6,5.9c0.2,0.3,0.5,0.5,0.9,0.9
					C1067,796.7,1067.1,796.9,1067.5,796.9z"/>
			</g>
			<g transform="translate(22.529 9.827)">
				<path class="st40" d="M1141.4,798.3L1104,814l-41.7-12.8l34.7-14.7L1141.4,798.3L1141.4,798.3z"/>
				<g transform="translate(.033 6.095)">
					<g transform="translate(22.169)">
						<path class="st41" d="M1083,847.4l37.2-20.2l-1-35l-37.4,15.7C1081.8,807.9,1083,847.4,1083,847.4z"/>
					</g>
					<g transform="translate(0 1.603)">
						<path class="st42" d="M1105.3,845.8l-41.9-17.1l-1-35.2l41.7,12.8L1105.3,845.8z"/>
					</g>
				</g>
				<g transform="translate(9.102 3.802)">
					<path class="st41" d="M1114.6,802.5l-44.3-12.1l0.7-0.2l43.6,11.7C1114.6,802,1114.6,802.5,1114.6,802.5z"/>
				</g>
				<g transform="translate(8.367 2.186)" class="st43">
					<path class="st44" d="M1070.1,817.7l-0.3-14l34.8-15.2l6.4,1.7c0,0-33.8,15.7-34,15.7l0.2,12.9l-1.7-1.9l-1.2,1.4l-0.9-1.7
						l-1.2,1.4l-1-1.6L1070.1,817.7z"/>
				</g>
				<g transform="translate(24.153 25.459)">
					<g transform="translate(0 2.367)">
						<path class="st45" d="M1091.3,818.3l-7.4,4l-0.2-7.1l7.4-4L1091.3,818.3z M1083.9,822.3l7.2-3.8l-0.2-6.7l-7.2,3.8
							L1083.9,822.3z"/>
						<g transform="translate(.441 .918)">
							<g transform="translate(.053)">
								<g transform="translate(1.856)">
									<path class="st45" d="M1086.8,812.3l-1,2.2l0.7-0.3v2.6l0.9-0.5v-2.6l0.7-0.3C1088,813.3,1086.8,812.3,1086.8,812.3z"/>
								</g>
								<g transform="translate(0 .984)">
									<path class="st45" d="M1084.1,815.4l0.7-0.3v2.6l0.9-0.5v-2.6l0.7-0.3l-1.2-1L1084.1,815.4z"/>
								</g>
							</g>
							<g transform="translate(0 2.156)">
								<path class="st45" d="M1084.1,817.5l6.2-3.1v-0.2L1084.1,817.5L1084.1,817.5z"/>
								<g transform="translate(.006 .214)">
									<path class="st45" d="M1084.1,817.8l6.2-3.3v-0.2L1084.1,817.8z"/>
								</g>
								<g transform="translate(.013 .427)">
									<path class="st45" d="M1084.1,817.9l6.2-3.3v-0.2L1084.1,817.9z"/>
								</g>
							</g>
						</g>
					</g>
					<g transform="translate(4.497)">
						<path class="st45" d="M1095.1,816.3l-7.4,4l-0.2-7.1l7.4-4L1095.1,816.3z M1087.9,820.1l7.2-3.8l-0.2-6.7l-7.2,3.8
							C1087.7,813.3,1087.9,820.1,1087.9,820.1z"/>
						<g transform="translate(.578 1.43)">
							<g transform="translate(0 .176)">
								<path class="st45" d="M1090.5,810.7c-0.7,0.5-1.4,1.2-1.9,2.1c-0.3,0.5-0.5,1.2-0.5,1.9c0.2-0.3,0.3-0.5,0.7-0.7
									c0.2-0.2,0.5-0.2,0.9-0.2c0-0.5,0.2-0.9,0.2-1.4C1090,811.9,1090.2,811.4,1090.5,810.7z"/>
							</g>
							<g transform="translate(1.429)">
								<path class="st45" d="M1091.2,810.9c-0.5-0.3-1.4-0.3-1.9,0c0.3,0.2,0.5,0.7,0.9,1c0.2,0.3,0.2,0.7,0.3,1
									c0.2-0.3,0.5-0.5,0.9-0.7c0.2-0.2,0.5-0.2,0.7,0C1091.9,811.6,1091.7,811.1,1091.2,810.9L1091.2,810.9z"/>
							</g>
							<g transform="translate(.842 .125)">
								<path class="st45" d="M1089.1,812.9c0,0.3-0.2,0.7-0.2,1c0.2-0.3,0.5-0.5,0.9-0.7v2.2c0,0.2,0.2,0.3,0.3,0.3h0.2h0.2
									c0.3-0.2,0.5-0.5,0.5-0.9l-0.2,0.2c0,0.2-0.2,0.3-0.3,0.5h-0.2c-0.2,0.2-0.3,0-0.3-0.2v-2.2c0.3-0.2,0.7-0.2,1-0.2
									c0-0.9-0.5-1.6-1-2.2C1089.4,811.4,1089.3,812.1,1089.1,812.9z"/>
							</g>
						</g>
					</g>
				</g>
				<g transform="translate(33.476 22.871)" class="st46">
					<path class="st47" d="M1091.9,812l0.2,4.7l9.5-5l-0.2-4.7L1091.9,812z"/>
				</g>
				<g transform="translate(7.895 2.775)" class="st48">
					<path class="st44" d="M1076.6,789.2l-7.4,3.1l42.6,12.4l0.7,9.1l0.9-1.9l1.2,0.9l1-1.7l1.9,0.9l0.9-1.7l1.2,0.5l-0.3-9.5
						C1119.2,801.2,1076.6,789.2,1076.6,789.2z"/>
				</g>
			</g>
			<g transform="translate(29.573)">
				<g transform="translate(1.753 .872)">
					<path class="st49" d="M1109.7,785.1l-19,7.1l-20.7-6.9l17.6-6.7L1109.7,785.1z"/>
				</g>
				<g transform="translate(3.862)">
					<g transform="translate(.16 .364)">
						<path class="st50" d="M1085.1,778.4l-1.2,0.3l-11,3.4l-0.9,0.2l5.2,16.2l1,0.7l11-3.4l1-0.3c0.7-0.2,1.2-1,1-1.7l-4.7-14.8
							C1086.4,778.6,1085.8,778.2,1085.1,778.4z"/>
					</g>
					<g transform="translate(.285 .109)">
						<path class="st51" d="M1078.2,799.2l11.7-3.6c0.7-0.2,1-0.9,0.9-1.6l-4.7-14.8c-0.2-0.3-0.3-0.7-0.7-0.9l-0.5-0.3l-12.8,4
							l5.3,16.7C1077.5,798.7,1078.2,799.2,1078.2,799.2z"/>
					</g>
					<g transform="translate(.003)">
						<path class="st50" d="M1071.9,781.9l12.4-3.8c0.5-0.2,1.2,0.2,1.4,0.7l4.8,15c0.2,0.5-0.2,1.2-0.7,1.4l-12.4,3.8L1071.9,781.9
							L1071.9,781.9z"/>
					</g>
					<g transform="translate(0 1.708)">
						<path class="st27" d="M1079.3,796.8l-1.9,0.5l-5.5-17.1l1.9-0.5L1079.3,796.8z"/>
					</g>
					<g transform="translate(.788 .193)">
						<path class="st52" d="M1073.5,779l-0.9-0.2l0.7,2.2l1.6-0.5l-0.7-2.2L1073.5,779z"/>
					</g>
					<g transform="translate(3.912 .4)" class="st53">
						<path class="st54" d="M1075.4,798.1l10.3-3.1c0.5-0.2,0.9-0.7,0.7-1.4l-4.8-15C1081.7,778.4,1086.7,794.6,1075.4,798.1z"/>
					</g>
					<g transform="translate(1.823 .695)">
						<path class="st55" d="M1083.6,782.3l-9,2.8l-1-3.4l9-2.8L1083.6,782.3L1083.6,782.3z"/>
					</g>
				</g>
				<g transform="translate(0 4.193)">
					<g transform="translate(12.649)">
						<path class="st41" d="M1079.7,808.4l19-9.3v-17.2l-19,7.1V808.4L1079.7,808.4z"/>
					</g>
					<g transform="translate(1.64 .167)">
						<path class="st42" d="M1090.7,808.2l-20.7-9V782l20.7,6.9V808.2z"/>
					</g>
					<g transform="translate(12.653)">
						<path class="st40" d="M1102.1,786l-17.9,8.3l-4.3-5.3l19-7.1L1102.1,786z"/>
					</g>
					<g transform="translate(0 .167)">
						<path class="st40" d="M1092.4,788.7l-3.6,6.2l-20.3-7.8l3.1-5.2L1092.4,788.7z"/>
					</g>
					<g transform="translate(1.649)" class="st56">
						<path d="M1090.8,787.9l-19.8-6l-1,0.2l20.7,6.9l19-7.1h-1l-6,1.9L1090.8,787.9z"/>
					</g>
				</g>
				<g transform="translate(1.649 4.36)">
					<g class="st56">
						<path class="st42" d="M1070.1,782L1070.1,782L1070.1,782z"/>
					</g>
				</g>
			</g>
			<g transform="translate(16.226 13.083)">
				<g transform="translate(8.242 5.683)">
					<path class="st21" d="M1064.6,798.1c0.5-0.2,1.2-0.3,1.7-0.3c0-0.3-0.3-0.9-0.2-1.2c0-0.2,0.2-0.3,0.5-0.3s0.3,0.2,0.5,0
						c0,0,0.2-0.3,0.2-0.5c0-0.2,0-0.7,0.2-1c0.2-0.2,0.3-0.2,0.5-0.2c0.5,0,0.9,0.3,1,0.9c0.2,0.3,0.2,0.9,0.2,1.2
						c0,1-0.2,1.9-0.5,2.8c0,0.2-0.2,0.3-0.3,0.3h-0.2l-2.8,0.5c-0.5,0-1.4,0.5-1.4-0.2l-0.2-1.6v-0.3c0-0.2,0.2-0.2,0.3-0.2
						C1064.4,798.1,1064.4,798.1,1064.6,798.1z"/>
				</g>
				<path class="st39" d="M1064.8,801.7C1064.8,801.9,1065,801.9,1064.8,801.7c1,0.5,2.1,0.9,3.1,0.9c1.9,0.3,3.6,0.3,5.5,0.7
					c0.2,0.9,0.2,1.6,0,2.4c-0.2,1-0.3,1-1.2,1.2c-1.7,0.2-3.3,0.2-5,0c-2.8-0.2-6.9,0.3-8.6-2.4c-2.2-3.4-2.6-7.9-1.4-11.7
					c0.2-0.5,0.5-1,0.7-1.6c0.2-0.5,0.5-0.9,1-1.2c0.9-0.3,1.9-0.3,2.8,0.2c0.7,0.3,1.4,0.9,1.9,1.4c0.7,0.5,0.7,1,0.7,1.9v5.3
					C1064.3,799.7,1064.1,801.1,1064.8,801.7L1064.8,801.7z"/>
			</g>
			<g transform="translate(0 4.061)">
				<g transform="translate(12.949 20.305)">
					<g transform="translate(2.587 13.139)">
						<path class="st57" d="M1056.7,812.2c-0.2,0.9-0.3,1.9-0.5,2.8c0,0.2-0.2,0.5-0.2,0.7c0,0.3,0.3,0.5,0.5,0.7
							c0.3,0.2,0.5,0.2,0.9,0.2c0.9,0.2,4.3,0.9,4.7-0.3c0-0.3,0-0.9-0.2-1.2c0,0,0-0.2-0.2-0.2h-0.2c-0.5,0.2-1.9,0.3-2.1-0.3v-0.7
							l0.3-1.6c-0.9-0.5-1.9-0.7-2.9-0.9C1056.9,811.7,1056.9,812,1056.7,812.2L1056.7,812.2z"/>
					</g>
					<path class="st58" d="M1065.2,799.6l2.4,14.8l-5.3,12.6l-3.3-0.9l0.7-10.9l-6-13.8L1065.2,799.6z"/>
				</g>
				<g transform="translate(0 20.684)">
					<g transform="translate(0 9.542)">
						<path class="st57" d="M1042.7,810.2c-0.5,1.9-0.5,4,0,6c0,0.2,0.2,0.3,0.3,0.3c0.2,0,0.3,0.2,0.3,0.2c0.7,0.2,1.7,0,1.7-1
							v-0.2c0-0.2-0.2-0.2-0.3-0.3c-0.3-0.2-0.5-0.5-0.5-1c0-1,0.5-1.6,1.2-2.4c0.5-0.7,0.7-0.7,0.5-1.4c-0.2-0.7-0.2-1.4-0.3-2.1
							c-0.5,0.2-0.9,0.3-1.4,0.3c-0.3,0-0.9-0.2-1.2,0.2c-0.2,0.3-0.3,0.7-0.3,1C1042.7,809.9,1042.7,810.2,1042.7,810.2z"/>
					</g>
					<g transform="translate(1.494)">
						<path class="st58" d="M1044.5,821.6h-0.3h-0.2c-0.2,0-0.2-0.2-0.2-0.3c-0.2-1.2-0.2-2.4-0.2-3.4l7.9-3.8
							c0.5-0.2,1.2-0.5,1.6-1c0.5-0.5,1-1.2,1.4-1.9c1-1.9,2.2-3.8,3.4-5.5c0.9-1.2,1.7-2.4,2.9-3.3c1-0.7,2.1-1,3.1-1.6
							c0.3-0.3,0.9-0.5,1.4-0.7c0.5,0,0.5,0.3,0.7,0.5c0.2,0.3,0.5,0.9,0.9,1.2c0.9,0.9,1.7,1.9,2.6,2.8c0.3,0.3,1.6,1.4,1.6,1.9
							c0,0.5-1.6,1.7-2.1,2.2c-3.1,3.3-6.4,6.2-9.8,9.3c-0.2,0.2-0.5,0.3-0.7,0.5c-0.3,0.2-0.5,0.3-0.9,0.3c-1.2,0.5-2.4,0.9-3.8,1
							c-1.6,0.3-3.3,0.5-4.8,0.9L1044.5,821.6L1044.5,821.6z"/>
					</g>
				</g>
				<g transform="translate(9.647 7.545)">
					<path class="st59" d="M1069.7,814.8c-0.2-4-1-7.1-0.3-11c0.3-2.1,2.1-4.8,2.6-6.9c0.3-1,0.3-2.2,0-3.3c-0.2-1.2-0.5-2.4-1-3.4
						c-0.5-0.7-1.2-1.2-2.1-1.4c-1.4-0.7-2.9-0.7-4.3-0.2c-3.3,1.7-6.2,4.3-8.1,7.6c-1.9,3.1-3.4,6.4-4.3,9.8
						c-0.5,1.7-0.9,3.4-1,5.3c-0.2,1.4-1,3.8-0.2,5c0.2,0.2,0.3,0.3,0.7,0.5c1.2,0.5,2.6,0.7,3.8,0.7c1.4,0.2,2.8,0.2,4.1,0.2h10.2
						C1069.9,816.9,1069.7,815.8,1069.7,814.8L1069.7,814.8z"/>
				</g>
				<g transform="translate(17.167)">
					<g transform="translate(.253 1.155)">
						<path class="st21" d="M1057.7,787.2c-0.2-0.3-0.2-0.9,0-1.4c0-0.3,0.2-0.7,0.5-0.9c0.3,0,0.5,0,0.7,0.2l0.5,0.5
							c0.7-0.3,1-1.6,1.6-2.1c0.5-0.3,0.9-0.7,1.4-0.9c0.3-0.2,0.7-0.3,1-0.3c1.6,0,2.9,0.5,4,1.6c2.2,2.1,0.9,4.8,0.3,7.4
							c-0.5,1.9-1.2,3.8-3.6,3.8c-0.7,0-1.2,0.2-1.7,0.5c-0.2,0.2-0.5,0.5-0.5,0.9l-0.5,0.5c-0.3,0.2-0.9,0.2-1.2,0
							c-0.5-0.2-1-0.3-1.2-0.9c-0.2-0.7,0.2-1.4,0.2-2.1l-1-3.1c-0.3-0.7-0.3-1.4-0.2-2.1c0.2-0.2,0.2-0.5,0.2-0.7s-0.2-0.2-0.2-0.3
							C1057.9,787.8,1057.9,787.6,1057.7,787.2L1057.7,787.2z"/>
					</g>
					<path class="st26" d="M1059.8,782.8c0.9-0.5,1.7-0.9,2.6-1c0.7-0.2,1.6-0.2,2.2,0c1.4,0.3,4,2.9,5.2,1.6c0.3-0.3,1-0.3,1.4,0
						c0,0,0.2,0.2,0.2,0.3s0,0.3,0.2,0.5c0,0.2,0.2,0.3,0.3,0.3c0.2,0,0.3-0.3,0.7-0.3s0.5,0.3,0.5,0.7c0,0.2-0.2,0.3-0.2,0.5v0.3
						c0,0.3,0,0.5-0.3,0.7c-0.2,0-0.2,0.2-0.3,0.2c-0.2,0.2-0.2,0.3-0.3,0.7c-0.2,0.5-0.7,0.9-1,1c0,0.5-0.2,1-0.3,1.6
						c-0.5,0.7-1.2,1.4-1.9,2.1v-0.9c0-0.7,0-1.2-0.2-1.7c-0.2-0.3-0.2-0.5-0.3-0.9h-0.2c-0.2,0-0.3,0-0.7-0.2
						c-0.7-0.3-1.4-0.5-2.1-0.9c-0.7-0.3-1.4-0.5-2.2-0.7c-0.9,0-1.6,0.3-2.1,0.9c-0.2,0.3-0.3,0.7-0.7,0.7
						c-1.2,0.3-0.9-1.6-1.7-1.6c-0.7,0-0.5,1-0.5,1.4s0.2,0.7,0.3,1c0.2,0.3,0,0.7-0.3,1h-0.2c-0.2,0-0.2-0.2-0.2-0.2
						c-0.5-1.4-0.5-2.9-0.2-4.5C1058.1,784.5,1058.8,783.5,1059.8,782.8z"/>
				</g>
			</g>
		</g>
		<g transform="translate(1417.7 177.06)">
			<g transform="translate(8.21 12.478)">
				<g transform="translate(15.94 7.74)">
					<path class="st21" d="M1049,772.4L1049,772.4l0.3,0.7c0.5-0.2,1.2-0.2,1.7-0.2c0.3,0,0.7,0,1-0.2c0.2,0,0.3,0.2,0.3,0.3v0.5
						c0,0.7-0.2,1.6-0.5,2.1c-0.2,0.2-0.3,0.2-0.5,0.3c-0.5,0.5-1.2,0.7-1.9,0.9c-0.5,0-0.9-0.2-1.2-0.2c-0.7-0.2-1.4-0.3-2.1-0.7
						c-0.3-0.2-0.9-0.5-1.2-0.5c-0.5-0.2-1,0-1.4-0.5c0-0.2-0.2-0.3-0.2-0.5v-0.9v-0.2c0-0.2,0.2-0.2,0.3-0.2h2.4h0.7
						c0.2,0,0.3-0.2,0.5-0.2C1047.9,772.4,1048.3,772.4,1049,772.4C1048.8,772.4,1048.8,772.4,1049,772.4z"/>
				</g>
				<path class="st60" d="M1033.3,768.5c0.9-0.9,3.1-3.3,4.5-2.9c1.2,0.3,2.1,3.4,2.4,4.5c0.7,1.9,1.6,3.8,2.4,5.5
					c0.3,0.7,0.9,1.2,1.4,1.6c0.5,0.3,1,0.5,1.6,0.5c3.3,0.7,6.6,1,9.8,1c1.7,0,3.3,0.3,5,0.3c0.9,0,0.9-0.3,1,0.5
					c0.2,0.9,0.2,1.7,0,2.4c0,0.5,0,1,0.2,1.4c0,0.3,0.5,1,0.5,1.2c-0.2,0.5-0.9,0.7-1.4,0.9c-1.2,0.3-2.4,0.5-3.8,0.7
					c-4.3,0.7-8.8,1.2-13.1,1.2l-3.8,0.2c-0.3,0-0.7,0-1.2-0.2l-1-0.5c-2.8-2.2-5.3-4.8-7.4-7.8c-1.4-1.7-1.7-4.1-0.5-5.9
					C1030.9,771.4,1031.9,769.9,1033.3,768.5z"/>
			</g>
			<g transform="translate(7.534 31.207)">
				<g transform="translate(4.391 27.942)">
					<g transform="translate(.317)">
						<path class="st61" d="M1036.4,806.8c0,2.9-0.2,5.9-0.3,8.6c-0.9,0.2-1.6,0.2-2.4,0.2c0,0-0.5-5.5-0.7-8.6
							C1034,807,1035.2,806.8,1036.4,806.8z"/>
					</g>
					<g transform="translate(0 3.803)">
						<path class="st62" d="M1036.7,810.2c0.3,0,0.9,0.2,1,0.5c0.2,0.2,0.3,0.5,0.5,0.5c0.2,0.2,0.5,0.2,0.7,0.2
							c1.4,0.2,4.8,0.2,2.9,2.6c-1.7,2.1-5.9,1-8.3,0.3c-0.2,0-0.3-0.2-0.5-0.2c-0.2-0.2-0.2-0.3-0.2-0.5c-0.2-1-0.5-2.4,0.7-2.8
							c0.5-0.2,1,0.2,1.6,0C1035.6,810.9,1036.1,810.2,1036.7,810.2z"/>
					</g>
				</g>
				<path class="st62" d="M1043.6,840.2c-3.3-0.2-4,0.5-7.2,0.3c-2.1-12.4-6-40-7.6-52.4c-0.2-1-0.2-1.9,0-2.9
					c0.9-1.7,2.4-2.8,4.3-2.9c2.8-0.3,10.7,0.9,12.1,3.8c1.4,3.1,0.5,3.4,0.9,6.9c0.2,2.9-0.9,12.1-0.7,16.9
					C1045.4,820.4,1044,833.6,1043.6,840.2L1043.6,840.2z"/>
			</g>
			<g transform="translate(1.381 30.073)">
				<g transform="translate(1.299 28.031)">
					<g transform="translate(.469)">
						<path class="st61" d="M1025.5,805.9c-0.2,3.1-0.7,8.6-0.5,8.6c0.7,0.2,1.6,0.2,2.2,0.2c0.7-2.8,1.2-5.7,1.7-8.6
							C1027.7,806,1026.5,805.9,1025.5,805.9z"/>
					</g>
					<g transform="translate(0 4.007)">
						<path class="st62" d="M1028.1,809.5c0.5,0,0.7,0.2,0.7,0.9c0,0.5-0.2,0.9-0.2,1.4c0,0.3,0,0.5,0.2,0.9l0.5,2.8
							c0,0.3,0.2,0.7,0,1c-0.2,1.2-2.1,1.4-2.9,0.9s-1.6-1.2-1.9-2.2c-0.2-0.5-0.2-1-0.2-1.6v-2.6c0-0.2,0-0.5,0.2-0.7
							c0.3-0.9,1.4,0,2.1-0.2C1027,809.8,1027.5,809.5,1028.1,809.5L1028.1,809.5z"/>
					</g>
				</g>
				<path class="st62" d="M1032.5,840.2c-2.6,0.2-5.2-0.2-7.8-0.7c-0.2-6.6,0-24,0-24s-1.6-23.3-1.4-29.3c0-1,0.2-1.9,0.5-2.9
					c1-1.6,2.9-2.4,4.8-2.2c2.9,0,7.8,1.7,8.6,4.8c0.7,3.4,1,7.1,1,10.5c0.2,4.1-1.4,17.8-1.4,17.8S1033.8,833.2,1032.5,840.2
					L1032.5,840.2z"/>
			</g>
			<g transform="translate(0 11.148)">
				<path class="st1" d="M1034.2,766.2c2.9-1.9,6.6-2.4,9.8-1.4c1,0.3,1.7,1,2.4,1.9c1.9,2.9,2.2,6.7,3.3,10
					c1.6,5.3,2.9,10.9,4,16.4c0.9,5.3,1.2,10.9,1.4,16.4c0,1.6,0,3.4-1.6,4c-2.1,0.5-4.3,0.9-6.6,0.9c-5.2,0.5-10.3,0.7-15.3,0.3
					c-2.8,0-5.3-0.5-7.9-1.4c-0.3-0.2-0.7-0.3-0.9-0.5c-0.2-0.3-0.2-0.7-0.2-0.9c-0.5-11.7,0.2-24.1,4.3-35.2
					C1027.8,772.2,1030.4,768.6,1034.2,766.2z"/>
			</g>
			<g transform="translate(3.742)">
				<g transform="translate(6.478 2.381)">
					<path class="st63" d="M1034.2,757.4c-0.5-0.3-1.2-0.7-1.9-0.9c-1.2-0.2-1.9,0.2-0.9,1c0.7,0.5,1.4,1.2,1.9,2.1
						c0.7,1.2,1,2.6,1,4c0,0.5,0.2,0.9,0.5,0.3c0.2-0.5,0.3-0.9,0.5-1.4c0.2-0.7,0.2-1.2,0.3-1.9c0-0.7,0-1.2-0.2-1.9
						C1035.2,758.1,1034.9,757.6,1034.2,757.4z"/>
				</g>
				<g transform="translate(1.464 2.409)">
					<path class="st21" d="M1031.1,774.8c0.2,0.5,0.5,0.7,1.4,0.9c0.5,0,1.2,0,1.7-0.2c0.7-0.2,1.4-0.3,1.6-0.9
						c0-0.2,0.2-0.3,0.2-0.5s0.3-2.9,0.3-2.9c1.4-0.2,2.9-0.7,3.4-2.2c0.2-0.9,0.2-1.9,0.2-2.8c0.2-1,0.3-1.9,0.5-2.9
						c0.2-1.4,0-2.9-0.5-4.3c-0.5-0.9-1.4-1.6-2.4-1.7c-0.3-0.2-0.9-0.2-1.2-0.3c-0.5-0.2-1-0.3-1.6-0.3c-2.1-0.3-4.1,0.2-5.9,1.2
						c-0.7,0.3-1.2,1-1.6,1.7c-0.5,1.2-0.5,2.4-0.3,3.8c0,1.2,0,2.4,0.2,3.8c0.2,0.9,0.7,1.9,1.4,2.6c0.3,0.3,0.9,0.7,1.2,1
						c0.7,0.9,1.2,1.9,1.4,2.9C1030.8,774,1030.9,774.5,1031.1,774.8L1031.1,774.8z"/>
				</g>
				<g transform="translate(3.54 7.413)">
					<path class="st22" d="M1038.1,762.1c0-0.3-0.2-0.7-0.5-1c-0.7-0.3-1.6-0.3-2.4,0c-0.9,0.2-1.7,0.5-2.4,1l-0.2,0.2
						c-0.2,0.2-0.3,0.3-0.5,0.3c-0.7,0.3-1.6,0-2.1-0.5c-0.2-0.3-0.3-0.7-0.7-0.7c-0.3,0-0.5,0.2-0.7,0.3c-0.2,0.3-0.2,0.5-0.2,0.9
						c0,1,0.2,2.1,0.5,3.1c0.5,1,1.6,1.9,2.8,2.1c0.5,0.2,1.2,0.2,1.9,0.2h2.2c0.5,0,1.2-0.3,1.6-0.9c0.2-0.3,0.3-0.9,0.3-1.2
						c0.2-0.9,0.2-1.7,0.3-2.4C1038.1,763.5,1038.1,762.1,1038.1,762.1z M1037.1,764.3c-0.7,0.2-1.2,0.2-1.9,0
						c-0.2,0-0.2-0.5,0.2-0.3c0.5,0.2,1,0.2,1.7,0C1037.1,764,1037.3,764.3,1037.1,764.3z"/>
				</g>
				<path class="st22" d="M1042.6,758.3h-0.3c0.7-1,0.7-1.4,1.6-2.2c-1.2,0.3-2.2,0.5-3.4,0.3c0.2-0.7,0.2-1.4,0.2-1.9
					c-1.7,0.7-3.4,1-5.3,0.7c-2.1-0.3-4.3,0.3-6,1.6c-1.7,1.4-2.9,3.1-3.4,5.2c-0.2,0.7-0.3,1.4-0.3,1.9c0,1.6,0.3,2.9,0.9,4.3
					c0.2,0.5,0.5,1,0.7,1.6c0.3,0.5,0.7,1,1.2,1.4c0.7,0.7,1.4,1.2,2.2,1.7c-0.3-0.2,0-0.7,0-1c-0.2-0.5-0.5-1-0.7-1.6
					c-0.2-0.3-0.3-0.9-0.2-1.4c0-0.2,0.2-0.3,0.2-0.5c0-0.3-0.3-0.7-0.5-1c-0.2-0.5-0.3-1-0.2-1.6c0-0.7,0.7-1,1.2-1
					c0.5,0.2,1,1,1.6,0.7c0.2-0.2,0.2-0.7,0.2-1c0.2-0.3,0.2-0.7,0.5-1c0.5-0.7,1.2-1.2,2.1-1.4c1.6-0.5,3.3-0.9,5-1
					c1.4,0.2,2.6-0.2,3.6-1c0.5-0.7,0.9-1.6,1-2.4c-0.3,0.2-0.5,0.3-0.9,0.5C1043,758.3,1042.8,758.3,1042.6,758.3L1042.6,758.3z"/>
			</g>
			<g transform="translate(8.177 20.336)">
				<g transform="translate(0 4.835)">
					<rect x="1029.3" y="776.7" class="st64" width="36.9" height="35.5"/>
				</g>
				<g transform="translate(19.552)">
					<path class="st65" d="M1046.5,817.1l9.1-9.1v-35.5l-9.1,9.1C1046.5,781.6,1046.5,817.1,1046.5,817.1z"/>
				</g>
				<path class="st66" d="M1066.2,781.6l9.1-9.1h-36.9l-9.1,9.1H1066.2z"/>
				<g transform="translate(8.386)">
					<path class="st65" d="M1045.9,772.5l-9.1,9.1v7.2h5.2v-7.2l9.1-9.1C1051,772.5,1045.9,772.5,1045.9,772.5z"/>
				</g>
				<g transform="translate(3.041 9.788)">
					<g transform="translate(8.123)">
						<path class="st67" d="M1044.3,781.1l-5,6.6h3.1V798h3.8v-10.3h3.1L1044.3,781.1z"/>
					</g>
					<path class="st67" d="M1032,787.7h3.1V798h4v-10.3h2.9l-5-6.6L1032,787.7z"/>
				</g>
				<g transform="translate(2.588 19.835)">
					<rect x="1031.5" y="790" class="st68" width="27.1" height="0.5"/>
					<g transform="translate(0 .847)">
						<rect x="1031.5" y="790.7" class="st68" width="27.1" height="0.5"/>
					</g>
					<g transform="translate(0 1.694)">
						<rect x="1031.5" y="791.5" class="st68" width="27.1" height="0.5"/>
					</g>
				</g>
			</g>
			<g transform="translate(1.112 15.476)">
				<g transform="translate(8.969 13.917)">
					<path class="st21" d="M1037,782.1c-0.2,0.2-0.2,0.2-0.2,0.3c-0.2,0.3,0.2,0.9,0.5,1s0.9,0.2,1.2,0c0.5,0,1,0,1.6,0.3
						c0.5,0.3,0.7,0.9,0.5,1.4l-0.5,0.5c-1,1-2.6,1.4-4,1c-0.3-0.2-0.9-0.3-1.2-0.7c-0.7-0.3-1.2-0.9-1.7-1.4l-1-1
						c-0.5-0.3-1-0.5-1.2-1V782l0.2-0.9c0,0,0-0.2,0.2-0.2c0.2,0,0.3-0.2,0.3,0c0.7,0.3,1.4,0.5,2.1,0.9c0.5,0,1-0.3,1.4-0.7
						c0.3-0.3,0.9-0.7,1.6-0.7c0.5,0,1,0.7,0.9,1.2C1037.6,781.8,1037.4,782,1037,782.1z"/>
				</g>
				<path class="st69" d="M1025.4,776c0.7-1.6,1.4-3.1,2.4-4.5c0.5-1,1.4-1.9,2.2-2.6c1-0.7,2.2-0.9,3.3-0.5
					c1.2,0.5,1.9,1.7,2.1,2.9c0.2,1.2,0,2.4-0.2,3.8c-0.5,3.6-1,7.2-2.1,10.7c-0.3,1.2-1,1.6,0,2.6c0.9,0.7,1.9,1.2,2.9,1.7l6.9,4.7
					l-1.4,2.1c-0.9,1.2-0.9,1.6-2.2,1.6c-4.5-0.3-8.8-2.4-12.8-4.3c-3.6-1.6-4-5.7-3.4-9.1C1023.5,781.9,1024.2,779,1025.4,776
					L1025.4,776z"/>
			</g>
			<g transform="translate(9.258 4.625)">
				<g transform="translate(4.972 3.92)">
					<rect x="1034.5" y="762" class="st64" width="29.8" height="28.8"/>
				</g>
				<g transform="translate(20.823)">
					<path class="st70" d="M1048.6,794.7l7.4-7.4v-28.8l-7.4,7.4C1048.6,765.9,1048.6,794.7,1048.6,794.7z"/>
				</g>
				<g transform="translate(4.972)">
					<path class="st65" d="M1064.5,765.9l7.4-7.4h-30l-7.4,7.4H1064.5z"/>
				</g>
				<g transform="translate(20.823)">
					<path class="st71" d="M1056,758.5l8.6,8.3l-7.2,7.4l-8.6-8.3L1056,758.5z"/>
				</g>
				<path class="st71" d="M1047,758.5l-9.3,5.5l-7.4,7.4l9.3-5.5C1039.6,765.9,1047,758.5,1047,758.5z"/>
				<g transform="translate(4.972)">
					<path class="st72" d="M1041.9,758.5v7.4h-7.4C1034.5,765.9,1041.9,758.5,1041.9,758.5z"/>
				</g>
				<g transform="translate(3.294 3.92)">
					<path class="st66" d="M1066.2,762l-2.9,6.7h-30.2l3.1-6.7C1036.2,762,1066.2,762,1066.2,762z"/>
				</g>
				<g transform="translate(7.07 16.08)">
					<rect x="1036.4" y="772.7" class="st68" width="21.9" height="0.5"/>
					<g transform="translate(0 .687)">
						<rect x="1036.4" y="773.4" class="st68" width="21.9" height="0.5"/>
					</g>
					<g transform="translate(0 1.373)">
						<rect x="1036.4" y="773.9" class="st68" width="21.9" height="0.5"/>
					</g>
				</g>
			</g>
		</g>
		<g transform="translate(1024 623.2)">
			<g transform="translate(141.9 27.471)">
				<path class="st9" d="M1138,200.4l4.5-49.5h11.4v-15l-70.7-1.9v17.1l14.8,0.9l7.9,51.2L1138,200.4z"/>
				<path class="st10" d="M1154,135.8v9.8l-57.6-2.8l-6.2-8.8C1090.2,134,1154,135.8,1154,135.8z"/>
			</g>
			<path class="st8" d="M1009.3,323.6l-2.2,39.8l-6.4-8.3c-0.7-0.9-1.7-1-2.6-0.3c-0.7,0.5-0.9,1.4-0.7,2.1l8.3,23.8l-1.4,34.7h16.6
				v-91.7L1009.3,323.6L1009.3,323.6z"/>
			<path class="st11" d="M1060.9,220.5l-3.3-64.1l-71.7-46.7l-28.5,139.5l36.9,93.1l50.2-13.8L1060.9,220.5z"/>
			<path class="st12" d="M1057.6,156.4l-22.8-14.8L988,264.7L957.4,249l36.9,93.1l50.2-13.8l16.4-108.1L1057.6,156.4L1057.6,156.4z"
				/>
			<g transform="translate(29.368 50.954)">
				<path class="st10" d="M1319.1,229.3l-36.6-69.8l-261.9,4.1l-34,72.1L1319.1,229.3L1319.1,229.3z"/>
				<path class="st9" d="M1020.6,163.6l-34,72.1l242.6-4.7c-47.1-24-95.7-45.7-143.1-68.5C1086.1,162.6,1020.6,163.6,1020.6,163.6z"
					/>
				<path class="st73" d="M999.4,238.3l7.2,126h65c-15.2-42.1-31.9-83.8-44-126.9L999.4,238.3z"/>
				<path class="st74" d="M1317.4,229l-289.7,8.4c12.1,43.1,28.8,84.7,43.8,126.9h231.4L1317.4,229L1317.4,229z"/>
				<path class="st73" d="M1130.6,364.5l8.8-131.9l6,14.5l3.4,117.4H1130.6L1130.6,364.5z"/>
				<path class="st8" d="M1325.3,235.4l-341.6,5.2l0.5-9l341.8-6.9L1325.3,235.4z"/>
				<g transform="translate(13.839)">
					<path class="st74" d="M1015.1,364.5l-5-134l59.1-71.7l56.4,73.8l-8.8,131.9C1116.8,364.5,1015.1,364.5,1015.1,364.5z"/>
					<path class="st8" d="M1140.8,238l-73.3-83.1l-71.7,85.7l10.3,7.6l62.6-75.9l63.1,74.8L1140.8,238z"/>
				</g>
				<g transform="translate(106.89 52.316)">
					<path class="st16" d="M1078.2,201.2c0.3,1.2,5.2,64.5,5.2,64.5l83.3-4.7l9-60C1175.6,201,1078.2,201.2,1078.2,201.2z"/>
					<path class="st17" d="M1088,260.3c-2.4-32.1-3.6-46.9-4.1-54.1h85.9l-7.4,50L1088,260.3L1088,260.3z"/>
					<g transform="translate(3.457 2.706)">
						<path class="st18" d="M1099,203.5c-5.7,3.8-11.7,7.2-17.6,10.7c0.2,3.1,0.5,6.9,0.9,11.4c11-7.2,21.9-14.3,32.4-22.1
							C1114.7,203.5,1099,203.5,1099,203.5z"/>
						<path class="st18" d="M1121.6,203.5c-12.8,10-25.7,19.8-38.8,29.5c0.2,1.2,0.2,2.6,0.3,3.8c14.5-10.7,28.6-22.2,43.3-33.3
							H1121.6z"/>
						<path class="st18" d="M1165.9,205.9c-26.7,16.7-53.8,32.8-81.6,47.2l0.3,4.3l4.1-0.2c25.7-13.6,50.7-28.8,76-43.8
							L1165.9,205.9z"/>
						<path class="st18" d="M1163.6,220.4c-20.2,13.3-41.9,24-62.4,36.2l11-0.7c17.4-8.6,34.1-18.1,50.3-28.6L1163.6,220.4z"/>
					</g>
					<path class="st16" d="M1123,203.3v57.1h5.2l1.7-57.1C1129.9,203.3,1123,203.3,1123,203.3z"/>
					<path class="st16" d="M1168.9,228.4h-84.7v5.2l84.7,1.7C1168.9,235.3,1168.9,228.4,1168.9,228.4z"/>
					<path class="st8" d="M1171.3,260.3l-91.7,4.1l1.2,8.6l89-2.9L1171.3,260.3z"/>
				</g>
				<circle class="st16" cx="1081.6" cy="216.2" r="15.2"/>
				<path class="st17" d="M1091.5,216.2c0,5.3-4.3,9.8-9.8,9.8c-5.3,0-9.8-4.3-9.8-9.8c0-5.5,4.3-9.8,9.8-9.8
					C1087,206.4,1091.5,210.9,1091.5,216.2z"/>
				<path class="st18" d="M1085.8,207.4c-4.8-2.2-10.7-0.2-12.9,4.7c-0.9,2.1-1.2,4.3-0.7,6.4
					C1076.6,214.9,1081.3,211.1,1085.8,207.4z"/>
				<path class="st18" d="M1089.6,210.7c-5,4.1-10,8.3-15.2,12.2c1,1.2,2.4,2.1,3.8,2.6c4.3-3.3,8.6-6.6,13.1-9.7
					C1091.3,213.8,1090.6,212.1,1089.6,210.7z"/>
				<g transform="translate(31.78 49.521)">
					<path class="st8" d="M1019.8,315l-8.1-112.4l70.7-3.8L1075,315L1019.8,315L1019.8,315z"/>
					<path class="st16" d="M1025.9,315l-7.2-106.4l57.1-3.1l-6.6,109.5C1069.1,315,1025.9,315,1025.9,315z"/>
					<path class="st14" d="M1069,315l-36.7-30.3l-3.8-76.7l-9.8,0.5l7.2,106.4L1069,315z"/>
					<path class="st8" d="M1065,250.5h-5.3l-1.6,11.7h6.9V250.5z"/>
				</g>
				<path class="st73" d="M1276.7,322.4l-46.6,18.1l-42.4-15.2L1276.7,322.4z"/>
			</g>
			<path class="st12" d="M1004.5,415.4l-15.3,13.4h162.3c7.6-4.5,15-9,22.8-13.4H1004.5z"/>
			<path class="st11" d="M1249.7,428.8h115.2l-18.3-13.4h-172.4c-7.6,4.3-15.2,8.8-22.8,13.4h41.6l19.1,11.9l-1.9-11.9l24,15.9
				l-5.7-15.9l24.1,11.4L1249.7,428.8z"/>
			<path class="st11" d="M1279.9,428.8h115.2l-18.3-13.4h-172.4c-7.6,4.3-15.2,8.8-22.8,13.4h41.6l19.1,11.9l-1.9-11.9l24,15.9
				l-5.7-15.9l24.1,11.4L1279.9,428.8z"/>
		</g>
		<g transform="translate(1554.1 634.73)">
			<g transform="translate(168.61 123.04)">
				<path class="st11" d="M1624.9,282l3.4-11.7l-14.3-41.4l-36,14.1l-1.7,21.4l4,17.4L1624.9,282z"/>
				<path class="st12" d="M1628.7,282l3.4-11.7l-19,4.1l-19.8-35.9L1582,243l-1.7,21.4l4,17.4h44.5V282z"/>
			</g>
			<g transform="translate(104.93)">
				<path class="st9" d="M1580.3,233.7l-0.5-97.6l11.6-1v-15.2l-71.2,4.7v17.2l15-0.5l2.8,54.8
					C1537.9,196.1,1580.3,233.7,1580.3,233.7z"/>
				<path class="st10" d="M1591.2,119.9v10l-57.9,2.6l-6.2-8.4L1591.2,119.9z"/>
			</g>
			<g transform="translate(131.71 104.27)">
				<path class="st11" d="M1624.6,300.6l5.7-19.5l-23.8-69l-60,23.6l-2.8,35.7l6.6,29.1L1624.6,300.6L1624.6,300.6z"/>
				<path class="st12" d="M1624.6,300.6l5.7-19.5l-31.6,6.9l-33.1-59.8l-19,7.4l-2.8,35.7l6.6,29.1L1624.6,300.6z"/>
			</g>
			<path class="st74" d="M1704.5,232l-265.2,10l9.5,162.9h243.5L1704.5,232L1704.5,232z"/>
			<path class="st10" d="M1718.7,245.3l-291.6,17.1l78.3-123.5l95-10.5L1718.7,245.3z"/>
			<path class="st9" d="M1607.8,251.8c-47.9-16.4-96-32.2-145.2-45.5l-35.5,56L1607.8,251.8z"/>
			<g transform="translate(58.05 89.51)">
				<path class="st8" d="M1486.7,315.4l-8.3-112.4l70.7-3.8l-7.4,116.2L1486.7,315.4L1486.7,315.4z"/>
				<path class="st16" d="M1492.6,315.4l-7.2-106.4l57.1-3.1l-6.6,109.5H1492.6z"/>
				<path class="st14" d="M1535.9,315.4l-36.9-30.2l-3.8-76.7l-9.8,0.5l7.2,106.4C1492.6,315.4,1535.9,315.4,1535.9,315.4z"/>
				<path class="st8" d="M1531.7,251.1h-5.3l-1.6,11.7h6.9V251.1z"/>
			</g>
			<path class="st8" d="M1718.7,245.3v17.1l-289,13.8l-2.6-13.8L1718.7,245.3z"/>
			<g transform="translate(16.22 89.506)">
				<g transform="translate(0 3.886)">
					<path class="st16" d="M1441.4,202.6c0.3,1.2,3.3,64.5,3.3,64.5l54.1-4.7l5.9-60L1441.4,202.6z"/>
					<path class="st17" d="M1449.5,261.7c-1.4-32.1-2.2-46.9-2.6-54.1h52.2l-4.5,50L1449.5,261.7z"/>
					<g transform="translate(3.187 2.705)">
						<path class="st18" d="M1454.9,205c-3.4,3.8-7.1,7.2-10.7,10.7c0.2,3.1,0.3,6.9,0.5,11.4c6.7-7.2,13.3-14.3,19.7-22.1
							C1464.4,205,1454.9,205,1454.9,205z"/>
						<path class="st18" d="M1468.7,205c-7.8,10-15.5,19.8-23.6,29.5c0,1.2,0.2,2.6,0.2,3.8c8.8-10.7,17.4-22.2,26.4-33.3
							C1471.7,205,1468.7,205,1468.7,205z"/>
						<path class="st18" d="M1495.8,207.4c-16.2,16.7-32.8,32.8-49.7,47.2c0,1.4,0.2,2.9,0.2,4.3l2.4-0.2
							c15.7-13.6,30.9-28.8,46.2-43.8L1495.8,207.4z"/>
						<path class="st18" d="M1494.4,221.9c-12.2,13.3-25.5,24-37.9,36.2l6.7-0.7c10.9-8.8,21-18.3,30.7-28.6L1494.4,221.9z"/>
					</g>
					<path class="st16" d="M1469.5,204.8v57.1h5l1.7-57.1H1469.5z"/>
					<path class="st16" d="M1498.7,229.8h-51.6v5.2l51.6,1.7C1498.7,236.7,1498.7,229.8,1498.7,229.8z"/>
					<path class="st8" d="M1501.9,261.7l-59.7,4.1l0.9,8.6l57.8-2.9L1501.9,261.7z"/>
				</g>
				<g transform="translate(87.577)">
					<path class="st16" d="M1519,199.2c0.3,1.2,3.3,64.5,3.3,64.5l54.1-4.7l5.9-60C1582.3,199.1,1519,199.2,1519,199.2z"/>
					<path class="st17" d="M1527.1,258.4c-1.4-32.1-2.2-46.9-2.6-54.1h52.2l-4.5,50C1572.3,254.2,1527.1,258.4,1527.1,258.4z"/>
					<g transform="translate(3.187 2.706)">
						<path class="st18" d="M1532.5,201.5c-3.4,3.8-7.1,7.2-10.7,10.7c0.2,3.1,0.3,6.9,0.5,11.4c6.7-7.2,13.3-14.3,19.7-22.1
							C1542,201.5,1532.5,201.5,1532.5,201.5z"/>
						<path class="st18" d="M1546.3,201.5c-7.8,10-15.5,19.8-23.6,29.5c0,1.2,0.2,2.6,0.2,3.8c8.8-10.7,17.4-22.2,26.4-33.3
							C1549.2,201.5,1546.3,201.5,1546.3,201.5z"/>
						<path class="st18" d="M1573.2,203.9c-16.2,16.7-32.8,32.8-49.7,47.2c0,1.4,0.2,2.9,0.2,4.3l2.4-0.2
							c15.7-13.6,30.9-28.8,46.2-43.8L1573.2,203.9z"/>
						<path class="st18" d="M1572,218.4c-12.2,13.3-25.5,24-37.9,36.2l6.7-0.7c10.9-8.8,21-18.3,30.7-28.6L1572,218.4z"/>
					</g>
					<path class="st16" d="M1547.1,201.3v57.1h5l1.7-57.1C1553.8,201.3,1547.1,201.3,1547.1,201.3z"/>
					<path class="st16" d="M1576.1,226.5h-51.4v5.2l51.6,1.7L1576.1,226.5L1576.1,226.5z"/>
					<path class="st8" d="M1579.5,258.4l-59.7,4.1l0.9,8.6l57.8-2.9L1579.5,258.4z"/>
				</g>
			</g>
			<path class="st11" d="M1797.3,404.9h-348.5l-21.7,12.4l269.2-0.2l0.5,3.4l14.7-2.2l4.3,3.8l14.3-4.8l9.1,4.8l17.2-4.3l54.1-0.5
				L1797.3,404.9L1797.3,404.9z"/>
			<path class="st12" d="M1544.7,404.9l-26.6,12.4h-91l21.7-12.4H1544.7z"/>
		</g>
		<g>
			<g>
				<path class="st75" d="M1035.1,1084.7h-7.3c-1.8,0-3.5,1-3.8,2.4l-2.4,9c-0.4,1.6,1.1,3,3.2,3h7.3c1.8,0,3.5-1,3.8-2.4l2.4-9
					C1038.8,1086.1,1037.3,1084.7,1035.1,1084.7z"/>
				<path class="st76" d="M931.2,1099.3H743.5c-4.5,0-8.2,3.7-8.2,8.2v3.5c0,4.5,3.7,8.2,8.2,8.2h187.8c4.5,0,8.2-3.7,8.2-8.2v-3.5
					C939.4,1102.9,935.8,1099.3,931.2,1099.3z"/>
				<path class="st76" d="M771.6,1102.1h-86c-3.1,0-5.7,2.5-5.7,5.7v8.6c0,3.1,2.5,5.7,5.7,5.7h86c3.1,0,5.7-2.5,5.7-5.7v-8.6
					C777.3,1104.7,774.8,1102.1,771.6,1102.1z"/>
				<path class="st77" d="M907.7,1116H652.3c-18-74.5-11.9-141.9,20.9-201.3l236.5,2.1l-0.6,34.3L907.7,1116z"/>
				<path class="st14" d="M665.1,1116h242.5l1.3-164.9l0.7-34.3l-224.4-1.9C659.1,975.9,653.6,1043.3,665.1,1116z"/>
				<path class="st16" d="M842.4,987.4c16.4-27.6,38.7-51.4,64.6-70.7l-110.4-1c1.9,32.7-6.5,67.8-26.7,101.8
					c-23.6,39.8-59.6,71.8-101,93.5c0.3,1.6,0.7,3.3,1.1,4.9h149.8C809.9,1076.2,816.6,1030.9,842.4,987.4z"/>
				<path class="st77" d="M691.7,1106.2l-31.4-0.8v7.4h35.5l0.2-2.5C696.1,1108.1,694.1,1106.3,691.7,1106.2z"/>
				<path class="st78" d="M661.5,936.7l11.4,3.8c-17.2,47.3-14.6,141.8-14.3,151.9l-11.1,1c0.1,0.6,0.2,1.2,0.3,1.9l13.2-1.1l0-0.9
					c0-1-3.8-103.9,14.5-153l0.3-0.8l-13.6-4.5C661.9,935.5,661.7,936.1,661.5,936.7z"/>
				<path class="st76" d="M1002.3,1102.1h-86c-3.1,0-5.7,2.5-5.7,5.7v8.6c0,3.1,2.5,5.7,5.7,5.7h86c3.1,0,5.7-2.5,5.7-5.7v-8.6
					C1008,1104.7,1005.4,1102.1,1002.3,1102.1z"/>
				<path class="st76" d="M909,951.2l0.6-34.4l-0.1,0c-5.5,24.7-18.7,121.2-17,199.9h15.1L909,951.2z"/>
				<path class="st79" d="M1020.3,1119.7l-113-3.7c-7.8-51.7-7.2-110.8,1.9-169.2l62,4.9l34.9,109.5l31.9,19.2L1020.3,1119.7z"/>
				<path class="st74" d="M1006,1061.3l-34.9-109.5l-62-4.9c-6.3,40.6-8.5,81.5-6.6,120.1l134.4,12.9L1006,1061.3z"/>
				<path class="st80" d="M1023.6,1108.8l-18-0.8c-1.7-0.1-3.2,0.8-3.5,2l-2.2,7.6c-0.4,1.5,1,2.9,3.1,3l18,0.8
					c1.7,0.1,3.2-0.8,3.5-2l2.2-7.6C1027.1,1110.3,1025.6,1108.9,1023.6,1108.8z"/>
				<path class="st76" d="M987.2,1095.8c-10.2,0-22.6,10.5-27.9,23.5H997C1001.7,1106.3,997.5,1095.8,987.2,1095.8z"/>
				<polygon class="st76" points="999.2,1061.7 919.2,1061.7 919.2,1064.1 997.8,1064.1 				"/>
				<g>
					<path class="st76" d="M955.7,1111l-36.4-2.7l-0.6-47.4l1.2,0l0.6,46.5l34.2,2.6c6.6-19.2,25.9-20.9,29-21l15.8-29.2l1.2,0.4
						l-16.1,29.8l-0.4,0c-0.2,0-21.6,0.3-28.4,20.7L955.7,1111z"/>
				</g>
				<polygon class="st76" points="1001.2,1060 999.2,1062.9 918.6,1062.9 916.1,963.6 969.2,963.2 				"/>
				<polygon class="st81" points="997.6,1058.9 995.8,1061.7 920.5,1061.7 918.2,965.2 967.7,964.9 				"/>
				<polygon class="st82" points="967.7,964.9 918.2,965.2 919.1,1004.2 978.4,998.5 				"/>
				<polygon class="st83" points="987.7,1055.7 986.2,1058.2 924.7,1058.2 922.8,972 963.3,971.7 				"/>
				<g>
					<path class="st78" d="M994.3,1116.6c3-9.9-0.9-17.8-8.7-17.8c-7.8,0-16.6,8-19.6,17.8c-3,9.9,0.9,17.8,8.7,17.8
						C982.5,1134.5,991.3,1126.5,994.3,1116.6z"/>
					<path class="st84" d="M990.4,1124.5c1-8-2.8-13.9-9.6-13.9c-5.6,0-11.6,4.1-15.7,9.9c-1,8,2.8,13.9,9.6,13.9
						C980.3,1134.5,986.3,1130.4,990.4,1124.5z"/>
					<path class="st76" d="M989,1116.6c1.9-5.7-0.6-10.3-5.4-10.3c-4.9,0-10.4,4.6-12.3,10.3c-1.9,5.7,0.6,10.3,5.4,10.3
						C981.6,1127,987.1,1122.3,989,1116.6z"/>
					
						<ellipse transform="matrix(0.5433 -0.8395 0.8395 0.5433 -489.8333 1332.7753)" class="st74" cx="980.2" cy="1116.6" rx="8.3" ry="5.5"/>
				</g>
				<path class="st77" d="M892.5,1112.2H683.3c-1.3,0-2.3,0.8-2.3,1.7c0,0.9,1,1.7,2.3,1.7h209.3V1112.2z"/>
				<ellipse class="st76" cx="869.9" cy="1097.1" rx="2.5" ry="1.9"/>
				<g>
					<path class="st76" d="M877,1115.6h-42.7v-21.2c0-1.1,1.2-2,2.7-2h37.3c1.5,0,2.7,0.9,2.7,2V1115.6z M835.6,1114.6h40.1v-19.4
						c0-1.1-1.2-2-2.7-2h-34.8c-1.5,0-2.7,0.9-2.7,2V1114.6z"/>
				</g>
				<path class="st80" d="M892.7,1114.1H768.2c-1.3,0-2.3,0.8-2.3,1.7l0,0c0,0.9,1,1.7,2.3,1.7h124.5c1.3,0,2.3-0.8,2.3-1.7l0,0
					C895,1114.9,893.9,1114.1,892.7,1114.1z"/>
				<path class="st80" d="M735.7,1114.1h-51.5c-0.7,0-1.3,0.6-1.3,1.3v0.8c0,0.7,0.6,1.3,1.3,1.3h51.5c0.7,0,1.3-0.6,1.3-1.3v-0.8
					C737,1114.7,736.4,1114.1,735.7,1114.1z"/>
				<path class="st76" d="M756.5,1095.8c-9.9,0-20.9,10.2-25,22.9h36.3C771.4,1106,766.4,1095.8,756.5,1095.8z"/>
				<path class="st85" d="M688.8,1118.7l-42.1,1.6c-1.6,0.1-2.9-1.2-3.1-2.9l-0.5-7c-0.1-1.7,1.2-3.2,2.8-3.1l42.5,1.1
					c2.4,0.1,4.4,1.9,4.2,4l-0.3,3.2C692.2,1117.3,690.7,1118.6,688.8,1118.7z"/>
				<g>
					<path class="st86" d="M735,999.2l-1.3-6.8l8.3-1.3l3.6,18.8l-8.3,1.3l-1.4-7.3l-3.3,0.5l1.4,7.3l-8.3,1.3l-3.6-18.8l8.3-1.3
						l1.3,6.8L735,999.2z"/>
					<path class="st86" d="M751.9,1008.9c-2,0.3-3.5-0.5-3.8-1.8l-2.7-14.1c-0.3-1.4,0.9-2.5,2.9-2.8l13.3-2c2-0.3,3.5,0.5,3.8,1.8
						l2.7,14.1c0.3,1.4-0.9,2.5-2.9,2.8L751.9,1008.9z M754.3,994.1l1.8,9.4l3.3-0.5l-1.8-9.4L754.3,994.1z"/>
					<path class="st86" d="M788,984.2l3.6,18.8l-16.6,2.5c-2,0.3-3.5-0.5-3.8-1.8l-3.1-16.4l8.3-1.3l2.7,14.1l3.3-0.5l-2.7-14.1
						L788,984.2z"/>
					<path class="st86" d="M791.4,990.1l-0.7-3.9c-0.3-1.4,0.9-2.5,2.9-2.8l14.4-2.2l0.4,2.3l-0.8,2.6l-8.2,1.2l0.2,0.9l7.9,2.3
						c2,0.6,2.6,1.4,2.8,2.9l0.8,4.3c0.3,1.4-0.9,2.5-2.9,2.8l-14.5,2.2l-0.9-4.7l9.5-1.4l-0.2-1.2l-7.9-2.3
						C792.3,992.3,791.7,991.6,791.4,990.1z"/>
					<path class="st86" d="M813.9,999.6l-3.6-18.8l17.8-2.7l0.4,2.3l-0.9,2.6l-8.2,1.2l0.4,2.1l8.2-1.2l0.9,4.7l-8.2,1.2l0.5,2.6
						l9.5-1.4l0.9,4.7L813.9,999.6z"/>
					<path class="st86" d="M726.1,1036.6l-0.6,0.1l1.7,9l-8.1,1.2l-0.4-2.3l-0.4-16.8l9.3-1.4l3.4,7.1l0.6-0.1l0.6-7.7l9.3-1.4
						l5.8,16l0.4,2.3l-8.1,1.2l-1.7-9l-0.7,0.1l-0.3,9.3l-7,1.1L726.1,1036.6z"/>
					<path class="st86" d="M753.3,1041.8c-2,0.3-3.5-0.5-3.8-1.8l-2.7-14.1c-0.3-1.4,0.9-2.5,2.9-2.8l13.3-2c2-0.3,3.5,0.5,3.8,1.8
						l2.7,14.1c0.3,1.4-0.9,2.5-2.9,2.8L753.3,1041.8z M755.6,1027l1.8,9.4l3.3-0.5l-1.8-9.4L755.6,1027z"/>
					<path class="st86" d="M768.5,1021.8l-0.3-1.5l8.3-1.3l4.4,13.8l1-0.1l-1-14.3l8.3-1.3l0.3,1.5l-1,17.9l-12.5,1.9L768.5,1021.8z
						"/>
					<path class="st86" d="M794.6,1035.5l-3.6-18.8l8.3-1.3l3.6,18.8L794.6,1035.5z"/>
					<path class="st86" d="M817.4,1021.7l-2.3-6.2l-0.4-2.3l7.7-1.2l3.6,18.8l-8.8,1.3l-5.6-8.1l-0.6,0.1l2.3,6.2l0.4,2.3l-7.6,1.2
						l-3.6-18.8l8.8-1.3l5.5,8.1L817.4,1021.7z"/>
					<path class="st86" d="M845.2,1008.6l0.4,2.3l-0.9,2.6l-10.1,1.5l1.8,9.4l3.3-0.5l-1.2-6.3l8.3-1.3l2.1,11l-16.6,2.5
						c-2,0.3-3.5-0.5-3.8-1.8l-2.7-14.1c-0.3-1.4,0.9-2.5,2.9-2.8L845.2,1008.6z"/>
				</g>
				<g>
					<polygon class="st86" points="767.8,951.9 780,944.2 773.3,939.5 752.9,952.4 770.5,964.6 778.7,959.5 					"/>
					<polygon class="st86" points="840.1,1062.3 842.6,1070 848.4,1068.6 845,1058 828.7,1058.4 829.4,1062.6 					"/>
					<g>
						<path class="st86" d="M758.5,953.5c2.2-0.5,4.5-1,6.8-1.3c43.9-6.6,85.5,17,92.9,52.9c2.9,14.3-0.1,28.4-7.5,40.6
							c2.5,0.3,4.8,1.1,6.5,2.4c8-13.1,10.8-28.3,6.5-43.9c-10.2-37.2-56.5-61.5-103.5-54.4c-1.1,0.2-2.2,0.4-3.3,0.6
							C757.7,951.3,758.3,952.4,758.5,953.5z"/>
						<path class="st86" d="M840.1,1059c-11.9,11.6-28.6,20.1-48.1,23c-43.9,6.6-85.5-17-92.9-52.9c-5.7-28,11.1-55.1,39.7-68.8
							c-1.3-1.1-2.2-2.4-2.5-3.8c-32.6,13.7-51,43.2-42.7,73.5c10.2,37.2,56.5,61.5,103.5,54.4c19.9-3,36.7-11.2,48.7-22.4
							C843.5,1061.5,841.5,1060.4,840.1,1059z"/>
					</g>
				</g>
				<path class="st87" d="M942.3,1066.8h-13.2c-1.3,0-2.3,1-2.3,2.3v1.3c0,1.3,1,2.3,2.3,2.3h13.2c1.3,0,2.3-1,2.3-2.3v-1.3
					C944.6,1067.9,943.6,1066.8,942.3,1066.8z"/>
				<path class="st88" d="M927.3,1069.4v0.9c0.3,0.2,0.8,0.4,1.3,0.4h8.9c1.1,0,1.9-0.6,1.9-1.4v-1.4c0-0.1,0-0.3-0.1-0.4H930
					C928.5,1067.4,927.3,1068.3,927.3,1069.4z"/>
				<path class="st76" d="M1018.4,1084.7h-6.4c-1.2,0-2.2,1-2.2,2.2v0.8c0,1.2,1,2.2,2.2,2.2h6.4c1.2,0,2.2-1,2.2-2.2v-0.8
					C1020.6,1085.7,1019.6,1084.7,1018.4,1084.7z"/>
				<path class="st89" d="M1017.4,1085.4h-4c-0.8,0-1.5,0.7-1.5,1.5v0.6c0,0.8,0.7,1.5,1.5,1.5h4c0.8,0,1.5-0.7,1.5-1.5v-0.6
					C1018.9,1086,1018.2,1085.4,1017.4,1085.4z"/>
				<polygon class="st81" points="963.3,971.7 922.8,972 923.5,1003.8 971.3,999.2 				"/>
				<polygon class="st76" points="968.4,964.1 965.7,964.1 978.2,1063.3 982.2,1063.3 				"/>
				<rect x="978.5" y="1051.1" class="st76" width="7.3" height="1.8"/>
				<path class="st76" d="M992.8,1051.9c0-3.8-3.1-6.9-5.4-6.9s-4.2,3.1-4.2,6.9c0,3.8,1.9,6.9,4.2,6.9S992.8,1055.7,992.8,1051.9z"
					/>
				<path class="st82" d="M990,1051.9c0-2.8-1.4-5.1-3.1-5.1c-1.7,0-3.1,2.3-3.1,5.1c0,2.8,1.4,5.1,3.1,5.1
					C988.6,1057,990,1054.7,990,1051.9z"/>
				<g>
					
						<ellipse transform="matrix(0.5434 -0.8395 0.8395 0.5434 -594.5312 1140.2885)" class="st78" cx="750.9" cy="1116.6" rx="19.5" ry="13"/>
					<path class="st84" d="M761.2,1124.5c1-8-2.8-13.9-9.6-13.9c-5.6,0-11.6,4.1-15.7,9.9c-1,8,2.8,13.9,9.6,13.9
						C751,1134.5,757.1,1130.4,761.2,1124.5z"/>
					<path class="st76" d="M759.7,1116.6c1.9-5.7-0.6-10.3-5.4-10.3c-4.9,0-10.4,4.6-12.3,10.3c-1.9,5.7,0.6,10.3,5.4,10.3
						C752.4,1127,757.9,1122.3,759.7,1116.6z"/>
					<path class="st74" d="M756.9,1116.6c1.3-4.2-0.4-7.6-3.7-7.6c-3.3,0-7.1,3.4-8.3,7.6c-1.3,4.2,0.4,7.6,3.7,7.6
						S755.6,1120.8,756.9,1116.6z"/>
				</g>
				<path class="st76" d="M666.4,1098.3h-8.1c-1.4,0-2.5,1.1-2.5,2.5v1.2c0,1.4,1.1,2.5,2.5,2.5h8.1c1.4,0,2.5-1.1,2.5-2.5v-1.2
					C668.9,1099.4,667.7,1098.3,666.4,1098.3z"/>
				<path class="st90" d="M665,1099.3h-5.3c-0.9,0-1.7,0.8-1.7,1.7v0.9c0,0.9,0.8,1.7,1.7,1.7h5.3c0.9,0,1.7-0.8,1.7-1.7v-0.9
					C666.7,1100,665.9,1099.3,665,1099.3z"/>
				<path class="st80" d="M682,1108.2l-36.1-1c-1.6,0-3,1.4-2.8,3.1l0.5,7c0,0,0,0,0,0c0.8,0,1.7,0,2.5,0
					C663.9,1117.4,678.8,1113.5,682,1108.2z"/>
				<path class="st14" d="M656,953.2c-10.1,29.2-14.5,60.1-13.6,92.5c9.5-11.5,16-35.7,16-63.7C658.5,971.8,657.6,962,656,953.2z"/>
				<path class="st16" d="M669.3,922h240.3l0.1-5.3l-236.5-2.1C671.8,917.1,670.6,919.6,669.3,922z"/>
				<path class="st76" d="M668.6,923.5h241l0-1.6H669.4C669.1,922.4,668.8,922.9,668.6,923.5z"/>
			</g>
			<linearGradient id="SVGID_1_" gradientUnits="userSpaceOnUse" x1="618.6172" y1="916.4216" x2="663.4182" y2="916.4216">
				<stop  offset="0" style="stop-color:#FFFFFF"/>
				<stop  offset="1" style="stop-color:#D9D9D9"/>
			</linearGradient>
			<line class="st91" x1="662.6" y1="916.4" x2="619.5" y2="916.4"/>
			<linearGradient id="SVGID_2_" gradientUnits="userSpaceOnUse" x1="610.8085" y1="921.5945" x2="660.881" y2="921.5945">
				<stop  offset="0" style="stop-color:#FFFFFF"/>
				<stop  offset="1" style="stop-color:#D9D9D9"/>
			</linearGradient>
			<line class="st92" x1="660" y1="921.6" x2="611.7" y2="921.6"/>
			<linearGradient id="SVGID_3_" gradientUnits="userSpaceOnUse" x1="603.0024" y1="926.7675" x2="658.3414" y2="926.7675">
				<stop  offset="0" style="stop-color:#FFFFFF"/>
				<stop  offset="1" style="stop-color:#D9D9D9"/>
			</linearGradient>
			<line class="st93" x1="657.4" y1="926.8" x2="603.9" y2="926.8"/>
			<linearGradient id="SVGID_4_" gradientUnits="userSpaceOnUse" x1="595.1985" y1="931.9404" x2="655.7994" y2="931.9404">
				<stop  offset="0" style="stop-color:#FFFFFF"/>
				<stop  offset="1" style="stop-color:#D9D9D9"/>
			</linearGradient>
			<line class="st94" x1="654.8" y1="931.9" x2="596.2" y2="931.9"/>
			<linearGradient id="SVGID_5_" gradientUnits="userSpaceOnUse" x1="587.3965" y1="937.1133" x2="653.2556" y2="937.1133">
				<stop  offset="0" style="stop-color:#FFFFFF"/>
				<stop  offset="1" style="stop-color:#D9D9D9"/>
			</linearGradient>
			<line class="st95" x1="652.2" y1="937.1" x2="588.4" y2="937.1"/>
			<linearGradient id="SVGID_6_" gradientUnits="userSpaceOnUse" x1="579.5961" y1="942.2862" x2="650.7101" y2="942.2862">
				<stop  offset="0" style="stop-color:#FFFFFF"/>
				<stop  offset="1" style="stop-color:#D9D9D9"/>
			</linearGradient>
			<line class="st96" x1="649.6" y1="942.3" x2="580.7" y2="942.3"/>
			<linearGradient id="SVGID_7_" gradientUnits="userSpaceOnUse" x1="573.5217" y1="947.4591" x2="649.8873" y2="947.4591">
				<stop  offset="0" style="stop-color:#FFFFFF"/>
				<stop  offset="1" style="stop-color:#D9D9D9"/>
			</linearGradient>
			<line class="st97" x1="648.8" y1="947.5" x2="574.6" y2="947.5"/>
			<linearGradient id="SVGID_8_" gradientUnits="userSpaceOnUse" x1="565.7242" y1="952.632" x2="647.339" y2="952.632">
				<stop  offset="0" style="stop-color:#FFFFFF"/>
				<stop  offset="1" style="stop-color:#D9D9D9"/>
			</linearGradient>
			<line class="st98" x1="646.2" y1="952.6" x2="566.9" y2="952.6"/>
			<linearGradient id="SVGID_9_" gradientUnits="userSpaceOnUse" x1="559.6523" y1="957.8049" x2="646.5137" y2="957.8049">
				<stop  offset="0" style="stop-color:#FFFFFF"/>
				<stop  offset="1" style="stop-color:#D9D9D9"/>
			</linearGradient>
			<line class="st99" x1="645.3" y1="957.8" x2="560.8" y2="957.8"/>
			<linearGradient id="SVGID_10_" gradientUnits="userSpaceOnUse" x1="552.2301" y1="962.9778" x2="644.3358" y2="962.9778">
				<stop  offset="0" style="stop-color:#FFFFFF"/>
				<stop  offset="1" style="stop-color:#D9D9D9"/>
			</linearGradient>
			<line class="st100" x1="643.1" y1="963" x2="553.5" y2="963"/>
			<linearGradient id="SVGID_11_" gradientUnits="userSpaceOnUse" x1="544.436" y1="968.1508" x2="641.7841" y2="968.1508">
				<stop  offset="0" style="stop-color:#FFFFFF"/>
				<stop  offset="1" style="stop-color:#D9D9D9"/>
			</linearGradient>
			<line class="st101" x1="640.5" y1="968.2" x2="545.7" y2="968.2"/>
			<linearGradient id="SVGID_12_" gradientUnits="userSpaceOnUse" x1="538.9592" y1="973.3237" x2="641.5477" y2="973.3237">
				<stop  offset="0" style="stop-color:#FFFFFF"/>
				<stop  offset="1" style="stop-color:#D9D9D9"/>
			</linearGradient>
			<line class="st102" x1="640.3" y1="973.3" x2="540.2" y2="973.3"/>
			<linearGradient id="SVGID_13_" gradientUnits="userSpaceOnUse" x1="532.2992" y1="978.4966" x2="640.1265" y2="978.4966">
				<stop  offset="0" style="stop-color:#FFFFFF"/>
				<stop  offset="1" style="stop-color:#D9D9D9"/>
			</linearGradient>
			<line class="st103" x1="638.8" y1="978.5" x2="533.6" y2="978.5"/>
			<linearGradient id="SVGID_14_" gradientUnits="userSpaceOnUse" x1="525.3698" y1="983.6695" x2="638.4343" y2="983.6695">
				<stop  offset="0" style="stop-color:#FFFFFF"/>
				<stop  offset="1" style="stop-color:#D9D9D9"/>
			</linearGradient>
			<line class="st104" x1="637.1" y1="983.7" x2="526.7" y2="983.7"/>
			<linearGradient id="SVGID_15_" gradientUnits="userSpaceOnUse" x1="520.1656" y1="988.8424" x2="638.4656" y2="988.8424">
				<stop  offset="0" style="stop-color:#FFFFFF"/>
				<stop  offset="1" style="stop-color:#D9D9D9"/>
			</linearGradient>
			<line class="st105" x1="637.1" y1="988.8" x2="521.6" y2="988.8"/>
			<linearGradient id="SVGID_16_" gradientUnits="userSpaceOnUse" x1="513.7274" y1="994.0153" x2="637.2617" y2="994.0153">
				<stop  offset="0" style="stop-color:#FFFFFF"/>
				<stop  offset="1" style="stop-color:#D9D9D9"/>
			</linearGradient>
			<line class="st106" x1="635.8" y1="994" x2="515.1" y2="994"/>
			<linearGradient id="SVGID_17_" gradientUnits="userSpaceOnUse" x1="507.5158" y1="999.1882" x2="636.2831" y2="999.1882">
				<stop  offset="0" style="stop-color:#FFFFFF"/>
				<stop  offset="1" style="stop-color:#D9D9D9"/>
			</linearGradient>
			<line class="st107" x1="634.8" y1="999.2" x2="509" y2="999.2"/>
			<linearGradient id="SVGID_18_" gradientUnits="userSpaceOnUse" x1="497.3203" y1="1004.3611" x2="636.55" y2="1004.3611">
				<stop  offset="0" style="stop-color:#FFFFFF"/>
				<stop  offset="1" style="stop-color:#D9D9D9"/>
			</linearGradient>
			<line class="st108" x1="635" y1="1004.4" x2="498.8" y2="1004.4"/>
			<linearGradient id="SVGID_19_" gradientUnits="userSpaceOnUse" x1="490.3745" y1="1009.5341" x2="634.8337" y2="1009.5341">
				<stop  offset="0" style="stop-color:#FFFFFF"/>
				<stop  offset="1" style="stop-color:#D9D9D9"/>
			</linearGradient>
			<line class="st109" x1="633.3" y1="1009.5" x2="491.9" y2="1009.5"/>
			<linearGradient id="SVGID_20_" gradientUnits="userSpaceOnUse" x1="485.132" y1="1014.707" x2="634.8196" y2="1014.707">
				<stop  offset="0" style="stop-color:#FFFFFF"/>
				<stop  offset="1" style="stop-color:#D9D9D9"/>
			</linearGradient>
			<line class="st110" x1="633.3" y1="1014.7" x2="486.7" y2="1014.7"/>
			<linearGradient id="SVGID_21_" gradientUnits="userSpaceOnUse" x1="479.9719" y1="1019.8799" x2="634.887" y2="1019.8799">
				<stop  offset="0" style="stop-color:#FFFFFF"/>
				<stop  offset="1" style="stop-color:#D9D9D9"/>
			</linearGradient>
			<line class="st111" x1="633.3" y1="1019.9" x2="481.6" y2="1019.9"/>
			<linearGradient id="SVGID_22_" gradientUnits="userSpaceOnUse" x1="474.7321" y1="1025.0529" x2="634.8738" y2="1025.0529">
				<stop  offset="0" style="stop-color:#FFFFFF"/>
				<stop  offset="1" style="stop-color:#D9D9D9"/>
			</linearGradient>
			<line class="st112" x1="633.3" y1="1025.1" x2="476.3" y2="1025.1"/>
			<linearGradient id="SVGID_23_" gradientUnits="userSpaceOnUse" x1="469.5728" y1="1030.2257" x2="634.9402" y2="1030.2257">
				<stop  offset="0" style="stop-color:#FFFFFF"/>
				<stop  offset="1" style="stop-color:#D9D9D9"/>
			</linearGradient>
			<line class="st113" x1="633.3" y1="1030.2" x2="471.2" y2="1030.2"/>
			<linearGradient id="SVGID_24_" gradientUnits="userSpaceOnUse" x1="463.4944" y1="1035.416" x2="634.0866" y2="1035.416">
				<stop  offset="0" style="stop-color:#FFFFFF"/>
				<stop  offset="1" style="stop-color:#D9D9D9"/>
			</linearGradient>
			<line class="st114" x1="632.4" y1="1035.4" x2="465.2" y2="1035.4"/>
			<linearGradient id="SVGID_25_" gradientUnits="userSpaceOnUse" x1="462.6515" y1="1040.589" x2="633.2438" y2="1040.589">
				<stop  offset="0" style="stop-color:#FFFFFF"/>
				<stop  offset="1" style="stop-color:#D9D9D9"/>
			</linearGradient>
			<line class="st115" x1="631.6" y1="1040.6" x2="464.3" y2="1040.6"/>
			<linearGradient id="SVGID_26_" gradientUnits="userSpaceOnUse" x1="462.4632" y1="1045.7618" x2="633.0555" y2="1045.7618">
				<stop  offset="0" style="stop-color:#FFFFFF"/>
				<stop  offset="1" style="stop-color:#D9D9D9"/>
			</linearGradient>
			<line class="st116" x1="631.4" y1="1045.8" x2="464.1" y2="1045.8"/>
			<linearGradient id="SVGID_27_" gradientUnits="userSpaceOnUse" x1="463.5117" y1="1050.9348" x2="634.104" y2="1050.9348">
				<stop  offset="0" style="stop-color:#FFFFFF"/>
				<stop  offset="1" style="stop-color:#D9D9D9"/>
			</linearGradient>
			<line class="st117" x1="632.4" y1="1050.9" x2="465.2" y2="1050.9"/>
			<linearGradient id="SVGID_28_" gradientUnits="userSpaceOnUse" x1="501.2035" y1="1025.0529" x2="501.2035" y2="1025.0529">
				<stop  offset="0" style="stop-color:#FFFFFF"/>
				<stop  offset="1" style="stop-color:#D9D9D9"/>
			</linearGradient>
			<path class="st118" d="M501.2,1025.1"/>
			<linearGradient id="SVGID_29_" gradientUnits="userSpaceOnUse" x1="632.2496" y1="1025.0529" x2="632.2496" y2="1025.0529">
				<stop  offset="0" style="stop-color:#FFFFFF"/>
				<stop  offset="1" style="stop-color:#D9D9D9"/>
			</linearGradient>
			<path class="st119" d="M632.2,1025.1"/>
		</g>
	</g>
</g>
</svg>
