<?xml version="1.0" encoding="UTF-8"?>
<svg viewBox="0 0 458.54 426.94" xmlns="http://www.w3.org/2000/svg">
<g transform="translate(-21.858 -44.041)" data-name="Group 4700">
<g data-name="Group 4673">
<path d="M406.86,252.91v118.6H273.55l.9-118.6.55-1.15,24.42-51.34,11.67-24.54,2.38-4.99,27.19-57.18.56,1.18,36.85,77.48Z" fill="#dbdbdb" data-name="Path 4585"/>
<path d="M409.96,366.42l-3.1.57-24.38,4.52H322.53l-43.51-91.98L275,251.76l24.42-51.34,11.67-24.54,2.38-4.99,27.19-57.18.56,1.18L323.68,245.27l15.3-34.88-.61,67.92L359.17,252v37.94l-7.34-12.85L345.1,334.6l36.71-86.88,25.05,105.63Z" fill="#b8b8b8" data-name="Path 4586"/>
<path d="M311.09,175.88,309,180.271l23.86-28.01,7.955,33.042L350,157.156l9.8,12.807,3.638-8.372-22.211-46.7-.56-1.18-27.19,57.18Z" fill="#fff" stroke="#263238" stroke-linecap="round" stroke-linejoin="round" data-name="Path 4587"/>
<path d="M406.86,252.91v118.6H273.55l.9-118.6.55-1.15,24.42-51.34,11.67-24.54,2.38-4.99,27.19-57.18.56,1.18,36.85,77.48Z" fill="none" stroke="#263238" stroke-linecap="round" stroke-linejoin="round" data-name="Path 4588"/>
</g>
<g data-name="Group 4675">
<path d="m473.18 391.26-25.17-16.91-3.54 31.46-23.99-9.44-5.89 34.6-40.9-26.73h-34.6l1.96-35 38.5-82.78 1.74-3.73 22.68-48.76 18.09 34.61 7.45 17.88z" fill="#dbdbdb" data-name="Path 4589"/>
<g data-name="Group 4674">
<path d="m445.78 355.96 2.546 18.6 9.262 6.222z" fill="#b8b8b8" data-name="Path 4590"/>
</g>
<path d="M420.48,396.37l18.982,7.47-2.264-7.245-6.868-11.446,5.151-7.44-.979-28.686-18.48,25.824-1.145-54.942-18.314,36.628,9.717-118.14-2.312-4.423-22.68,48.76-1.74,3.73-38.5,82.78-1.96,35h34.6l40.9,26.73Z" fill="#b8b8b8" data-name="Path 4591"/>
<path d="m475.8 396.6-69.69-168.29-78.8 169.83" fill="none" stroke="#263238" stroke-linecap="round" stroke-linejoin="round" data-name="Path 4592"/>
<path d="m413.04 291.24 5.152-4.683 12.645 14.05 1.056-10.031-25.785-62.266-30.034 64.731-0.032 0.541 26.695-28.1z" fill="#fff" stroke="#263238" stroke-linecap="round" stroke-linejoin="round" data-name="Path 4593"/>
</g>
<g data-name="Group 4676">
<path d="m358.72 433.14 2.34 27.63-18.92-9.33-24.78-12.22-23.74-11.7-12.65 9.84-34.65-14.52-30.91 29.97-24.36-21.07-29.03 6.08 1.87-28.1 49.9-111.63 6.48-14.51 44.31-99.12 14.52 33.25 13.58 17.8 59.72 144.7 11.27-14.33 36.73 85.99z" fill="#dbdbdb" data-name="Path 4594"/>
<path d="m271.67 356.63-11.626-14.686 7.343-73.427-33.654 66.7 29.371-125.44 1.859-24.435-0.386-0.883-44.31 99.12-6.48 14.51-49.9 111.63-1.87 28.1 29.03-6.08 24.36 21.07 30.91-29.97 10.43 4.371 2.686-42.431 20.8 15.3-2.448-58.13z" fill="#b8b8b8" data-name="Path 4595"/>
<path d="m405.14 463.16-41.474-97.284-11.267 14.337-84.689-204.48-100.66 227.52" fill="none" stroke="#263238" stroke-linecap="round" stroke-linejoin="round" data-name="Path 4596"/>
<path d="m297.7 248.15-29.992-72.414-35.1 79.335 27.305-30.408 16.73 11.582 2.574-8.365z" fill="#fff" stroke="#263238" stroke-linecap="round" stroke-linejoin="round" data-name="Path 4597"/>
<path d="m342.14 451.44-24.78-12.22-17.04-76.05z" fill="#b8b8b8" data-name="Path 4598"/>
</g>
<g stroke="#263238" stroke-linecap="round" stroke-linejoin="round">
<g data-name="Group 4677">
<path d="M362.21,175.88H311.09l2.38-4.99a.757.757,0,0,0,.15-.01c2.38-.24,2.62-1.9,5.95-2.38s5.72,1.43,8.34.24,4.29-5.72,9.53-5,12.62,8.33,12.62,8.33c2.86,0,4.05-.71,7.15.48A14.13,14.13,0,0,1,362.21,175.88Z" fill="#263238" data-name="Path 4599"/>
<path d="m352.65 169.49s-7.384-7.622-12.625-8.337-6.908 3.811-9.528 5-5-0.714-8.337-0.238-3.573 2.144-5.955 2.382-4.049-1.429-6.67-0.953-4.049 3.335-5.478 3.335-3.812-1.667-6.432-1.667-6.669 2.382-6.669 2.382l-16.2 1.9h90.047a14.061 14.061 0 0 0-5-3.334c-3.1-1.184-4.295-0.47-7.153-0.47z" fill="#fff" data-name="Path 4600"/>
</g>
<path d="m444.62 150.19s-7.384-7.622-12.625-8.337-6.908 3.812-9.528 5-5-0.715-8.337-0.239-3.573 2.144-5.955 2.382-4.049-1.429-6.67-0.952-4.049 3.334-5.478 3.334-3.811-1.667-6.432-1.667-6.669 2.382-6.669 2.382l-16.198 1.907h90.04a14.055 14.055 0 0 0-5-3.335c-3.098-1.189-4.29-0.475-7.148-0.475z" fill="#fff" data-name="Path 4601"/>
<g data-name="Group 4678">
<path d="m399.11 313.65s-13.232-13.659-22.623-14.94-12.379 6.83-17.074 8.964-8.964-1.281-14.94-0.427-6.4 3.842-10.671 4.269-7.257-2.562-11.952-1.708-7.256 5.976-9.818 5.976-6.829-2.988-11.525-2.988-11.951 4.269-11.951 4.269l-29.026 3.414h161.35a25.2 25.2 0 0 0-8.964-5.975c-5.549-2.135-7.683-0.854-12.805-0.854z" fill="#263238" data-name="Path 4602"/>
<path d="m404.15 311.13s-13.232-13.659-22.623-14.94-12.379 6.83-17.074 8.964-8.964-1.281-14.94-0.427-6.4 3.842-10.671 4.269-7.257-2.561-11.952-1.708-7.256 5.976-9.818 5.976-6.829-2.988-11.525-2.988-11.951 4.269-11.951 4.269l-29.026 3.414h161.35a25.2 25.2 0 0 0-8.964-5.976c-5.553-2.134-7.683-0.853-12.805-0.853z" fill="#fff" data-name="Path 4603"/>
</g>
<g data-name="Group 4679">
<path d="M429.51,286.46H379.55l1.74-3.73a15.407,15.407,0,0,0,3.54,1.11c1.43,0,2.86-2.86,5.48-3.33s4.29,1.19,6.67.95,2.62-1.91,5.96-2.38,5.71,1.43,8.33.23,4.29-5.71,9.53-5a12.478,12.478,0,0,1,4.36,1.71Z" fill="#263238" data-name="Path 4604"/>
<path d="m435.67 279.51s-7.384-7.623-12.625-8.337-6.908 3.811-9.528 5-5-0.715-8.337-0.238-3.573 2.144-5.955 2.382-4.049-1.429-6.67-0.953-4.049 3.335-5.478 3.335-3.812-1.668-6.432-1.668-6.669 2.382-6.669 2.382l-16.2 1.906h90.04a14.056 14.056 0 0 0-5-3.335c-3.097-1.189-4.288-0.474-7.146-0.474z" fill="#fff" data-name="Path 4605"/>
</g>
<g data-name="Group 4680">
<path d="m299.07 298.09h-85.28l6.48-14.51a10.115 10.115 0 0 0 5.45-0.77c5.61-2.54 9.17-12.22 20.38-10.69s26.99 17.82 26.99 17.82c6.11 0 8.66-1.52 15.28 1.02a30.18 30.18 0 0 1 10.7 7.13z" fill="#263238" data-name="Path 4606"/>
<path d="m276.71 286.84s-15.79-16.3-26.995-17.827-14.771 8.15-20.374 10.7-10.7-1.528-17.828-0.51-7.64 4.584-12.733 5.094-8.659-3.056-14.262-2.038-8.659 7.131-11.715 7.131-8.15-3.565-13.753-3.565-14.261 5.093-14.261 5.093l-34.636 4.075h192.53a30.078 30.078 0 0 0-10.7-7.131c-6.618-2.55-9.165-1.022-15.277-1.022z" fill="#fff" data-name="Path 4607"/>
</g>
<path d="m231.18 111.43s-15.79-16.3-27-17.827-14.771 8.149-20.374 10.7-10.7-1.528-17.827-0.509-7.64 4.584-12.734 5.093-8.659-3.056-14.262-2.037-8.659 7.131-11.715 7.131-8.149-3.566-13.752-3.566-14.262 5.094-14.262 5.094l-34.632 4.07h192.54a30.076 30.076 0 0 0-10.7-7.131c-6.618-2.549-9.165-1.018-15.277-1.018z" fill="#fff" data-name="Path 4608"/>
<path d="m442.54 433.88s-22.71-23.443-38.828-25.641-21.246 11.721-29.3 15.385-15.385-2.2-25.642-0.733-10.989 6.593-18.315 7.326-12.454-4.4-20.513-2.93-12.454 10.256-16.85 10.256-11.722-5.128-19.781-5.128-20.513 7.326-20.513 7.326l-49.821 5.857h276.92a43.251 43.251 0 0 0-15.385-10.257c-9.521-3.659-13.184-1.461-21.976-1.461z" fill="#fff" data-name="Path 4609"/>
</g>
<g data-name="Group 4685">
<g data-name="Group 4684">
<line transform="translate(340.66 72.694)" y1="41.017" fill="none" stroke="#263238" stroke-linecap="round" stroke-linejoin="round" data-name="Line 117"/>
<g data-name="Group 4683">
<g stroke="#263238" data-name="Group 4681">
<path d="M366.8,106.76V99.166a10.789,10.789,0,0,1,3.887,3.6,4.6,4.6,0,0,1,.4.97A3.807,3.807,0,0,0,366.8,106.76Z" fill="#263238" stroke-linecap="round" stroke-linejoin="round" data-name="Path 4610"/>
<path d="m350.4 77.243c-5.917 0.219-9.054-2.093-9.777-2.7v11.3l0.19 13.1c1.766 2.775 14.128 2.775 21.192 2.775s9.082 2.019 9.082 2.019v-24.728c-3.787-3.532-13.873-2.018-20.687-1.766z" fill="#41ba03" stroke-miterlimit="10" data-name="Path 4611"/>
<path transform="translate(0 -.099)" d="m371.09 80.088a6.068 6.068 0 0 0-3.538-1.2c-4.374 0-7.92 5.039-7.92 11.254s3.546 11.254 7.92 11.254a6.061 6.061 0 0 0 3.538-1.2z" fill="#fff" stroke-linecap="round" stroke-linejoin="round" data-name="Path 4612"/>
<path d="m371.09 103.73s-4.412-0.337-4.288 3.027c0.058 1.592 2.018 2.775 9.082 2.27s17.941 1.088 17.941 1.088l-6.812-12.11 10.088-4.037a40.366 40.366 0 0 0-12.138-6.132 43.655 43.655 0 0 0-13.907-1.884z" fill="#41ba03" stroke-miterlimit="10" data-name="Path 4613"/>
</g>
</g>
</g>
<line transform="translate(360.59 44.541)" y2="12.866" fill="none" stroke="#263238" stroke-linecap="round" stroke-linejoin="round" data-name="Line 118"/>
<line transform="translate(360.59 120.51)" y2="12.866" fill="none" stroke="#263238" stroke-linecap="round" stroke-linejoin="round" data-name="Line 119"/>
<line transform="translate(312.8 62.308)" x2="14.704" y2="11.641" fill="none" stroke="#263238" stroke-linecap="round" stroke-linejoin="round" data-name="Line 120"/>
<line transform="translate(391.22 62.308)" x1="14.704" y2="11.641" fill="none" stroke="#263238" stroke-linecap="round" stroke-linejoin="round" data-name="Line 121"/>
<line transform="translate(391.22 117.24)" x1="14.704" y1="11.641" fill="none" stroke="#263238" stroke-linecap="round" stroke-linejoin="round" data-name="Line 122"/>
<line transform="translate(312.19 117.24)" x2="14.704" y1="11.641" fill="none" stroke="#263238" stroke-linecap="round" stroke-linejoin="round" data-name="Line 123"/>
<line transform="translate(301.77 95.392)" x1="19.605" fill="none" stroke="#263238" stroke-linecap="round" stroke-linejoin="round" data-name="Line 124"/>
<line transform="translate(402.25 95.392)" x1="19.605" fill="none" stroke="#263238" stroke-linecap="round" stroke-linejoin="round" data-name="Line 125"/>
</g>
<g fill="#fff" stroke="#263238" stroke-linecap="round" stroke-linejoin="round" data-name="Group 4687">
<path d="m155.83 470.29 7.23-16.765s2.893-7.522 4.629-9.836a60.058 60.058 0 0 0 4.05-6.944l9.259-13.887 9.259-28.353-25.691 8.563-19.749 15.191-26.966 13.293-93.428 18.989" data-name="Path 4615"/>
<g data-name="Group 4686">
<path d="m25.347 379.46h113.99l50.92 15.044-5.208 8.1-10.415 3.472-11.573 2.893-9.261 13.31-7.522 6.365-24.881 4.05-98.943 21.989" data-name="Path 4616"/>
<path d="m163.06 408.97 1.157 21.409-6.365 12.151-4.629 7.522-12.584 20.237" data-name="Path 4617"/>
<path d="m146.28 428.64-1.736 17.938-8.679 5.208-11.573 6.944" data-name="Path 4618"/>
</g>
</g>
<g data-name="Group 4699">
<path d="m131.71 403.64c0 3.484-18.783 6.309-41.953 6.309s-41.956-2.825-41.956-6.309 18.783-6.309 41.954-6.309 41.955 2.824 41.955 6.309z" opacity=".21" data-name="Path 4619"/>
<g data-name="Group 4698">
<g fill="#fff" stroke="#263238" stroke-miterlimit="10" data-name="Group 4688">
<path d="M155.088,170.752s2.662-2.178,4.235-3.267,4.356-4.113,4.6-5.323,1.573-8.47,1.573-8.47a9.684,9.684,0,0,0-2.783.242c-1.815.363-3.388.847-3.388.847l-4.84,5.808Z" data-name="Path 4620"/>
<path d="m161.62 154.18s-0.363 2.057 0.363 2.662 4.84 0.726 5.445-0.484 0.726-3.267 0-3.267-5.808 1.089-5.808 1.089z" data-name="Path 4621"/>
<path d="m164.65 157.81s-5.687 0.242-5.929 0.968-0.6 2.178-0.242 2.42 6.292 0.242 6.9-0.484 1.449-3.63-0.729-2.904z" data-name="Path 4622"/>
<path d="m164.28 161.07s-5.687 0.242-5.929 0.968-0.6 2.177-0.242 2.42 6.292 0.242 6.9-0.485 1.449-3.629-0.729-2.903z" data-name="Path 4623"/>
<path d="M162.616,164.19s-4.3.183-4.479.732-.457,1.645-.183,1.827,4.753.183,5.21-.365S164.261,163.642,162.616,164.19Z" data-name="Path 4624"/>
</g>
<g data-name="Group 4692">
<g data-name="Group 4689">
<path d="M187.875,149.632l-39.007,5.886a4.346,4.346,0,0,1-.482.037c-.12,0-.249-.009-.37-.019a3.245,3.245,0,0,1-.111-6.432l37.416-5.636,1.591-.24a3.238,3.238,0,1,1,.963,6.4Z" fill="#fff" stroke="#263238" stroke-miterlimit="10" data-name="Path 4625"/>
</g>
<g data-name="Group 4690">
<path d="m185.1 149.94-37.083 5.6a3.245 3.245 0 0 1-0.111-6.432l37.416-5.636a3.291 3.291 0 0 1-0.222 6.469z" fill="#b5b5b5" stroke="#263238" stroke-miterlimit="10" data-name="Path 4626"/>
</g>
<g data-name="Group 4691">
<path d="m121.57 158.67a2.314 2.314 0 0 1-0.342-4.6l26.818-4.043a2.314 2.314 0 0 1 0.689 4.576l-26.818 4.042a2.274 2.274 0 0 1-0.347 0.025z" fill="#b5b5b5" stroke="#263238" stroke-miterlimit="10" data-name="Path 4627"/>
</g>
</g>
<path d="M148.312,172.446s3.146-10.647,3.388-12.583,2.42-3.63,2.42-3.63,3.993-3.267,4.961-4.961,1.815.363,1.815,1.815-4.719,5.929-4.719,5.929a40.93,40.93,0,0,1,.847,6.049,12.584,12.584,0,0,1-1.573,4.84l-2.3,6.655Z" fill="#fff" stroke="#263238" stroke-miterlimit="10" data-name="Path 4628"/>
<g stroke="#263238" stroke-miterlimit="10" data-name="Group 4693">
<path d="m147.1 170.87 9.075 6.655-3.267 5.566-8.349-7.018z" fill="#fff" data-name="Path 4629"/>
<path d="m144.8 174.87 11.253 9.075s-23.6 34.848-25.047 35.816a15.672 15.672 0 0 1-4.235 1.573l-5.566-17.182z" fill="#41ba03" data-name="Path 4630"/>
</g>
<path d="M112.376,179.1l5.566,3.509h-2.9l-1.452,1.331-2.662-.242-.968-3.146Z" fill="#fff" stroke="#263238" stroke-linecap="round" stroke-linejoin="round" data-name="Path 4631"/>
<g stroke="#263238" stroke-linecap="round" stroke-linejoin="round" data-name="Group 4694">
<path d="m119.39 142.8s3.387 8.47 2.9 9.317-1.21 2.178-0.968 3.025 3.63 4.961 3.267 5.687a42.458 42.458 0 0 1-2.662 3.509s-1.21 5.444-0.968 5.928 1.331 1.815 0.6 3.146-2.661 1.573-3.871 1.573a22.24 22.24 0 0 1-2.783-0.242l-3.509 6.655-19.723-7.5 3.025-6.655a18.1 18.1 0 0 1-0.6-11.01c1.573-6.171 13.431-13.31 18.392-14.036s6.9 0.603 6.9 0.603z" fill="#fff" data-name="Path 4632"/>
<path d="M114.8,144.375s3.146,4.114,2.541,5.324a28.069,28.069,0,0,1-3.63,4.114s.968,4.235.484,4.719a2.806,2.806,0,0,1-2.3.6c-.484-.242-3.509-6.05-5.445-4.719s-2.3,4.477-1.452,6.292a17.121,17.121,0,0,0,1.573,2.783s-4.84,4.477-7.5,4.96-4.719.727-5.445-.362S88.418,157.2,88.3,150.3s4.477-12.705,7.26-14.036,8.107-1.452,8.107-1.452.363-3.146,4.114-3.025,7.623,3.146,7.623,3.146-1.21-4.356,1.694-1.815,4.96,3.993,4.355,7.986S114.8,144.375,114.8,144.375Z" fill="#263238" data-name="Path 4633"/>
<path d="m106.57 163.49 2.662 0.726 1.089 2.178" fill="none" data-name="Path 4634"/>
<path d="M117.7,174.987a19.171,19.171,0,0,1-2.42-1.452c-.968-.726-3.146-2.3-3.146-2.3l1.21,5.808,1.573-2.3Z" fill="#263238" data-name="Path 4635"/>
</g>
<path d="m86.966 172.08-1.089 5.082 23.958 6.655 11.616 10.043-9.317-11.132-1.452-3.509z" fill="#fff" stroke="#263238" stroke-linecap="round" stroke-linejoin="round" data-name="Path 4636"/>
<path d="m113.59 183.94s6.718 2.319 11.836 16.186 19.488 69.1 19.488 69.1l-7.932 2.049a324.34 324.34 0 0 0-9.74-39.457c-6.273-19.31-13.652-47.878-13.652-47.878z" fill="#41ba03" stroke="#263238" stroke-linecap="round" stroke-linejoin="round" data-name="Path 4637"/>
<g stroke-linecap="round" stroke-linejoin="round" data-name="Group 4695">
<path d="M138.134,266.328s-2.711,29.341-3.852,43.4S121.931,361.8,120.6,366.93s-1.9,20.9-1.9,20.9l1.9,1.33v1.52l6.461,4.181s9.5,3.42,7.411,5.51-5.89,1.331-11.211,1.331-11.022-1.9-12.732-1.9a24.4,24.4,0,0,1-4.181-.19c-.76-.19-2.47.57-2.47-1.14a81.266,81.266,0,0,0-1.33-8.171s-1.521-2.281-1.521-3.8.38-6.651,1.14-8.551,1.9-9.5,1.9-9.5l1.14-19.954L98.557,362.94l-5.7,23.943s2.851.951,2.851,1.711-.571,4.18-.571,4.18,3.611,3.611,5.321,4.941a109.755,109.755,0,0,0,10.452,5.891c.57.19,3.04,2.28,1.52,3.23s-9.121,1.521-15.2,1.521S83.355,405.7,83.355,405.7l-1.711,1.14s-5.511-1.33-6.271-1.52-1.14-3.61-.95-4.941a22.579,22.579,0,0,0,0-3.61c0-.76-.57-4.751-.19-6.081s1.71-4.941,1.71-4.941,2.851-30.785,3.611-35.535,5.891-15.2,5.891-15.2,2.66-18.623,3.04-22.233.571-17.293.571-17.293a96.8,96.8,0,0,1-4.371-14.252c-1.14-6.081-.19-7.411-.19-7.411l2.47-9.5Z" fill="#263238" stroke="#263238" data-name="Path 4638"/>
<path d="m108.91 343.51s5.788-19.295 6.753-25.083 7.4-27.657 7.4-27.657l6.11-4.18" fill="none" stroke="#8c8c8c" data-name="Path 4639"/>
<path d="m86.717 340.62s13.829-8.361 21.868-22.832" fill="none" stroke="#8c8c8c" data-name="Path 4640"/>
<path d="m110.52 309.1s-8.361 12.863-14.15 18.009" fill="none" stroke="#8c8c8c" data-name="Path 4641"/>
</g>
<path d="M125.2,203.18s9.8,46.639,11.117,52.913,1.816,10.235,1.816,10.235a49.59,49.59,0,0,1-6.108.826c-1.816,0-5.778-.165-5.778-.165L120.3,200.623Z" fill="#fff" stroke="#263238" stroke-linecap="round" stroke-linejoin="round" data-name="Path 4642"/>
<path d="M82.973,175.35v5.082s-5.566,22.264-4.84,29.282,7.623,29.523,7.623,29.523-1.694,2.783-1.815,3.146a18.182,18.182,0,0,0,.6,3.146l-6.171,30.492s23.6,4.961,39.083,3.63,16.576-2.178,16.576-2.178-2.057-28.8-1.936-35.574-5.566-35.452-6.9-38.719-3.751-9.317-3.751-9.317L109.835,183.82Z" fill="#41ba03" stroke="#263238" stroke-linecap="round" stroke-linejoin="round" data-name="Path 4643"/>
<g stroke="#263238" stroke-linecap="round" stroke-linejoin="round" data-name="Group 4697">
<g fill="none" data-name="Group 4696">
<path d="m100.88 211.65s-12.826 11.616-14.641 12.342" data-name="Path 4644"/>
<path d="m104.63 211.29s-3.63 5.929-5.2 8.591" data-name="Path 4645"/>
<line transform="translate(99.187 220.48)" x1="3.872" y2="7.381" data-name="Line 126"/>
</g>
<path d="M126.532,167s.363-8.591.726-10.043a83.214,83.214,0,0,1,3.509-7.623s1.936-1.573,2.783-.968.726,2.057.726,2.057,1.452-2.057,2.3-1.815,1.694,1.936,1.694,1.936a5.493,5.493,0,0,1,2.662-.121c.968.363,1.694.121,1.452,1.21s-2.662,7.018-2.662,7.018,5.082-1.936,5.082-.968-.847,1.331-1.936,2.057-5.082,2.783-5.082,2.783l-3.025,3.025-.484,2.783Z" fill="#fff" data-name="Path 4646"/>
<path d="m127.02 171.48-0.484-4.478a10.5 10.5 0 0 1 3.509-0.485 35.086 35.086 0 0 1 5.445 1.332l0.242 4.6z" fill="#fff" data-name="Path 4647"/>
<path d="M85.877,189.87s4.84-1.331,6.292-1.452,32.669,2.783,32.669,2.783l1.573-21.3a8.477,8.477,0,0,1,3.509.121c1.694.484,8.833,2.541,8.833,2.541s.484,22.022.484,26.983v8.107a19.346,19.346,0,0,1-2.9.847c-1.331.242-34.363,3.025-40.413,3.025s-12.463.484-13.915-5.687" fill="#41ba03" data-name="Path 4648"/>
</g>
</g>
</g>
<g transform="translate(363.98 85.541)" data-name="Group 2808">
<g data-name="Group 2806">
<path transform="translate(-106.8 -154.78)" d="m106.8 158.33 2.8-3.548 2.8 3.5z" fill="#41ba03" data-name="Path 3292"/>
</g>
<g transform="translate(1.546 2.954)" data-name="Group 2807">
<path transform="translate(-110.85 -162.53)" d="M113.481,169.612l-2.547.02-.081-7.083,2.547-.02Z" fill="#41ba03" data-name="Path 3293"/>
</g>
</g>
</g>
</svg>
