<?xml version="1.0" encoding="UTF-8"?>
<svg data-name="Delivery truck middle" viewBox="0 0 81.487 26.357" xmlns="http://www.w3.org/2000/svg">
<path transform="translate(-1.786 -29)" d="M82.623,42.267l-5.192-5.6a5.644,5.644,0,0,0-4.082-1.506H65.862l1.385-4.108a1.3,1.3,0,0,0-.546-1.428A3.366,3.366,0,0,0,64.645,29h-36.9a2.629,2.629,0,0,0-2.58,1.369l-.56,1.657c-.064.189.12.376.412.418a.59.59,0,0,0,.645-.267l.56-1.664a1.575,1.575,0,0,1,1.523-.828h36.9a2.005,2.005,0,0,1,1.232.384.775.775,0,0,1,.312.862l-1.481,4.388a.336.336,0,0,0-.074.11L59.464,50.907H35.035a2.68,2.68,0,0,0-.18-.637V50.2a2.791,2.791,0,0,0-.338-.568l-.127-.089a4.435,4.435,0,0,0-.486-.507l-.1-.075a4.589,4.589,0,0,0-.613-.438l-.106-.062a5.533,5.533,0,0,0-.73-.363l-.116-.048a8.138,8.138,0,0,0-.846-.274h-.106a8.154,8.154,0,0,0-.941-.178h-.074a8.2,8.2,0,0,0-2.115,0h-.074a8.155,8.155,0,0,0-.941.178H27.04a8.137,8.137,0,0,0-.846.274l-.116.048a5.532,5.532,0,0,0-.73.363l-.106.062a4.588,4.588,0,0,0-.613.438l-.1.075a4.434,4.434,0,0,0-.486.507l-.063.082a2.789,2.789,0,0,0-.338.568v.075a2.809,2.809,0,0,0-.243.644H19.373l1.914-3.656a.25.25,0,0,0-.066-.363.712.712,0,0,0-.534-.118.47.47,0,0,0-.394.262l-1.322,2.506H18.58a2.243,2.243,0,0,0-2.009.938L16,51.592h7.4c0,2.08,2.6,3.765,5.816,3.765s5.816-1.686,5.816-3.765H63.588c0,2.08,2.6,3.765,5.816,3.765s5.816-1.686,5.816-3.765h6.345l.127-.253c.358-.708-.225-1.472-1.311-1.718l2.6-4.744A2.146,2.146,0,0,0,82.623,42.267ZM29.219,54.33c-2.628,0-4.759-1.379-4.759-3.081s2.131-3.081,4.759-3.081,4.759,1.379,4.759,3.081S31.845,54.326,29.219,54.33Zm40.185,0c-2.628,0-4.759-1.379-4.759-3.081s2.131-3.081,4.759-3.081,4.759,1.379,4.759,3.081S72.03,54.326,69.4,54.33Zm12.584-9.687-3.437,6.264H75.221a2.679,2.679,0,0,0-.18-.637V50.2a2.989,2.989,0,0,0-.338-.568l-.127-.089a5.066,5.066,0,0,0-.486-.507l-.1-.075a4.589,4.589,0,0,0-.613-.438l-.106-.068a6.5,6.5,0,0,0-.73-.356l-.116-.048a6.779,6.779,0,0,0-.846-.274h-.106a8.154,8.154,0,0,0-.941-.178h-.074a8.12,8.12,0,0,0-2.115,0h-.074a8.155,8.155,0,0,0-.941.178h-.106a6.779,6.779,0,0,0-.846.274l-.116.048a6.494,6.494,0,0,0-.73.356l-.106.068a4.589,4.589,0,0,0-.613.438l-.1.075a5.065,5.065,0,0,0-.486.507l-.063.082a2.989,2.989,0,0,0-.338.568v.075a2.809,2.809,0,0,0-.243.644H60.521l5.087-15.061h7.72A4.377,4.377,0,0,1,76.5,37.017l5.161,5.6h0a1.684,1.684,0,0,1,.328,2.026Z" fill="#fff" data-name="Path 696"/>
<path transform="translate(.917 -32.785)" d="M72,41.863A3.111,3.111,0,0,0,69.7,41H65.644a.549.549,0,0,0-.508.246l-2.115,4.792a.264.264,0,0,0,.085.3.646.646,0,0,0,.423.137h7.984a3.107,3.107,0,0,0,2.295-.856,1.2,1.2,0,0,0,0-1.7Zm.888,3.423a1.858,1.858,0,0,1-1.375.513H64.227l1.819-4.108H69.7a1.835,1.835,0,0,1,1.375.52L72.9,44.266a.725.725,0,0,1-.011,1.013Z" fill="#fff" data-name="Path 697"/>
<path transform="translate(-1.211 -38.462)" d="M28.644,59C27.184,59,26,59.766,26,60.711s1.184,1.711,2.644,1.711,2.644-.766,2.644-1.711S30.1,59,28.644,59Zm0,2.738c-.876,0-1.586-.46-1.586-1.027s.71-1.027,1.586-1.027,1.586.46,1.586,1.027S29.52,61.738,28.644,61.738Z" fill="#fff" data-name="Path 698"/>
<path transform="translate(.975 -38.462)" d="M66.644,59C65.184,59,64,59.766,64,60.711s1.184,1.711,2.644,1.711,2.644-.766,2.644-1.711S68.1,59,66.644,59Zm0,2.738c-.876,0-1.586-.46-1.586-1.027s.71-1.027,1.586-1.027,1.586.46,1.586,1.027S67.52,61.738,66.644,61.738Z" fill="#fff" data-name="Path 699"/>
<path transform="translate(-16.332 -31.208)" d="M19.668,37.369h36.7c.921,0,1.668-.307,1.668-.685S57.294,36,56.373,36h-36.7c-.921,0-1.668.307-1.668.685S18.747,37.369,19.668,37.369Z" fill="#fff" data-name="Path 700"/>
<path transform="translate(-15.663 -34.362)" d="M50.7,46.685c0-.378-.747-.685-1.668-.685H20.668c-.921,0-1.668.307-1.668.685s.747.685,1.668.685H49.031C49.952,47.369,50.7,47.063,50.7,46.685Z" fill="#fff" data-name="Path 701"/>
<path transform="translate(-14.995 -32.785)" d="M53.368,41.685c0-.378-.747-.685-1.668-.685H21.668c-.921,0-1.668.307-1.668.685s.747.685,1.668.685H51.7C52.621,42.369,53.368,42.063,53.368,41.685Z" fill="#fff" data-name="Path 702"/>
<ellipse transform="translate(0 8.215)" cx="1.668" cy=".685" rx="1.668" ry=".685" fill="#fff" data-name="Ellipse 14"/>
<path transform="translate(-14.326 -35.939)" d="M22.668,51c-.921,0-1.668.307-1.668.685s.747.685,1.668.685H44.357c.921,0,1.668-.307,1.668-.685S45.279,51,44.357,51Z" fill="#fff" data-name="Path 703"/>
<ellipse transform="translate(1.668 15.061)" cx="1.668" cy=".685" rx="1.668" ry=".685" fill="#fff" data-name="Ellipse 15"/>
</svg>
