<?xml version="1.0" encoding="UTF-8"?>
<svg viewBox="0 0 50.392 42.529" xmlns="http://www.w3.org/2000/svg">
<g transform="translate(-254.45 -448.81)" data-name="Group 5316">
<path transform="translate(-314.23)" d="M603.213,473.492c.787-.231,1.1-3.062,1.616-4.751a13.112,13.112,0,0,1,1.751-4.031c.924-1.235,2.225-2.367,3.821-1.982,1.367.33,1.289,1.623-.163,4.964s-2.011,10.475-2.93,13.489-2.495,7.315-6.3,8.99c-6.033,2.654-13.322.924-16.451-6.607a103.567,103.567,0,0,0-6.364-14.331c-2.083-3.7-3.933-7.718-2.536-8.774,1.773-1.34,3.477,1.705,6.315,6.646,1.184,2.061,2.947,4.367,3.21,4.287s-1.112-3.677-2.1-6.327-3.014-7.728-3.151-9.49a1.818,1.818,0,0,1,3.408-.994c1.624,2.59,2.848,6.181,4,8.832s2.575,5.557,2.912,5.328c.373-.254-.624-4.019-1.562-7.889-.838-3.457-1.952-7.633-1.852-10.106a1.875,1.875,0,0,1,3.6-.8c.9,1.8,2.331,6.959,3.32,10.958.653,2.643,1.41,6.654,1.982,6.643s.14-4.272-.048-7.329-.388-7.406.169-9.161,2.72-2.279,3.491.053.972,7.228,1.229,10.7a48.005,48.005,0,0,0,1.208,8.766C602.426,472.837,602.652,473.656,603.213,473.492Z" fill="#f2ccb7" data-name="Path 5075"/>
<g transform="translate(296.78 458.27)" data-name="Group 5312">
<path transform="translate(-2346.6 -916.59)" d="m2349.9 925.35a12.23 12.23 0 0 0 0.431-3.564 6.232 6.232 0 0 0-3.725-5.2s3.269 0.708 4.166 3.2a6.557 6.557 0 0 1-0.872 5.564z" fill="#f2ccb7" data-name="Path 5076"/>
</g>
<g transform="translate(298.11 454.91)" data-name="Group 5313">
<path transform="translate(-2412.5 -750.4)" d="m2417.5 763.58a18.4 18.4 0 0 0 0.649-5.362 9.378 9.378 0 0 0-5.6-7.818s4.917 1.065 6.267 4.812c1.568 4.368-1.316 8.368-1.316 8.368z" fill="#f2ccb7" data-name="Path 5077"/>
</g>
<g transform="translate(258.05 469.8)" data-name="Group 5314">
<path transform="translate(-432.33 -1486.4)" d="m433.47 1486.4a12.228 12.228 0 0 0-0.432 3.564 8.915 8.915 0 0 0 2.99 5.891 5.548 5.548 0 0 1-3.43-3.893 6.979 6.979 0 0 1 0.872-5.562z" fill="#f2ccb7" data-name="Path 5078"/>
</g>
<g transform="translate(254.45 468.74)" data-name="Group 5315">
<path transform="translate(-254.45 -1434.1)" d="m256.19 1434.1a18.4 18.4 0 0 0-0.649 5.362 11.505 11.505 0 0 0 4.7 8.244 8.125 8.125 0 0 1-5.361-5.238c-1.475-4.403 1.31-8.368 1.31-8.368z" fill="#f2ccb7" data-name="Path 5079"/>
</g>
</g>
</svg>
