<?xml version="1.0" encoding="utf-8"?>
<!-- Generator: Adobe Illustrator 24.0.1, SVG Export Plug-In . SVG Version: 6.00 Build 0)  -->
<svg version="1.1" id="Layer_1" xmlns="http://www.w3.org/2000/svg" xmlns:xlink="http://www.w3.org/1999/xlink" x="0px" y="0px"
	 viewBox="0 0 1906.8 254.7" style="enable-background:new 0 0 1906.8 254.7;" xml:space="preserve">
<style type="text/css">
	.st0{opacity:0.25;fill:#FFFFFF;enable-background:new    ;}
	.st1{opacity:0.15;fill:#FFFFFF;enable-background:new    ;}
	.st2{opacity:0.2;fill:#FFFFFF;enable-background:new    ;}
</style>
<g transform="translate(150.74 17.409)">
	<g id="cloud">
		<path class="st0" d="M183,200.1c14.2-3.3,24.4-14.1,23-24.1c-1.3-9.5-13-18.2-26.2-15.3c-3.8-4.8-13.2-15.2-28.4-18.6
			c-3.6-0.8-7.3-1.2-10.9-1.1c-4.5-5.8-17.2-20.5-35-23c-6.5-0.9-10.2,0.3-12,1.1c-10.8,4.5-13.8,17.5-14.2,19.7
			c-2.4,1.6-13.8,9.5-16.4,24.1c-0.9,5.5-0.6,11.1,1.1,16.4c3.1,5.3,6.9,10.1,11.3,14.4c3.6,3.4,8.2,5.4,13.1,5.7
			C110.5,200.6,178.7,202.3,183,200.1L183,200.1z"/>
		<path class="st0" d="M1480.1,236.2c14.2-3.3,24.4-14.1,23-24.1c-1.3-9.5-13-18.2-26.2-15.3c-3.8-4.8-13.2-15.2-28.4-18.6
			c-3.6-0.8-7.3-1.2-10.9-1.1c-4.5-5.8-17.2-20.5-35-23c-6.5-0.9-10.2,0.3-12,1.1c-10.8,4.5-13.8,17.5-14.2,19.7
			c-2.4,1.6-13.8,9.5-16.4,24.1c-0.9,5.5-0.6,11.1,1.1,16.4c3.1,5.3,6.9,10.1,11.3,14.4c3.6,3.4,8.2,5.4,13.1,5.7
			C1407.6,236.6,1475.7,238.4,1480.1,236.2L1480.1,236.2z"/>
		<path class="st1" d="M392.6,33.1c7.3-1.7,12.5-7.2,11.8-12.3c-0.7-4.8-6.6-9.3-13.4-7.8c-3.6-4.7-8.8-8.1-14.6-9.5
			c-1.8-0.4-3.7-0.6-5.6-0.6c-2.3-3-8.8-10.5-17.9-11.8c-2.1-0.4-4.2-0.2-6.2,0.6c-5.5,2.3-7,9-7.3,10.1c-4.3,2.8-7.4,7.3-8.4,12.3
			c-0.5,2.8-0.3,5.7,0.6,8.4c1.6,2.7,3.5,5.2,5.8,7.4c1.8,1.7,4.2,2.8,6.7,2.9C355.5,33.3,390.4,34.2,392.6,33.1z"/>
		<path class="st1" d="M1283.9,33.1c7.3-1.7,12.5-7.2,11.8-12.3c-0.7-4.8-6.6-9.3-13.4-7.8c-3.6-4.7-8.8-8.1-14.6-9.5
			c-1.8-0.4-3.7-0.6-5.6-0.6c-2.3-3-8.8-10.5-17.9-11.8c-2.1-0.4-4.2-0.2-6.2,0.6c-5.5,2.3-7,9-7.3,10.1c-4.3,2.8-7.4,7.3-8.4,12.3
			c-0.5,2.8-0.3,5.7,0.6,8.4c1.6,2.7,3.5,5.2,5.8,7.4c1.8,1.7,4.2,2.8,6.7,2.9C1246.8,33.3,1281.7,34.2,1283.9,33.1z"/>
		<path class="st2" d="M849,51.3c-1.5-5.4-5.6-12.1-17.7-12.1c0,0-1.9-11.1-14.8-11.1c-3.8-9.2-14.4-13.6-23.6-9.7
			c-4.4,1.8-7.9,5.3-9.7,9.7c0,0-14.8,3.7-14.8,11.1c0,0-19.4,5.2-14.8,18.5c2,5.7,75.4,2.7,91.7,0C849,57.1,849.5,53.2,849,51.3
			L849,51.3z"/>
		<path class="st2" d="M1755.9,48.5c-2-7.2-7.6-16.3-23.8-16.3c0,0-2.5-15-19.9-15c-5.2-12.4-19.4-18.3-31.8-13.1
			c-5.9,2.5-10.6,7.2-13.1,13.1c0,0-19.9,5-19.9,15c0,0-26.2,7-19.9,24.9c2.7,7.7,101.5,3.6,123.4,0
			C1755.9,56.2,1756.5,51,1755.9,48.5L1755.9,48.5z"/>
		<path class="st2" d="M-64.6,13.4c-1.3-4.8-5-10.9-15.8-10.9c0,0-1.7-10-13.3-10c-3.4-8.2-12.9-12.1-21.1-8.7
			c-3.9,1.6-7.1,4.8-8.7,8.7c0,0-13.3,3.3-13.3,10c0,0-17.4,4.7-13.3,16.6c1.8,5.1,67.5,2.4,82.1,0C-64.6,18.6-64.2,15.1-64.6,13.4z
			"/>
	</g>
</g>
</svg>
