<?xml version="1.0" encoding="UTF-8"?>
<svg viewBox="0 0 33.4 28.133" xmlns="http://www.w3.org/2000/svg">
<g transform="translate(-282.5 -37.23)" fill="#fff" data-name="profes icon">
<g transform="translate(282.5 37.23)" fill-rule="evenodd" data-name="Group 950">
<path transform="translate(-283.36 -47.54)" d="M298.927,63.291a3.607,3.607,0,0,0,2.047,1.592c3.608,1.314,5.155,1.217,6.3,4.579a15.981,15.981,0,0,1-5.612,3.854H289.66a15.974,15.974,0,0,1-5.214-3.445c.092-5.81,6.5-2.434,8.008-6.58a5.755,5.755,0,0,0,.116-2.808l3.12.061,3.121-.061A5.648,5.648,0,0,0,298.927,63.291Z" data-name="Path 1549"/>
<path transform="translate(-289.32 -50.212)" d="M297.9,66.536l3.749.4,3.8-.426-.351,11.833h-6.8Z" data-name="Path 1551"/>
<path transform="translate(-288.08 -39.286)" d="M300.459,54.1l-.052,0a3.14,3.14,0,0,1-1.324-.155c-.341-.145-.506-.48-.974-.931-.4-.384-1.114-.775-1.289-1.193a7.2,7.2,0,0,1-.252-1.8c-.37.2-.765-.855-.844-1.2-.116-.512-.484-1.383-.6-1.968-.066-.335-.026-.6.087-.685.247-.184.5-.076.873.445a9.809,9.809,0,0,1,.062-1.9c.51-2.927,7.665-4.569,8.466-.013a9.857,9.857,0,0,1,.066,1.9c.369-.513.622-.618.867-.435.112.083.153.35.086.685-.115.584-.484,1.456-.6,1.968-.077.343-.466,1.381-.832,1.208a6.813,6.813,0,0,1-.243,1.758c-.173.42-.883.816-1.279,1.2-.467.457-.631.792-.97.942A2.94,2.94,0,0,1,300.459,54.1Z" data-name="Path 1552"/>
<path transform="translate(-282.5 -50.178)" d="m291.07 66.434c-1.949 1.739-5.863 0.892-7.763 3.68-1.034 1.517-0.749 4.539-0.807 8.2h11.224c-0.827-3.096-1.939-9.764-2.654-11.88z" data-name="Path 1556"/>
<path transform="translate(-288.43 -37.23)" d="M297.475,41.925c-.607.726-.753,3.559-.711,4.542-1.025-3.721-1.577-6.378.65-8.051,2.922-2.2,6.2-.838,6.737.058,2.146,1.186,1.4,4.524.755,7.472a21.876,21.876,0,0,0-.975-4.992C302.3,39.926,299.05,42.976,297.475,41.925Z" data-name="Path 1560"/>
<path transform="translate(-293.15 -50.178)" d="m309.18 66.434c1.949 1.739 5.863 0.892 7.763 3.68 1.034 1.517 0.749 4.539 0.807 8.2h-11.224c0.828-3.096 1.94-9.764 2.654-11.88z" data-name="Path 1562"/>
</g>
<g transform="translate(303.7 50.039)" fill-rule="evenodd" data-name="Group 951">
<path transform="translate(-320.77 -60.242)" d="M322.574,66.42,321.4,72.2l-.419,1.248,3.053.565.451-2.024.77-3.409c.727-.49.935-1.4,1.553-2.094.5-.561.947-.823,1.086-1.456.071-.324.036-.754-.253-.908.3-.159.2-.456.154-.641-.051-.206-.093-.436-.423-.395a.452.452,0,0,0,.2-.514c-.042-.178-.148-.461-.308-.534a1.163,1.163,0,0,0-.47-.032l-.045-.2c.224-.217.647-.414.727-.679a.716.716,0,0,0-.96-.84l-1.447.476-1.829.408c-.359.538-.557,1.051-.948,1.667-.364.574-.082,1.011-.039,1.707A4.941,4.941,0,0,0,322.574,66.42Z" data-name="Path 1564"/>
<path transform="translate(-320.6 -66.714)" d="M320.6,82.037l.421-7.2,4.658.806-.29,6.392Z" data-name="Path 1566"/>
</g>
<g transform="translate(300.44 42.79)" data-name="Group 954">
<g transform="translate(2.948)" data-name="Group 952">
<path transform="translate(-320.38 -47.462)" d="M329.51,47.766c.065,3.28-.579,8.548-4.319,8.6s-4.428-5.3-4.363-8.6h8.683Z" fill-rule="evenodd" data-name="Path 1567"/>
<path transform="translate(-320.02 -47.22)" d="M320.531,47.22H329.1a.51.51,0,0,1,.509.509h0a.51.51,0,0,1-.509.509h-8.564a.51.51,0,0,1-.509-.509h0A.51.51,0,0,1,320.531,47.22Z" fill-rule="evenodd" data-name="Path 1568"/>
<rect transform="translate(.722 12.44)" width="8.138" height="4.657" rx=".688" data-name="Rectangle 125"/>
</g>
<g transform="translate(0 .542)" fill-rule="evenodd" data-name="Group 953">
<path transform="translate(-323.13 -48.193)" d="M335.244,50.281a1.357,1.357,0,0,1,0-1.081c1.078-2.019,3.882-.834,3.25,2.062a4.772,4.772,0,0,1-2.139,2.8c-.874.577-1.462.533-1.865.9-.311.286-.245.749.273.61a.317.317,0,1,1,.164.613,1.078,1.078,0,0,1-.8-.059,1,1,0,0,1-.071-1.63c.347-.319,1.12-.323,2.087-1a4.065,4.065,0,0,0,1.683-2.395C338.419,48.3,335.485,48.262,335.244,50.281Z" data-name="Path 1572"/>
<path transform="translate(-314.72 -48.193)" d="M318.07,50.281a1.357,1.357,0,0,0,0-1.081c-1.078-2.019-3.881-.834-3.25,2.062a4.769,4.769,0,0,0,2.139,2.8c.874.577,1.462.533,1.866.9.311.286.244.749-.273.61a.317.317,0,1,0-.164.613,1.077,1.077,0,0,0,.8-.059,1,1,0,0,0,.071-1.63c-.347-.319-1.119-.323-2.088-1a4.066,4.066,0,0,1-1.682-2.395C314.895,48.3,317.829,48.262,318.07,50.281Z" data-name="Path 1573"/>
</g>
</g>
</g>
</svg>
