<?xml version="1.0" encoding="UTF-8"?>
<svg data-name="fast icon" viewBox="0 0 55.667 21.812" xmlns="http://www.w3.org/2000/svg">
<g transform="translate(12.397)" fill="#fff" data-name="Group 947">
<path transform="translate(-479.02 -371.69)" d="m513.1 390.33a3.167 3.167 0 1 1-3.166-3.167 3.166 3.166 0 0 1 3.166 3.167zm-1.534 0a1.632 1.632 0 1 0-1.632 1.632 1.632 1.632 0 0 0 1.63-1.632z" data-name="Path 1544"/>
<path transform="translate(-580.36 -371.69)" d="m598.49 390.33a3.167 3.167 0 1 1-3.166-3.167 3.166 3.166 0 0 1 3.166 3.167zm-1.535 0a1.632 1.632 0 1 0-1.631 1.632 1.632 1.632 0 0 0 1.631-1.632z" data-name="Path 1545"/>
<path transform="translate(-610.2 -369.88)" d="m624.25 384.94h-10.264v3.581h7.476a3.7 3.7 0 0 1 2.788-3.581z" data-name="Path 1546"/>
<path transform="translate(-441.71 -309.76)" d="M484.983,326.646v1.719h-.946v.036h-7.729a3.678,3.678,0,1,0-7.356,0h-8.577a3.7,3.7,0,0,0-2.788-3.581h9.634V311.006h7.04l5,8.04h4.779v7.6Zm-14.7-6.5h-.819V322h.819Zm6.026-1.15-3.017-6.177h-3.828v6.177Z" data-name="Path 1547"/>
<rect transform="translate(0)" width="23.496" height="13.299" data-name="Rectangle 123"/>
</g>
<path transform="translate(-699.15 -304.31)" d="m704.59 306.16-5.438-0.629 10.539-1.219v8.533l-7.268-1.219 3.477-0.583-4.132-0.636 3.8-0.585-4.458-0.633 4.13-0.587-4.785-0.632 4.457-0.589-5.111-0.63z" fill="#fff" data-name="Path 1548"/>
</svg>
